<svg xmlns="http://www.w3.org/2000/svg" xmlns:xlink="http://www.w3.org/1999/xlink" width="428" height="926" viewBox="0 0 428 926">
  <defs>
    <clipPath id="clip-path">
      <rect id="Rectangle_673" data-name="Rectangle 673" width="83.656" height="369.035" fill="none"/>
    </clipPath>
    <clipPath id="clip-path-2">
      <rect id="Rectangle_678" data-name="Rectangle 678" width="139.757" height="308" fill="none"/>
    </clipPath>
    <clipPath id="clip-path-3">
      <rect id="Rectangle_668" data-name="Rectangle 668" width="195.832" height="178.443" fill="none"/>
    </clipPath>
    <linearGradient id="linear-gradient" x1="-1.622" y1="1.203" x2="0.875" y2="0.376" gradientUnits="objectBoundingBox">
      <stop offset="0" stop-color="#ca5b61"/>
      <stop offset="1" stop-color="#de8a4a"/>
    </linearGradient>
    <linearGradient id="linear-gradient-2" x1="-0.066" y1="0.716" x2="2.295" y2="-0.144" xlink:href="#linear-gradient"/>
    <linearGradient id="linear-gradient-3" x1="-0.089" y1="0.945" x2="8.519" y2="-5.557" xlink:href="#linear-gradient"/>
    <linearGradient id="linear-gradient-4" x1="-0.916" y1="1.569" x2="7.692" y2="-4.932" xlink:href="#linear-gradient"/>
    <linearGradient id="linear-gradient-5" x1="-0.745" y1="1.44" x2="7.863" y2="-5.061" xlink:href="#linear-gradient"/>
    <linearGradient id="linear-gradient-6" x1="-1.572" y1="2.065" x2="7.036" y2="-4.437" xlink:href="#linear-gradient"/>
    <linearGradient id="linear-gradient-7" x1="-1.733" y1="1.881" x2="0.373" y2="0.545" xlink:href="#linear-gradient"/>
    <linearGradient id="linear-gradient-8" x1="0.361" y1="0.856" x2="0.819" y2="0.117" xlink:href="#linear-gradient"/>
    <linearGradient id="linear-gradient-9" x1="-3.338" y1="3.656" x2="-0.442" y2="1.275" xlink:href="#linear-gradient"/>
    <clipPath id="clip-Splash_-_5">
      <rect width="428" height="926"/>
    </clipPath>
  </defs>
  <g id="Splash_-_5" data-name="Splash - 5" clip-path="url(#clip-Splash_-_5)">
    <rect width="428" height="926" fill="#fff"/>
    <g id="Groupe_1737" data-name="Groupe 1737" opacity="0.5">
      <g id="Groupe_1733" data-name="Groupe 1733" transform="translate(116.739 101.869)" opacity="0.05">
        <g id="Groupe_1732" data-name="Groupe 1732" transform="translate(229.518 126.613)" clip-path="url(#clip-path)">
          <g id="Groupe_1731" data-name="Groupe 1731" transform="translate(13.067 95.09)">
            <path id="Tracé_5230" data-name="Tracé 5230" d="M340.229,219.608l28.083,12.89,16.75,72.333,10.694-2.476L377.79,224.77l-53.3-24.463,17.473,75.452,10.695-2.477Z" transform="translate(-215.011 -200.307)" fill="#231f20"/>
            <path id="Tracé_5231" data-name="Tracé 5231" d="M251.646,260.279l22.243-24.187,12.591,54.373,10.694-2.476L279.89,213.35l-40.245,43.762,17.487,75.516,10.694-2.476Z" transform="translate(-239.645 -196.521)" fill="#231f20"/>
            <rect id="Rectangle_669" data-name="Rectangle 669" width="13.463" height="14.687" transform="matrix(0.974, -0.226, 0.226, 0.974, 91.41, 158.376)" fill="#231f20"/>
            <rect id="Rectangle_670" data-name="Rectangle 670" width="13.463" height="14.687" transform="matrix(0.974, -0.226, 0.226, 0.974, 109.621, 154.159)" fill="#231f20"/>
            <rect id="Rectangle_671" data-name="Rectangle 671" width="13.463" height="14.687" transform="matrix(0.974, -0.226, 0.226, 0.974, 87.348, 140.834)" fill="#231f20"/>
            <rect id="Rectangle_672" data-name="Rectangle 672" width="13.463" height="14.687" transform="matrix(0.974, -0.226, 0.226, 0.974, 105.559, 136.617)" fill="#231f20"/>
            <path id="Tracé_5232" data-name="Tracé 5232" d="M418.265,277.539l-4.829-20.854,25.516-5.909,7.164,30.937,10.694-2.476-9.641-41.631-46.9,10.862,8.615,37.2,55.11,21.411,3.975-10.232Z" transform="translate(-193.011 -189.479)" fill="#231f20"/>
            <path id="Tracé_5233" data-name="Tracé 5233" d="M500.466,329.513c-7.2,14.916-15.906,23.266-25.844,24.8-13.3,2.071-26.271-8.195-31.567-13.058l14.292-32.3-10.039-4.44-17.271,39.034,2.4,2.645a72.554,72.554,0,0,0,16.208,12.751L400.5,370.1,384.734,302l29.555,11.721,4.048-10.2L326.913,267.26,254.78,341.284l7.862,7.661,26.692-27.391,16.328,70.5-23.172,5.365-5.734-24.761-10.694,2.476,8.212,35.456,44.559-10.319L298.438,312.21l31.23-32.049,42.658,16.918,19.959,86.188,76.751-17.773a34.437,34.437,0,0,0,7.217-.321q1.252-.193,2.479-.479c13.1-3.034,24.025-13.874,32.494-32.266l.786-1.7-4.625-19.973-10.694,2.477Z" transform="translate(-235.251 -180.869)" fill="#231f20"/>
            <path id="Tracé_5234" data-name="Tracé 5234" d="M421.155,240.2a20.043,20.043,0,1,0-24.013-15.013A20.049,20.049,0,0,0,421.155,240.2Zm-7.689-33.205a14.04,14.04,0,1,1-10.479,16.839A14.04,14.04,0,0,1,413.466,206.993Z" transform="translate(-194.069 -200.214)" fill="#231f20"/>
          </g>
        </g>
      </g>
      <g id="Groupe_1736" data-name="Groupe 1736" transform="translate(1.615 49.492)" opacity="0.06">
        <g id="Groupe_1735" data-name="Groupe 1735" transform="translate(0 89.508)" clip-path="url(#clip-path-2)">
          <g id="Groupe_1734" data-name="Groupe 1734" transform="translate(-218.324 24.546)">
            <path id="Tracé_5235" data-name="Tracé 5235" d="M-13.629,146.514,8.985,173.307-8.733,255.666l12.176,2.62,19-88.338L-20.471,119.1l-18.482,85.91,12.177,2.62Z" transform="translate(203.716 -102.957)" fill="#231f20"/>
            <path id="Tracé_5236" data-name="Tracé 5236" d="M-112.7,141.913l34.516-14.1-13.319,61.91,12.176,2.62,18.283-84.985-62.45,25.508-18.5,85.983,12.176,2.62Z" transform="translate(165.076 -107.36)" fill="#231f20"/>
            <rect id="Rectangle_674" data-name="Rectangle 674" width="16.664" height="15.276" transform="translate(84.732 186.333) rotate(-77.859)" fill="#231f20"/>
            <rect id="Rectangle_675" data-name="Rectangle 675" width="16.664" height="15.276" transform="translate(105.467 190.794) rotate(-77.859)" fill="#231f20"/>
            <rect id="Rectangle_676" data-name="Rectangle 676" width="16.664" height="15.276" transform="translate(89.029 166.359) rotate(-77.859)" fill="#231f20"/>
            <rect id="Rectangle_677" data-name="Rectangle 677" width="16.664" height="15.276" transform="translate(109.764 170.82) rotate(-77.859)" fill="#231f20"/>
            <path id="Tracé_5237" data-name="Tracé 5237" d="M33.727,236.018l5.108-23.744,29.052,6.25L60.31,253.749l12.176,2.62,10.2-47.4-53.4-11.489-9.113,42.358,46.251,48.589,9.021-8.588Z" transform="translate(225.886 -73.565)" fill="#231f20"/>
            <path id="Tracé_5238" data-name="Tracé 5238" d="M112.619,325.062c-14.6,11.839-27.563,16.211-38.51,12.991-14.653-4.293-23.02-21.1-26.11-28.647l30.267-26.267L70.1,273.733,33.525,305.477l1.188,3.873A82.338,82.338,0,0,0,45.2,330.269L-9.614,318.477l16.68-77.535,24.691,26.3,9.082-8.522-76.373-81.363-109.8,41.187,4.374,11.663,40.631-15.242-17.27,80.278-26.384-5.676,6.065-28.2-12.176-2.619-8.686,40.371,50.736,10.915,21.572-100.272,47.539-17.832L-3.3,229.9-24.41,328.033l87.391,18.8a38.924,38.924,0,0,0,7.564,3.154q1.38.406,2.776.705c14.917,3.209,31.367-2.648,48.942-17.445l1.631-1.371,4.892-22.741-12.177-2.619Z" transform="translate(158.781 -81.11)" fill="#231f20"/>
            <path id="Tracé_5239" data-name="Tracé 5239" d="M53.164,202.514a22.742,22.742,0,1,0-17.41-27.008A22.748,22.748,0,0,0,53.164,202.514ZM61.3,164.706a15.931,15.931,0,1,1-18.888,12.232A15.93,15.93,0,0,1,61.3,164.706Z" transform="translate(231.54 -88.543)" fill="#231f20"/>
          </g>
        </g>
      </g>
    </g>
    <g id="Groupe_1728" data-name="Groupe 1728" transform="translate(85 280.373)">
      <g id="Groupe_1725" data-name="Groupe 1725" transform="translate(0 5.089)">
        <path id="Tracé_5162" data-name="Tracé 5162" d="M185.1,461.251S82,453.665,69.6,403.25s15.08-57.276,24.463-85.515-33.177-44.892-4.691-83.313,70.492-39.092,88.194-21,38.108-11.06,70.967,5.361,40.9,49.6,30.512,75.517,32.21,50.7,37.553,80.082S273.717,474.2,185.1,461.251Z" transform="translate(-66.438 -201.934)" fill="#faece2"/>
        <g id="Groupe_1724" data-name="Groupe 1724" transform="translate(22.615 46.821)">
          <g id="Groupe_1723" data-name="Groupe 1723" clip-path="url(#clip-path-3)">
            <g id="Groupe_1722" data-name="Groupe 1722" transform="translate(8.173 12.059)">
              <path id="Tracé_5163" data-name="Tracé 5163" d="M96.3,404h45.71l3.792-10.21a14.433,14.433,0,0,1,7.605-8.113,36.339,36.339,0,0,0,12.086-9.065,83.971,83.971,0,0,0,12.864-19.554l-28.328-.139s2.55-15.846-11.531-36.891a11.929,11.929,0,0,1-1.957-7.657l1.335-15.349s9.569-10.692,3.7-23.956c0,0-5.614-7.773-7.841-4.928,0,0-16.955,40.377-18.5,46.381s-3.6,9.777-1.544,28.645a114.327,114.327,0,0,1,.734,12.585,44.655,44.655,0,0,1-4.294,19.01Z" transform="translate(-78.902 -220.574)" fill="#ffc0bb"/>
              <path id="Tracé_5164" data-name="Tracé 5164" d="M138.932,344.9c-4.242-4.71-10.137-3.966-16.335-6.116s-8.186-17.639-8.186-17.639v0q.015.879.013,1.7a44.655,44.655,0,0,1-4.294,19.01L96.3,371.088h45.71l3.792-10.21a14.433,14.433,0,0,1,7.605-8.113,35.574,35.574,0,0,0,10.151-7.039C150.968,351.018,143.174,349.606,138.932,344.9Z" transform="translate(-78.902 -187.664)" fill="#ffc0bb" opacity="0.2" style="mix-blend-mode: multiply;isolation: isolate"/>
              <g id="Groupe_1704" data-name="Groupe 1704" transform="translate(39.817)">
                <path id="Tracé_5165" data-name="Tracé 5165" d="M110.193,238.736C120.7,255.318,146.6,270.094,146.6,270.094s-20.589-1.672-30.806-14.978l3.7-3.069s-2.945.286-5.412.57A27.876,27.876,0,0,1,110.193,238.736Z" transform="translate(-110.193 -238.23)" fill="#e6a748"/>
                <path id="Tracé_5166" data-name="Tracé 5166" d="M137.765,245.786c-1.6.725-3.962,1.83-3.962,1.83l2.278-3.272A26.546,26.546,0,0,0,127.617,240c-1.173,1.707-2.551,3.616-2.551,3.616l-.274-4.357a40.391,40.391,0,0,0-14.6-.334C120.7,255.51,146.6,270.286,146.6,270.286,146.486,258.1,142.776,250.5,137.765,245.786Z" transform="translate(-110.193 -238.422)" fill="#ffcb83"/>
              </g>
              <g id="Groupe_1705" data-name="Groupe 1705" transform="translate(35.959 20.49)">
                <path id="Tracé_5167" data-name="Tracé 5167" d="M107.8,254.533a24.383,24.383,0,0,1,9.274-3.2c.92,1.049,2.046,2.28,2.046,2.28l.061-2.467c11.713-.562,21.589,6.816,21.589,6.816-6.7,4.078-12.47,5.22-17.224,4.881-.3-.862-.725-2.146-.725-2.146l-.8,1.985a21.578,21.578,0,0,1-6.054-1.8c.421-1.031.863-2.207.863-2.207l-2.5,1.368A22.191,22.191,0,0,1,107.8,254.533Z" transform="translate(-107.802 -251.12)" fill="#ff6e53"/>
                <path id="Tracé_5168" data-name="Tracé 5168" d="M123.548,261.665c-.3-.862-.725-2.146-.725-2.146l-.8,1.985a21.579,21.579,0,0,1-6.054-1.8c.421-1.031.863-2.207.863-2.207l-2.5,1.368a22.191,22.191,0,0,1-6.537-5.519c13.627-1.557,32.97,3.434,32.97,3.434C134.069,260.861,128.3,262,123.548,261.665Z" transform="translate(-107.802 -249.937)" fill="#e74a60"/>
              </g>
              <g id="Groupe_1706" data-name="Groupe 1706" transform="translate(145.995 17.512)">
                <path id="Tracé_5169" data-name="Tracé 5169" d="M179.653,253.961l-.988,7.447,5.29-3.863,16.19-8.27-12.524,1.146s-6.379,1.549-6.724,1.862A15.577,15.577,0,0,0,179.653,253.961Z" transform="translate(-174.353 -249.275)" fill="#e74a60"/>
                <path id="Tracé_5170" data-name="Tracé 5170" d="M175.993,249.472l26.036-.19-20.491,4.687Z" transform="translate(-175.993 -249.271)" fill="#ff6e53"/>
                <path id="Tracé_5171" data-name="Tracé 5171" d="M187.211,261.461l-6.822-5.48,18.943-6.7Z" transform="translate(-173.296 -249.271)" fill="#ff6e53"/>
              </g>
              <g id="Groupe_1710" data-name="Groupe 1710" transform="translate(127.27 25.159)">
                <g id="Groupe_1707" data-name="Groupe 1707" transform="translate(21.176)">
                  <path id="Tracé_5172" data-name="Tracé 5172" d="M177.677,254.932a7.973,7.973,0,0,1,1.738-.457l-.048-.461a8.16,8.16,0,0,0-1.854.484Z" transform="translate(-177.512 -254.014)" fill="#65cefe"/>
                </g>
                <g id="Groupe_1708" data-name="Groupe 1708" transform="translate(4.933 2.366)">
                  <path id="Tracé_5173" data-name="Tracé 5173" d="M167.446,295.507a29.1,29.1,0,0,0,3.014-1.749l.258.387a29.708,29.708,0,0,1-3.061,1.777Zm5.758-3.884a18.863,18.863,0,0,0,2.34-2.558l.371.279a19.275,19.275,0,0,1-2.4,2.622Zm4.137-5.517c.228-.478.437-.976.623-1.481a18.5,18.5,0,0,0,.553-1.777l.45.116c-.16.621-.352,1.234-.566,1.82-.192.518-.407,1.031-.641,1.522Zm1.878-10.168.465-.011a30.55,30.55,0,0,1-.115,3.54l-.463-.044A29.962,29.962,0,0,0,179.219,275.938Zm-.662-6.969.46-.066c.2,1.362.334,2.472.437,3.5l-.463.047C178.888,271.428,178.751,270.322,178.558,268.968Zm-.521-3.5a17.133,17.133,0,0,1-.176-3.529l.465.029a16.629,16.629,0,0,0,.171,3.431l0,.027-.461.063Zm.584-7.023a8.441,8.441,0,0,1,2.019-2.966l.32.339a7.953,7.953,0,0,0-1.907,2.8Z" transform="translate(-167.446 -255.48)" fill="#65cefe"/>
                </g>
                <g id="Groupe_1709" data-name="Groupe 1709" transform="translate(0 43.82)">
                  <path id="Tracé_5174" data-name="Tracé 5174" d="M164.541,282.251c.6-.208,1.189-.426,1.754-.649l-.171-.432c-.558.219-1.142.436-1.735.642Z" transform="translate(-164.389 -281.17)" fill="#65cefe"/>
                </g>
              </g>
              <g id="Groupe_1711" data-name="Groupe 1711" transform="translate(124.325 16.974)">
                <path id="Tracé_5175" data-name="Tracé 5175" d="M163.25,252.608s9.682-6.48,11.893-2.211-12.578,19.377-12.578,19.377Z" transform="translate(-162.564 -248.942)" fill="#eaa0a0"/>
                <path id="Tracé_5176" data-name="Tracé 5176" d="M163.25,270.105s9.682-6.479,11.893-2.211-12.578,19.377-12.578,19.377Z" transform="translate(-162.564 -238.204)" fill="#eaa0a0"/>
                <path id="Tracé_5177" data-name="Tracé 5177" d="M163.25,282.026s9.682-6.479,11.893-2.211-12.578,19.377-12.578,19.377Z" transform="translate(-162.564 -230.889)" fill="#eaa0a0"/>
              </g>
              <path id="Tracé_5178" data-name="Tracé 5178" d="M181.783,246.714H128.631a7.167,7.167,0,0,0-7.166,7.168V362.509a7.169,7.169,0,0,0,7.166,7.168h53.152a7.167,7.167,0,0,0,7.168-7.168V253.882A7.169,7.169,0,0,0,181.783,246.714Z" transform="translate(-63.459 -233.334)" fill="#063e70"/>
              <path id="Tracé_5179" data-name="Tracé 5179" d="M127.79,308.887s-9.613,23.535-8.68,27.985,6.766,10.4,21.081,8.417a220.2,220.2,0,0,0,24.206-4.636s.6-31.761,0-33.372-26.335-13.043-27.346-13.043S127.79,308.887,127.79,308.887Z" transform="translate(-64.943 -204.171)" fill="#ffc0bb" opacity="0.2" style="mix-blend-mode: multiply;isolation: isolate"/>
              <rect id="Rectangle_662" data-name="Rectangle 662" width="60.538" height="103.426" transform="translate(61.48 23.148)" fill="#fff"/>
              <path id="Tracé_5180" data-name="Tracé 5180" d="M173.26,290.152H120.685a3.289,3.289,0,0,0-3.289,3.289v21.7a3.289,3.289,0,0,0,3.289,3.289h41.392c1.677,2.338,4.713,6.524,4.981,6.524.252,0-.232-3.953-.573-6.524h6.776a3.287,3.287,0,0,0,3.287-3.289v-21.7A3.287,3.287,0,0,0,173.26,290.152Z" transform="translate(-65.956 -206.679)" fill="#daeef7" opacity="0.3" style="mix-blend-mode: multiply;isolation: isolate"/>
              <path id="Tracé_5181" data-name="Tracé 5181" d="M186.213,259.689H130.244a3.289,3.289,0,0,0-3.289,3.289V286.3a3.29,3.29,0,0,0,3.289,3.289h5.812c-.337,2.566-.779,6.248-.537,6.248.258,0,3.079-3.873,4.784-6.248h45.91A3.289,3.289,0,0,0,189.5,286.3V262.978A3.288,3.288,0,0,0,186.213,259.689Z" transform="translate(-60.09 -225.372)" fill="#daeef7" opacity="0.3" style="mix-blend-mode: multiply;isolation: isolate"/>
              <rect id="Rectangle_663" data-name="Rectangle 663" width="25.905" height="1.296" rx="0.362" transform="translate(78.846 18.602)" fill="#fff"/>
              <path id="Tracé_5182" data-name="Tracé 5182" d="M126.594,306.282a4.516,4.516,0,0,0,1.191,2.027l.981-11.289s7.039-7.865,5.338-18.473a15.844,15.844,0,0,0-5.151-9.4c-1.577-1.386-3.308-2.312-4.329-1.009,0,0-7.973,18.988-13.482,32.857Z" transform="translate(-69.794 -220.574)" fill="#ffc0bb"/>
              <path id="Tracé_5183" data-name="Tracé 5183" d="M171.914,286.664H119.34a3.288,3.288,0,0,0-3.289,3.289v21.7a3.287,3.287,0,0,0,3.289,3.287h41.392c1.675,2.338,4.713,6.524,4.981,6.524.25,0-.232-3.953-.573-6.524h6.774a3.287,3.287,0,0,0,3.289-3.287v-21.7A3.288,3.288,0,0,0,171.914,286.664Z" transform="translate(-66.781 -208.819)" fill="#ff6e53"/>
              <rect id="Rectangle_664" data-name="Rectangle 664" width="60.538" height="6.118" transform="translate(61.48 120.457)" fill="#65cefe"/>
              <rect id="Rectangle_665" data-name="Rectangle 665" width="60.538" height="5.489" transform="translate(61.48 23.148)" fill="#65cefe"/>
              <path id="Tracé_5184" data-name="Tracé 5184" d="M122.525,279.287c2.2-1.013,3.353-6.745,3.765-9.322-1.769-1.778-3.986-3.379-5.2-1.83,0,0-1.756,4.181-4.189,10.053C118.565,279.114,120.877,280.045,122.525,279.287Z" transform="translate(-66.26 -220.573)" fill="#eaa0a0"/>
              <path id="Tracé_5185" data-name="Tracé 5185" d="M158.026,294.981s-8.176.686-8.462,2.859.344,6,8.062,6.747h8s-2.391-6.632-2.278-6.861S158.026,294.981,158.026,294.981Z" transform="translate(-46.248 -203.715)" fill="#efadab"/>
              <path id="Tracé_5186" data-name="Tracé 5186" d="M147.1,336.681a2.219,2.219,0,0,0-.863,3.072c3.763,6.488,18.723,32.278,20.072,34.375,1.543,2.4,5.317,8.062,17.839,10.978s17.668,11.321,17.668,11.321H240.41s-9.091-14.41-16.638-51.8c0,0-5.832-31.047-16.809-30.017,0,0-6.69-7.034-13.208-5.661,0,0-12.351-7.376-19.383-7.376l-16.893-19.964a4.888,4.888,0,0,0-6.674-.791,3.2,3.2,0,0,0-1.305,2.057c-.515,3.26,3.774,11.492,10.636,21.442s23.843,41.509,16.467,55.4a74.6,74.6,0,0,1-14.066-14.75C157.078,337.355,150.658,334.795,147.1,336.681Z" transform="translate(-48.443 -213.004)" fill="#ffc0bb"/>
              <path id="Tracé_5187" data-name="Tracé 5187" d="M163.611,293.314a70,70,0,0,1,6.325,6.187,73.027,73.027,0,0,1,8.05,10.577,33.705,33.705,0,0,1,4.939,12.294l-.05.011a38.987,38.987,0,0,0-5.3-12.049,89.3,89.3,0,0,0-7.946-10.568c-1.8-2.072-4.076-4.52-6.056-6.416Z" transform="translate(-37.618 -204.738)" fill="#eaa0a0"/>
              <path id="Tracé_5188" data-name="Tracé 5188" d="M175.51,297.847a19.029,19.029,0,0,1,4.888,3.707,23.645,23.645,0,0,1,3.7,4.939,24.083,24.083,0,0,1,2.319,5.722,23.332,23.332,0,0,1,.776,6.083l-.052,0a29.941,29.941,0,0,0-1.112-5.974,27.141,27.141,0,0,0-2.378-5.583,26.511,26.511,0,0,0-3.555-4.92,22.9,22.9,0,0,0-4.613-3.936Z" transform="translate(-30.309 -201.957)" fill="#eaa0a0"/>
              <path id="Tracé_5189" data-name="Tracé 5189" d="M183.676,301.3a17.018,17.018,0,0,1,4.037,4.839,21.847,21.847,0,0,1,2.306,5.88,18.327,18.327,0,0,1,.537,4.163l-.05.006a31.3,31.3,0,0,0-.876-4.06,28.434,28.434,0,0,0-2.343-5.759,23.046,23.046,0,0,0-3.634-5.031Z" transform="translate(-25.297 -199.839)" fill="#eaa0a0"/>
              <path id="Tracé_5190" data-name="Tracé 5190" d="M154.892,323.067c.342-1.736-1.681-4.489-3.518-6.568a4.271,4.271,0,0,0-4.549-1.239,2.222,2.222,0,0,0-.587,2.895c1.01,1.743,2.83,4.881,4.978,8.578C152.823,325.914,154.575,324.676,154.892,323.067Z" transform="translate(-48.442 -191.405)" fill="#eaa0a0"/>
              <path id="Tracé_5191" data-name="Tracé 5191" d="M154.462,289.363c.976-.2,5.4-1.669,5.131-2.475h0l-4.367-5.16a4.97,4.97,0,0,0-3.327-1.74h0l-.021,0c-.036,0-.116-.01-.228-.01a2.213,2.213,0,0,0-2.345,1.752c-.313,1.567,2.278,5.372,3.421,6.953A1.723,1.723,0,0,0,154.462,289.363Z" transform="translate(-46.39 -212.923)" fill="#eaa0a0"/>
              <path id="Tracé_5192" data-name="Tracé 5192" d="M156,296.949c7.568,12.159,21.144,40.089,14.428,52.274l4.459,4.4s11.263-12.478-6.661-40A183.512,183.512,0,0,0,156,296.949Z" transform="translate(-42.267 -202.508)" fill="#ffc0bb" opacity="0.2" style="mix-blend-mode: multiply;isolation: isolate"/>
              <path id="Tracé_5193" data-name="Tracé 5193" d="M133.626,294.889a8.332,8.332,0,0,1-11.118,11.118,7.394,7.394,0,0,1-3.778-3.778,8.332,8.332,0,0,1,11.118-11.118A7.382,7.382,0,0,1,133.626,294.889Z" transform="translate(-65.625 -206.578)" fill="#fff"/>
              <path id="Tracé_5194" data-name="Tracé 5194" d="M120.45,297.773s-.818-3.355,1.13-4.61,4.026-1.544,5.448-.82a4.557,4.557,0,0,1,2.148,5.214l-5.228-1.314Z" transform="translate(-64.187 -205.574)" fill="#031322"/>
              <g id="Groupe_1712" data-name="Groupe 1712" transform="translate(54.943 87.534)">
                <rect id="Rectangle_666" data-name="Rectangle 666" width="2.42" height="2.417" transform="translate(4.494 8.601)" fill="#ffc0bb"/>
                <path id="Tracé_5195" data-name="Tracé 5195" d="M124.772,299.448V298h-2.42v1.233A3.548,3.548,0,0,0,124.772,299.448Z" transform="translate(-117.858 -289.397)" fill="#f99893"/>
                <path id="Tracé_5196" data-name="Tracé 5196" d="M130.3,296.944a.9.9,0,0,0-.81.032,4.31,4.31,0,0,0-8.62,0,.9.9,0,0,0-.812-.032,1.252,1.252,0,0,0,1.083,2.19.782.782,0,0,0,.181-.124,3.885,3.885,0,0,0,7.715,0,.793.793,0,0,0,.182.124,1.251,1.251,0,0,0,1.081-2.19Z" transform="translate(-119.567 -292.668)" fill="#ffc0bb"/>
                <path id="Tracé_5197" data-name="Tracé 5197" d="M125.052,297.064a1.512,1.512,0,0,1-2.7.082Z" transform="translate(-117.858 -289.971)" fill="#fff"/>
              </g>
              <path id="Tracé_5198" data-name="Tracé 5198" d="M120.431,297.242s3.168-.96,4.554-2.562a9.52,9.52,0,0,1-.684,2.238c.092.063,3.163-1.431,3.581-2.809s-3.14-1.873-3.14-1.873-1.22.52-1.281.55-1.205.165-1.336.457c-.171.379-.978.413-.978.413l-.51,1.06-.357,1.115Z" transform="translate(-64.187 -205.4)" fill="#031322"/>
              <path id="Tracé_5199" data-name="Tracé 5199" d="M118.765,293.923a3.464,3.464,0,0,0,2.345.153c1.849-.568,2.582-.347,2.827-.208a.607.607,0,0,0,.486.065c.182-.061.352-.226.3-.642a3.361,3.361,0,0,0-1.433-2.758A8.254,8.254,0,0,0,118.765,293.923Z" transform="translate(-65.116 -206.445)" fill="#031322"/>
              <g id="Groupe_1714" data-name="Groupe 1714" transform="translate(57.594 86.428)">
                <g id="Groupe_1713" data-name="Groupe 1713">
                  <path id="Tracé_5200" data-name="Tracé 5200" d="M121.243,292.917h0a.158.158,0,0,1,.039-.226,4.333,4.333,0,0,1,2.057-.708.157.157,0,0,1,.165.157h0a.158.158,0,0,1-.15.157,4.081,4.081,0,0,0-1.9.658A.155.155,0,0,1,121.243,292.917Z" transform="translate(-121.21 -291.983)" fill="#ffcb83"/>
                </g>
              </g>
              <g id="Groupe_1716" data-name="Groupe 1716" transform="translate(69.54 28.117)">
                <path id="Tracé_5201" data-name="Tracé 5201" d="M187.871,255.847H131.9a3.29,3.29,0,0,0-3.289,3.289v23.319a3.289,3.289,0,0,0,3.289,3.289h5.812c-.337,2.567-.779,6.25-.537,6.25.258,0,3.079-3.874,4.784-6.25h45.91a3.288,3.288,0,0,0,3.289-3.289V259.136A3.289,3.289,0,0,0,187.871,255.847Z" transform="translate(-128.613 -255.847)" fill="#ffcb83"/>
                <path id="Tracé_5202" data-name="Tracé 5202" d="M145.911,264.626a8.332,8.332,0,0,1-11.118,11.118,7.382,7.382,0,0,1-3.776-3.776,8.332,8.332,0,0,1,11.118-11.118A7.382,7.382,0,0,1,145.911,264.626Z" transform="translate(-127.626 -253.266)" fill="#fff"/>
                <g id="Groupe_1715" data-name="Groupe 1715" transform="translate(5.226 8.461)">
                  <rect id="Rectangle_667" data-name="Rectangle 667" width="2.421" height="2.417" transform="translate(4.495 10.724)" fill="#ffc0bb"/>
                  <path id="Tracé_5203" data-name="Tracé 5203" d="M137.057,269.185v-1.449h-2.42v1.233A3.549,3.549,0,0,0,137.057,269.185Z" transform="translate(-130.143 -257.012)" fill="#f99893"/>
                  <path id="Tracé_5204" data-name="Tracé 5204" d="M142.583,266.681a.9.9,0,0,0-.81.032,4.31,4.31,0,0,0-8.62,0,.9.9,0,0,0-.812-.032,1.253,1.253,0,0,0,1.083,2.191.788.788,0,0,0,.181-.126,3.885,3.885,0,0,0,7.715,0,.8.8,0,0,0,.182.126,1.252,1.252,0,0,0,1.081-2.191Z" transform="translate(-131.852 -260.283)" fill="#ffc0bb"/>
                  <path id="Tracé_5205" data-name="Tracé 5205" d="M134.286,262.271a5.825,5.825,0,0,1,3.976-.863c2.761.166,3.287,1.607,3.444,3.665l-.161,2.448a10.622,10.622,0,0,1-1.651-2.78s-1.546,1.735-2.219,1.53.253-1.455.253-1.455-3.148,2.711-5,2.706c0,0-.981-3.171.4-4.334,0,0-1.039.05-1.094-.155s.5-.51,1.493-.394c0,0-.71-1.391-.313-1.536S134.286,262.271,134.286,262.271Z" transform="translate(-131.624 -261.09)" fill="#031322"/>
                  <path id="Tracé_5206" data-name="Tracé 5206" d="M137.337,266.8a1.51,1.51,0,0,1-2.7.082Z" transform="translate(-130.143 -257.586)" fill="#fff"/>
                </g>
                <path id="Tracé_5207" data-name="Tracé 5207" d="M174.289,261.445H142.911a.717.717,0,0,1-.716-.716h0a.717.717,0,0,1,.716-.716h31.377a.717.717,0,0,1,.716.716h0A.717.717,0,0,1,174.289,261.445Z" transform="translate(-120.278 -253.291)" fill="#fff"/>
                <path id="Tracé_5208" data-name="Tracé 5208" d="M149.227,263.787h-6.316a.717.717,0,0,1-.716-.716h0a.717.717,0,0,1,.716-.716h6.316a.717.717,0,0,1,.716.716h0A.717.717,0,0,1,149.227,263.787Z" transform="translate(-120.278 -251.854)" fill="#fff"/>
                <path id="Tracé_5209" data-name="Tracé 5209" d="M170.23,263.787h-20.7a.717.717,0,0,1-.716-.716h0a.717.717,0,0,1,.716-.716h20.7a.717.717,0,0,1,.716.716h0A.717.717,0,0,1,170.23,263.787Z" transform="translate(-116.22 -251.854)" fill="#fff"/>
                <path id="Tracé_5210" data-name="Tracé 5210" d="M158.428,266.128H142.911a.716.716,0,0,1-.716-.715h0a.716.716,0,0,1,.716-.716h15.517a.716.716,0,0,1,.716.716h0A.716.716,0,0,1,158.428,266.128Z" transform="translate(-120.278 -250.416)" fill="#fff"/>
                <path id="Tracé_5211" data-name="Tracé 5211" d="M166.9,266.128H154.951a.716.716,0,0,1-.716-.715h0a.716.716,0,0,1,.716-.716H166.9a.716.716,0,0,1,.716.715v0A.716.716,0,0,1,166.9,266.128Z" transform="translate(-112.89 -250.416)" fill="#fff"/>
                <path id="Tracé_5212" data-name="Tracé 5212" d="M174.289,268.472H142.911a.717.717,0,0,1-.716-.716h0a.717.717,0,0,1,.716-.716h31.377a.717.717,0,0,1,.716.716h0A.717.717,0,0,1,174.289,268.472Z" transform="translate(-120.278 -248.979)" fill="#fff"/>
              </g>
              <path id="Tracé_5213" data-name="Tracé 5213" d="M139.475,292.455h-9.611a.714.714,0,0,1-.715-.716h0a.714.714,0,0,1,.715-.715h9.611a.716.716,0,0,1,.716.715h0A.716.716,0,0,1,139.475,292.455Z" transform="translate(-58.744 -206.144)" fill="#fff"/>
              <path id="Tracé_5214" data-name="Tracé 5214" d="M135.891,294.8h-6.027a.716.716,0,0,1-.715-.716h0a.716.716,0,0,1,.715-.717h6.027a.716.716,0,0,1,.716.717h0A.716.716,0,0,1,135.891,294.8Z" transform="translate(-58.744 -204.706)" fill="#fff"/>
              <path id="Tracé_5215" data-name="Tracé 5215" d="M143.032,294.8h-7.747a.717.717,0,0,1-.716-.716h0a.717.717,0,0,1,.716-.717h7.747a.717.717,0,0,1,.716.717h0A.717.717,0,0,1,143.032,294.8Z" transform="translate(-55.418 -204.706)" fill="#fff"/>
              <path id="Tracé_5216" data-name="Tracé 5216" d="M152.713,294.8H141.77a.717.717,0,0,1-.716-.716h0a.717.717,0,0,1,.716-.717h10.942a.717.717,0,0,1,.716.717h0A.717.717,0,0,1,152.713,294.8Z" transform="translate(-51.438 -204.706)" fill="#fff"/>
              <path id="Tracé_5217" data-name="Tracé 5217" d="M155.123,292.455H137.842a.716.716,0,0,1-.716-.716h0a.716.716,0,0,1,.716-.715h17.281a.716.716,0,0,1,.716.715h0A.716.716,0,0,1,155.123,292.455Z" transform="translate(-53.849 -206.144)" fill="#fff"/>
              <path id="Tracé_5218" data-name="Tracé 5218" d="M160.018,299.39H129.864a.716.716,0,0,1-.715-.716h0a.716.716,0,0,1,.715-.716h30.154a.717.717,0,0,1,.716.716h0A.717.717,0,0,1,160.018,299.39Z" transform="translate(-58.744 -201.889)" fill="#fff"/>
              <path id="Tracé_5219" data-name="Tracé 5219" d="M144.75,297.141H129.864a.716.716,0,0,1-.715-.716h0a.716.716,0,0,1,.715-.716H144.75a.717.717,0,0,1,.716.716h0A.717.717,0,0,1,144.75,297.141Z" transform="translate(-58.744 -203.269)" fill="#fff"/>
              <path id="Tracé_5220" data-name="Tracé 5220" d="M152.905,297.141H141.456a.717.717,0,0,1-.716-.716h0a.717.717,0,0,1,.716-.716h11.449a.717.717,0,0,1,.716.716h0A.717.717,0,0,1,152.905,297.141Z" transform="translate(-51.631 -203.269)" fill="#fff"/>
              <g id="Groupe_1720" data-name="Groupe 1720" transform="translate(16.59 86.358)">
                <g id="Groupe_1717" data-name="Groupe 1717" transform="translate(4.026)">
                  <path id="Tracé_5221" data-name="Tracé 5221" d="M99.767,293.386a7.872,7.872,0,0,0-1.473-1.028l.2-.418a8.278,8.278,0,0,1,1.572,1.094Z" transform="translate(-98.294 -291.94)" fill="#65cefe"/>
                </g>
                <g id="Groupe_1718" data-name="Groupe 1718" transform="translate(0 3.915)">
                  <path id="Tracé_5222" data-name="Tracé 5222" d="M102.036,336.8a29.647,29.647,0,0,1-2.259-2.725l.374-.273a29.422,29.422,0,0,0,2.225,2.682ZM97.9,331.067a19.347,19.347,0,0,1-1.346-3.289l.445-.134a19.031,19.031,0,0,0,1.312,3.208Zm-2.028-6.777c-.05-.542-.074-1.1-.074-1.649,0-.624.032-1.267.1-1.906l.463.047a18.6,18.6,0,0,0-.094,1.859c0,.537.024,1.078.073,1.606Zm1.113-6.924-.449-.119a30.069,30.069,0,0,1,1.115-3.361l.432.171A29.39,29.39,0,0,0,96.987,317.365Zm2.516-6.508-.418-.2c.452-.926.967-1.922,1.618-3.132l.41.221C100.462,308.947,99.951,309.938,99.5,310.857Zm3.3-6.2-.41-.218.013-.024a16.676,16.676,0,0,0,1.346-3.161l.445.132a17.063,17.063,0,0,1-1.385,3.251Zm1.422-6.8a7.983,7.983,0,0,0-.821-3.289l.416-.207a8.438,8.438,0,0,1,.87,3.479Z" transform="translate(-95.799 -294.366)" fill="#65cefe"/>
                </g>
                <g id="Groupe_1719" data-name="Groupe 1719" transform="translate(8.777 48.479)">
                  <path id="Tracé_5223" data-name="Tracé 5223" d="M102.66,323.543c-.491-.4-.968-.81-1.422-1.213l.31-.347c.449.4.921.8,1.407,1.2Z" transform="translate(-101.238 -321.983)" fill="#65cefe"/>
                </g>
              </g>
              <g id="Groupe_1721" data-name="Groupe 1721" transform="translate(0 71.009)">
                <path id="Tracé_5224" data-name="Tracé 5224" d="M104.546,291.358l-.615,7.487-4.349-4.9L85.518,282.428l11.994,3.779s5.9,2.867,6.175,3.247A15.521,15.521,0,0,1,104.546,291.358Z" transform="translate(-85.518 -282.428)" fill="#e6a748"/>
                <path id="Tracé_5225" data-name="Tracé 5225" d="M110.92,288.141l-25.4-5.713,19.029,8.93Z" transform="translate(-85.518 -282.428)" fill="#ffcb83"/>
                <path id="Tracé_5226" data-name="Tracé 5226" d="M94.777,296.9l7.83-3.907L85.518,282.428Z" transform="translate(-85.518 -282.428)" fill="#ffcb83"/>
              </g>
            </g>
          </g>
        </g>
      </g>
      <g id="Groupe_1727" data-name="Groupe 1727" transform="translate(0.503 0)">
        <g id="Groupe_1726" data-name="Groupe 1726">
          <path id="Tracé_5227" data-name="Tracé 5227" d="M129.077,431.127c-8,0-14.4-.031-17.051-.116-10.263.294-18.341-2.4-24.026-8.044-8.462-8.405-8.26-20.172-8.249-20.669V295.879a3.229,3.229,0,0,1,1.041-2.375l81.593-75.151c1.417-1.7,10.792-12.285,24.673-12.982,9.6-.473,18.946,3.842,27.773,12.859L315.858,306.9a3.227,3.227,0,1,1-4.258,4.851L210.479,223c-.063-.055-.124-.111-.182-.173-7.486-7.676-15.2-11.383-22.864-11.013-11.839.568-20.093,10.674-20.175,10.776a3.35,3.35,0,0,1-.334.358L86.205,297.293V402.38c0,.168-.1,9.646,6.388,16.051,4.392,4.336,10.9,6.4,19.332,6.125a1.857,1.857,0,0,1,.211,0c9.333.315,72.914-.119,73.555-.124h.023a3.227,3.227,0,0,1,.021,6.455C183.828,430.9,150.667,431.127,129.077,431.127Z" transform="translate(-58.773 -194.757)" fill="#de8a4a"/>
          <path id="Tracé_5228" data-name="Tracé 5228" d="M237.012,301.434a3.227,3.227,0,0,1-3.227-3.227V230.65a25.415,25.415,0,0,0-50.83,0V248a3.227,3.227,0,0,1-6.455,0V230.65a31.87,31.87,0,0,1,63.739,0v67.557A3.228,3.228,0,0,1,237.012,301.434Z" transform="translate(0.599 -198.78)" fill="#de8a4a"/>
          <path id="Tracé_5229" data-name="Tracé 5229" d="M69.979,282.576a3.227,3.227,0,0,1-2.011-5.753l20.977-16.675a3.227,3.227,0,1,1,4.016,5.052L71.985,281.874A3.209,3.209,0,0,1,69.979,282.576Z" transform="translate(-66.75 -161.552)" fill="#de8a4a"/>
        </g>
      </g>
    </g>
    <g id="Groupe_1028" data-name="Groupe 1028" transform="translate(51.463 21.981)">
      <g id="Groupe_1025" data-name="Groupe 1025" transform="translate(129.199 53.573)">
        <path id="Tracé_1039" data-name="Tracé 1039" d="M149.333,59.658,155.99,64.8V85.017h2.989V63.335l-12.634-9.762V74.659h2.989Z" transform="translate(-112.632 -53.573)" fill="url(#linear-gradient)"/>
        <path id="Tracé_1040" data-name="Tracé 1040" d="M128.4,64.42l7.386-5.049v15.2h2.989V53.708l-13.363,9.136v21.1H128.4Z" transform="translate(-124.458 -53.496)" fill="url(#linear-gradient-2)"/>
        <rect id="Rectangle_344" data-name="Rectangle 344" width="3.665" height="3.999" transform="translate(19.191 40.898)" fill="url(#linear-gradient-3)"/>
        <rect id="Rectangle_345" data-name="Rectangle 345" width="3.665" height="3.999" transform="translate(24.28 40.898)" fill="url(#linear-gradient-4)"/>
        <rect id="Rectangle_346" data-name="Rectangle 346" width="3.665" height="3.999" transform="translate(19.191 35.996)" fill="url(#linear-gradient-5)"/>
        <rect id="Rectangle_347" data-name="Rectangle 347" width="3.665" height="3.999" transform="translate(24.28 35.996)" fill="url(#linear-gradient-6)"/>
        <path id="Tracé_1041" data-name="Tracé 1041" d="M163.59,76.225V70.4h7.131v8.646h2.989V67.409H160.6v10.4l13.3,9.064,1.683-2.47Z" transform="translate(-104.579 -45.757)" fill="url(#linear-gradient-7)"/>
        <path id="Tracé_1042" data-name="Tracé 1042" d="M190.69,94.688c-2.826,3.515-5.648,5.194-8.378,4.992-3.654-.269-6.464-3.789-7.571-5.4l5.774-7.69-2.39-1.793-6.978,9.292.474.85a19.716,19.716,0,0,0,3.515,4.377H161.683V80.282l7.119,4.925,1.7-2.458L148.481,67.516,124.8,82.72l1.615,2.515,8.762-5.626v19.7H128.7v-6.92h-2.989V102.3h12.453V77.691l10.253-6.583,10.275,7.108V102.3h21.45a9.477,9.477,0,0,0,1.934.358c.228.017.457.025.685.025,3.662,0,7.225-2.2,10.6-6.563l.313-.4V90.136H190.69Z" transform="translate(-124.801 -45.696)" fill="url(#linear-gradient-8)"/>
        <path id="Tracé_1043" data-name="Tracé 1043" d="M166.674,68.906a5.457,5.457,0,1,0-5.447-5.457A5.458,5.458,0,0,0,166.674,68.906Zm0-9.28a3.822,3.822,0,1,1-3.814,3.823A3.822,3.822,0,0,1,166.674,59.626Z" transform="translate(-104.225 -51.077)" fill="url(#linear-gradient-9)"/>
      </g>
      <g id="Groupe_1026" data-name="Groupe 1026" transform="translate(117.277 139.259)">
        <path id="Tracé_1044" data-name="Tracé 1044" d="M185.961,120.993h-.53c-3.5,0-16.308,0-19.81,0a6.507,6.507,0,0,1-1.246-.114,2.4,2.4,0,0,1-1.942-1.39c-.919,1.321-2.329,1.48-3.782,1.5-1.347.022-4.5,0-5.889,0l-.293-1.64h.662c1.371,0,4.544.016,5.914-.022a2.11,2.11,0,0,0,2.336-2.241c0-2.7,0-5.407,0-8.109,0-.189,0-.379,0-.6h1.795v.581q0,3.817,0,7.633c0,.282,0,.562.02.842a1.871,1.871,0,0,0,1.8,1.861c.689.08,10.7.016,11.337.016a16.294,16.294,0,0,1,.185-2.44,3.023,3.023,0,0,1,3.236-2.288,3.088,3.088,0,0,1,3.2,2.271,5.071,5.071,0,0,1,.15,1.2c.006.4-.063.8-.106,1.294.412,0,.818.014,1.222-.011a.359.359,0,0,0,.238-.236,5.986,5.986,0,0,0-.324-3.87,4.184,4.184,0,0,0-4.267-2.149c-1.117.111-2.213.426-3.422.671l-.546-1.366c.872-.266,1.709-.576,2.576-.776a7.973,7.973,0,0,1,3.616,0,5.194,5.194,0,0,1,4.22,4.388A15.435,15.435,0,0,1,185.961,120.993Zm-4.645-1.668a12.369,12.369,0,0,0-.149-2,1.493,1.493,0,0,0-1.53-1.111,1.463,1.463,0,0,0-1.4,1.185,11.566,11.566,0,0,0-.023,1.925Z" transform="translate(-97.251 -108.302)" fill="#de8a4a"/>
        <path id="Tracé_1045" data-name="Tracé 1045" d="M150.391,115.047l-.549-1.369c1.595-1.186,5.4-1.438,6.623.668a5.836,5.836,0,0,1,.687,2.236,10.95,10.95,0,0,1-.57,4.411H136.5V108.329h1.737v11.007c.216.017.377.042.54.042,2.493,0,13.375-.006,15.868.009.394,0,.6-.085.637-.469.063-.628.216-1.252.227-1.878.031-1.975-1.617-3.072-3.7-2.483C151.347,114.69,150.895,114.872,150.391,115.047Z" transform="translate(-106.269 -108.329)" fill="#de8a4a"/>
        <path id="Tracé_1046" data-name="Tracé 1046" d="M117.211,112.777h1.725c0,.807-.008,1.591,0,2.377a8.24,8.24,0,0,0,.08,1.363,2.538,2.538,0,0,0,2.508,1.878c.282.03.57.022.856.023.643,0,9.989,0,10.7,0,0-.648-.009-1.257,0-1.864.022-1.156-.014-2.321.1-3.469a2.9,2.9,0,0,1,2.693-2.721,8.221,8.221,0,0,1,1.36-.116c.87-.017,1.742,0,2.642,0v5.067H138.14v-3.526a16.963,16.963,0,0,0-1.98.127,1.608,1.608,0,0,0-1.274,1.726c-.009,1.931,0,3.861.006,5.792v.623c-.786,0-1.523.016-2.258,0-1.216-.031-11.15.014-12.342-.158a3.236,3.236,0,0,1-3.064-3.111C117.138,115.47,117.211,114.15,117.211,112.777Z" transform="translate(-117.183 -107.249)" fill="#de8a4a"/>
        <path id="Tracé_1047" data-name="Tracé 1047" d="M134.8,111.3h1.753c.014.152.038.285.038.419,0,2.543.017,5.086-.017,7.629a6.522,6.522,0,0,1-.307,1.75,1.694,1.694,0,0,1-1.512,1.2,17.7,17.7,0,0,1-2.039.059.4.4,0,0,1-.454-.468,10.4,10.4,0,0,0-.07-1.044c.225.014.427.016.628.038,1.49.163,1.992-.243,1.992-1.635,0-2.438-.008-4.876-.011-7.314C134.794,111.739,134.8,111.548,134.8,111.3Z" transform="translate(-108.708 -106.651)" fill="#de8a4a"/>
        <path id="Tracé_1048" data-name="Tracé 1048" d="M156.51,116.923h-1.7v-7.732h1.7Z" transform="translate(-95.928 -107.842)" fill="#de8a4a"/>
      </g>
      <circle id="Ellipse_104" data-name="Ellipse 104" cx="1.062" cy="1.062" r="1.062" transform="translate(126.229 153.653)" fill="#de8a4a"/>
      <circle id="Ellipse_105" data-name="Ellipse 105" cx="1.062" cy="1.062" r="1.062" transform="translate(129.319 153.653)" fill="#de8a4a"/>
      <circle id="Ellipse_106" data-name="Ellipse 106" cx="1.062" cy="1.062" r="1.062" transform="translate(156.999 153.579)" fill="#de8a4a"/>
      <g id="Groupe_1027" data-name="Groupe 1027" transform="translate(117.016 119.952)">
        <path id="Tracé_1049" data-name="Tracé 1049" d="M119.6,109.418a2.433,2.433,0,0,1,.16.787,1.06,1.06,0,0,1-1.12,1c-1.1,0-1.485-.416-1.485-.948a1.317,1.317,0,0,1,.252-.764v-5.047a1.033,1.033,0,0,1-.39-.742c0-.577.069-1.042.39-1.158v-4.7a2.088,2.088,0,0,1-.183-.67c0-.6.685-1.019,1.53-1.019a1.138,1.138,0,0,1,1.028.972,1.157,1.157,0,0,1-.182.764v4.4l6.765-.44V97.982a1.664,1.664,0,0,1-.183-.856c0-.6.663-.972,1.257-.972.549,0,1.3.509,1.3.9a1.383,1.383,0,0,1-.183.742v11.715a1.807,1.807,0,0,1,.183.786c0,.534-.732.9-1.325.9a1.229,1.229,0,0,1-1.3-1.088,1.788,1.788,0,0,1,.252-.811v-5.439l-6.765.44Z" transform="translate(-117.016 -95.899)" fill="#ca5b61"/>
        <path id="Tracé_1050" data-name="Tracé 1050" d="M133.244,101.608c0-.6-.228-.9-.823-.9a5.694,5.694,0,0,0-3.155,1c.045.185-.3.648-.959.648a1.113,1.113,0,0,1-.961-1.088c0-.441.549-1.042,1.03-.95a8.821,8.821,0,0,1,4.845-1.274,1.973,1.973,0,0,1,2.08,2.084v7.084a.765.765,0,0,1,.183.556c0,.693-.8.833-1.509.833-.754,0-.959-.324-.959-.74a1.234,1.234,0,0,1,.182-.556v-1.042h-.045a6.61,6.61,0,0,1-5.1,2.616,1.889,1.889,0,0,1-2.1-1.853c0-2.036,2.491-4.676,7.291-5.231Zm-.047,2.616c-3.039.371-5.142,2.222-5.142,3.264,0,.394.321.532.754.532,1.692,0,4.388-2.014,4.388-3.078Z" transform="translate(-111.968 -94.27)" fill="#ca5b61"/>
        <path id="Tracé_1051" data-name="Tracé 1051" d="M134.212,98.028a2.1,2.1,0,0,1-.229-.787c0-1,.274-1.25,1.394-1.25a1.208,1.208,0,0,1,1.3,1.088,1.655,1.655,0,0,1-.343,1.019v11.528a.882.882,0,0,1,.366.695,1.315,1.315,0,0,1-1.372.972,1.183,1.183,0,0,1-1.325-1.135,1.263,1.263,0,0,1,.207-.6Z" transform="translate(-107.431 -95.991)" fill="#ca5b61"/>
        <path id="Tracé_1052" data-name="Tracé 1052" d="M144.239,101.608c0-.6-.228-.9-.823-.9a5.685,5.685,0,0,0-3.153,1c.045.185-.3.648-.961.648a1.112,1.112,0,0,1-.959-1.088c0-.441.548-1.042,1.028-.95a8.821,8.821,0,0,1,4.845-1.274,1.973,1.973,0,0,1,2.08,2.084v7.084a.765.765,0,0,1,.183.556c0,.693-.8.833-1.509.833-.754,0-.959-.324-.959-.74a1.234,1.234,0,0,1,.182-.556v-1.042h-.045a6.608,6.608,0,0,1-5.1,2.616,1.89,1.89,0,0,1-2.1-1.853c0-2.036,2.491-4.676,7.291-5.231Zm-.047,2.616c-3.039.371-5.142,2.222-5.142,3.264,0,.394.321.532.754.532,1.692,0,4.388-2.014,4.388-3.078Z" transform="translate(-105.757 -94.27)" fill="#ca5b61"/>
        <path id="Tracé_1053" data-name="Tracé 1053" d="M157.586,107.525a4.638,4.638,0,0,1-1.942,3.518,6.176,6.176,0,0,1-3.886,1.274c-2.812,0-4.3-1.667-4.3-3.912,0-.833.412-1.714,1.166-1.714a1.342,1.342,0,0,1,1.418,1.2,1.186,1.186,0,0,1-.39.9c-.022.973.685,1.552,2.011,1.552a4.572,4.572,0,0,0,2.469-.879,3.439,3.439,0,0,0,1.257-2.339V98.5a1.208,1.208,0,0,1-.366-.9,1.279,1.279,0,0,1,1.463-1.365,1.321,1.321,0,0,1,1.3,1.365,1.15,1.15,0,0,1-.207.787Z" transform="translate(-99.819 -95.857)" fill="#ca5b61"/>
        <path id="Tracé_1054" data-name="Tracé 1054" d="M162.725,101.608c0-.6-.228-.9-.823-.9a5.685,5.685,0,0,0-3.153,1c.045.185-.3.648-.961.648a1.113,1.113,0,0,1-.959-1.088c0-.441.548-1.042,1.028-.95a8.825,8.825,0,0,1,4.845-1.274,1.974,1.974,0,0,1,2.081,2.084v7.084a.765.765,0,0,1,.182.556c0,.693-.8.833-1.509.833-.754,0-.959-.324-.959-.74a1.218,1.218,0,0,1,.183-.556v-1.042h-.045a6.61,6.61,0,0,1-5.1,2.616,1.89,1.89,0,0,1-2.1-1.853c0-2.036,2.491-4.676,7.291-5.231Zm-.045,2.616c-3.041.371-5.142,2.222-5.142,3.264,0,.394.319.532.754.532,1.69,0,4.388-2.014,4.388-3.078Z" transform="translate(-95.315 -94.27)" fill="#ca5b61"/>
        <path id="Tracé_1055" data-name="Tracé 1055" d="M163.718,100.621l-.182-.6c0-.44.593-.834,1.324-.834.687,0,1.12.3,1.12.764a.7.7,0,0,1-.136.534v.811h.022c1.257-1.158,2.56-2.061,3.657-2.061.709,0,1.416.695,1.416,2.825a1,1,0,0,1-1.142,1.064c-.662,0-1.052-.232-1.052-.624a1.763,1.763,0,0,1,.116-.6c0-.277-.092-.509-.275-.509a6.338,6.338,0,0,0-2.742,2.175V107.8a1.047,1.047,0,0,1,.274.646c0,.695-.388,1.042-1.623,1.042-.731,0-1.075-.3-1.075-.9a.757.757,0,0,1,.3-.577Z" transform="translate(-90.803 -94.186)" fill="#ca5b61"/>
        <path id="Tracé_1056" data-name="Tracé 1056" d="M169.615,101.215a.989.989,0,0,1-.48-.9c0-.648.778-1.041,1.258-1.041a1.041,1.041,0,0,1,1.142,1.2l3.336,5.926,2.355-6.134a1.009,1.009,0,0,1,1.052-1.066c.754,0,1.3.371,1.3.973a.936.936,0,0,1-.526.809l-4.045,10c-1.028,2.524-2.217,3.078-3.588,3.078a2.711,2.711,0,0,1-2.72-1.967c-.138-.393-.388-.255-.388-.811a1.008,1.008,0,0,1,1.073-1.064c.732,0,1.189.255,1.189.879a1.7,1.7,0,0,1-.114.487.909.909,0,0,0,.959.693c.845,0,1.463-.925,2.468-3.565Z" transform="translate(-88.04 -94.178)" fill="#ca5b61"/>
      </g>
    </g>
    <g id="Groupe_1729" data-name="Groupe 1729" transform="translate(-36 -73)">
      <text id="Lorem_ipsum" data-name="Lorem ipsum" transform="translate(117 776)" fill="#ca5b61" font-size="28" font-family="Raleway-Bold, Raleway" font-weight="700"><tspan x="0" y="0">Lorem ipsum</tspan></text>
      <text id="Lorem_ipsum_dolor_sit_amet_consectetur_adipiscing_elit._Nam_ullamcorper_velit_quis_ipsum_placerat_finibus._Vestibulum_vel_luctus_enim_vel_placerat_massa." data-name="Lorem ipsum dolor sit amet, consectetur adipiscing elit. Nam ullamcorper velit quis ipsum placerat finibus. Vestibulum vel luctus enim, vel placerat massa." transform="translate(117 788)" fill="#5e5e5e" font-size="13" font-family="Raleway-Medium, Raleway" font-weight="500"><tspan x="0" y="12">Lorem ipsum dolor sit amet, consectetur </tspan><tspan x="0" y="28">adipiscing elit. Nam ullamcorper velit quis </tspan><tspan x="0" y="44">ipsum placerat finibus. Vestibulum vel luctus </tspan><tspan x="0" y="60">enim, vel placerat massa.</tspan></text>
    </g>
    <g id="Groupe_1730" data-name="Groupe 1730" transform="translate(11)">
      <g id="Ellipse_118" data-name="Ellipse 118" transform="translate(170 834)" fill="none" stroke="#ca5b61" stroke-width="1">
        <circle cx="5" cy="5" r="5" stroke="none"/>
        <circle cx="5" cy="5" r="4.5" fill="none"/>
      </g>
      <g id="Ellipse_119" data-name="Ellipse 119" transform="translate(189 834)" fill="none" stroke="#ca5b61" stroke-width="1">
        <circle cx="5" cy="5" r="5" stroke="none"/>
        <circle cx="5" cy="5" r="4.5" fill="none"/>
      </g>
      <g id="Ellipse_120" data-name="Ellipse 120" transform="translate(208 834)" fill="none" stroke="#ca5b61" stroke-width="1">
        <circle cx="5" cy="5" r="5" stroke="none"/>
        <circle cx="5" cy="5" r="4.5" fill="none"/>
      </g>
      <circle id="Ellipse_121" data-name="Ellipse 121" cx="5" cy="5" r="5" transform="translate(227 834)" fill="#ca5b61"/>
    </g>
  </g>
</svg>
