<svg xmlns="http://www.w3.org/2000/svg" width="22.426" height="22.426" viewBox="0 0 22.426 22.426">
  <g id="Groupe_852" data-name="Groupe 852" transform="translate(224.245 -743.229)">
    <path id="Tracé_616" data-name="Tracé 616" d="M-224.245,751.544c.06-.284.106-.571.181-.851a5.234,5.234,0,0,1,4.441-3.834,8.987,8.987,0,0,1,1.223-.038.841.841,0,0,1,.81.887.866.866,0,0,1-.844.86,8.294,8.294,0,0,0-1.452.135,3.427,3.427,0,0,0-2.6,3.286c-.02,2.452-.026,4.9,0,7.357a3.488,3.488,0,0,0,3.513,3.412c1.825.009,3.649,0,5.474,0q3.175,0,6.35,0a3.486,3.486,0,0,0,3.416-2.5,3.894,3.894,0,0,0,.155-1.054q.02-3.547.005-7.094a3.479,3.479,0,0,0-2.889-3.479,8.762,8.762,0,0,0-1.221-.065.855.855,0,0,1-.836-.844.825.825,0,0,1,.773-.894,8.808,8.808,0,0,1,1.763.1,5.3,5.3,0,0,1,4.123,4.435.413.413,0,0,0,.041.1v8.322c-.036.184-.068.369-.109.552a5.251,5.251,0,0,1-5.206,4.177q-5.9,0-11.8,0a6.163,6.163,0,0,1-.7-.04,5.236,5.236,0,0,1-4.4-3.712c-.093-.32-.148-.65-.221-.976Z" transform="translate(0 -2.358)"/>
    <path id="Tracé_617" data-name="Tracé 617" d="M-196.267,743.229c.178.056.359.106.534.171a2.632,2.632,0,0,1,1.645,3.029,2.641,2.641,0,0,1-2.774,2.05,2.575,2.575,0,0,1-2.413-2.561,2.561,2.561,0,0,1,2.186-2.646.732.732,0,0,0,.121-.043Zm.483,2.621a.888.888,0,0,0-.864-.868.869.869,0,0,0-.878.872.872.872,0,0,0,.892.879A.89.89,0,0,0-195.784,745.85Z" transform="translate(-16.415 0)"/>
    <path id="Tracé_618" data-name="Tracé 618" d="M-205.684,805.331a3,3,0,0,1-.317-.178.881.881,0,0,1-.294-.981.835.835,0,0,1,.829-.592q4.214,0,8.429,0a.865.865,0,0,1,.839.672.887.887,0,0,1-.449.981l-.189.1Z" transform="translate(-11.772 -39.676)"/>
    <path id="Tracé_619" data-name="Tracé 619" d="M-199.442,761.761a3.819,3.819,0,0,1,3.041,1.193,3.705,3.705,0,0,1,1.074,2.647.862.862,0,0,1-.859.889.864.864,0,0,1-.891-.856,2.131,2.131,0,0,0-2.185-2.122,2.992,2.992,0,0,0-1.392.2,2.085,2.085,0,0,0-1.241,1.909.869.869,0,0,1-.9.869.845.845,0,0,1-.842-.9,4.6,4.6,0,0,1,.149-1.055,3.857,3.857,0,0,1,3.7-2.776Z" transform="translate(-13.546 -12.18)"/>
    <path id="Tracé_620" data-name="Tracé 620" d="M-199.486,779.927a1.085,1.085,0,0,1,1.086,1.081,1.073,1.073,0,0,1-1.1,1.1,1.073,1.073,0,0,1-1.085-1.123A1.085,1.085,0,0,1-199.486,779.927Z" transform="translate(-15.553 -24.126)"/>
    <path id="Tracé_621" data-name="Tracé 621" d="M-210.986,779.927a1.085,1.085,0,0,1,1.083,1.083,1.086,1.086,0,0,1-1.084,1.1,1.073,1.073,0,0,1-1.1-1.105A1.071,1.071,0,0,1-210.986,779.927Z" transform="translate(-7.992 -24.126)"/>
    <path id="Tracé_622" data-name="Tracé 622" d="M-186.889,781.022a1.087,1.087,0,0,1-1.074,1.093,1.073,1.073,0,0,1-1.112-1.1,1.072,1.072,0,0,1,1.114-1.093A1.087,1.087,0,0,1-186.889,781.022Z" transform="translate(-23.122 -24.126)"/>
    <path id="Tracé_623" data-name="Tracé 623" d="M-175.382,781.023a1.087,1.087,0,0,1-1.075,1.092,1.073,1.073,0,0,1-1.111-1.1,1.072,1.072,0,0,1,1.115-1.092A1.087,1.087,0,0,1-175.382,781.023Z" transform="translate(-30.687 -24.126)"/>
  </g>
</svg>
