<svg xmlns="http://www.w3.org/2000/svg" width="12.336" height="14.238" viewBox="0 0 12.336 14.238">
  <g id="Groupe_637" data-name="Groupe 637" transform="translate(-937.478 -138.07)">
    <path id="Tracé_529" data-name="Tracé 529" d="M954.253,138.07a3.8,3.8,0,1,1-3.795,3.791A3.8,3.8,0,0,1,954.253,138.07Z" transform="translate(-10.61 0)" fill="#959292"/>
    <path id="Tracé_530" data-name="Tracé 530" d="M940.587,178.851a4.811,4.811,0,0,0,5.307.545,3.623,3.623,0,0,0-.12,1.264c-.224,0-.449,0-.674,0a1.44,1.44,0,0,0-.787.22,1.422,1.422,0,0,0,.712,2.626c.246.006.492,0,.755,0,0,.218,0,.424,0,.63a1.465,1.465,0,0,0,1.181,1.507h-7.988a1.416,1.416,0,0,1-1.495-1.514A6.151,6.151,0,0,1,940.587,178.851Z" transform="translate(0 -33.335)" fill="#959292"/>
    <path id="Tracé_531" data-name="Tracé 531" d="M979.539,184.4h.6c.351,0,.7,0,1.052,0a.473.473,0,1,1,0,.947c-.494,0-.988,0-1.482,0h-.176v.542c0,.356,0,.712,0,1.067a.477.477,0,1,1-.949-.007c0-.528,0-1.055,0-1.6h-.168c-.484,0-.969,0-1.453,0a.476.476,0,1,1,0-.948c.524,0,1.047,0,1.571,0a.358.358,0,0,0,.049-.011v-.151q0-.719,0-1.438a.478.478,0,1,1,.949.006C979.54,183.327,979.539,183.85,979.539,184.4Z" transform="translate(-31.861 -36.124)" fill="#959292"/>
  </g>
</svg>
