<svg xmlns="http://www.w3.org/2000/svg" width="22.441" height="23.9" viewBox="0 0 22.441 23.9">
  <g id="Groupe_736" data-name="Groupe 736" transform="translate(-545.7 -917.819)">
    <path id="Tracé_549" data-name="Tracé 549" d="M567.663,917.969c.408.266.436.544.087.893q-3.412,3.413-6.827,6.822a.39.39,0,0,0-.133.377c.215,1.4.42,2.8.629,4.206.082.553.157,1.108.25,1.66A2.154,2.154,0,0,0,562.9,933.6c.579.28,1.176.521,1.764.782a4.332,4.332,0,0,1,2.725,3.548,10.339,10.339,0,0,1,.017,2.3,1.5,1.5,0,0,1-1.161,1.291c-.05.016-.1.035-.149.053h-5.531c-.3-.071-.595-.128-.885-.216a4.8,4.8,0,0,1-2.021-1.236q-4.077-4.055-8.158-8.1-1.529-1.519-3.059-3.035a1.638,1.638,0,0,1-.006-2.514q4.128-4.133,8.26-8.264c.079-.079.164-.153.246-.23h.323c.408.273.433.543.083.895q-.879.881-1.761,1.758a1.711,1.711,0,0,1-.254.177,2.919,2.919,0,0,1,.569,1.425c.03.3.022.613.023.92a2.287,2.287,0,0,0,2.387,2.391c1.068,0,2.135,0,3.2,0a.535.535,0,0,0,.421-.173q3.554-3.565,7.117-7.12c.1-.1.223-.185.335-.277Zm-1.192,20.1a1.837,1.837,0,0,0-.02-.222,3.5,3.5,0,0,0-1.983-2.529c-.594-.284-1.2-.534-1.809-.8a3.365,3.365,0,0,1-1.328-1.037.412.412,0,0,0-.282-.138c-.714-.011-1.429,0-2.143-.008-.355,0-.559-.184-.552-.476.007-.276.219-.455.552-.457s.661,0,.991,0h.9l-.212-1.35c-.732,0-1.446,0-2.159,0-.346,0-.563-.189-.559-.476s.21-.454.551-.457c.584,0,1.168,0,1.751,0h.28l-.2-1.365c-.824,0-1.615,0-2.405,0a.47.47,0,0,1-.527-.452c-.005-.279.207-.467.535-.467q1,0,2,0h.259l-.205-1.364h-.289c-1.114,0-2.228,0-3.341,0a3.226,3.226,0,0,1-3.123-2.211,4.792,4.792,0,0,1-.154-1.572,2.066,2.066,0,0,0-.281-1.117l-3.969,3.97,2.409,2.5c.726.751,1.458,1.5,2.171,2.259a.789.789,0,0,1,.186.463.387.387,0,0,1-.323.373.487.487,0,0,1-.511-.181c-1.088-1.128-2.169-2.262-3.27-3.377-.457-.463-.958-.882-1.447-1.329-.259.26-.591.591-.92.924a.7.7,0,0,0,.009,1.107q5.639,5.6,11.28,11.205a3.723,3.723,0,0,0,2.607,1.155c1.62.032,3.241.014,4.862.009a.685.685,0,0,0,.7-.608c.023-.341.005-.686.005-1.05h-.269c-1.506,0-3.011-.005-4.516,0a2.854,2.854,0,0,1-2.159-.912q-1.919-1.991-3.841-3.979a1.381,1.381,0,0,1-.151-.173.452.452,0,0,1,.06-.588.461.461,0,0,1,.591-.042,1.56,1.56,0,0,1,.183.175c1.254,1.3,2.513,2.592,3.759,3.9a2.141,2.141,0,0,0,1.637.7c1.467-.008,2.934,0,4.4,0Z" stroke="#000" stroke-width="0.3"/>
    <path id="Tracé_550" data-name="Tracé 550" d="M570.114,958.743a.445.445,0,0,1-.461-.461.46.46,0,0,1,.443-.462.48.48,0,0,1,.479.457A.46.46,0,0,1,570.114,958.743Z" transform="translate(-15.595 -26.11)" stroke="#000" stroke-width="0.3"/>
  </g>
</svg>
