<svg xmlns="http://www.w3.org/2000/svg" width="25" height="21.902" viewBox="0 0 25 21.902">
  <g id="Groupe_338" data-name="Groupe 338" transform="translate(-335.329 -350.848)">
    <path id="Tracé_239" data-name="Tracé 239" d="M360.329,354.862v.684a1.044,1.044,0,0,0-.044.16q-.3,2.678-.6,5.357c-.242,2.141-.489,4.281-.726,6.423a2.412,2.412,0,0,1-1.8,2.337c-.239.065-.285.168-.274.383a2.211,2.211,0,0,1-.564,1.639,2.712,2.712,0,0,1-2.151.906q-3.845-.007-7.689,0-4.357,0-8.714,0a2.235,2.235,0,0,1-2-1,5.693,5.693,0,0,1-.431-1.069V357.694a.352.352,0,0,0,.036-.087,2.409,2.409,0,0,1,2.488-2.162c.247.015.5,0,.755,0,.1-.805.2-1.578.284-2.354a2.429,2.429,0,0,1,2.805-2.223c1.218.151,2.438.285,3.657.423q3.113.353,6.227.7c2.124.24,4.246.5,6.372.717a2.534,2.534,0,0,1,2.331,2.069A.292.292,0,0,0,360.329,354.862Zm-23.783,11.753.3-.217q1.806-1.313,3.612-2.625a2.714,2.714,0,0,1,3.594.17q1.539,1.355,3.077,2.71a1.566,1.566,0,0,0,2.035.2q3.151-1.833,6.3-3.666a.362.362,0,0,0,.212-.361c-.008-1.538,0-3.076,0-4.613a1.412,1.412,0,0,0-1.561-1.552H337.88c-.081,0-.163,0-.244,0a.987.987,0,0,0-.694.31,1.473,1.473,0,0,0-.4,1.091q0,4.15,0,8.3Zm19.127-2.118c-.12.067-.2.108-.271.151q-2.786,1.612-5.572,3.222a3.67,3.67,0,0,1-.543.274,2.783,2.783,0,0,1-2.97-.575c-1.045-.906-2.074-1.83-3.115-2.74a1.43,1.43,0,0,0-1.935-.158c-1.541,1.116-3.07,2.249-4.6,3.38a.313.313,0,0,0-.116.215c-.008.748-.014,1.5,0,2.245a1.052,1.052,0,0,0,.832.99,2.454,2.454,0,0,0,.486.033q8.128,0,16.255,0c.1,0,.2,0,.292-.012a1.246,1.246,0,0,0,1.255-1.354q0-2.685,0-5.37Zm1.21,4.151a1.072,1.072,0,0,0,.773-.9q.19-1.623.378-3.247.281-2.423.562-4.846c.168-1.446.344-2.89.5-4.337a1.184,1.184,0,0,0-1.036-1.337c-.554-.088-1.113-.137-1.67-.2q-3.9-.455-7.8-.908c-2.334-.27-4.669-.533-7-.8a1.26,1.26,0,0,0-1.516,1.2c-.029.267-.062.533-.092.8-.051.456-.1.912-.152,1.386h.32q7.018,0,14.036,0a2.606,2.606,0,0,1,1.225.27,2.579,2.579,0,0,1,1.476,2.447q0,5.077,0,10.154Z" transform="translate(0)"/>
    <path id="Tracé_240" data-name="Tracé 240" d="M377.846,387.114a3.055,3.055,0,1,1,3.057-3.048A3.075,3.075,0,0,1,377.846,387.114Zm-1.593-3.05a1.6,1.6,0,1,0,1.6-1.6A1.6,1.6,0,0,0,376.254,384.064Z" transform="translate(-29.869 -22.897)"/>
  </g>
</svg>
