<svg xmlns="http://www.w3.org/2000/svg" width="13.961" height="13.961" viewBox="0 0 13.961 13.961">
  <g id="Groupe_160" data-name="Groupe 160" transform="translate(-522.247 -261.953)">
    <path id="Tracé_215" data-name="Tracé 215" d="M522.247,281.5c.045-.327.077-.657.137-.981a6.68,6.68,0,0,1,.79-2.118.183.183,0,0,1,.1-.078,2.131,2.131,0,0,1,.393-.073l-.454.366a1.089,1.089,0,0,0,.68.274,7.8,7.8,0,0,0,1.467-.191.23.23,0,0,1,.29.13c.183.318.384.627.572.943a.426.426,0,0,1,.057.2c.006.3,0,.591.006.886a.4.4,0,0,0,.068.21c.281.391.571.775.853,1.165a.187.187,0,0,0,.245.085v-.4l.028,0c.1.211.206.42.3.633a.222.222,0,0,0,.175.144c.3.062.6.127.9.2a.55.55,0,0,1,.24.133c.251.248.474.534.9.535a4.887,4.887,0,0,1-.281.58.65.65,0,0,0,.019.822,5,5,0,0,1,.6,1.609.308.308,0,0,1-.007.146c-.071.3-.13.6-.224.9a2.524,2.524,0,0,0-.019.944c0,.067.01.134.016.207l-.519.066h-.763a.733.733,0,0,0-.105-.023,6.553,6.553,0,0,1-2.738-.786,6.888,6.888,0,0,1-3.619-4.971c-.051-.27-.074-.546-.109-.819Z" transform="translate(0 -12.919)"/>
    <path id="Tracé_216" data-name="Tracé 216" d="M560.229,274.622c-.035.3-.055.6-.107.889a6.986,6.986,0,0,1-5.127,5.557c-.017,0-.035.011-.052.014a.218.218,0,0,1-.045,0c.067-.215.067-.44.31-.577a10.645,10.645,0,0,0,.9-.595.469.469,0,0,0,.151-.195c.086-.2.152-.418.238-.623a.318.318,0,0,1,.135-.15c.21-.108.427-.2.639-.3a.25.25,0,0,0,.112-.09c.254-.476.5-.955.756-1.441-.037-.025-.069-.049-.1-.069-.133-.079-.261-.166-.4-.233a3.511,3.511,0,0,1-1.258-1.037.38.38,0,0,0-.2-.106c-.189-.047-.381-.079-.572-.118-.329-.068-.655-.152-.986-.2a.9.9,0,0,0-.407.083.26.26,0,0,1-.365-.1.686.686,0,0,0-.539-.315l.026-.507c-.268-.038-.5-.023-.627.281l-.025-.034-.13-.546c.17-.081.332-.161.5-.233a.161.161,0,0,1,.113.01c.129.055.252.129.385.172a1.494,1.494,0,0,0,.344.048.094.094,0,0,0,.069-.061c.029-.364.293-.588.489-.857a2.783,2.783,0,0,1,1.031-.832,1.4,1.4,0,0,1,1.2-.174c.125-.242.115-.321-.048-.487-.092-.094-.18-.194-.278-.281a2.361,2.361,0,0,1-.665-.931.157.157,0,0,0-.185-.115,1.057,1.057,0,0,1-.581-.132,2.694,2.694,0,0,0-.644-.132l-.134.734c-.235-.044-.461-.084-.686-.133-.029-.006-.063-.063-.066-.1-.011-.123-.051-.271,0-.361.04-.067.206-.07.317-.082a.253.253,0,0,0,.254-.252c.029-.2.088-.4.139-.615.18.074.357.14.526.221.028.014.042.1.033.142a.224.224,0,0,0,.2.3.726.726,0,0,1,.176.072.543.543,0,0,0,.683-.094c-.115-.131-.229-.271-.353-.4a4.816,4.816,0,0,0-.44-.427.392.392,0,0,1-.125-.454c.276.092.567.065.827.276a1.859,1.859,0,0,1,.62,1.036.545.545,0,0,0,.184.291c.207.177.4.368.61.544a3.78,3.78,0,0,0,.353.235c.1-.158.187-.285.262-.418a.228.228,0,0,1,.2-.128c.308-.021.615-.052.923-.08a.561.561,0,0,0,.068-.007c.21-.043.209-.044.326.143a6.863,6.863,0,0,1,1.035,3.219c0,.044.013.089.02.133Z" transform="translate(-24.021 -5.389)"/>
    <path id="Tracé_217" data-name="Tracé 217" d="M535.844,261.953c.255.036.511.065.765.109a6.737,6.737,0,0,1,1.718.541l0,.045a1.882,1.882,0,0,1-.421-.025.8.8,0,0,0-.835.186c-.13.125-.256.256-.389.378a.284.284,0,0,1-.148.075c-.347.039-.695.082-1.044.1a5,5,0,0,1-.54-.05.183.183,0,0,0-.138.06c-.091.124-.163.262-.254.387a.235.235,0,0,1-.149.09,7.427,7.427,0,0,1-.884.041,2.407,2.407,0,0,1-.552-.136.267.267,0,0,0-.256.027,1.962,1.962,0,0,1-1.034.33,6.911,6.911,0,0,0-1.485.329l-.128.036-.027-.033c.259-.257.506-.527.78-.767a6.869,6.869,0,0,1,3.45-1.63c.232-.039.466-.063.7-.094Zm-.567.944c.125.073.219.174.316.176a1.435,1.435,0,0,0,.627-.076,3.985,3.985,0,0,0,.652-.478c-.148-.086-.275-.163-.406-.233a.119.119,0,0,0-.1,0C536.013,262.48,535.66,262.681,535.277,262.9Zm-2.132.183c.137.081.262.155.388.227a.141.141,0,0,0,.087.027c.3-.077.608-.159.922-.242-.061-.106-.119-.194-.164-.287s-.086-.1-.17-.065a.554.554,0,0,1-.578-.018.03.03,0,0,0-.018,0Z" transform="translate(-6.181)"/>
    <path id="Tracé_218" data-name="Tracé 218" d="M555.3,264.126c.383-.217.736-.417,1.092-.614a.119.119,0,0,1,.1,0c.131.071.258.148.406.233a3.977,3.977,0,0,1-.652.478,1.435,1.435,0,0,1-.627.076C555.521,264.3,555.427,264.2,555.3,264.126Z" transform="translate(-26.205 -1.229)" fill="#fff"/>
    <path id="Tracé_219" data-name="Tracé 219" d="M545.013,266.007l.467-.362a.03.03,0,0,1,.018,0,.554.554,0,0,0,.577.018c.084-.04.131-.016.17.065s.1.181.164.287c-.314.083-.617.165-.922.242a.141.141,0,0,1-.087-.027C545.275,266.163,545.15,266.088,545.013,266.007Z" transform="translate(-18.049 -2.927)" fill="#fff"/>
  </g>
</svg>
