<svg xmlns="http://www.w3.org/2000/svg" width="21.298" height="21.298" viewBox="0 0 21.298 21.298">
  <g id="Groupe_1821" data-name="Groupe 1821" transform="translate(-1272.552 -839.134)">
    <path id="Tracé_5411" data-name="Tracé 5411" d="M1293.55,842.3v11.8a.3.3,0,0,0-.033.071,3.229,3.229,0,0,1-3.309,2.795q-4.04,0-8.08,0a.447.447,0,0,0-.351.147c-.682.69-1.376,1.366-2.052,2.061a2.864,2.864,0,0,1-1.456.953h-.566c-.043-.015-.085-.032-.129-.043a1.887,1.887,0,0,1-1.507-1.553,4.925,4.925,0,0,1-.03-.826c0-.24,0-.481,0-.723l-.3-.038a3.229,3.229,0,0,1-2.778-2.412c-.037-.142-.067-.285-.1-.428V842.3a.858.858,0,0,0,.036-.111,3.2,3.2,0,0,1,2.388-2.654c.146-.044.3-.07.446-.1h14.957a.716.716,0,0,0,.112.036,3.235,3.235,0,0,1,2.66,2.407C1293.487,842.019,1293.517,842.162,1293.55,842.3Zm-10.343-1.253q-3.537,0-7.074,0a1.609,1.609,0,0,0-1.663,1.657q0,5.5,0,11a1.618,1.618,0,0,0,1.589,1.652,1.567,1.567,0,0,1,1.594,1.667c0,.377,0,.755,0,1.132a.319.319,0,0,0,.2.336.342.342,0,0,0,.392-.13c.8-.806,1.617-1.6,2.412-2.419a1.861,1.861,0,0,1,1.422-.591c2.7.012,5.4.005,8.105.005a1.626,1.626,0,0,0,1.744-1.74q0-5.407,0-10.814a1.625,1.625,0,0,0-1.752-1.751Z" transform="translate(0 0)" stroke="#fff" stroke-width="0.6"/>
    <path id="Tracé_5412" data-name="Tracé 5412" d="M1299.052,865.175q-2.364,0-4.727,0a.808.808,0,0,1-.094-1.614c.074,0,.148,0,.222,0h9.231a1.487,1.487,0,0,1,.3.018.807.807,0,0,1-.187,1.6Q1301.426,865.178,1299.052,865.175Z" transform="translate(-15.855 -18.545)" stroke="#fff" stroke-width="0.6"/>
    <path id="Tracé_5413" data-name="Tracé 5413" d="M1297.041,884.187c.923,0,1.846,0,2.769,0a.8.8,0,0,1,.771.546.757.757,0,0,1-.25.871.975.975,0,0,1-.515.19c-1.839.014-3.678.011-5.517.007a.807.807,0,1,1,.014-1.614C1295.222,884.184,1296.131,884.187,1297.041,884.187Z" transform="translate(-15.861 -34.404)" stroke="#fff" stroke-width="0.6"/>
    <path id="Tracé_5414" data-name="Tracé 5414" d="M1330.741,885.791c-.141,0-.283.006-.424,0a.806.806,0,0,1,0-1.611c.282-.01.565-.01.848,0a.807.807,0,0,1,0,1.612C1331.024,885.8,1330.882,885.791,1330.741,885.791Z" transform="translate(-43.585 -34.392)" stroke="#fff" stroke-width="0.6"/>
  </g>
</svg>
