<svg xmlns="http://www.w3.org/2000/svg" width="20" height="27.683" viewBox="0 0 20 27.683">
  <g id="Groupe_340" data-name="Groupe 340" transform="translate(-245.748 -410.531)">
    <path id="Tracé_245" data-name="Tracé 245" d="M247.8,410.531a2.076,2.076,0,0,1,1.249,1.035c.429.707.9,1.388,1.345,2.088a.762.762,0,0,0,.838.4c.213-.036.429-.052.642-.085a1.809,1.809,0,0,1,1.927.847q1.278,1.955,2.54,3.92a.467.467,0,0,0,.455.241q3.445-.011,6.89,0a1.874,1.874,0,0,1,2.06,2.061q0,5.35,0,10.7a1.84,1.84,0,0,1-1.528,1.91,2.024,2.024,0,0,1-.376.026q-3.067,0-6.134,0h-.323c.129.47.245.912.379,1.349.016.054.132.1.2.108.261.013.522,0,.784.006a1.411,1.411,0,0,1,1.46,1.416c.008.179,0,.359,0,.58.408,0,.8-.006,1.193,0a.527.527,0,0,1,.532.73c-.065.141-.231.235-.352.35H249.909c-.12-.115-.286-.209-.352-.35a.527.527,0,0,1,.533-.729c.392-.008.785,0,1.192,0,0-.221-.007-.4,0-.581a1.41,1.41,0,0,1,1.462-1.415c.262,0,.523.008.784-.006.072,0,.187-.056.2-.11.134-.437.249-.879.378-1.347h-6.354a1.852,1.852,0,0,1-2.007-2q0-3.73,0-7.461c0-1.127-.006-2.253,0-3.379a1.828,1.828,0,0,1,1.531-1.825,1.546,1.546,0,0,0,.178-.06,1.891,1.891,0,0,1,.094-2.264c.057-.081.1-.173.159-.251a.9.9,0,0,0,0-1.205c-.505-.723-.971-1.474-1.447-2.217a1.551,1.551,0,0,1,.854-2.428.438.438,0,0,0,.086-.053ZM254.607,430a.5.5,0,0,0-.027-.085q-3.152-4.861-6.306-9.72a.316.316,0,0,0-.13-.128.94.94,0,0,0-1.311.9q0,4.378,0,8.757c0,.087.007.174.012.271Zm2.6-9.941.647,1q2.83,4.359,5.661,8.717c.056.086.132.218.207.224.308.026.62.011.945.011V429.7q0-4.35,0-8.7c0-.658-.279-.939-.934-.939h-6.525Zm-10.375,11.05c0,.176,0,.336,0,.5,0,.734.256.99.988.99h15.862a3.311,3.311,0,0,0,.351-.008.579.579,0,0,0,.563-.464c.062-.328.064-.668.094-1.013Zm7.668-9.091-.843.553a.32.32,0,0,0,.013.055q2.35,3.626,4.7,7.25c.033.05.085.122.13.123.378.01.757.006,1.184.006l-1.7-2.613c-.171-.264-.351-.524-.509-.8a.535.535,0,0,1,.892-.589,2.283,2.283,0,0,1,.137.2q1.168,1.8,2.339,3.6c.051.078.129.189.2.192.425.018.851.009,1.327.009l-5.987-9.222-.976.644c.265.41.525.808.781,1.209a1.08,1.08,0,0,1,.143.288.529.529,0,0,1-.29.608.538.538,0,0,1-.686-.2C255.073,422.9,254.8,422.473,254.5,422.016Zm-5.273-2.365c.05.086.087.156.13.222q.845,1.3,1.691,2.606c.191.293.271.31.565.12q1.926-1.249,3.851-2.5c.29-.189.306-.267.112-.566q-.845-1.3-1.692-2.605c-.043-.066-.093-.128-.15-.205l-.876.569c.065.106.115.19.168.271.269.416.547.826.806,1.248a.535.535,0,0,1-.356.836.555.555,0,0,1-.584-.3c-.311-.484-.626-.965-.948-1.46l-.972.631c.055.092.1.17.145.244.259.4.526.8.777,1.2a.538.538,0,1,1-.9.594c-.085-.116-.158-.241-.236-.362l-.708-1.083Zm3.917-3.836c-.405-.746-.6-.914-1.365-.74a2.111,2.111,0,0,1-2.544-1.208c-.382-.691-.853-1.334-1.284-2-.118-.181-.293-.316-.5-.238a.717.717,0,0,0-.379.361.6.6,0,0,0,.112.443q.733,1.165,1.495,2.312a1.811,1.811,0,0,1,.018,2.146c-.131.2-.26.411-.382.621a.7.7,0,0,0-.027.7c.093.182.216.35.333.537Zm-1.29,7.905c1.344,2.071,2.671,4.115,4,6.159.032.049.086.118.131.119.378.01.757.006,1.18.006l-4.437-6.834Zm.544,13.393h6.737V436.8c0-.523-.062-.585-.593-.585-1.8,0-3.6.007-5.4,0-.76,0-.815.012-.768.86C252.373,437.082,252.382,437.089,252.4,437.113Zm4.265-1.985c-.071-.254-.133-.478-.2-.7-.226-.805-.226-.805-1.071-.751-.018,0-.041-.006-.053,0-.046.032-.116.06-.129.1-.13.442-.25.888-.378,1.348Z" transform="translate(0 0)"/>
    <path id="Tracé_246" data-name="Tracé 246" d="M278.623,453.2a.643.643,0,0,1-.667-.639.659.659,0,0,1,.661-.686.671.671,0,0,1,.656.663A.657.657,0,0,1,278.623,453.2Z" transform="translate(-21.765 -27.891)"/>
  </g>
</svg>
