<svg xmlns="http://www.w3.org/2000/svg" width="24.668" height="21.382" viewBox="0 0 24.668 21.382">
  <g id="Groupe_341" data-name="Groupe 341" transform="translate(-107.689 -356.585)">
    <path id="Tracé_247" data-name="Tracé 247" d="M120.021,377.967h-9.2a3.008,3.008,0,0,1-3.133-3.139q0-5.909,0-11.819a3.008,3.008,0,0,1,3.141-3.131c1.054,0,2.107,0,3.16,0,.175,0,.257-.044.308-.217.112-.377.239-.75.376-1.118a2.965,2.965,0,0,1,2.782-1.955q2.57-.013,5.139,0a2.959,2.959,0,0,1,2.778,1.96c.131.352.253.709.358,1.07a.3.3,0,0,0,.354.263c1.062-.014,2.124-.008,3.186-.006a3,3,0,0,1,3.084,3.084q0,5.961,0,11.922a3,3,0,0,1-3.085,3.083Q124.645,377.969,120.021,377.967Zm-.011-1.645h9.2a1.372,1.372,0,0,0,1.506-1.492q0-5.908,0-11.816a1.368,1.368,0,0,0-1.48-1.491q-1.952,0-3.9,0a.83.83,0,0,1-.9-.645c-.188-.55-.367-1.1-.554-1.653a1.352,1.352,0,0,0-1.37-.99q-2.479,0-4.958,0a1.352,1.352,0,0,0-1.37.99c-.184.542-.36,1.087-.543,1.63a.846.846,0,0,1-.937.668H110.84a1.374,1.374,0,0,0-1.506,1.517q0,5.883,0,11.765a1.377,1.377,0,0,0,1.531,1.519Z" transform="translate(0)"/>
    <path id="Tracé_248" data-name="Tracé 248" d="M129.038,382.692a6.167,6.167,0,1,1,6.156,6.164A6.17,6.17,0,0,1,129.038,382.692Zm10.689,0a4.522,4.522,0,1,0-4.505,4.521A4.527,4.527,0,0,0,139.727,382.691Z" transform="translate(-15.182 -14.178)"/>
    <path id="Tracé_249" data-name="Tracé 249" d="M176.834,379.371a.822.822,0,1,1-.828.807A.828.828,0,0,1,176.834,379.371Z" transform="translate(-48.582 -16.204)"/>
  </g>
</svg>
