<svg xmlns="http://www.w3.org/2000/svg" width="22.571" height="19.098" viewBox="0 0 22.571 19.098">
  <g id="Groupe_361" data-name="Groupe 361" transform="translate(-460.078 -494.829)">
    <path id="Tracé_280" data-name="Tracé 280" d="M464.409,498.3c-1.112,0-2.2,0-3.3,0a1.6,1.6,0,0,1-.35-.023.865.865,0,0,1,.2-1.71c1.048-.006,2.1,0,3.145,0h.3a1.806,1.806,0,0,1,.609-1.307,1.7,1.7,0,0,1,1.141-.428q.827,0,1.654,0a1.737,1.737,0,0,1,1.812,1.614c0,.034.011.067.02.121h11.959a1.783,1.783,0,0,1,.351.019.866.866,0,0,1-.121,1.714c-.09.006-.181,0-.271,0H469.651c-.018.108-.031.2-.049.3a1.729,1.729,0,0,1-1.72,1.438c-.515.005-1.03,0-1.546,0A1.771,1.771,0,0,1,464.409,498.3Zm3.467-.012v-1.7h-1.7v1.7Z" transform="translate(-0.003)" fill="#9b8f80"/>
    <path id="Tracé_281" data-name="Tracé 281" d="M471.351,516.238a1.766,1.766,0,0,1,1.908-1.736h1.328a1.785,1.785,0,0,1,2.006,1.736h.289q2.426,0,4.853,0a.871.871,0,0,1,.885.656.822.822,0,0,1-.381.934,1.248,1.248,0,0,1-.566.139c-1.591.011-3.181.006-4.772.006h-.308c-.022.125-.04.238-.063.349a1.722,1.722,0,0,1-1.68,1.385c-.524.008-1.049,0-1.573,0a1.771,1.771,0,0,1-1.928-1.736h-.314q-5,0-10,0a.87.87,0,1,1-.019-1.734q2.359,0,4.718,0h5.62Zm1.761,1.716h1.7v-1.7h-1.7Z" transform="translate(0 -12.727)" fill="#9b8f80"/>
    <path id="Tracé_282" data-name="Tracé 282" d="M464.41,537.639h-.733c-.886,0-1.771,0-2.657,0a.869.869,0,1,1-.009-1.734c1.03,0,2.061,0,3.091,0h.3c.038-.183.06-.352.109-.513a1.725,1.725,0,0,1,1.619-1.221c.524-.009,1.049,0,1.572,0a1.773,1.773,0,0,1,1.952,1.736h.315q5.843,0,11.685,0a1.333,1.333,0,0,1,.571.123.837.837,0,0,1,.412.923.877.877,0,0,1-.783.681c-.1.008-.2,0-.3,0H469.646a1.823,1.823,0,0,1-.547,1.25,1.706,1.706,0,0,1-1.2.485q-.827.005-1.654,0a1.742,1.742,0,0,1-1.815-1.612C464.425,537.729,464.419,537.695,464.41,537.639Zm1.772-1.724v1.7h1.7v-1.7Z" transform="translate(-0.007 -25.449)" fill="#9b8f80"/>
  </g>
</svg>
