<svg xmlns="http://www.w3.org/2000/svg" width="18.008" height="18.008" viewBox="0 0 18.008 18.008">
  <g id="Groupe_629" data-name="Groupe 629" transform="translate(235.468 -624.129)">
    <path id="Tracé_520" data-name="Tracé 520" d="M-235.218,672.9c.035-.136.065-.274.1-.409a2.566,2.566,0,0,1,2.64-1.843,2.567,2.567,0,0,1,2.357,2.194,2.561,2.561,0,0,1-2.118,2.9,2.566,2.566,0,0,1-2.951-2.129.562.562,0,0,0-.032-.094Zm2.565-1.23a1.54,1.54,0,0,0-1.539,1.528,1.54,1.54,0,0,0,1.537,1.547,1.54,1.54,0,0,0,1.539-1.528A1.541,1.541,0,0,0-232.653,671.669Z" transform="translate(0 -35.457)" fill="#707070" stroke="#707070" stroke-width="0.5"/>
    <path id="Tracé_521" data-name="Tracé 521" d="M-177.091,673.52c-.032.125-.061.252-.1.376a2.566,2.566,0,0,1-2.925,1.841,2.575,2.575,0,0,1-2.105-2.712,2.578,2.578,0,0,1,2.426-2.375,2.568,2.568,0,0,1,2.663,2.124c.009.055.025.109.037.164Zm-2.562,1.23a1.54,1.54,0,0,0,1.536-1.532,1.539,1.539,0,0,0-1.54-1.544,1.542,1.542,0,0,0-1.536,1.532A1.54,1.54,0,0,0-179.654,674.75Z" transform="translate(-40.619 -35.463)" fill="#707070" stroke="#707070" stroke-width="0.5"/>
    <path id="Tracé_522" data-name="Tracé 522" d="M-205.826,624.379c.137.034.274.065.409.1a2.573,2.573,0,0,1,1.842,2.646,2.569,2.569,0,0,1-2.2,2.352,2.565,2.565,0,0,1-2.887-2.115,2.566,2.566,0,0,1,2.128-2.954.584.584,0,0,0,.093-.032Zm-.3,1.026a1.543,1.543,0,0,0-1.547,1.521,1.543,1.543,0,0,0,1.529,1.556,1.543,1.543,0,0,0,1.547-1.521A1.542,1.542,0,0,0-206.125,625.405Z" transform="translate(-20.33)" fill="#707070" stroke="#707070" stroke-width="0.5"/>
    <path id="Tracé_523" data-name="Tracé 523" d="M-209.623,693.664c-.314-.046-.63-.082-.942-.139a7.308,7.308,0,0,1-2.012-.687l.458-.9a6.746,6.746,0,0,0,6.015,0c.075.146.153.3.23.446s.148.294.237.473c-.327.133-.641.277-.965.391a7.13,7.13,0,0,1-1.864.39.883.883,0,0,0-.131.029Z" transform="translate(-17.354 -51.776)" fill="#707070" stroke="#707070" stroke-width="0.5"/>
    <path id="Tracé_524" data-name="Tracé 524" d="M-229.6,644.753l-1.011-.054a7.506,7.506,0,0,1,.81-3.039,7.687,7.687,0,0,1,2.653-2.969l.558.849A6.765,6.765,0,0,0-229.6,644.753Z" transform="translate(-3.531 -10.97)" fill="#707070" stroke="#707070" stroke-width="0.5"/>
    <path id="Tracé_525" data-name="Tracé 525" d="M-178.065,644.718l-1,.055a6.767,6.767,0,0,0-3.01-5.215l.554-.844A7.607,7.607,0,0,1-178.065,644.718Z" transform="translate(-40.732 -10.987)" fill="#707070" stroke="#707070" stroke-width="0.5"/>
  </g>
</svg>
