<svg xmlns="http://www.w3.org/2000/svg" width="12.677" height="12.673" viewBox="0 0 12.677 12.673">
  <g id="Groupe_50" data-name="Groupe 50" transform="translate(-516.566 -234.341)">
    <path id="Tracé_149" data-name="Tracé 149" d="M528.507,243.921a.61.61,0,0,1,.046-.422,6.384,6.384,0,0,0,.461-4.432,6.173,6.173,0,0,0-4.391-4.495,6.754,6.754,0,0,0-1.734-.231,6.287,6.287,0,0,0-5,2.454,6.414,6.414,0,0,0-1.108,5.573,6.93,6.93,0,0,0,4.551,4.46,6.367,6.367,0,0,0,4.555-.574.6.6,0,0,1,.442-.058l2.719.72a.217.217,0,0,0,.151-.086.213.213,0,0,0,.037-.185Zm-2,1.6a1.324,1.324,0,0,0-.957.118,5.543,5.543,0,0,1-2.66.68,5.886,5.886,0,0,1-1.4-.171,6.24,6.24,0,0,1-4.038-3.952,5.713,5.713,0,0,1,.98-4.96,5.584,5.584,0,0,1,4.448-2.187,6.009,6.009,0,0,1,1.554.207,5.471,5.471,0,0,1,3.891,3.984,5.7,5.7,0,0,1-.407,3.949,1.3,1.3,0,0,0-.1.919l.508,1.9Z"/>
  </g>
</svg>
