<svg xmlns="http://www.w3.org/2000/svg" width="23" height="23" viewBox="0 0 23 23">
  <g id="Groupe_478" data-name="Groupe 478" transform="translate(195.926 -374.074)">
    <path id="Tracé_159" data-name="Tracé 159" d="M-186.67,374.074c.351.057.7.107,1.054.174a8.793,8.793,0,0,1,6.807,6.948,8.651,8.651,0,0,1-6.5,9.852,8.253,8.253,0,0,1-5.139-.328.3.3,0,0,0-.314.042,4.344,4.344,0,0,1-4.683.284.662.662,0,0,1-.3-.978,4.951,4.951,0,0,0,.464-4.194c-.231-.752-.389-1.526-.578-2.29-.031-.127-.046-.257-.068-.385v-1.1c.074-.445.111-.9.227-1.334a8.542,8.542,0,0,1,6.553-6.482c.407-.1.831-.143,1.248-.212Zm-7.511,16.062a3.008,3.008,0,0,0,2.871-.647.854.854,0,0,1,1.035-.148,6.909,6.909,0,0,0,4.086.534,7.32,7.32,0,0,0,6.066-8.461,7.333,7.333,0,0,0-7.889-5.967,7.14,7.14,0,0,0-5.649,3.714,6.486,6.486,0,0,0-.848,4.366,20.381,20.381,0,0,0,.574,2.222,5.871,5.871,0,0,1,.2,2.664C-193.843,388.983-194.026,389.539-194.182,390.136Z" transform="translate(0 0)"/>
    <path id="Tracé_160" data-name="Tracé 160" d="M-160.6,412.045c-.22-.046-.442-.083-.659-.139a4.177,4.177,0,0,1-1.461-.679.332.332,0,0,0-.355-.048,8.618,8.618,0,0,1-8.711-1.452.662.662,0,0,1-.253-.758.625.625,0,0,1,.561-.455.737.737,0,0,1,.577.212,7.18,7.18,0,0,0,3.374,1.574,7.125,7.125,0,0,0,4.284-.5.888.888,0,0,1,1.074.156,2.986,2.986,0,0,0,2.766.649,1.074,1.074,0,0,0,.108-.036c-.136-.442-.295-.865-.4-1.3a5.724,5.724,0,0,1,.232-3.338,7.278,7.278,0,0,0-1.094-7.43.685.685,0,0,1,.054-1,.671.671,0,0,1,.982.156,8.579,8.579,0,0,1,1.9,4.7c.007.071.025.14.038.211v1.141a1.262,1.262,0,0,0-.035.167,8.893,8.893,0,0,1-.607,2.543,4.276,4.276,0,0,0-.25,2.044,5.063,5.063,0,0,0,.7,2.032.669.669,0,0,1-.281,1,3.69,3.69,0,0,1-.638.283c-.354.107-.718.179-1.079.266Z" transform="translate(-15.352 -14.971)"/>
    <path id="Tracé_161" data-name="Tracé 161" d="M-183.836,398.945a1.044,1.044,0,0,1-1.052-1.057,1.058,1.058,0,0,1,1.065-1.05,1.061,1.061,0,0,1,1.042,1.052A1.046,1.046,0,0,1-183.836,398.945Z" transform="translate(-7.257 -14.966)"/>
    <path id="Tracé_162" data-name="Tracé 162" d="M-172.184,398.946a1.042,1.042,0,0,1-1.045-1.062,1.055,1.055,0,0,1,1.047-1.045,1.068,1.068,0,0,1,1.062,1.057A1.056,1.056,0,0,1-172.184,398.946Z" transform="translate(-14.922 -14.967)"/>
    <path id="Tracé_163" data-name="Tracé 163" d="M-159.486,397.89a1.04,1.04,0,0,1-1.051,1.055,1.055,1.055,0,0,1-1.057-1.056,1.067,1.067,0,0,1,1.047-1.051A1.054,1.054,0,0,1-159.486,397.89Z" transform="translate(-22.571 -14.966)"/>
  </g>
</svg>
