<svg xmlns="http://www.w3.org/2000/svg" width="24.281" height="24.335" viewBox="0 0 24.281 24.335">
  <g id="Groupe_295" data-name="Groupe 295" transform="translate(656.599 -129.346)">
    <path id="Tracé_236" data-name="Tracé 236" d="M-638.361,152.914a10.875,10.875,0,0,1-2.691-.6,21.283,21.283,0,0,1-6.534-3.838,26.687,26.687,0,0,1-6.677-8.042,14.844,14.844,0,0,1-1.547-4.333,1.693,1.693,0,0,1,.262-1.365,24.822,24.822,0,0,1,3.5-4.115,4.939,4.939,0,0,1,.5-.387.552.552,0,0,1,.725.039,2.374,2.374,0,0,1,.422.436,30.757,30.757,0,0,1,2.774,4.606c.416.878.375,1.028-.357,1.677-.462.41-.922.824-1.393,1.224a.433.433,0,0,0-.133.531,11.7,11.7,0,0,0,3.724,5.556,11.043,11.043,0,0,0,4.169,2.25.3.3,0,0,0,.354-.094c.407-.465.824-.922,1.23-1.388.7-.809.859-.855,1.818-.391a31.4,31.4,0,0,1,4.474,2.7,2.631,2.631,0,0,1,.48.45.519.519,0,0,1,.038.741,11.438,11.438,0,0,1-1.018,1.164,24.125,24.125,0,0,1-3.361,2.746C-637.87,152.668-638.166,152.805-638.361,152.914Z" fill="none" stroke="#369500" stroke-width="1.5"/>
    <path id="Tracé_237" data-name="Tracé 237" d="M-465.5,140.99h-1.6a8.888,8.888,0,0,0-2.633-6.307,8.865,8.865,0,0,0-6.311-2.641v-1.6A10.542,10.542,0,0,1-465.5,140.99Z" transform="translate(-167.605 -0.304)" fill="#369500"/>
    <path id="Tracé_238" data-name="Tracé 238" d="M-469.588,197.013H-471.2a4.894,4.894,0,0,0-1.446-3.439,4.864,4.864,0,0,0-3.432-1.438v-1.581A6.446,6.446,0,0,1-469.588,197.013Z" transform="translate(-167.583 -56.328)" fill="#369500"/>
  </g>
</svg>
