<svg xmlns="http://www.w3.org/2000/svg" xmlns:xlink="http://www.w3.org/1999/xlink" width="70" height="70" viewBox="0 0 70 70">
  <defs>
    <radialGradient id="radial-gradient" cx="0.5" cy="0.5" r="0.5" gradientUnits="objectBoundingBox">
      <stop offset="0" stop-color="#e1904e"/>
      <stop offset="1" stop-color="#cc615a"/>
    </radialGradient>
    <filter id="Rectangle_238" x="0" y="0" width="70" height="70" filterUnits="userSpaceOnUse">
      <feOffset dy="3" input="SourceAlpha"/>
      <feGaussianBlur stdDeviation="3" result="blur"/>
      <feFlood flood-opacity="0.161"/>
      <feComposite operator="in" in2="blur"/>
      <feComposite in="SourceGraphic"/>
    </filter>
  </defs>
  <g id="Groupe_647" data-name="Groupe 647" transform="translate(-313 -734)">
    <g transform="matrix(1, 0, 0, 1, 313, 734)" filter="url(#Rectangle_238)">
      <rect id="Rectangle_238-2" data-name="Rectangle 238" width="52" height="52" rx="9" transform="translate(9 6)" fill="url(#radial-gradient)"/>
    </g>
    <g id="Tracé_533" data-name="Tracé 533" transform="matrix(0.53, 0.848, -0.848, 0.53, 354.963, 744.199)" fill="#fff" stroke-linecap="round">
      <path d="M 25.44557189941406 26.33235740661621 C 24.71018409729004 25.98332786560059 23.40705490112305 25.39943695068359 21.78932952880859 24.82127571105957 C 19.44709014892578 23.98417663574219 15.94308948516846 22.98632621765137 12.55132007598877 22.98632621765137 C 9.156370162963867 22.98632621765137 5.890349864959717 23.985595703125 3.748309850692749 24.82388687133789 C 2.352554559707642 25.37011337280273 1.237680673599243 25.92181205749512 0.568050742149353 26.27641868591309 L 12.99328994750977 0.5743917226791382 L 25.44557189941406 26.33235740661621 Z" stroke="none"/>
      <path d="M 12.99328994750977 1.148786544799805 L 1.118478775024414 25.71223449707031 C 1.77284049987793 25.38800811767578 2.63640022277832 24.99056816101074 3.657199859619141 24.5910758972168 C 5.819280624389648 23.74494552612305 9.117380142211914 22.73632621765137 12.55132007598877 22.73632621765137 C 15.97890949249268 22.73632621765137 19.51261901855469 23.74210548400879 21.87345886230469 24.58585548400879 C 23.11551284790039 25.02975654602051 24.16124153137207 25.47068977355957 24.91568565368652 25.81066703796387 L 12.99328994750977 1.148786544799805 M 12.99328994750977 -3.814697265625e-06 L 25.98657989501953 26.87705612182617 C 25.98657989501953 26.87705612182617 19.04796028137207 23.23632621765137 12.55132007598877 23.23632621765137 C 6.054679870605469 23.23632621765137 0 26.87705612182617 0 26.87705612182617 L 12.99328994750977 -3.814697265625e-06 Z" stroke="none" fill="#cc625a"/>
    </g>
  </g>
</svg>
