<svg xmlns="http://www.w3.org/2000/svg" width="12.856" height="15.65" viewBox="0 0 12.856 15.65">
  <g id="Groupe_615" data-name="Groupe 615" transform="translate(338.22 -540.87)">
    <path id="Tracé_512" data-name="Tracé 512" d="M-333.781,571.535q0-1.928,0-3.857a.7.7,0,0,1,.585-.751.694.694,0,0,1,.81.634c0,.06,0,.12,0,.18v7.534a1.334,1.334,0,0,0,1.406,1.4h5.556a1.335,1.335,0,0,0,1.406-1.4q0-3.8,0-7.6a.7.7,0,0,1,.553-.743.687.687,0,0,1,.828.568,1.371,1.371,0,0,1,.015.227q0,3.783,0,7.566a2.728,2.728,0,0,1-2.283,2.74,2.778,2.778,0,0,1-.488.04q-2.811,0-5.622,0a2.736,2.736,0,0,1-2.77-2.765Q-333.783,573.422-333.781,571.535Z" transform="translate(-3.595 -21.706)" stroke="#f9f5f1" stroke-width="0.3"/>
    <path id="Tracé_513" data-name="Tracé 513" d="M-329.007,543.113h.5c.752,0,1.5,0,2.255,0a.7.7,0,0,1,.707.9.7.7,0,0,1-.608.494c-.038,0-.076,0-.114,0h-11.044a.7.7,0,0,1-.755-.7.7.7,0,0,1,.752-.692c.839,0,1.677,0,2.516,0h.221v-.184c0-.392,0-.784,0-1.176a.689.689,0,0,1,.727-.731q2.058-.006,4.117,0a.689.689,0,0,1,.728.729C-329,542.2-329.007,542.643-329.007,543.113Zm-1.4-.01v-.677h-2.773v.677Z" transform="translate(0)" stroke="#f9f5f1" stroke-width="0.3"/>
    <path id="Tracé_514" data-name="Tracé 514" d="M-312.214,578.654c0-.811,0-1.622,0-2.434a.692.692,0,0,1,.56-.69.685.685,0,0,1,.766.393.926.926,0,0,1,.068.348q.007,2.385,0,4.769a.7.7,0,0,1-.709.752.7.7,0,0,1-.687-.755Q-312.216,579.846-312.214,578.654Z" transform="translate(-21.672 -28.915)" stroke="#f9f5f1" stroke-width="0.3"/>
    <path id="Tracé_515" data-name="Tracé 515" d="M-293.6,578.678c0,.811,0,1.622,0,2.434a.682.682,0,0,1-.523.667.666.666,0,0,1-.759-.307.881.881,0,0,1-.109-.4q-.011-2.4,0-4.8a.7.7,0,0,1,.7-.74.7.7,0,0,1,.693.749Q-293.594,577.478-293.6,578.678Z" transform="translate(-36.107 -28.925)" stroke="#f9f5f1" stroke-width="0.3"/>
  </g>
</svg>
