<svg xmlns="http://www.w3.org/2000/svg" width="19.902" height="19.905" viewBox="0 0 19.902 19.905">
  <g id="Groupe_862" data-name="Groupe 862" transform="translate(-465.342 -631.221)">
    <path id="Tracé_424" data-name="Tracé 424" d="M480.113,631.221h.311a.8.8,0,0,1,.556.89c-.019.329,0,.66,0,.991v.253c.706,0,1.379,0,2.053,0a2.127,2.127,0,0,1,2.215,2.213q0,6.674,0,13.349a2.457,2.457,0,0,1-.059.557,2.122,2.122,0,0,1-2.144,1.647H468.853c-.479,0-.959.011-1.438,0a2.091,2.091,0,0,1-1.648-.853,2.584,2.584,0,0,1-.425-1.008V635.225a.291.291,0,0,0,.029-.071,2.134,2.134,0,0,1,2.211-1.8c.6.017,1.2,0,1.8,0h.223c0-.427.016-.827,0-1.226a.811.811,0,0,1,.556-.908h.311a.8.8,0,0,1,.555.89c-.018.329,0,.66,0,.991v.241h8.536c0-.419.016-.826,0-1.231A.8.8,0,0,1,480.113,631.221Zm-13.339,8.538c0,.081-.008.138-.008.2q0,4.46,0,8.92c0,.563.268.824.841.824h15.372c.58,0,.841-.262.841-.844q0-4.441,0-8.881c0-.069-.006-.138-.009-.215Zm4.25-4.973c0,.087,0,.157,0,.227,0,.408.007.816-.006,1.224a.7.7,0,0,1-1.4,0c-.014-.382-.006-.764-.007-1.146,0-.1,0-.2,0-.309-.078-.006-.128-.013-.179-.013-.622,0-1.244,0-1.866,0a.72.72,0,0,0-.8.81c0,.855,0,1.71,0,2.565,0,.056.01.111.015.164h17.04v-.19c0-.842,0-1.684,0-2.527a.728.728,0,0,0-.825-.824c-.609,0-1.218,0-1.827,0-.061,0-.123.009-.2.015,0,.5.009.98,0,1.459a.684.684,0,0,1-.592.647.692.692,0,0,1-.774-.475,1.235,1.235,0,0,1-.04-.344c0-.426,0-.852,0-1.29Z" transform="translate(0)"/>
    <path id="Tracé_425" data-name="Tracé 425" d="M483.432,690.922c.227,0,.454,0,.68,0a.734.734,0,0,1,.756.719.724.724,0,0,1-.728.745c-.486.016-.974.015-1.46,0a.727.727,0,0,1-.737-.738.737.737,0,0,1,.768-.728C482.952,690.918,483.192,690.922,483.432,690.922Z" transform="translate(-13.063 -46.939)"/>
    <path id="Tracé_426" data-name="Tracé 426" d="M506.636,690.921c.233,0,.467,0,.7,0a.734.734,0,0,1,.755.72.724.724,0,0,1-.729.745c-.486.016-.974.015-1.46,0a.727.727,0,0,1-.736-.739.737.737,0,0,1,.769-.727C506.169,690.917,506.4,690.921,506.636,690.921Z" transform="translate(-31.337 -46.939)"/>
    <path id="Tracé_427" data-name="Tracé 427" d="M529.87,690.922c.227,0,.454,0,.68,0a.737.737,0,0,1,.763.734.729.729,0,0,1-.743.732q-.72.02-1.44,0a.729.729,0,0,1-.743-.733.737.737,0,0,1,.763-.734C529.39,690.917,529.63,690.922,529.87,690.922Z" transform="translate(-49.608 -46.94)"/>
    <path id="Tracé_428" data-name="Tracé 428" d="M483.414,705.636c-.24,0-.48.006-.72,0a.732.732,0,0,1-.745-.709.714.714,0,0,1,.7-.751c.506-.022,1.014-.021,1.52,0a.716.716,0,0,1,.706.744.734.734,0,0,1-.758.718C483.881,705.64,483.647,705.636,483.414,705.636Z" transform="translate(-13.067 -57.444)"/>
    <path id="Tracé_429" data-name="Tracé 429" d="M506.629,705.639c-.234,0-.467,0-.7,0a.737.737,0,0,1-.764-.733.729.729,0,0,1,.742-.734q.72-.021,1.44,0a.73.73,0,0,1,.744.732.737.737,0,0,1-.762.735C507.1,705.644,506.862,705.639,506.629,705.639Z" transform="translate(-31.335 -57.447)"/>
    <path id="Tracé_430" data-name="Tracé 430" d="M529.86,705.637c-.24,0-.48.006-.72,0a.732.732,0,0,1-.746-.708.714.714,0,0,1,.7-.752c.512-.022,1.027-.022,1.539,0a.711.711,0,0,1,.687.74.731.731,0,0,1-.737.718C530.34,705.643,530.1,705.637,529.86,705.637Z" transform="translate(-49.612 -57.445)"/>
    <path id="Tracé_431" data-name="Tracé 431" d="M483.409,677.661c.24,0,.48,0,.72,0a.73.73,0,0,1,.742.711.7.7,0,0,1-.682.741c-.519.023-1.04.023-1.559,0a.7.7,0,0,1-.683-.741.73.73,0,0,1,.741-.711C482.929,677.656,483.169,677.661,483.409,677.661Z" transform="translate(-13.066 -36.513)"/>
    <path id="Tracé_432" data-name="Tracé 432" d="M506.647,677.662c.227,0,.454,0,.68,0a.733.733,0,0,1,.766.707.714.714,0,0,1-.716.752c-.5.019-1,.019-1.5,0a.711.711,0,0,1-.707-.74.732.732,0,0,1,.757-.717C506.167,677.658,506.407,677.662,506.647,677.662Z" transform="translate(-31.339 -36.514)"/>
    <path id="Tracé_433" data-name="Tracé 433" d="M529.851,679.128c-.227,0-.454.006-.68,0a.735.735,0,1,1,.023-1.466c.447,0,.893,0,1.34,0a.732.732,0,1,1,.037,1.463c-.24.012-.48,0-.72,0Z" transform="translate(-49.61 -36.513)"/>
  </g>
</svg>
