<svg xmlns="http://www.w3.org/2000/svg" width="17.523" height="17.523" viewBox="0 0 17.523 17.523">
  <g id="Groupe_814" data-name="Groupe 814" transform="translate(114.278 -759.999)">
    <path id="Tracé_526" data-name="Tracé 526" d="M-96.755,764.414c-.027.1-.053.206-.082.309a2.4,2.4,0,0,1-.621,1.046q-4.289,4.29-8.578,8.58a.857.857,0,0,1-1.474-.36.81.81,0,0,1,.156-.74,2.206,2.206,0,0,1,.176-.187q3.278-3.28,6.559-6.557a.93.93,0,0,1,.165-.109l-2.7-2.707a.648.648,0,0,1-.088.16q-4.42,4.425-8.845,8.845a1.523,1.523,0,0,0-.478,1.178c.016.638,0,1.277,0,1.941h.168c.639,0,1.278,0,1.916,0a1.331,1.331,0,0,0,.927-.376.834.834,0,0,1,.781-.243.817.817,0,0,1,.657.6.815.815,0,0,1-.217.85,3,3,0,0,1-1.644.847,1.177,1.177,0,0,0-.127.036h-3.525a1.074,1.074,0,0,1-.65-.65v-3.525c.009-.014.023-.028.025-.043a3.224,3.224,0,0,1,1.011-1.889q2.52-2.5,5.022-5.017,2.818-2.818,5.635-5.637a2.49,2.49,0,0,1,1.09-.675c.108-.031.217-.059.326-.087h.65a.328.328,0,0,0,.075.033,2.2,2.2,0,0,1,1.2.605q.932.918,1.851,1.85a2.175,2.175,0,0,1,.573,1.052c.018.076.043.15.065.225Zm-5.111-1.936,2.624,2.624c.2-.193.421-.39.62-.608a.586.586,0,0,0-.011-.823q-.882-.906-1.789-1.79a.6.6,0,0,0-.85,0C-101.481,762.077-101.675,762.286-101.866,762.478Z" transform="translate(0 0)" fill="#fff"/>
    <path id="Tracé_527" data-name="Tracé 527" d="M-79.449,828.456c-.076-.036-.154-.068-.228-.108a.859.859,0,0,1-.416-.962.851.851,0,0,1,.811-.64q3.875,0,7.75,0a.823.823,0,0,1,.772.5l.073.147v.376a1.021,1.021,0,0,1-.65.684Z" transform="translate(-26.067 -50.934)" fill="#fff"/>
  </g>
</svg>
