<svg xmlns="http://www.w3.org/2000/svg" width="18" height="12.176" viewBox="0 0 18 12.176">
  <g id="Groupe_437" data-name="Groupe 437" transform="translate(-587.25 -651.623)">
    <path id="Tracé_443" data-name="Tracé 443" d="M588.488,663.8a1.116,1.116,0,0,1-.886-.34,1.825,1.825,0,0,1-.24-.384c-.025-.05-.051-.1-.078-.147l-.033-.058v-10.3l.019-.046a1.2,1.2,0,0,1,1.342-.9h15.381a1.148,1.148,0,0,1,.907.339,1.8,1.8,0,0,1,.241.386c.025.049.05.1.078.146l.033.058v10.3l-.019.046a1.2,1.2,0,0,1-1.343.9h-15.4Zm14.823-1.193-3.354-4.142c-.049-.059-.1-.118-.141-.18a.586.586,0,0,1,.469-.934.606.606,0,0,1,.432.186c.031.031.058.065.085.1l3.262,4.028v-8.176l-6.647,4.985a1.947,1.947,0,0,1-1.166.414,1.927,1.927,0,0,1-1.155-.409l-6.65-4.986v8.166l2.948-3.641.1-.124c.094-.118.188-.236.289-.348a.578.578,0,0,1,.433-.195.587.587,0,0,1,.486.915,1.156,1.156,0,0,1-.089.118l-3.42,4.225Zm-7.48-5.047a.68.68,0,0,0,.411.148.756.756,0,0,0,.453-.168l6.3-4.727H589.5Z" transform="translate(0 0)" fill="#8a8a8a"/>
    <path id="Tracé_444" data-name="Tracé 444" d="M588.384,663.507V653.489a.947.947,0,0,1,1.1-.731h9.473q2.871,0,5.741,0a.887.887,0,0,1,.709.249,2.857,2.857,0,0,1,.286.484v10.017a.948.948,0,0,1-1.1.731H594.225q-2.431,0-4.863,0a.864.864,0,0,1-.692-.249A2.942,2.942,0,0,1,588.384,663.507Zm16.63-9.657c-.077.055-.127.091-.176.127l-6.8,5.07a1.58,1.58,0,0,1-2,.005l-6.825-5.09c-.047-.035-.095-.067-.152-.108v9.218c.063-.075.107-.124.148-.175l3.21-3.944c.124-.152.244-.309.376-.454a.329.329,0,0,1,.514.409,1.373,1.373,0,0,1-.094.119L589.66,663.4c-.04.049-.078.1-.123.159h15c-.042-.056-.071-.1-.1-.135l-3.487-4.283c-.06-.074-.124-.146-.179-.224a.323.323,0,0,1,.051-.452.332.332,0,0,1,.457.033c.031.032.058.068.087.1l3.52,4.322c.035.044.074.085.131.15Zm-15.391-.419c.058.046.083.067.11.088q3.37,2.515,6.741,5.029a.914.914,0,0,0,1.154-.019l6.686-4.988c.038-.028.073-.06.131-.108Z" transform="translate(-0.787 -0.787)" fill="#8a8a8a"/>
  </g>
</svg>
