<svg xmlns="http://www.w3.org/2000/svg" width="17" height="19.451" viewBox="0 0 17 19.451">
  <path id="Tracé_467" data-name="Tracé 467" d="M-138.475,387.18v-.157c0-.275,0-.551,0-.826-.006-.619-.011-1.258.012-1.888a2.205,2.205,0,0,1,1.436-2.058c.534-.225,1.082-.436,1.613-.64.261-.1.522-.2.782-.3l.026-.01-.343-.092c-.5-.133-1.026-.27-1.531-.435a2.891,2.891,0,0,1-1.357-.893l-.1-.123.125-.1a2.261,2.261,0,0,0,.775-.864l.052-.128a4.345,4.345,0,0,0,.305-.948c.146-.951.265-1.924.38-2.865l.075-.607a12.671,12.671,0,0,1,.713-3.159,4.956,4.956,0,0,1,3.916-3.207c.239-.044.481-.075.716-.106l.321-.043,1.143,0,.346.045c.24.031.489.062.733.108a4.969,4.969,0,0,1,2.844,1.5,6.281,6.281,0,0,1,1.423,2.862,20.8,20.8,0,0,1,.444,2.937c.027.265.054.53.084.794l0,.035a12.545,12.545,0,0,0,.373,2.159,2.4,2.4,0,0,0,.873,1.365,1.111,1.111,0,0,1,.119.1l.051.048.123.113-.12.116a6.219,6.219,0,0,1-3.178,1.4l.4.163c.568.234,1.155.475,1.741.681a2.356,2.356,0,0,1,1.674,2.217c.011.615.008,1.239,0,1.843,0,.27,0,.968,0,.968Zm15.881-1.119c0-.138,0-.289,0-.44,0-.417.009-.848-.011-1.269a1.18,1.18,0,0,0-.818-1.107c-.287-.113-.574-.224-.862-.334-.51-.2-1.039-.4-1.552-.615a4.012,4.012,0,0,1-2.082-1.5,3.418,3.418,0,0,1-2.067.78,3.433,3.433,0,0,1-2.071-.781,2.374,2.374,0,0,1-1.013.967,19.466,19.466,0,0,1-3.365,1.44,1.254,1.254,0,0,0-.941,1.251c0,.4,0,.8,0,1.2v.405Zm-11.566-10.816a5.492,5.492,0,0,0,.868,2.625,6.289,6.289,0,0,0,2.413,2.348,1.919,1.919,0,0,0,.9.266,1.257,1.257,0,0,0,.456-.085,4.191,4.191,0,0,0,.757-.368,6.66,6.66,0,0,0,2.546-3.047,5.124,5.124,0,0,0,.3-3.141c-.014-.069-.025-.072-.066-.083a9.236,9.236,0,0,1-3.026-1.5c-.055-.04-.074-.042-.076-.042s-.022,0-.08.057a11.348,11.348,0,0,1-5,2.885C-134.162,375.189-134.161,375.217-134.16,375.245Zm9.447.323a5.182,5.182,0,0,1-.092.6,7.466,7.466,0,0,1-1.919,3.58.617.617,0,0,0-.185.541c.009.078.054.138.1.138l.439-.072c.4-.065.805-.133,1.2-.216a6.624,6.624,0,0,0,1.464-.477l-.011-.018c-.071-.118-.14-.232-.2-.351a8.072,8.072,0,0,1-.693-2.77Q-124.661,376.046-124.713,375.568Zm-11.514,4.11c.106.047.213.094.321.134a11.526,11.526,0,0,0,2.669.6.379.379,0,0,0,.049,0h0c.058,0,.117,0,.134-.164a.578.578,0,0,0-.189-.5,7.472,7.472,0,0,1-1.878-3.416c-.061-.254-.1-.517-.132-.771,0-.009,0-.017,0-.026-.026.3-.062.611-.1.946a7.307,7.307,0,0,1-.907,3.177Zm6.235-10.839a7.686,7.686,0,0,0-1.442.138,3.8,3.8,0,0,0-2.429,1.406,5.033,5.033,0,0,0-.778,1.525,12.087,12.087,0,0,0-.463,2.289,7.345,7.345,0,0,0,2.54-.823,12.462,12.462,0,0,0,2.923-2.168,17.127,17.127,0,0,0,1.8-2.042c-.129-.043-.251-.085-.375-.114A7.633,7.633,0,0,0-129.992,368.84Zm1.721,2.586a8.122,8.122,0,0,0,3.188,1.4,5,5,0,0,0-1.739-3.139Z" transform="translate(138.485 -367.729)" fill="#8a8a8a"/>
</svg>
