<svg xmlns="http://www.w3.org/2000/svg" width="14.74" height="13.312" viewBox="0 0 14.74 13.312">
  <g id="Groupe_354" data-name="Groupe 354" transform="translate(-359.568 -492.337)">
    <g id="Groupe_348" data-name="Groupe 348" transform="translate(359.568 492.337)">
      <path id="Tracé_263" data-name="Tracé 263" d="M359.793,505.147c.046-.182.078-.368.138-.545a2.476,2.476,0,0,1,1.253-1.436.389.389,0,0,0,.152-.166c.062-.126.1-.264.158-.394a.722.722,0,0,1,1.089-.319c.145.1.284.2.431.31a.93.93,0,0,0,.283-.7c0-.037-.06-.088-.1-.111a3.241,3.241,0,0,1-1.478-1.605,2.994,2.994,0,0,1-.247-1.027.143.143,0,0,0-.111-.15.972.972,0,0,1-.657-.946c0-.577-.02-1.154,0-1.73a3.5,3.5,0,0,1,.592-1.737,4.327,4.327,0,0,1,2.3-1.748c.323-.114.664-.178,1-.268a.283.283,0,0,1,.3.085,4.415,4.415,0,0,0,1.88,1.118,2.631,2.631,0,0,1,1.688,1.448,2.5,2.5,0,0,1,.225,1.031c0,.591,0,1.182,0,1.773a.249.249,0,0,1-.238.281c-.145,0-.24-.106-.246-.285,0-.038,0-.076,0-.113q0-.78,0-1.56a2.158,2.158,0,0,0-.258-1.076,2.08,2.08,0,0,0-1.112-.961c-.287-.109-.576-.211-.859-.33a4.2,4.2,0,0,1-1.249-.819.255.255,0,0,0-.261-.077,4.473,4.473,0,0,0-2.315,1.205,3.4,3.4,0,0,0-.958,1.964,3.59,3.59,0,0,0-.008.5q0,.652,0,1.3a.51.51,0,0,0,.275.464v-.154c0-.459,0-.917,0-1.376a1.692,1.692,0,0,1,1.743-1.734q1.489,0,2.978,0a1.7,1.7,0,0,1,1.751,1.756q0,.929,0,1.858a3.216,3.216,0,0,1-3.493,3.267c-.215-.015-.427-.061-.656-.1a1.574,1.574,0,0,1-.369.844l.16.12.769.557a.5.5,0,0,0,.7,0l1.675-1.215a.735.735,0,0,1,1.221.365c.058.15.118.3.174.449.077.206.014.328-.2.381l-.782.2a.762.762,0,0,1-.1.019.233.233,0,0,1-.27-.174.227.227,0,0,1,.161-.289c.212-.063.426-.114.649-.173-.037-.1-.069-.189-.1-.276-.091-.228-.246-.274-.443-.132l-1.366.99c-.126.091-.252.184-.379.275a.96.96,0,0,1-1.185,0c-.571-.411-1.14-.826-1.71-1.24-.239-.173-.379-.132-.486.141-.03.078-.059.156-.093.247l.6.152a.254.254,0,0,1,.22.211.236.236,0,0,1-.3.265c-.235-.05-.466-.122-.7-.17a.385.385,0,0,0-.238.027,1.99,1.99,0,0,0-1.106,1.728c-.008.126-.027.235-.158.289s-.213.009-.328-.145Zm4.907-9.4c-.5,0-1,0-1.5,0a1.2,1.2,0,0,0-1.253,1.262q0,.943,0,1.886a3.481,3.481,0,0,0,.033.466,2.753,2.753,0,0,0,5.47-.5q0-.915,0-1.829a1.216,1.216,0,0,0-1.289-1.289C365.673,495.742,365.186,495.743,364.7,495.743Z" transform="translate(-359.684 -492.453)"/>
      <path id="Tracé_264" data-name="Tracé 264" d="M359.914,505.646a.428.428,0,0,1-.324-.209l-.022-.029,0-.4c.014-.057.027-.114.04-.171a3.733,3.733,0,0,1,.1-.383,2.591,2.591,0,0,1,1.305-1.5.288.288,0,0,0,.105-.118,2.107,2.107,0,0,0,.089-.218c.021-.057.043-.114.067-.17a.83.83,0,0,1,.764-.517.868.868,0,0,1,.485.152c.1.067.2.138.3.211l.062.046a.829.829,0,0,0,.186-.539.2.2,0,0,0-.045-.035,3.36,3.36,0,0,1-1.526-1.657,3.12,3.12,0,0,1-.256-1.064c0-.041,0-.041-.04-.055a1.082,1.082,0,0,1-.728-1.047q0-.24,0-.48c0-.411-.009-.836.009-1.255a3.58,3.58,0,0,1,.609-1.79,4.4,4.4,0,0,1,2.36-1.793,6.949,6.949,0,0,1,.67-.186c.112-.027.223-.054.334-.083a.39.39,0,0,1,.4.114,4.281,4.281,0,0,0,1.835,1.09,2.752,2.752,0,0,1,1.754,1.506,2.608,2.608,0,0,1,.235,1.075c0,.591,0,1.183,0,1.774a.359.359,0,0,1-.344.389h0a.361.361,0,0,1-.357-.39c0-.028,0-.056,0-.084v-.453q0-.571,0-1.14a2.041,2.041,0,0,0-.244-1.023,1.981,1.981,0,0,0-1.056-.912l-.249-.093c-.205-.076-.411-.152-.613-.238a4.311,4.311,0,0,1-1.282-.84.141.141,0,0,0-.164-.049,4.35,4.35,0,0,0-2.261,1.176,3.3,3.3,0,0,0-.928,1.9,2.051,2.051,0,0,0-.009.334c0,.049,0,.1,0,.147q0,.652,0,1.3a.4.4,0,0,0,.058.219V497.8q0-.464,0-.927a1.794,1.794,0,0,1,1.852-1.842h2.978a1.8,1.8,0,0,1,1.86,1.865q0,.929,0,1.858a3.33,3.33,0,0,1-2.937,3.365,3.5,3.5,0,0,1-.672.011,4.372,4.372,0,0,1-.46-.063l-.1-.016a1.651,1.651,0,0,1-.3.7l.069.051.769.557a.385.385,0,0,0,.57,0l1.675-1.215a1.033,1.033,0,0,1,.6-.218.865.865,0,0,1,.788.632l.05.13c.042.107.084.213.123.32a.41.41,0,0,1,0,.338.4.4,0,0,1-.274.187l-.782.2a.892.892,0,0,1-.112.022.344.344,0,0,1-.388-.255.334.334,0,0,1,.236-.42c.15-.044.3-.083.455-.122l.082-.021c-.02-.056-.04-.108-.061-.161-.066-.165-.148-.178-.278-.084L366,503.4l-.494.359c-.091.067-.182.133-.274.2a1.072,1.072,0,0,1-1.312,0q-.553-.4-1.1-.8l-.606-.44a.336.336,0,0,0-.178-.083c-.018,0-.074,0-.142.175l-.05.132.48.122a.358.358,0,0,1,.3.3.342.342,0,0,1-.076.279.371.371,0,0,1-.359.109c-.112-.024-.224-.053-.335-.082s-.243-.063-.365-.088a.282.282,0,0,0-.165.016,1.891,1.891,0,0,0-1.049,1.639.389.389,0,0,1-.226.382A.349.349,0,0,1,359.914,505.646Zm-.128-.311c.11.135.128.1.179.081s.082-.066.09-.194a2.093,2.093,0,0,1,1.163-1.817.5.5,0,0,1,.311-.038c.126.026.251.058.377.09.108.028.216.056.326.079a.147.147,0,0,0,.148-.038.125.125,0,0,0,.026-.1c-.008-.054-.035-.1-.139-.122l-.716-.182.074-.2c.022-.058.042-.112.063-.166.03-.077.123-.313.345-.313a.532.532,0,0,1,.306.124l.606.44q.551.4,1.1.8a.853.853,0,0,0,1.059,0c.091-.064.182-.13.272-.2l.495-.359.977-.709a.47.47,0,0,1,.27-.1c.1,0,.246.049.339.281.023.059.046.119.069.183l.077.208-.315.082c-.152.038-.3.076-.447.12a.12.12,0,0,0-.087.157.123.123,0,0,0,.153.092.588.588,0,0,0,.083-.016l.782-.2a.217.217,0,0,0,.135-.077.223.223,0,0,0-.015-.161c-.04-.106-.081-.212-.122-.318l-.051-.13a.652.652,0,0,0-.586-.493.824.824,0,0,0-.47.177l-1.675,1.215a.588.588,0,0,1-.824,0l-.77-.557-.111-.083-.144-.108.076-.088a1.458,1.458,0,0,0,.343-.787l.015-.11.11.016.21.035a4.154,4.154,0,0,0,.437.06,3.277,3.277,0,0,0,.628-.009,3.117,3.117,0,0,0,2.749-3.15q0-.929,0-1.857a1.6,1.6,0,0,0-1.643-1.648h-2.978a1.582,1.582,0,0,0-1.634,1.625c0,.308,0,.617,0,.925v.8l-.166-.1a.619.619,0,0,1-.327-.557q0-.653,0-1.305c0-.046,0-.093,0-.14a2.26,2.26,0,0,1,.011-.37,3.518,3.518,0,0,1,.988-2.025,4.556,4.556,0,0,1,2.37-1.235.374.374,0,0,1,.359.1,4.081,4.081,0,0,0,1.217.8c.2.084.4.159.6.234l.251.094a2.194,2.194,0,0,1,1.168,1.01,2.255,2.255,0,0,1,.272,1.129q0,.57,0,1.139v.455c0,.025,0,.05,0,.076,0,.067.022.179.13.179s.136-.121.136-.172c0-.59,0-1.181,0-1.771a2.4,2.4,0,0,0-.215-.986,2.514,2.514,0,0,0-1.622-1.39,4.5,4.5,0,0,1-1.926-1.146c-.088-.091-.135-.07-.189-.056-.113.03-.226.058-.339.085a6.644,6.644,0,0,0-.649.18,4.182,4.182,0,0,0-2.248,1.7,3.37,3.37,0,0,0-.576,1.683c-.018.413-.013.834-.009,1.243,0,.161,0,.322,0,.482a.862.862,0,0,0,.587.845.249.249,0,0,1,.182.246,2.9,2.9,0,0,0,.238.99,3.149,3.149,0,0,0,1.43,1.553c.027.015.163.093.161.209a1.032,1.032,0,0,1-.318.78l-.065.061-.213-.155c-.1-.071-.191-.14-.288-.205a.651.651,0,0,0-.363-.115.616.616,0,0,0-.565.386c-.023.052-.042.106-.062.16-.03.081-.061.162-.1.239a.49.49,0,0,1-.2.214,2.381,2.381,0,0,0-1.2,1.375,3.554,3.554,0,0,0-.095.361c-.013.054-.025.108-.038.163Zm4.776-3.666h0a2.9,2.9,0,0,1-2.806-2.411,3.62,3.62,0,0,1-.034-.48q-.005-.944,0-1.887a1.318,1.318,0,0,1,1.361-1.371q.3,0,.591,0h2.374a1.327,1.327,0,0,1,1.4,1.4q0,.915,0,1.83a2.88,2.88,0,0,1-2.506,2.9A2.612,2.612,0,0,1,364.561,501.668Zm-.89-5.934c-.2,0-.393,0-.589,0a1.1,1.1,0,0,0-1.145,1.154q0,.942,0,1.885a3.442,3.442,0,0,0,.032.451,2.681,2.681,0,0,0,2.591,2.224h0a2.381,2.381,0,0,0,.343-.025,2.634,2.634,0,0,0,2.32-2.681q0-.914,0-1.829a1.109,1.109,0,0,0-1.18-1.18h-2.373Z" transform="translate(-359.568 -492.337)"/>
    </g>
    <g id="Groupe_349" data-name="Groupe 349" transform="translate(371.942 502.772)">
      <path id="Tracé_265" data-name="Tracé 265" d="M387.505,516.61c-.132.178-.282.221-.4.1a.36.36,0,0,1-.084-.214,2.025,2.025,0,0,0-1.444-1.9c-.179-.06-.253-.167-.212-.309s.173-.212.351-.152a2.473,2.473,0,0,1,1.757,2.022c.007.036.019.071.028.107Z" transform="translate(-385.248 -514.01)"/>
      <path id="Tracé_266" data-name="Tracé 266" d="M387.136,516.772a.3.3,0,0,1-.223-.1.468.468,0,0,1-.114-.282,1.922,1.922,0,0,0-1.369-1.8c-.234-.078-.34-.243-.282-.442a.355.355,0,0,1,.49-.225,2.585,2.585,0,0,1,1.83,2.106.588.588,0,0,0,.016.064l.014.063v.377l-.022.029A.433.433,0,0,1,387.136,516.772Zm-1.658-2.66a.115.115,0,0,0-.121.1c-.01.035-.034.117.142.176a2.13,2.13,0,0,1,1.518,1.992.254.254,0,0,0,.055.144.085.085,0,0,0,.064.035.228.228,0,0,0,.145-.1l-.005-.306a.849.849,0,0,1-.021-.083,2.352,2.352,0,0,0-1.685-1.939A.294.294,0,0,0,385.478,514.111Z" transform="translate(-385.132 -513.895)"/>
    </g>
    <g id="Groupe_350" data-name="Groupe 350" transform="translate(367.801 492.337)">
      <path id="Tracé_267" data-name="Tracé 267" d="M379.252,493.356l1.637-.446c.046-.013.091-.028.137-.037a.239.239,0,0,1,.306.242c0,.175.006.35,0,.525a.145.145,0,0,0,.112.165c.383.148.763.3,1.145.455.28.111.322.229.17.484a3.78,3.78,0,0,0-.546,1.954c0,.43,0,.86,0,1.29a1.036,1.036,0,0,1-.7,1.028.181.181,0,0,0-.092.126,3.21,3.21,0,0,1-1.735,2.641.172.172,0,0,0-.1.2,1.014,1.014,0,0,0,.555.821c.211.112.246.21.14.424a2.317,2.317,0,0,1-1,1.034c-.163.088-.311.058-.379-.075s-.017-.258.144-.347a1.877,1.877,0,0,0,.659-.59c.021-.031.037-.064.054-.1-.44-.385-.442-.389-.673-1.125a2.8,2.8,0,0,1-1.117.109,7.443,7.443,0,0,1-.95-.208c-.189-.051-.253-.184-.2-.328s.184-.19.366-.121a2.909,2.909,0,0,0,1.237.18,2.772,2.772,0,0,0,2.481-2.3,4.578,4.578,0,0,0,.035-.593c0-.586,0-1.172,0-1.759a1.205,1.205,0,0,0-1.263-1.268c-.341,0-.681,0-1.021,0-.038,0-.075,0-.113,0a.245.245,0,0,1-.261-.24.241.241,0,0,1,.26-.241c.383,0,.766-.014,1.149,0a2.2,2.2,0,0,1,.61.1,1.651,1.651,0,0,1,1.12,1.537c.01.529,0,1.058,0,1.589a.452.452,0,0,0,.305-.457c0-.246,0-.492,0-.738a4.846,4.846,0,0,1,.532-2.645c-.117-.049-.219-.093-.323-.134-.293-.118-.587-.236-.881-.35a.283.283,0,0,1-.2-.3c.005-.141,0-.283,0-.442l-.926.251c-.242.066-.483.133-.724.2a.245.245,0,0,1-.343-.177c-.069-.184-.135-.37-.206-.566l-1.013.43c-.044.018-.086.039-.131.055a.239.239,0,0,1-.327-.133.235.235,0,0,1,.143-.311c.324-.143.651-.279.976-.418.117-.05.234-.1.351-.15.2-.082.307-.037.386.169C379.109,492.959,379.177,493.15,379.252,493.356Z" transform="translate(-376.692 -492.453)"/>
      <path id="Tracé_268" data-name="Tracé 268" d="M378.987,504.3a.327.327,0,0,1-.3-.183.357.357,0,0,1,.189-.492,1.753,1.753,0,0,0,.621-.556l.006-.01a1.591,1.591,0,0,1-.608-1.017,2.767,2.767,0,0,1-1.059.086,7.467,7.467,0,0,1-.964-.211.393.393,0,0,1-.263-.193.338.338,0,0,1-.009-.279.355.355,0,0,1,.506-.184,2.786,2.786,0,0,0,1.192.172,2.67,2.67,0,0,0,2.38-2.2,4.658,4.658,0,0,0,.034-.579c0-.586,0-1.171,0-1.757a1.093,1.093,0,0,0-1.155-1.16h-1.14a.35.35,0,1,1,0-.7l.162,0c.331,0,.663-.009.993,0a2.306,2.306,0,0,1,.64.109,1.764,1.764,0,0,1,1.194,1.638c.007.366.005.733,0,1.1,0,.1,0,.2,0,.3a.427.427,0,0,0,.087-.264q.005-.367,0-.734a5.048,5.048,0,0,1,.486-2.594h0c-.071-.03-.138-.059-.206-.086l-.154-.061c-.242-.1-.484-.194-.727-.288a.389.389,0,0,1-.273-.408c0-.1,0-.191,0-.292v0l-1.008.274c-.168.046-.337.092-.506.137a.364.364,0,0,1-.473-.243c-.047-.126-.093-.253-.14-.384l-.027-.076-.948.4c-.031.014-.063.028-.1.039a.351.351,0,0,1-.465-.195.343.343,0,0,1,.2-.451c.232-.1.466-.2.7-.3l.38-.162.25-.106a.541.541,0,0,1,.2-.047.368.368,0,0,1,.326.278c.051.132.1.266.149.405l.032.089,1.583-.432c.034-.01.068-.02.1-.027a.345.345,0,0,1,.436.345c.006.21.006.379,0,.532,0,.04,0,.042.042.059.256.1.511.2.766.3l.38.151a.491.491,0,0,1,.311.256.48.48,0,0,1-.088.385,3.694,3.694,0,0,0-.53,1.9q0,.38,0,.761v.529a1.148,1.148,0,0,1-.768,1.129.106.106,0,0,0-.025.038,3.322,3.322,0,0,1-1.79,2.724c-.052.029-.055.041-.048.093a.9.9,0,0,0,.5.738.367.367,0,0,1,.187.568,2.429,2.429,0,0,1-1.043,1.081A.479.479,0,0,1,378.987,504.3Zm.055-2.523.031.1c.222.709.222.709.641,1.076l.067.059-.06.106c-.014.025-.028.05-.044.074a1.992,1.992,0,0,1-.7.624c-.159.088-.115.174-.1.2.04.078.128.085.231.029a2.218,2.218,0,0,0,.952-.986c.078-.158.066-.2-.094-.28a1.123,1.123,0,0,1-.612-.9.279.279,0,0,1,.159-.31,3.117,3.117,0,0,0,1.679-2.556.285.285,0,0,1,.16-.217.924.924,0,0,0,.632-.928v-.528c0-.254,0-.508,0-.762a3.912,3.912,0,0,1,.561-2.01c.058-.1.081-.166.068-.2s-.075-.08-.185-.124l-.38-.152c-.254-.1-.508-.2-.763-.3a.252.252,0,0,1-.181-.271c.006-.148.006-.313,0-.516a.129.129,0,0,0-.132-.143.234.234,0,0,0-.044,0c-.028.005-.055.014-.082.022l-.047.014-1.735.472-.1-.277c-.049-.138-.1-.27-.148-.4s-.1-.138-.123-.138a.332.332,0,0,0-.12.031l-.247.105-.381.163c-.233.1-.466.2-.7.3a.129.129,0,0,0-.086.172.134.134,0,0,0,.19.07c.028-.01.055-.022.082-.033l1.161-.494.106.292c.047.129.092.256.139.381s.09.123.125.123a.486.486,0,0,0,.088-.014l.5-.137,1.282-.349v.286c0,.105,0,.2,0,.3a.176.176,0,0,0,.134.2c.244.094.486.191.729.288l.154.062.21.087.228.1-.062.107a4.745,4.745,0,0,0-.517,2.588c.005.247.006.494,0,.741a.563.563,0,0,1-.388.562l-.135.034v-.139c0-.164,0-.328,0-.492,0-.365,0-.73,0-1.1a1.547,1.547,0,0,0-1.047-1.436,2.074,2.074,0,0,0-.579-.1c-.327-.014-.654-.01-.981,0l-.162,0c-.1,0-.153.051-.153.133,0,.111.11.129.158.132h1.129a1.311,1.311,0,0,1,1.371,1.376c0,.587,0,1.173,0,1.76a4.8,4.8,0,0,1-.036.607,2.9,2.9,0,0,1-2.582,2.392,3.063,3.063,0,0,1-1.283-.186c-.117-.045-.191-.034-.225.057a.126.126,0,0,0,0,.1.192.192,0,0,0,.126.082,7.26,7.26,0,0,0,.936.205,2.67,2.67,0,0,0,1.074-.107Z" transform="translate(-376.576 -492.337)"/>
    </g>
    <g id="Groupe_351" data-name="Groupe 351" transform="translate(368.363 503.503)">
      <path id="Tracé_269" data-name="Tracé 269" d="M378.97,517.242c.006.185-.085.3-.235.309s-.242-.1-.249-.284a2.072,2.072,0,0,0-.449-1.228.238.238,0,0,1,.02-.363.248.248,0,0,1,.367.076A2.488,2.488,0,0,1,378.97,517.242Z" transform="translate(-377.854 -515.517)"/>
      <path id="Tracé_270" data-name="Tracé 270" d="M378.609,517.547a.356.356,0,0,1-.349-.389,1.952,1.952,0,0,0-.426-1.165.344.344,0,0,1,.039-.515.361.361,0,0,1,.52.093,2.608,2.608,0,0,1,.568,1.553.43.43,0,0,1-.1.319.329.329,0,0,1-.237.1Zm-.525-1.927a.121.121,0,0,0-.076.03c-.026.02-.1.081,0,.21a2.19,2.19,0,0,1,.471,1.292c0,.082.029.179.132.179v.109l.005-.109a.114.114,0,0,0,.085-.034.225.225,0,0,0,.045-.163,2.387,2.387,0,0,0-.521-1.425A.192.192,0,0,0,378.084,515.62Z" transform="translate(-377.738 -515.405)"/>
    </g>
    <g id="Groupe_352" data-name="Groupe 352" transform="translate(368.314 499.773)">
      <path id="Tracé_271" data-name="Tracé 271" d="M378.7,508.65a1.112,1.112,0,0,1-.737-.292.242.242,0,1,1,.305-.373.656.656,0,0,0,.911,0,.242.242,0,1,1,.3.374A1.127,1.127,0,0,1,378.7,508.65Z" transform="translate(-377.753 -507.812)"/>
      <path id="Tracé_272" data-name="Tracé 272" d="M378.585,508.646h0a1.224,1.224,0,0,1-.808-.32.347.347,0,0,1-.058-.5.353.353,0,0,1,.5-.041.542.542,0,0,0,.782,0,.357.357,0,0,1,.5.041.351.351,0,0,1-.059.5A1.239,1.239,0,0,1,378.585,508.646Zm-.608-.731a.116.116,0,0,0-.091.048.14.14,0,0,0,.035.2,1.034,1.034,0,0,0,1.378,0c.073-.064.086-.139.036-.2a.139.139,0,0,0-.2-.005.75.75,0,0,1-1.041,0A.2.2,0,0,0,377.977,507.914Z" transform="translate(-377.636 -507.699)"/>
    </g>
    <g id="Groupe_353" data-name="Groupe 353" transform="translate(363.595 499.772)">
      <path id="Tracé_273" data-name="Tracé 273" d="M368.984,508.649a1.13,1.13,0,0,1-.753-.276.245.245,0,0,1-.06-.369.241.241,0,0,1,.363-.007.66.66,0,0,0,.891,0,.247.247,0,0,1,.354.01.243.243,0,0,1-.045.361A1.134,1.134,0,0,1,368.984,508.649Z" transform="translate(-368.003 -507.811)"/>
      <path id="Tracé_274" data-name="Tracé 274" d="M368.866,508.643a1.235,1.235,0,0,1-.82-.3.407.407,0,0,1-.158-.276.332.332,0,0,1,.085-.247.35.35,0,0,1,.512-.023.55.55,0,0,0,.759,0,.36.36,0,0,1,.5.025.35.35,0,0,1-.053.514,1.244,1.244,0,0,1-.823.311Zm-.641-.73a.11.11,0,0,0-.087.047.118.118,0,0,0-.033.088.2.2,0,0,0,.081.128,1.012,1.012,0,0,0,.68.25v.109l0-.109a1.022,1.022,0,0,0,.677-.255.142.142,0,0,0,.036-.209c-.051-.059-.128-.054-.207.005a.765.765,0,0,1-1.023,0A.223.223,0,0,0,368.225,507.913Z" transform="translate(-367.887 -507.696)"/>
    </g>
  </g>
</svg>
