<svg xmlns="http://www.w3.org/2000/svg" width="24" height="24" viewBox="0 0 24 24">
  <g id="Groupe_339" data-name="Groupe 339" transform="translate(-585.365 -237.531)">
    <path id="Tracé_241" data-name="Tracé 241" d="M609.365,248.781v1.5c-.035.286-.065.571-.106.856a12.041,12.041,0,0,1-9.828,10.21c-.436.077-.877.124-1.316.184h-1.5a1.249,1.249,0,0,0-.18-.039,11.724,11.724,0,0,1-4.753-1.4.227.227,0,0,0-.3.045c-.579.471-1.166.932-1.75,1.4h-.563c-.3-.229-.617-.445-.907-.689a7.224,7.224,0,0,1-2.8-3.717v-.609a2.545,2.545,0,0,1,.56-1.162c.2-.2.425-.383.649-.582a11.9,11.9,0,0,1-1.046-3.288c-.065-.4-.109-.8-.163-1.2v-1.5c.052-.4.092-.8.159-1.2a12.038,12.038,0,0,1,9.774-9.863c.436-.076.878-.124,1.317-.184h1.5a.476.476,0,0,0,.109.034,12,12,0,0,1,4.313,1.136.441.441,0,0,0,.26,0,7.855,7.855,0,0,1,.791-.188,2.456,2.456,0,0,1,1.773.5c.1-.065.194-.126.288-.181a2.527,2.527,0,0,1,3.107.453,2.644,2.644,0,0,1,.609,1.24v.609c-.026.088-.055.176-.079.264a5.1,5.1,0,0,1-1.279,2.1.286.286,0,0,0-.06.4,11.255,11.255,0,0,1,1.238,3.587C609.255,247.916,609.305,248.349,609.365,248.781Zm-2.673-4.028c-.151.117-.285.223-.421.326s-.273.208-.414.307a.754.754,0,0,1-.992-.009c-.452-.347-.905-.694-1.331-1.072a7.9,7.9,0,0,1-1.781-2.127,2.577,2.577,0,0,1-.354-1.709c.034-.188.092-.372.138-.558a.815.815,0,0,0-.071-.042c-.072-.031-.143-.062-.216-.09a10.51,10.51,0,0,0-14.33,10.819,10.087,10.087,0,0,0,1.122,3.743.41.41,0,0,0,.186.187c.38.149.768.282,1.208.44a2.549,2.549,0,0,1,1.639-.469,2.394,2.394,0,0,1,2.274,2.131,2.937,2.937,0,0,1-.548,1.85c-.075.123-.157.242-.236.364a10.473,10.473,0,0,0,14.126-14.092Zm-17.326,15.13a9.826,9.826,0,0,0,2.166-2.2,2.45,2.45,0,0,0,.29-.609.779.779,0,0,0-.358-.929,1.009,1.009,0,0,0-1.406.341.759.759,0,0,1-.844.4.788.788,0,0,1-.568-.44.994.994,0,0,0-1.317-.341.831.831,0,0,0-.345,1.182,2.631,2.631,0,0,0,.226.409A10.232,10.232,0,0,0,589.366,259.883Zm15.989-16.008a9.573,9.573,0,0,0,2.025-1.972,4.441,4.441,0,0,0,.447-.866.687.687,0,0,0-.21-.767.985.985,0,0,0-1.533.2.819.819,0,0,1-1.441,0,.979.979,0,0,0-1.564-.158.664.664,0,0,0-.185.689,3.382,3.382,0,0,0,.369.774A9.967,9.967,0,0,0,605.355,243.875Z" transform="translate(0 0)"/>
    <path id="Tracé_242" data-name="Tracé 242" d="M610.187,285.6a8.781,8.781,0,0,1-6.059-2.548.822.822,0,1,1,1.132-1.182,7.3,7.3,0,0,0,10.1.109,1.538,1.538,0,0,1,.569-.362.764.764,0,0,1,.885.4.815.815,0,0,1-.176,1,8.929,8.929,0,0,1-2.433,1.714A9.172,9.172,0,0,1,610.187,285.6Z" transform="translate(-13.001 -29.963)"/>
    <path id="Tracé_243" data-name="Tracé 243" d="M603.468,262.146a2.714,2.714,0,0,1,2.735,2.67.816.816,0,0,1-1.628.118,2.826,2.826,0,0,0-.045-.354,1.087,1.087,0,0,0-2.132.2c-.056.651-.5,1.029-1.037.877a.81.81,0,0,1-.6-.817A2.716,2.716,0,0,1,603.468,262.146Z" transform="translate(-10.507 -16.725)"/>
    <path id="Tracé_244" data-name="Tracé 244" d="M631.161,262.146a2.713,2.713,0,0,1,2.71,2.563.825.825,0,1,1-1.634.1,1.088,1.088,0,0,0-2.17-.034,1.455,1.455,0,0,1-.117.49.8.8,0,0,1-.888.4.821.821,0,0,1-.632-.8A2.716,2.716,0,0,1,631.161,262.146Z" transform="translate(-29.396 -16.725)"/>
  </g>
</svg>
