<svg xmlns="http://www.w3.org/2000/svg" width="26" height="19.063" viewBox="0 0 26 19.063">
  <g id="Groupe_460" data-name="Groupe 460" transform="translate(-55.068 -483.576)">
    <path id="Tracé_471" data-name="Tracé 471" d="M61.344,518.646a2.476,2.476,0,0,0-2.681.018,3.655,3.655,0,0,0-1.857,3.412c.005.777-.669,1.253-1.273.9a.905.905,0,0,1-.456-.772,5.493,5.493,0,0,1,4.228-5.724,4.166,4.166,0,0,1,2.84.516,6.738,6.738,0,0,1,11.82-.048,10.769,10.769,0,0,1,1.417-.458,4.4,4.4,0,0,1,3.943,1.3,5.56,5.56,0,0,1,1.742,4.352.9.9,0,0,1-.867.948.89.89,0,0,1-.86-.98,3.709,3.709,0,0,0-2.377-3.683,2.359,2.359,0,0,0-2.135.213c.136.546.307,1.085.4,1.639a15.354,15.354,0,0,1,.17,1.783.883.883,0,0,1-.807.972.867.867,0,0,1-.908-.9,8.4,8.4,0,0,0-.527-2.883,5.831,5.831,0,0,0-3.659-3.718,4.755,4.755,0,0,0-5.263,1.628,7.148,7.148,0,0,0-1.744,4.448c-.011.174-.009.348-.024.521a.888.888,0,0,1-.909.9.9.9,0,0,1-.815-.969,9.7,9.7,0,0,1,.492-3.068C61.268,518.886,61.3,518.776,61.344,518.646Z" transform="translate(0 -20.455)"/>
    <path id="Tracé_472" data-name="Tracé 472" d="M80.609,488.157a4.584,4.584,0,1,1,4.527,4.587A4.58,4.58,0,0,1,80.609,488.157Zm4.564,2.731a2.728,2.728,0,1,0-2.708-2.742A2.728,2.728,0,0,0,85.173,490.887Z" transform="translate(-17.231 0)"/>
    <path id="Tracé_473" data-name="Tracé 473" d="M66.6,500.444a3.521,3.521,0,1,1-3.5-3.541A3.518,3.518,0,0,1,66.6,500.444Zm-1.856-.006a1.664,1.664,0,1,0-1.66,1.66A1.657,1.657,0,0,0,64.745,500.438Z" transform="translate(-2.869 -9.003)"/>
    <path id="Tracé_474" data-name="Tracé 474" d="M111.109,503.951a3.527,3.527,0,1,1,3.442-3.715A3.533,3.533,0,0,1,111.109,503.951Zm-.063-5.193a1.669,1.669,0,1,0,1.652,1.671A1.673,1.673,0,0,0,111.046,498.759Z" transform="translate(-35.345 -9.002)"/>
  </g>
</svg>
