<svg xmlns="http://www.w3.org/2000/svg" width="15.5" height="11.364" viewBox="0 0 15.5 11.364">
  <g id="Groupe_347" data-name="Groupe 347" transform="translate(-55.068 -483.576)">
    <path id="Tracé_259" data-name="Tracé 259" d="M58.81,516.141a1.671,1.671,0,0,0-1.6.009,1.845,1.845,0,0,0-1.107,1.761.512.512,0,0,1-.759.463.462.462,0,0,1-.272-.4,2.925,2.925,0,0,1,2.521-2.954,2.813,2.813,0,0,1,1.693.266,4.338,4.338,0,0,1,7.046-.025,7.152,7.152,0,0,1,.845-.237,2.885,2.885,0,0,1,2.351.672,2.686,2.686,0,0,1,1.038,2.246.5.5,0,0,1-.517.49.489.489,0,0,1-.512-.506,1.928,1.928,0,0,0-1.417-1.9,1.6,1.6,0,0,0-1.273.11c.081.282.183.56.238.846a6.893,6.893,0,0,1,.1.92.481.481,0,0,1-.481.5.489.489,0,0,1-.541-.462,3.825,3.825,0,0,0-.314-1.488,3.271,3.271,0,0,0-2.181-1.919,3.1,3.1,0,0,0-3.138.84,3.432,3.432,0,0,0-1.04,2.3c-.006.09-.006.18-.014.269a.5.5,0,0,1-.542.464.492.492,0,0,1-.486-.5,4.4,4.4,0,0,1,.293-1.584C58.764,516.265,58.785,516.208,58.81,516.141Z" transform="translate(0 -23.497)"/>
    <path id="Tracé_260" data-name="Tracé 260" d="M80.609,485.94a2.366,2.366,0,1,1,2.337,2.367A2.364,2.364,0,0,1,80.609,485.94Zm2.356,1.409a1.408,1.408,0,1,0-1.4-1.416A1.408,1.408,0,0,0,82.965,487.35Z" transform="translate(-20.225 0)"/>
    <path id="Tracé_261" data-name="Tracé 261" d="M63.194,498.731a1.817,1.817,0,1,1-1.8-1.828A1.816,1.816,0,0,1,63.194,498.731Zm-.958,0a.859.859,0,1,0-.857.857A.855.855,0,0,0,62.236,498.728Z" transform="translate(-3.654 -10.546)"/>
    <path id="Tracé_262" data-name="Tracé 262" d="M109.361,500.541a1.82,1.82,0,1,1,1.777-1.918A1.824,1.824,0,0,1,109.361,500.541Zm-.032-2.68a.862.862,0,1,0,.853.863A.864.864,0,0,0,109.329,497.86Z" transform="translate(-41.531 -10.545)"/>
  </g>
</svg>
