<svg xmlns="http://www.w3.org/2000/svg" width="24.649" height="15.68" viewBox="0 0 24.649 15.68">
  <path id="Tracé_535" data-name="Tracé 535" d="M306.9,242.3c.525,3.758-1.055,9.392-7.517,9.392a7.84,7.84,0,1,1,5.267-13.638c-1.638,1.549-1.584,1.64-2.228,2.285a4.441,4.441,0,0,0-3.039-1.142,4.658,4.658,0,0,0,0,9.314c2.536,0,3.568-1.1,4.232-3.109-1.225,0-4.232,0-4.232,0v-3.1Zm6.59.155v-2.717h-1.94v2.717h-2.791v1.94h2.791v2.794h1.94v-2.794H316.2v-1.94Z" transform="translate(-291.549 -236.009)" fill="#fff"/>
</svg>
