<svg xmlns="http://www.w3.org/2000/svg" width="24.712" height="21.324" viewBox="0 0 24.712 21.324">
  <g id="Groupe_866" data-name="Groupe 866" transform="translate(-1086.856 -412.128)">
    <path id="Tracé_640" data-name="Tracé 640" d="M1086.856,431.859h1.679V415.814c0-.7.147-.889.819-1.07l9.525-2.565a.824.824,0,0,1,1.151.883c0,.883,0,1.767,0,2.666h-1.577v-1.779l-8.314,2.236v15.659h8.3V418.276c0-.654.287-.943.936-.943l9.6-.01a.8.8,0,0,1,.906.9q0,4.6,0,9.194c0,.07-.009.14-.014.223H1108.3v-8.706h-8.256v12.925h11.519v1.593h-24.712Z" transform="translate(0 0)"/>
    <path id="Tracé_641" data-name="Tracé 641" d="M1111.493,435.346h3.746v1.569h-3.746Z" transform="translate(-19.081 -17.982)"/>
    <path id="Tracé_642" data-name="Tracé 642" d="M1115.219,483.3v1.563h-3.759V483.3Z" transform="translate(-19.056 -55.122)"/>
    <path id="Tracé_643" data-name="Tracé 643" d="M1158.938,483.316v1.566h-3.752v-1.566Z" transform="translate(-52.919 -55.133)"/>
    <path id="Tracé_644" data-name="Tracé 644" d="M1111.462,451.316h3.75v1.562h-3.75Z" transform="translate(-19.057 -30.35)"/>
    <path id="Tracé_645" data-name="Tracé 645" d="M1155.176,452.9v-1.557h3.749V452.9Z" transform="translate(-52.912 -30.367)"/>
    <path id="Tracé_646" data-name="Tracé 646" d="M1111.461,468.909v-1.558h3.751v1.558Z" transform="translate(-19.056 -42.769)"/>
    <path id="Tracé_647" data-name="Tracé 647" d="M1158.939,467.367v1.559h-3.75v-1.559Z" transform="translate(-52.922 -42.781)"/>
    <path id="Tracé_648" data-name="Tracé 648" d="M1181.975,487.282h1.562v1.457h-1.562Z" transform="translate(-73.667 -58.205)"/>
  </g>
</svg>
