<svg xmlns="http://www.w3.org/2000/svg" width="22.852" height="15.872" viewBox="0 0 22.852 15.872">
  <g id="Groupe_358" data-name="Groupe 358" transform="translate(-326.344 -532.866)">
    <g id="Groupe_357" data-name="Groupe 357" transform="translate(326.344 534.155)">
      <path id="Tracé_277" data-name="Tracé 277" d="M347.9,542.536a11.718,11.718,0,0,1-4.665,5.19,11.36,11.36,0,0,1-8,1.548,11.706,11.706,0,0,1-8.778-6.5c-.041-.08-.08-.161-.12-.242V542.2a11.867,11.867,0,0,1,21.429-.259l.13.259ZM337.119,536.7c-.508.049-1.022.067-1.525.152a10.372,10.372,0,0,0-7.644,5.353.311.311,0,0,0,.008.344,10.4,10.4,0,0,0,10.673,5.331,10.281,10.281,0,0,0,7.658-5.331.318.318,0,0,0,0-.363A10.514,10.514,0,0,0,337.119,536.7Z" transform="translate(-326.344 -535.302)"/>
      <path id="Tracé_278" data-name="Tracé 278" d="M342.929,549.127a4.263,4.263,0,1,1,4.262-4.271A4.259,4.259,0,0,1,342.929,549.127Zm-2.829-4.275a2.827,2.827,0,1,0,2.849-2.815A2.821,2.821,0,0,0,340.1,544.852Z" transform="translate(-332.148 -537.799)"/>
    </g>
    <rect id="Rectangle_138" data-name="Rectangle 138" width="1.058" height="26.331" transform="matrix(0.57, -0.822, 0.822, 0.57, 326.955, 533.736)"/>
  </g>
</svg>
