<svg xmlns="http://www.w3.org/2000/svg" width="20.784" height="23.129" viewBox="0 0 20.784 23.129">
  <g id="Groupe_733" data-name="Groupe 733" transform="translate(-367.463 -879.092)">
    <path id="Tracé_541" data-name="Tracé 541" d="M377.313,879.376H378.4l.175.04a11.985,11.985,0,0,1,1.7.423,6.492,6.492,0,0,1,4.291,5.524,28.915,28.915,0,0,1,.056,3.767,1.31,1.31,0,0,1-1.263,1.218c-.292.011-.585,0-.886,0-.02.1-.041.176-.052.256a5.012,5.012,0,0,1-1.291,2.823.19.19,0,0,0-.035.256c.211.407.4.823.621,1.226a.54.54,0,0,0,.27.229,24.661,24.661,0,0,1,2.457.875,6.558,6.558,0,0,1,3.806,5.851.6.6,0,0,1-.316.638H367.782a.6.6,0,0,1-.318-.615,6.758,6.758,0,0,1,.908-3.2,6.162,6.162,0,0,1,3.247-2.829c.7-.257,1.407-.474,2.107-.723a.539.539,0,0,0,.272-.226c.212-.388.4-.792.6-1.184a.257.257,0,0,0-.041-.333,5.927,5.927,0,0,1-.661-.936.5.5,0,0,0-.533-.31,1.315,1.315,0,0,1-1.354-1.088c-.042-.211-.013-.435-.034-.651a.261.261,0,0,0-.113-.182,1.359,1.359,0,0,1-.787-1.312c0-.865.009-1.731,0-2.6a6.735,6.735,0,0,1,1.086-3.846,6.587,6.587,0,0,1,3.828-2.831C376.424,879.524,376.873,879.464,377.313,879.376Zm-2.549,12.783a3.565,3.565,0,0,0,6.6-1.037,30.846,30.846,0,0,0,.466-3.229c.036-.273.036-.55.051-.8-.615-.13-1.21-.224-1.786-.386a7.878,7.878,0,0,1-3.129-1.729.5.5,0,0,0-.3-.148,2.915,2.915,0,0,0-1.3.4,5.058,5.058,0,0,0-1.5,1.595.356.356,0,0,0-.027.216c.043.585.069,1.172.142,1.753.1.767.232,1.528.344,2.293.02.133.077.173.207.169.331-.008.663.006.993-.009a.3.3,0,0,0,.208-.139,1.3,1.3,0,0,1,1.016-.739,8.313,8.313,0,0,1,1.15-.016,1.352,1.352,0,0,1-.013,2.7q-.485.009-.971,0a1.106,1.106,0,0,1-1.014-.53.683.683,0,0,0-.8-.372C375,892.166,374.906,892.159,374.765,892.159Zm2.3,9.432a22.144,22.144,0,0,1-3.091-5.564c-.569.191-1.091.378-1.622.542a5.469,5.469,0,0,0-3.557,3.337,4.972,4.972,0,0,0-.388,1.686Zm1.593,0h8.652a2.8,2.8,0,0,0-.021-.3,5.618,5.618,0,0,0-3.95-4.731c-.525-.172-1.049-.347-1.6-.529A22.23,22.23,0,0,1,378.654,901.589ZM381.9,886.13a3.715,3.715,0,0,0-2.282-3.776,5.444,5.444,0,0,0-2.559-.231,3.513,3.513,0,0,0-2.659,1.624,3.426,3.426,0,0,0-.571,1.55c.033-.009.051-.009.06-.017.048-.048.092-.1.14-.147a4.123,4.123,0,0,1,2.726-1.24.8.8,0,0,1,.647.245A7.335,7.335,0,0,0,381.9,886.13Zm1.774-.44a5.836,5.836,0,0,0-11.639-.005h.838c.022-.211.03-.407.064-.6a4.51,4.51,0,0,1,2.873-3.593,5.847,5.847,0,0,1,3.067-.253,4.353,4.353,0,0,1,3.613,2.83,11.416,11.416,0,0,1,.413,1.62Zm-5.88,11.295c-.5.532-1.006,1.059-1.5,1.6a.243.243,0,0,0,.008.224c.267.417.55.825.822,1.239.242.368.477.741.726,1.127l1.649-2.49Zm.664-.7,1.554,1.55c.318-.771.632-1.531.942-2.293a.176.176,0,0,0-.018-.125c-.184-.376-.373-.75-.571-1.148Zm-1.328.078-1.888-1.881a4.241,4.241,0,0,1-.263.51.934.934,0,0,0-.063,1.02c.285.592.531,1.2.807,1.838Zm-4.255-9.747h-.888c0,.807-.009,1.6.005,2.4a.419.419,0,0,0,.417.428c.229.021.462,0,.693,0C373.026,888.491,372.951,887.558,372.876,886.614Zm10.851.006h-.893l-.224,2.828c.225,0,.435.01.644,0a.446.446,0,0,0,.468-.454C383.735,888.2,383.726,887.416,383.726,886.62Zm-6.327,5.538c.15,0,.3.011.451,0a.465.465,0,0,0,.452-.448.459.459,0,0,0-.453-.446,8.435,8.435,0,0,0-.88,0,.462.462,0,0,0-.463.437.468.468,0,0,0,.464.459C377.112,892.168,377.256,892.159,377.4,892.158Zm-.342,2.688.769.777.736-.777Zm-4.148-4.484c-.087.612.073.894.5.864l-.159-.864Z" transform="translate(0 -0.284)"/>
    <path id="Tracé_542" data-name="Tracé 542" d="M472.895,999.812c-.117-.094-.273-.164-.343-.285a4.79,4.79,0,0,0-1.045-1.261.429.429,0,0,1-.052-.641.446.446,0,0,1,.647-.037,4.482,4.482,0,0,1,1.222,1.487A.5.5,0,0,1,472.895,999.812Z" transform="translate(-87.38 -99.342)"/>
    <path id="Tracé_543" data-name="Tracé 543" d="M462.282,992.517a.449.449,0,1,1-.428-.459A.451.451,0,0,1,462.282,992.517Z" transform="translate(-79.008 -94.792)"/>
  </g>
</svg>
