<svg xmlns="http://www.w3.org/2000/svg" width="13" height="18.495" viewBox="0 0 13 18.495">
  <g id="Groupe_442" data-name="Groupe 442" transform="translate(-33.502 -269.464)">
    <path id="Tracé_463" data-name="Tracé 463" d="M39.86,287.959a3.109,3.109,0,0,1-.413-.407c-1.091-1.556-2.19-3.107-3.252-4.683a18.588,18.588,0,0,1-2.171-4.162,8.208,8.208,0,0,1-.52-2.895,6.511,6.511,0,0,1,4.692-6.087c.4-.111.813-.156,1.22-.232.04-.007.08-.02.12-.03h.939c.354.061.713.1,1.062.185a6.518,6.518,0,0,1,4.908,5.427,7.9,7.9,0,0,1-.572,3.936,20.72,20.72,0,0,1-2.3,4.236c-1.018,1.5-2.066,2.973-3.107,4.454a1.525,1.525,0,0,1-.312.258Zm.146-1.521c.025-.029.046-.05.062-.073.913-1.307,1.841-2.6,2.733-3.925a18.5,18.5,0,0,0,2.136-4.02,6.588,6.588,0,0,0,.441-3.15,5.42,5.42,0,0,0-10.579-.81,6.07,6.07,0,0,0,.167,3.654,15.06,15.06,0,0,0,1.789,3.61c1.041,1.569,2.13,3.105,3.2,4.655A.573.573,0,0,0,40.006,286.438Z" transform="translate(0)" fill="#8a8a8a"/>
    <path id="Tracé_464" data-name="Tracé 464" d="M53.037,285.757a3.251,3.251,0,1,1-3.242-3.259A3.256,3.256,0,0,1,53.037,285.757Zm-1.084-.011a2.167,2.167,0,1,0-2.17,2.169A2.174,2.174,0,0,0,51.953,285.747Z" transform="translate(-9.782 -9.783)" fill="#8a8a8a"/>
  </g>
</svg>
