<svg xmlns="http://www.w3.org/2000/svg" width="19.878" height="19.872" viewBox="0 0 19.878 19.872">
  <g id="Groupe_737" data-name="Groupe 737" transform="translate(-797.719 -723.982)">
    <path id="Tracé_551" data-name="Tracé 551" d="M821.524,733.935c0,1.918,0,3.837,0,5.755a3.911,3.911,0,0,1-2.443,3.726,4.058,4.058,0,0,1-1.565.288c-3.2,0-6.4.005-9.607,0a3.9,3.9,0,0,1-3.943-3.245,2.854,2.854,0,0,1-.058-.523c-.007-.7-.012-1.406,0-2.109a.981.981,0,0,1,1.934-.231,1.125,1.125,0,0,1,.026.272c0,.6,0,1.192,0,1.788a1.96,1.96,0,0,0,2.08,2.083q3.4.007,6.81,0c1.009,0,2.018.017,3.026-.022a1.887,1.887,0,0,0,1.763-1.765c.007-.091.014-.183.014-.275q0-5.755,0-11.51a1.989,1.989,0,0,0-.78-1.677,1.964,1.964,0,0,0-1.241-.4c-3.218,0-6.435-.007-9.653,0a1.946,1.946,0,0,0-2.02,2.048c0,.611,0,1.223,0,1.834a.972.972,0,0,1-.924,1,.961.961,0,0,1-1.032-.94c-.011-.824-.025-1.653.04-2.473A3.863,3.863,0,0,1,807.1,724.2a5.027,5.027,0,0,1,.8-.067q4.815-.007,9.63,0a3.876,3.876,0,0,1,3.9,3.071,4.72,4.72,0,0,1,.1,1.023C821.528,730.129,821.524,732.032,821.524,733.935Z" transform="translate(-4.079 0)" stroke="#fff" stroke-width="0.3"/>
    <path id="Tracé_552" data-name="Tracé 552" d="M807.169,747.213h-.27q-3.93,0-7.861,0a1.623,1.623,0,0,1-.6-.1.943.943,0,0,1-.544-1.075.963.963,0,0,1,.853-.773,3.1,3.1,0,0,1,.32-.012h8.156c-.076-.087-.115-.138-.16-.182-.35-.352-.7-.7-1.052-1.054a.98.98,0,1,1,1.377-1.394q1.467,1.451,2.917,2.917a.954.954,0,0,1,0,1.4q-1.45,1.467-2.917,2.917a.98.98,0,1,1-1.369-1.4c.391-.4.787-.787,1.181-1.18Z" transform="translate(0 -12.314)" stroke="#fff" stroke-width="0.3"/>
  </g>
</svg>
