<svg xmlns="http://www.w3.org/2000/svg" width="10.154" height="13.536" viewBox="0 0 10.154 13.536">
  <g id="Groupe_639" data-name="Groupe 639" transform="translate(-959.272 -322.592)">
    <path id="Tracé_532" data-name="Tracé 532" d="M968.34,336.128h-7.984c-.049-.016-.1-.034-.147-.047a1.251,1.251,0,0,1-.933-1.191q-.008-2.992,0-5.985a1.24,1.24,0,0,1,1.051-1.212,6.338,6.338,0,0,1,.638-.036v-.146c0-.533,0-1.066,0-1.6a3.369,3.369,0,0,1,2.3-3.136c.257-.084.528-.124.793-.184h.582l.206.036a3.385,3.385,0,0,1,2.887,3.4c0,.5,0,1,0,1.493v.145c.166,0,.311,0,.456,0a1.257,1.257,0,0,1,1.233,1.235q.011,2.992,0,5.985a1.248,1.248,0,0,1-.833,1.159C968.507,336.078,968.423,336.1,968.34,336.128Zm-6.239-8.467h4.485c0-.663,0-1.318,0-1.972a.689.689,0,0,0-.016-.1,2.254,2.254,0,0,0-4.474.42c0,.511,0,1.022,0,1.533C962.095,327.575,962.1,327.614,962.1,327.661Zm1.686,5.069c0,.053,0,.106,0,.158,0,.154,0,.309,0,.462a.558.558,0,0,0,.561.522.55.55,0,0,0,.553-.515c.012-.391.009-.783,0-1.175a.256.256,0,0,1,.117-.239,1.1,1.1,0,0,0,.366-1.321,1.127,1.127,0,0,0-2.13.143,1.1,1.1,0,0,0,.417,1.181.237.237,0,0,1,.111.228C963.782,332.36,963.787,332.545,963.787,332.729Z" transform="translate(0 0)" fill="#959292"/>
  </g>
</svg>
