<svg xmlns="http://www.w3.org/2000/svg" width="22.295" height="22.299" viewBox="0 0 22.295 22.299">
  <g id="Groupe_342" data-name="Groupe 342" transform="translate(-544.555 -407.939)">
    <g id="Groupe_517" data-name="Groupe 517" transform="translate(1.686 2.687)">
      <path id="Tracé_250" data-name="Tracé 250" d="M559.3,440.688l2.466-.985c.455-.182.909-.367,1.364-.546a1.058,1.058,0,0,1,1.527,1.026q.007,4.717,0,9.433a1.065,1.065,0,0,1-1.556,1.036c-1.188-.473-2.374-.951-3.561-1.426-.075-.03-.152-.053-.19-.065a9.289,9.289,0,0,1-.537,1.187,2.944,2.944,0,0,1-2.547,1.467c-2.154.029-4.309.012-6.463.014-1.073,0-2.146.006-3.219,0a3.171,3.171,0,0,1-3.18-2.685,3.451,3.451,0,0,1-.037-.6q0-3.631,0-7.262a3.179,3.179,0,0,1,3.306-3.3c3.036,0,6.073.039,9.109-.015A3.338,3.338,0,0,1,559.3,440.688Zm-7.95,9.018q2.321,0,4.641,0a1.089,1.089,0,0,0,1.216-1.217q0-3.581,0-7.161a1.077,1.077,0,0,0-1.218-1.207h-9.282a1.086,1.086,0,0,0-1.22,1.233q0,3.556,0,7.111a1.1,1.1,0,0,0,1.246,1.241Zm11.171-7.981a.529.529,0,0,0-.111.015c-.979.391-1.959.781-2.935,1.182a.289.289,0,0,0-.128.223c-.008,1.173,0,2.346-.008,3.519a.231.231,0,0,0,.168.258c.958.377,1.913.762,2.87,1.144a1.183,1.183,0,0,0,.144.038Z" transform="translate(0 -24.78)" stroke="#fff" stroke-width="1"/>
      <path id="Tracé_251" data-name="Tracé 251" d="M560.3,405.752a7.117,7.117,0,0,1,4.88,1.9,1.07,1.07,0,1,1-1.433,1.571,5.009,5.009,0,0,0-6.652-.157c-.1.085-.195.182-.3.266a1.07,1.07,0,0,1-1.483-.1,1.055,1.055,0,0,1,.073-1.482A7.085,7.085,0,0,1,560.3,405.752Z" transform="translate(-8.983)" stroke="#fff" stroke-width="1"/>
      <path id="Tracé_252" data-name="Tracé 252" d="M568.737,421.187a3.427,3.427,0,0,1,2.328,1.005,1.054,1.054,0,0,1,.063,1.519,1.065,1.065,0,0,1-1.52.028,1.362,1.362,0,0,0-1.987,0,1.065,1.065,0,1,1-1.442-1.566A3.591,3.591,0,0,1,568.737,421.187Z" transform="translate(-17.261 -11.871)" stroke="#fff" stroke-width="1"/>
    </g>
  </g>
</svg>
