<svg xmlns="http://www.w3.org/2000/svg" xmlns:xlink="http://www.w3.org/1999/xlink" width="91.54" height="102.204" viewBox="0 0 91.54 102.204">
  <defs>
    <linearGradient id="linear-gradient" x1="-1.622" y1="1.203" x2="0.875" y2="0.376" gradientUnits="objectBoundingBox">
      <stop offset="0" stop-color="#ca5b61"/>
      <stop offset="1" stop-color="#de8a4a"/>
    </linearGradient>
    <linearGradient id="linear-gradient-2" x1="-0.066" y1="0.716" x2="2.295" y2="-0.144" xlink:href="#linear-gradient"/>
    <linearGradient id="linear-gradient-3" x1="-0.089" y1="0.945" x2="8.519" y2="-5.557" xlink:href="#linear-gradient"/>
    <linearGradient id="linear-gradient-4" x1="-0.916" y1="1.569" x2="7.692" y2="-4.932" xlink:href="#linear-gradient"/>
    <linearGradient id="linear-gradient-5" x1="-0.745" y1="1.44" x2="7.863" y2="-5.061" xlink:href="#linear-gradient"/>
    <linearGradient id="linear-gradient-6" x1="-1.572" y1="2.065" x2="7.036" y2="-4.437" xlink:href="#linear-gradient"/>
    <linearGradient id="linear-gradient-7" x1="-1.733" y1="1.881" x2="0.373" y2="0.545" xlink:href="#linear-gradient"/>
    <linearGradient id="linear-gradient-8" x1="0.361" y1="0.856" x2="0.819" y2="0.117" xlink:href="#linear-gradient"/>
    <linearGradient id="linear-gradient-9" x1="-3.338" y1="3.656" x2="-0.442" y2="1.275" xlink:href="#linear-gradient"/>
  </defs>
  <g id="Groupe_1028" data-name="Groupe 1028" transform="translate(-117.016 -53.573)">
    <g id="Groupe_1025" data-name="Groupe 1025" transform="translate(129.199 53.573)">
      <path id="Tracé_1039" data-name="Tracé 1039" d="M149.333,59.658,155.99,64.8V85.017h2.989V63.335l-12.634-9.762V74.659h2.989Z" transform="translate(-112.632 -53.573)" fill="url(#linear-gradient)"/>
      <path id="Tracé_1040" data-name="Tracé 1040" d="M128.4,64.42l7.386-5.049v15.2h2.989V53.708l-13.363,9.136v21.1H128.4Z" transform="translate(-124.458 -53.496)" fill="url(#linear-gradient-2)"/>
      <rect id="Rectangle_344" data-name="Rectangle 344" width="3.665" height="3.999" transform="translate(19.191 40.898)" fill="url(#linear-gradient-3)"/>
      <rect id="Rectangle_345" data-name="Rectangle 345" width="3.665" height="3.999" transform="translate(24.28 40.898)" fill="url(#linear-gradient-4)"/>
      <rect id="Rectangle_346" data-name="Rectangle 346" width="3.665" height="3.999" transform="translate(19.191 35.996)" fill="url(#linear-gradient-5)"/>
      <rect id="Rectangle_347" data-name="Rectangle 347" width="3.665" height="3.999" transform="translate(24.28 35.996)" fill="url(#linear-gradient-6)"/>
      <path id="Tracé_1041" data-name="Tracé 1041" d="M163.59,76.225V70.4h7.131v8.646h2.989V67.409H160.6v10.4l13.3,9.064,1.683-2.47Z" transform="translate(-104.579 -45.757)" fill="url(#linear-gradient-7)"/>
      <path id="Tracé_1042" data-name="Tracé 1042" d="M190.69,94.688c-2.826,3.515-5.648,5.194-8.378,4.992-3.654-.269-6.464-3.789-7.571-5.4l5.774-7.69-2.39-1.793-6.978,9.292.474.85a19.716,19.716,0,0,0,3.515,4.377H161.683V80.282l7.119,4.925,1.7-2.458L148.481,67.516,124.8,82.72l1.615,2.515,8.762-5.626v19.7H128.7v-6.92h-2.989V102.3h12.453V77.691l10.253-6.583,10.275,7.108V102.3h21.45a9.477,9.477,0,0,0,1.934.358c.228.017.457.025.685.025,3.662,0,7.225-2.2,10.6-6.563l.313-.4V90.136H190.69Z" transform="translate(-124.801 -45.696)" fill="url(#linear-gradient-8)"/>
      <path id="Tracé_1043" data-name="Tracé 1043" d="M166.674,68.906a5.457,5.457,0,1,0-5.447-5.457A5.458,5.458,0,0,0,166.674,68.906Zm0-9.28a3.822,3.822,0,1,1-3.814,3.823A3.822,3.822,0,0,1,166.674,59.626Z" transform="translate(-104.225 -51.077)" fill="url(#linear-gradient-9)"/>
    </g>
    <g id="Groupe_1026" data-name="Groupe 1026" transform="translate(117.277 139.259)">
      <path id="Tracé_1044" data-name="Tracé 1044" d="M185.961,120.993h-.53c-3.5,0-16.308,0-19.81,0a6.507,6.507,0,0,1-1.246-.114,2.4,2.4,0,0,1-1.942-1.39c-.919,1.321-2.329,1.48-3.782,1.5-1.347.022-4.5,0-5.889,0l-.293-1.64h.662c1.371,0,4.544.016,5.914-.022a2.11,2.11,0,0,0,2.336-2.241c0-2.7,0-5.407,0-8.109,0-.189,0-.379,0-.6h1.795v.581q0,3.817,0,7.633c0,.282,0,.562.02.842a1.871,1.871,0,0,0,1.8,1.861c.689.08,10.7.016,11.337.016a16.294,16.294,0,0,1,.185-2.44,3.023,3.023,0,0,1,3.236-2.288,3.088,3.088,0,0,1,3.2,2.271,5.071,5.071,0,0,1,.15,1.2c.006.4-.063.8-.106,1.294.412,0,.818.014,1.222-.011a.359.359,0,0,0,.238-.236,5.986,5.986,0,0,0-.324-3.87,4.184,4.184,0,0,0-4.267-2.149c-1.117.111-2.213.426-3.422.671l-.546-1.366c.872-.266,1.709-.576,2.576-.776a7.973,7.973,0,0,1,3.616,0,5.194,5.194,0,0,1,4.22,4.388A15.435,15.435,0,0,1,185.961,120.993Zm-4.645-1.668a12.369,12.369,0,0,0-.149-2,1.493,1.493,0,0,0-1.53-1.111,1.463,1.463,0,0,0-1.4,1.185,11.566,11.566,0,0,0-.023,1.925Z" transform="translate(-97.251 -108.302)" fill="#de8a4a"/>
      <path id="Tracé_1045" data-name="Tracé 1045" d="M150.391,115.047l-.549-1.369c1.595-1.186,5.4-1.438,6.623.668a5.836,5.836,0,0,1,.687,2.236,10.95,10.95,0,0,1-.57,4.411H136.5V108.329h1.737v11.007c.216.017.377.042.54.042,2.493,0,13.375-.006,15.868.009.394,0,.6-.085.637-.469.063-.628.216-1.252.227-1.878.031-1.975-1.617-3.072-3.7-2.483C151.347,114.69,150.895,114.872,150.391,115.047Z" transform="translate(-106.269 -108.329)" fill="#de8a4a"/>
      <path id="Tracé_1046" data-name="Tracé 1046" d="M117.211,112.777h1.725c0,.807-.008,1.591,0,2.377a8.24,8.24,0,0,0,.08,1.363,2.538,2.538,0,0,0,2.508,1.878c.282.03.57.022.856.023.643,0,9.989,0,10.7,0,0-.648-.009-1.257,0-1.864.022-1.156-.014-2.321.1-3.469a2.9,2.9,0,0,1,2.693-2.721,8.221,8.221,0,0,1,1.36-.116c.87-.017,1.742,0,2.642,0v5.067H138.14v-3.526a16.963,16.963,0,0,0-1.98.127,1.608,1.608,0,0,0-1.274,1.726c-.009,1.931,0,3.861.006,5.792v.623c-.786,0-1.523.016-2.258,0-1.216-.031-11.15.014-12.342-.158a3.236,3.236,0,0,1-3.064-3.111C117.138,115.47,117.211,114.15,117.211,112.777Z" transform="translate(-117.183 -107.249)" fill="#de8a4a"/>
      <path id="Tracé_1047" data-name="Tracé 1047" d="M134.8,111.3h1.753c.014.152.038.285.038.419,0,2.543.017,5.086-.017,7.629a6.522,6.522,0,0,1-.307,1.75,1.694,1.694,0,0,1-1.512,1.2,17.7,17.7,0,0,1-2.039.059.4.4,0,0,1-.454-.468,10.4,10.4,0,0,0-.07-1.044c.225.014.427.016.628.038,1.49.163,1.992-.243,1.992-1.635,0-2.438-.008-4.876-.011-7.314C134.794,111.739,134.8,111.548,134.8,111.3Z" transform="translate(-108.708 -106.651)" fill="#de8a4a"/>
      <path id="Tracé_1048" data-name="Tracé 1048" d="M156.51,116.923h-1.7v-7.732h1.7Z" transform="translate(-95.928 -107.842)" fill="#de8a4a"/>
    </g>
    <circle id="Ellipse_104" data-name="Ellipse 104" cx="1.062" cy="1.062" r="1.062" transform="translate(126.229 153.653)" fill="#de8a4a"/>
    <circle id="Ellipse_105" data-name="Ellipse 105" cx="1.062" cy="1.062" r="1.062" transform="translate(129.319 153.653)" fill="#de8a4a"/>
    <circle id="Ellipse_106" data-name="Ellipse 106" cx="1.062" cy="1.062" r="1.062" transform="translate(156.999 153.579)" fill="#de8a4a"/>
    <g id="Groupe_1027" data-name="Groupe 1027" transform="translate(117.016 119.952)">
      <path id="Tracé_1049" data-name="Tracé 1049" d="M119.6,109.418a2.433,2.433,0,0,1,.16.787,1.06,1.06,0,0,1-1.12,1c-1.1,0-1.485-.416-1.485-.948a1.317,1.317,0,0,1,.252-.764v-5.047a1.033,1.033,0,0,1-.39-.742c0-.577.069-1.042.39-1.158v-4.7a2.088,2.088,0,0,1-.183-.67c0-.6.685-1.019,1.53-1.019a1.138,1.138,0,0,1,1.028.972,1.157,1.157,0,0,1-.182.764v4.4l6.765-.44V97.982a1.664,1.664,0,0,1-.183-.856c0-.6.663-.972,1.257-.972.549,0,1.3.509,1.3.9a1.383,1.383,0,0,1-.183.742v11.715a1.807,1.807,0,0,1,.183.786c0,.534-.732.9-1.325.9a1.229,1.229,0,0,1-1.3-1.088,1.788,1.788,0,0,1,.252-.811v-5.439l-6.765.44Z" transform="translate(-117.016 -95.899)" fill="#ca5b61"/>
      <path id="Tracé_1050" data-name="Tracé 1050" d="M133.244,101.608c0-.6-.228-.9-.823-.9a5.694,5.694,0,0,0-3.155,1c.045.185-.3.648-.959.648a1.113,1.113,0,0,1-.961-1.088c0-.441.549-1.042,1.03-.95a8.821,8.821,0,0,1,4.845-1.274,1.973,1.973,0,0,1,2.08,2.084v7.084a.765.765,0,0,1,.183.556c0,.693-.8.833-1.509.833-.754,0-.959-.324-.959-.74a1.234,1.234,0,0,1,.182-.556v-1.042h-.045a6.61,6.61,0,0,1-5.1,2.616,1.889,1.889,0,0,1-2.1-1.853c0-2.036,2.491-4.676,7.291-5.231Zm-.047,2.616c-3.039.371-5.142,2.222-5.142,3.264,0,.394.321.532.754.532,1.692,0,4.388-2.014,4.388-3.078Z" transform="translate(-111.968 -94.27)" fill="#ca5b61"/>
      <path id="Tracé_1051" data-name="Tracé 1051" d="M134.212,98.028a2.1,2.1,0,0,1-.229-.787c0-1,.274-1.25,1.394-1.25a1.208,1.208,0,0,1,1.3,1.088,1.655,1.655,0,0,1-.343,1.019v11.528a.882.882,0,0,1,.366.695,1.315,1.315,0,0,1-1.372.972,1.183,1.183,0,0,1-1.325-1.135,1.263,1.263,0,0,1,.207-.6Z" transform="translate(-107.431 -95.991)" fill="#ca5b61"/>
      <path id="Tracé_1052" data-name="Tracé 1052" d="M144.239,101.608c0-.6-.228-.9-.823-.9a5.685,5.685,0,0,0-3.153,1c.045.185-.3.648-.961.648a1.112,1.112,0,0,1-.959-1.088c0-.441.548-1.042,1.028-.95a8.821,8.821,0,0,1,4.845-1.274,1.973,1.973,0,0,1,2.08,2.084v7.084a.765.765,0,0,1,.183.556c0,.693-.8.833-1.509.833-.754,0-.959-.324-.959-.74a1.234,1.234,0,0,1,.182-.556v-1.042h-.045a6.608,6.608,0,0,1-5.1,2.616,1.89,1.89,0,0,1-2.1-1.853c0-2.036,2.491-4.676,7.291-5.231Zm-.047,2.616c-3.039.371-5.142,2.222-5.142,3.264,0,.394.321.532.754.532,1.692,0,4.388-2.014,4.388-3.078Z" transform="translate(-105.757 -94.27)" fill="#ca5b61"/>
      <path id="Tracé_1053" data-name="Tracé 1053" d="M157.586,107.525a4.638,4.638,0,0,1-1.942,3.518,6.176,6.176,0,0,1-3.886,1.274c-2.812,0-4.3-1.667-4.3-3.912,0-.833.412-1.714,1.166-1.714a1.342,1.342,0,0,1,1.418,1.2,1.186,1.186,0,0,1-.39.9c-.022.973.685,1.552,2.011,1.552a4.572,4.572,0,0,0,2.469-.879,3.439,3.439,0,0,0,1.257-2.339V98.5a1.208,1.208,0,0,1-.366-.9,1.279,1.279,0,0,1,1.463-1.365,1.321,1.321,0,0,1,1.3,1.365,1.15,1.15,0,0,1-.207.787Z" transform="translate(-99.819 -95.857)" fill="#ca5b61"/>
      <path id="Tracé_1054" data-name="Tracé 1054" d="M162.725,101.608c0-.6-.228-.9-.823-.9a5.685,5.685,0,0,0-3.153,1c.045.185-.3.648-.961.648a1.113,1.113,0,0,1-.959-1.088c0-.441.548-1.042,1.028-.95a8.825,8.825,0,0,1,4.845-1.274,1.974,1.974,0,0,1,2.081,2.084v7.084a.765.765,0,0,1,.182.556c0,.693-.8.833-1.509.833-.754,0-.959-.324-.959-.74a1.218,1.218,0,0,1,.183-.556v-1.042h-.045a6.61,6.61,0,0,1-5.1,2.616,1.89,1.89,0,0,1-2.1-1.853c0-2.036,2.491-4.676,7.291-5.231Zm-.045,2.616c-3.041.371-5.142,2.222-5.142,3.264,0,.394.319.532.754.532,1.69,0,4.388-2.014,4.388-3.078Z" transform="translate(-95.315 -94.27)" fill="#ca5b61"/>
      <path id="Tracé_1055" data-name="Tracé 1055" d="M163.718,100.621l-.182-.6c0-.44.593-.834,1.324-.834.687,0,1.12.3,1.12.764a.7.7,0,0,1-.136.534v.811h.022c1.257-1.158,2.56-2.061,3.657-2.061.709,0,1.416.695,1.416,2.825a1,1,0,0,1-1.142,1.064c-.662,0-1.052-.232-1.052-.624a1.763,1.763,0,0,1,.116-.6c0-.277-.092-.509-.275-.509a6.338,6.338,0,0,0-2.742,2.175V107.8a1.047,1.047,0,0,1,.274.646c0,.695-.388,1.042-1.623,1.042-.731,0-1.075-.3-1.075-.9a.757.757,0,0,1,.3-.577Z" transform="translate(-90.803 -94.186)" fill="#ca5b61"/>
      <path id="Tracé_1056" data-name="Tracé 1056" d="M169.615,101.215a.989.989,0,0,1-.48-.9c0-.648.778-1.041,1.258-1.041a1.041,1.041,0,0,1,1.142,1.2l3.336,5.926,2.355-6.134a1.009,1.009,0,0,1,1.052-1.066c.754,0,1.3.371,1.3.973a.936.936,0,0,1-.526.809l-4.045,10c-1.028,2.524-2.217,3.078-3.588,3.078a2.711,2.711,0,0,1-2.72-1.967c-.138-.393-.388-.255-.388-.811a1.008,1.008,0,0,1,1.073-1.064c.732,0,1.189.255,1.189.879a1.7,1.7,0,0,1-.114.487.909.909,0,0,0,.959.693c.845,0,1.463-.925,2.468-3.565Z" transform="translate(-88.04 -94.178)" fill="#ca5b61"/>
    </g>
  </g>
</svg>
