<svg xmlns="http://www.w3.org/2000/svg" width="20.964" height="20.964" viewBox="0 0 20.964 20.964">
  <g id="Groupe_1820" data-name="Groupe 1820" transform="translate(-890.936 -712.129)">
    <path id="Tracé_5405" data-name="Tracé 5405" d="M918.579,712.129a.533.533,0,0,1,.285.54,18.2,18.2,0,0,1-1.6,6.658,9.052,9.052,0,0,1-1.81,2.583q-1.048,1.036-2.081,2.087a.547.547,0,0,0-.146.3c-.135,1.158-.253,2.318-.393,3.475a.783.783,0,0,1-.2.427c-1.1,1.118-2.215,2.223-3.323,3.335a.463.463,0,0,1-.492.167.448.448,0,0,1-.294-.427c-.106-.763-.212-1.526-.331-2.287a.7.7,0,0,0-.17-.322c-.178-.2-.375-.391-.583-.606l-.7,1.167c-.105.175-.208.352-.317.525a.415.415,0,0,1-.689.09c-.275-.265-.542-.539-.812-.809q-1.852-1.853-3.706-3.7c-.137-.137-.263-.287-.185-.483a.674.674,0,0,1,.261-.295c.531-.332,1.071-.648,1.628-.982-.236-.247-.45-.493-.692-.708-.079-.07-.23-.063-.35-.08q-1.1-.162-2.206-.318a.414.414,0,0,1-.373-.275.427.427,0,0,1,.129-.465c1.13-1.128,2.256-2.26,3.391-3.382a.686.686,0,0,1,.376-.177c1.151-.137,2.3-.254,3.455-.391a.679.679,0,0,0,.369-.173c.635-.619,1.271-1.238,1.883-1.88a10.158,10.158,0,0,1,4.037-2.523,19.089,19.089,0,0,1,4.948-1.03,1.966,1.966,0,0,0,.2-.036ZM909.54,726.7c.065-.077.109-.138.161-.191,1.625-1.626,3.233-3.271,4.883-4.871a10.021,10.021,0,0,0,2.474-3.922.214.214,0,0,0-.056-.266c-.315-.3-.62-.615-.929-.924q-1.259-1.259-2.521-2.515a.269.269,0,0,0-.215-.079,9.321,9.321,0,0,0-3.658,2.173q-3.181,3.187-6.367,6.369c-.048.048-.093.1-.126.133l5.186,5.185.577-.574a1.34,1.34,0,0,1-.175-.128q-1.478-1.474-2.953-2.952a.416.416,0,0,1-.057-.633.425.425,0,0,1,.633.053c.451.446.9.9,1.347,1.345Zm-3.548,2.178.83-1.383-3.322-3.322-1.383.831Zm-.062-10.2c-.836.093-1.633.177-2.427.276a.548.548,0,0,0-.293.15c-.834.823-1.661,1.654-2.49,2.483-.047.047-.091.1-.147.157a.81.81,0,0,0,.114.037c.586.085,1.172.174,1.759.246a.368.368,0,0,0,.256-.111q1.546-1.533,3.082-3.076C905.826,718.8,905.863,718.753,905.93,718.678Zm6.384,6.395a.976.976,0,0,0-.083.061q-1.6,1.6-3.191,3.2a.341.341,0,0,0-.07.251c.071.56.155,1.119.237,1.678a2.063,2.063,0,0,0,.062.21,1.945,1.945,0,0,1,.151-.207c.726-.729,1.442-1.468,2.187-2.178a1.4,1.4,0,0,0,.495-.994C912.139,726.428,912.238,725.767,912.314,725.073Zm2.076-11.47,3,3a16.643,16.643,0,0,0,.6-3.6A17.012,17.012,0,0,0,914.39,713.6Z" transform="translate(-6.965)"/>
    <path id="Tracé_5406" data-name="Tracé 5406" d="M890.936,813.068c.121-.137.235-.28.364-.409q1.943-1.948,3.891-3.892a1.36,1.36,0,0,1,.216-.186.4.4,0,0,1,.548.548,1.212,1.212,0,0,1-.171.2q-2.017,2.019-4.036,4.037c-.326.326-.542.311-.812-.054Z" transform="translate(0 -80.507)"/>
    <path id="Tracé_5407" data-name="Tracé 5407" d="M897.389,801.3a.437.437,0,0,1,.373.62.746.746,0,0,1-.138.176q-1.191,1.194-2.385,2.385a.877.877,0,0,1-.158.129.393.393,0,0,1-.488-.056.386.386,0,0,1-.075-.47.66.66,0,0,1,.124-.161q1.205-1.208,2.416-2.411A1.826,1.826,0,0,1,897.389,801.3Z" transform="translate(-2.953 -74.475)"/>
    <path id="Tracé_5408" data-name="Tracé 5408" d="M911.866,816.013a.983.983,0,0,1-.149.254q-1.221,1.235-2.455,2.458a.405.405,0,0,1-.615.027.412.412,0,0,1,.039-.6q1.224-1.232,2.456-2.457a.409.409,0,0,1,.482-.118A.414.414,0,0,1,911.866,816.013Z" transform="translate(-14.698 -86.37)"/>
    <path id="Tracé_5409" data-name="Tracé 5409" d="M959.276,743.663a2.455,2.455,0,1,1,0,4.91,2.455,2.455,0,0,1,0-4.91Zm0,.82a1.646,1.646,0,0,0-1.634,1.627,1.635,1.635,0,1,0,3.271-.01A1.632,1.632,0,0,0,959.276,744.483Z" transform="translate(-55.029 -26.337)"/>
    <path id="Tracé_5410" data-name="Tracé 5410" d="M931.315,774.2a.4.4,0,0,1-.4-.4.406.406,0,0,1,.4-.4.415.415,0,0,1,.4.405A.408.408,0,0,1,931.315,774.2Z" transform="translate(-33.39 -51.167)"/>
  </g>
</svg>
