<svg xmlns="http://www.w3.org/2000/svg" width="22.719" height="19.711" viewBox="0 0 22.719 19.711">
  <g id="Groupe_864" data-name="Groupe 864" transform="translate(-993.82 -892.758)">
    <path id="Tracé_637" data-name="Tracé 637" d="M993.82,922.82c.074-.4.131-.8.224-1.193a7.572,7.572,0,0,1,10.782-4.929c.1.049.19.1.3.166l-.751,1.311a6.03,6.03,0,0,0-5-.429,5.92,5.92,0,0,0-3.109,2.483,6.054,6.054,0,1,0,10.77,1.027l1.434-.569c.13.488.3.948.371,1.423a7.375,7.375,0,0,1-2.191,6.776,7.214,7.214,0,0,1-5.923,2.1,7.551,7.551,0,0,1-6.762-6.011c-.064-.3-.1-.608-.15-.913Z" transform="translate(0 -18.568)"/>
    <path id="Tracé_638" data-name="Tracé 638" d="M1053.618,930.95a12.405,12.405,0,0,1-.265,1.249,6.7,6.7,0,0,1-5.529,4.875,6.239,6.239,0,0,1-3.02-.22c-.069-.021-.137-.047-.228-.079l.5-1.417a5.277,5.277,0,0,0,4.568-.558,5.155,5.155,0,0,0,2.119-2.626,5.3,5.3,0,1,0-9.705.555l-1.363.7c-.149-.391-.319-.757-.431-1.14a6.816,6.816,0,1,1,13.265-3.011c.025.159.056.318.084.477Z" transform="translate(-37.078 -24.701)"/>
    <path id="Tracé_639" data-name="Tracé 639" d="M1060.7,895.743l-2.889,2.893-1.041-1.049,2.007-2c-.287-.433-.549-.834-.821-1.228a.259.259,0,0,0-.188-.077q-1.6-.007-3.194,0a.253.253,0,0,0-.184.084c-.272.394-.534.8-.814,1.218l2.013,2.007-1.032,1.037-2.9-2.9c.049-.075.116-.179.184-.281.555-.837,1.113-1.672,1.664-2.512a.334.334,0,0,1,.318-.178q2.351.01,4.7,0a.333.333,0,0,1,.319.174c.587.9,1.183,1.786,1.775,2.678C1060.65,895.658,1060.678,895.708,1060.7,895.743Z" transform="translate(-46.451 0)"/>
  </g>
</svg>
