<svg xmlns="http://www.w3.org/2000/svg" width="21.246" height="28.002" viewBox="0 0 21.246 28.002">
  <g id="Groupe_851" data-name="Groupe 851" transform="translate(-1014.837 -586.376)">
    <path id="Tracé_613" data-name="Tracé 613" d="M1030.059,626.288c-.2-.127-.335-.291-.249-.538s.294-.28.529-.275c.413.01.826,0,1.273,0,0-.408,0-.794,0-1.179a.4.4,0,0,1,.308-.446.408.408,0,0,1,.511.435c.008.386,0,.772,0,1.173h2.641a3.294,3.294,0,0,0-1.17-3.352,4.259,4.259,0,0,0-.937-.467c-1.839-.706-3.682-1.4-5.523-2.094-.381-.144-.419-.2-.42-.617,0-.376,0-.752,0-1.162a5.861,5.861,0,0,1-3.126,0c0,.434-.01.829,0,1.224a.5.5,0,0,1-.376.545c-1.9.713-3.8,1.439-5.7,2.153a2.879,2.879,0,0,0-2,2.864c0,.3,0,.593,0,.908h2.666c0-.37-.012-.744.006-1.118a.569.569,0,0,1,.141-.382.391.391,0,0,1,.658.262,8.614,8.614,0,0,1,.017.945c0,.1,0,.193,0,.311h.354c2.84,0,5.679.006,8.519-.008.355,0,.586.23.509.49-.036.124-.168.219-.256.328h-13.2a.64.64,0,0,1-.245-.59,13.966,13.966,0,0,1,.126-2.124,3.462,3.462,0,0,1,2.268-2.59q2.692-1.04,5.4-2.042c.234-.087.325-.19.3-.441-.025-.323.094-.7-.037-.959s-.495-.37-.753-.552a5.473,5.473,0,0,1-2.184-3.09c-.052-.189-.133-.24-.315-.229a1.6,1.6,0,0,1-1.535-.661q-.038-.055-.072-.114a2.715,2.715,0,0,1,.2-2.516.513.513,0,0,0,.089-.292c.009-.5,0-.992,0-1.488,0-.351.145-.5.487-.5q1.109-.006,2.218,0c.31,0,.473.138.48.389s-.169.419-.478.427c-.142,0-.284,0-.441,0-.005.105-.013.184-.013.263,0,1.082-.007,2.164,0,3.246a4.714,4.714,0,0,0,9.369.767,16.307,16.307,0,0,0,.067-1.942c.01-.765,0-1.53,0-2.333h-6.8a2.04,2.04,0,0,1-.243,0,.411.411,0,0,1-.381-.416.4.4,0,0,1,.4-.394c.072-.006.144,0,.216,0h8.44c.512,0,.622.108.622.611,0,.46-.008.92.006,1.38a.61.61,0,0,0,.124.332,1.566,1.566,0,0,1,.358.969,6.465,6.465,0,0,1-.023,1,1.5,1.5,0,0,1-1.536,1.284c-.473.008-.47.009-.622.462a5.51,5.51,0,0,1-2.7,3.2.328.328,0,0,0-.208.353,8.12,8.12,0,0,1,0,.892c-.012.19.063.262.232.325,1.776.666,3.549,1.341,5.323,2.012a3.718,3.718,0,0,1,2.542,3.64c0,.379-.008.758,0,1.136a.658.658,0,0,1-.247.59Zm-10.177-15.547c-.735-.117-1.066.161-1.067.886,0,.117,0,.234,0,.351a.775.775,0,0,0,1.089.827q0-.986,0-1.968A.43.43,0,0,0,1019.881,610.741Zm11.139,2.105c.109,0,.207,0,.3,0a.708.708,0,0,0,.779-.791c0-.153,0-.306,0-.458,0-.695-.356-.981-1.084-.85Zm-11.134-2.959v-.96h-.553v.96Zm11.147-.957v.954h.561v-.954Z" transform="translate(0 -12.059)" stroke="#000" stroke-width="0.3"/>
    <path id="Tracé_614" data-name="Tracé 614" d="M1035.17,586.526a6.848,6.848,0,0,1,1.131.481,2.663,2.663,0,0,1,.815,3.556,1.564,1.564,0,0,1,.714,1.174,1.458,1.458,0,0,1-.4,1.189c-.591.607-1.192,1.205-1.795,1.8a.418.418,0,0,1-.663-.007c-.314-.309-.62-.627-.955-.968-.314.323-.605.628-.9.927-.27.271-.473.273-.737.011q-.672-.667-1.339-1.338c-.227-.229-.246-.454-.063-.638s.414-.164.638.06c.37.368.733.741,1.094,1.107l.691-.717a1.68,1.68,0,0,1-.624-1.4,1.515,1.515,0,0,1,.421-.942,1.548,1.548,0,0,1,2.049-.156c.345-.112.643-.2.932-.308a.511.511,0,0,0,.222-.213,1.86,1.86,0,0,0-2.679-2.454,7.093,7.093,0,0,0-.636.584.428.428,0,0,1-.681.005c-.143-.137-.278-.283-.424-.417a1.863,1.863,0,0,0-2.663,2.6c.265.295.558.564.834.848a.414.414,0,1,1-.576.576,12.732,12.732,0,0,1-.979-1.008,2.679,2.679,0,0,1,1.507-4.288c.068-.016.135-.042.2-.063h.811a1.868,1.868,0,0,0,3.247,0Zm.131,7.37c.517-.518,1.018-1.011,1.508-1.515a.691.691,0,0,0,.118-.846.653.653,0,0,0-.726-.347,1.423,1.423,0,0,0-.515.318c-.3.269-.471.28-.76,0-.045-.044-.088-.091-.135-.132a.709.709,0,0,0-1,.01.7.7,0,0,0,0,1C1034.284,592.885,1034.785,593.378,1035.3,593.9Z" transform="translate(-7.275)" stroke="#000" stroke-width="0.3"/>
    <path id="Tracé_615" data-name="Tracé 615" d="M1030.94,639.783c.162,0,.325.013.486,0a2.581,2.581,0,0,1,1.746.4.344.344,0,0,0,.423,0,2.644,2.644,0,0,1,1.693-.4c.611.032,1.225,0,1.837.008.29,0,.457.138.478.371.024.267-.137.442-.446.455s-.613,0-.919,0a6.915,6.915,0,0,1-.7,0,2.724,2.724,0,0,0-1.821.425.571.571,0,0,1-.68-.007,2.738,2.738,0,0,0-1.77-.422c-.492.036-.99.008-1.485.007a2.089,2.089,0,0,1-.216-.005.412.412,0,1,1,.024-.824C1030.038,639.777,1030.489,639.783,1030.94,639.783Z" transform="translate(-7.919 -29.764)" stroke="#000" stroke-width="0.3"/>
  </g>
</svg>
