<svg xmlns="http://www.w3.org/2000/svg" width="17.863" height="17.905" viewBox="0 0 17.863 17.905">
  <g id="Groupe_855" data-name="Groupe 855" transform="translate(656.6 -129.347)">
    <path id="Tracé_236" data-name="Tracé 236" d="M-643.294,146.485a7.808,7.808,0,0,1-1.932-.428,15.279,15.279,0,0,1-4.691-2.755,19.16,19.16,0,0,1-4.794-5.774,10.657,10.657,0,0,1-1.111-3.111,1.215,1.215,0,0,1,.188-.98,17.819,17.819,0,0,1,2.512-2.955,3.542,3.542,0,0,1,.361-.278.4.4,0,0,1,.521.028,1.706,1.706,0,0,1,.3.313,22.084,22.084,0,0,1,1.992,3.307c.3.63.269.738-.256,1.2-.332.295-.662.591-1,.879a.311.311,0,0,0-.1.381,8.4,8.4,0,0,0,2.674,3.989,7.928,7.928,0,0,0,2.993,1.616.214.214,0,0,0,.254-.067c.292-.334.592-.662.883-1,.506-.581.616-.614,1.305-.28a22.547,22.547,0,0,1,3.212,1.939,1.889,1.889,0,0,1,.345.323.373.373,0,0,1,.027.532,8.222,8.222,0,0,1-.731.836,17.325,17.325,0,0,1-2.413,1.972C-642.941,146.308-643.154,146.407-643.294,146.485Z" transform="translate(0 0)" fill="none" stroke="#000" stroke-width="1.5"/>
    <path id="Tracé_237" data-name="Tracé 237" d="M-468.479,138.016h-1.152a6.381,6.381,0,0,0-1.89-4.528,6.365,6.365,0,0,0-4.531-1.9v-1.145A7.569,7.569,0,0,1-468.479,138.016Z" transform="translate(-171.044 -0.31)"/>
    <path id="Tracé_238" data-name="Tracé 238" d="M-471.418,195.189h-1.156a3.514,3.514,0,0,0-1.038-2.469,3.492,3.492,0,0,0-2.464-1.032v-1.135A4.628,4.628,0,0,1-471.418,195.189Z" transform="translate(-171.022 -57.484)"/>
  </g>
</svg>
