<svg xmlns="http://www.w3.org/2000/svg" width="14.767" height="19.679" viewBox="0 0 14.767 19.679">
  <g id="Groupe_832" data-name="Groupe 832" transform="translate(-796.978 -562.167)">
    <path id="Tracé_303" data-name="Tracé 303" d="M798.827,570.14c0-.078,0-.158,0-.237,0-.844-.021-1.689.02-2.531a5.528,5.528,0,0,1,10.975-.567,7.232,7.232,0,0,1,.072,1.037c.011.694,0,1.388,0,2.082v.2a5.979,5.979,0,0,1,.674.16,1.8,1.8,0,0,1,1.172,1.786c0,.919,0,1.837,0,2.756q0,2.541,0,5.082a1.771,1.771,0,0,1-1.043,1.747,1.978,1.978,0,0,1-.806.179q-5.532.017-11.063.006a1.808,1.808,0,0,1-1.849-1.89c-.008-1.075,0-2.15,0-3.225,0-1.551,0-3.1,0-4.654a1.8,1.8,0,0,1,1.327-1.838C798.464,570.192,798.627,570.176,798.827,570.14Zm5.535,1.252h-5.389c-.567,0-.762.193-.762.758q0,3.858,0,7.715c0,.549.2.751.752.751h10.8c.548,0,.752-.2.753-.751q0-3.868,0-7.735c0-.538-.2-.737-.743-.738Zm4.3-1.238c0-.9.025-1.778,0-2.654a4.3,4.3,0,0,0-8.591.224c-.007.748,0,1.5,0,2.246,0,.058.009.117.015.185Z" transform="translate(0 0)"/>
    <path id="Tracé_304" data-name="Tracé 304" d="M809.427,589.671a.942.942,0,0,1,0-.144,1.076,1.076,0,0,0-.627-1.263,2.475,2.475,0,0,1-.932-3.076,2.582,2.582,0,0,1,2.753-1.6,2.549,2.549,0,0,1,2.263,2.235,2.579,2.579,0,0,1-1.549,2.733.365.365,0,0,0-.164.273c-.015.548,0,1.1-.009,1.646a.869.869,0,1,1-1.735.01C809.424,590.211,809.427,589.941,809.427,589.671Zm.859-2.637a.814.814,0,0,0,.877-.854.867.867,0,1,0-1.734-.018A.814.814,0,0,0,810.286,587.034Z" transform="translate(-5.933 -11.681)"/>
  </g>
</svg>
