<svg xmlns="http://www.w3.org/2000/svg" width="17" height="20.671" viewBox="0 0 17 20.671">
  <g id="Groupe_444" data-name="Groupe 444" transform="translate(235.785 -365.658)">
    <path id="Tracé_465" data-name="Tracé 465" d="M-235.169,386.329a.642.642,0,0,1-.474-.138.628.628,0,0,1-.135-.465c0-.218,0-.436,0-.654,0-.515-.008-1.049.018-1.575a5.181,5.181,0,0,1,3.917-4.811c.419-.092.85-.155,1.268-.217l.468-.071.011-.072c.026-.17.05-.331.059-.493h0s-.03-.04-.068-.072a4.9,4.9,0,0,1-1.461-1.988c-.08-.214-.157-.286-.344-.323a1.715,1.715,0,0,1-1.09-.7,1.655,1.655,0,0,1-.276-1.262,1.738,1.738,0,0,1,.728-1.125c.039-.026.079-.052.115-.074-.017-.222-.035-.443-.053-.663-.046-.569-.094-1.157-.123-1.735a2.852,2.852,0,0,1,.772-2.141,6.59,6.59,0,0,1,3.193-1.971,3.993,3.993,0,0,1,.98-.121,4.785,4.785,0,0,1,1.571.281,2.15,2.15,0,0,1,.911.64,2.87,2.87,0,0,1,1.139-.254,2.434,2.434,0,0,1,1.419.47,2.856,2.856,0,0,1,1.154,2.145,2.764,2.764,0,0,1-.306,1.62,2.611,2.611,0,0,0-.23.925c-.015.121-.03.241-.051.361a.647.647,0,0,0,.253.7,1.706,1.706,0,0,1,.523,1.6,1.644,1.644,0,0,1-1.127,1.224.934.934,0,0,0-.681.615,4.6,4.6,0,0,1-1.371,1.775.135.135,0,0,0-.055.162c.026.143.044.286.062.43l.007.051.365.058c.36.058.719.115,1.075.184a5.055,5.055,0,0,1,3.878,3.31,4.975,4.975,0,0,1,.346,1.886c0,.419,0,.838,0,1.257v.628c0,.441-.165.606-.606.606h-15.778Zm2.473-.945V383.29a1.387,1.387,0,0,1,.013-.238.447.447,0,0,1,.456-.4.451.451,0,0,1,.46.4,1.579,1.579,0,0,1,.012.232v2.035c0,.018,0,.036,0,.054h8.937s0-1.614,0-2.166c0-.4.238-.554.46-.56h0c.292,0,.473.215.474.548,0,.49,0,1.991,0,1.991v.187h2.161q0-.2,0-.4c0-.42.006-.816-.006-1.22a4.436,4.436,0,0,0-1.478-3.245,4.148,4.148,0,0,0-2.335-1.027.525.525,0,0,0-.065-.005c-.035,0-.056,0-.106.063-.447.564-.9,1.122-1.353,1.682l-.383.472a.566.566,0,0,1-.422.267.693.693,0,0,1-.355-.132c-.26-.163-1.063-.67-1.063-.67l-.973.613a.919.919,0,0,1-.453.189c-.2,0-.333-.159-.482-.344q-.847-1.051-1.7-2.1a.209.209,0,0,0-.057-.047,7.047,7.047,0,0,0-.745.127,4.172,4.172,0,0,0-3.093,3.567,12.451,12.451,0,0,0-.052,1.607c0,.2,0,.4,0,.6Zm6.717-4.5,1.228-1.521a.333.333,0,0,0-.076.045c-.3.232-.611.456-.913.672-.135.1-.27.193-.4.291-.1.072-.2.145-.3.221Zm-2.606,0,.462-.293-.281-.207c-.457-.337-.93-.686-1.4-1.014l0,0Zm-.589-2.43c-.006.053-.011.1-.013.156a.093.093,0,0,0,.012.038c.526.386,1.066.78,1.607,1.173l.286.208.39-.291c.387-.29.788-.589,1.2-.857.227-.147.323-.272.316-.44a3.673,3.673,0,0,1-1.9.571A3.73,3.73,0,0,1-229.173,378.452Zm2.073-8.732a6.913,6.913,0,0,0-1.848.246,1.964,1.964,0,0,0-1.592,1.714c-.043.306-.082.612-.121.918-.062.488-.126.993-.207,1.489a2.711,2.711,0,0,0,.463,1.925,5.153,5.153,0,0,0,1.5,1.491,2.677,2.677,0,0,0,1.59.568h.134l.01.025.2-.041a2.911,2.911,0,0,0,.693-.2,4.936,4.936,0,0,0,2.215-2.006,1.968,1.968,0,0,0,.342-1.338,18.717,18.717,0,0,1-.169-1.934l-.018-.334a2.536,2.536,0,0,0-2.257-2.467A7.818,7.818,0,0,0-227.1,369.719Zm4.759,3.625c-.045.148-.1.289-.154.428a2.951,2.951,0,0,0-.21.708.7.7,0,0,0,.507-.59A.771.771,0,0,0-222.341,373.344Zm-9.859-.021a.769.769,0,0,0-.159.643.734.734,0,0,0,.454.5Zm5.241-4.524c.172,0,.345,0,.517.008a3.455,3.455,0,0,1,2.564,1.173,3.4,3.4,0,0,1,.875,1.96c.005-.041.026-.227.026-.227a4.514,4.514,0,0,1,.39-1.637,1.949,1.949,0,0,0,.067-1.591,1.634,1.634,0,0,0-1.538-1.22,1.8,1.8,0,0,0-.51.077.575.575,0,0,0-.253.147.653.653,0,0,1-.446.266.572.572,0,0,1-.442-.32,1.5,1.5,0,0,0-.789-.638,3.772,3.772,0,0,0-1.172-.2,3.124,3.124,0,0,0-.83.112,5.732,5.732,0,0,0-2.649,1.668,1.721,1.721,0,0,0-.505,1.142,12.944,12.944,0,0,0,.049,1.5c.024.265.057.534.092.8.022-.129.046-.257.071-.385a2.908,2.908,0,0,1,2.251-2.385A8.391,8.391,0,0,1-226.958,368.8Z" transform="translate(0 0)" fill="#8a8a8a"/>
    <path id="Tracé_466" data-name="Tracé 466" d="M-229.581,378.913c.033-.238.077-.471.09-.705a.332.332,0,0,0-.126-.212,4.789,4.789,0,0,1-1.409-1.914.572.572,0,0,0-.473-.432,1.53,1.53,0,0,1-.978-.628,1.534,1.534,0,0,1,.407-2.138c.074-.051.153-.1.2-.123-.064-.845-.141-1.669-.183-2.495a2.659,2.659,0,0,1,.723-2.009,6.374,6.374,0,0,1,3.1-1.916,4.2,4.2,0,0,1,2.445.155,2.062,2.062,0,0,1,.917.687,2.334,2.334,0,0,1,2.5.144,2.676,2.676,0,0,1,1.078,2.016,2.584,2.584,0,0,1-.286,1.516,4.229,4.229,0,0,0-.3,1.335.815.815,0,0,0,.307.852,1.479,1.479,0,0,1-.542,2.525,1.1,1.1,0,0,0-.785.716,4.341,4.341,0,0,1-1.317,1.7.3.3,0,0,0-.113.326c.036.2.056.4.083.6.522.087,1.043.162,1.559.262a4.857,4.857,0,0,1,3.739,3.2,4.766,4.766,0,0,1,.332,1.816c0,.627,0,1.254,0,1.881,0,.344-.086.431-.431.431h-15.733c-.348,0-.435-.083-.434-.427,0-.739-.021-1.479.015-2.215a5.021,5.021,0,0,1,3.769-4.639C-230.825,379.087-230.21,379.016-229.581,378.913Zm7.882,6.987h2.5c0-.608.014-1.2,0-1.791a4.583,4.583,0,0,0-1.529-3.36,4.317,4.317,0,0,0-2.422-1.069.3.3,0,0,0-.33.122c-.571.72-1.152,1.433-1.73,2.147-.194.24-.291.257-.548.1-.383-.24-.764-.482-1.151-.726-.357.225-.709.448-1.063.669-.38.237-.428.227-.7-.116q-.845-1.049-1.7-2.094a.28.28,0,0,0-.194-.112,7.152,7.152,0,0,0-.78.132,4.355,4.355,0,0,0-3.218,3.707,22.6,22.6,0,0,0-.052,2.357c0,.011.013.023.024.042h2.456v-.235q0-1.014,0-2.027a1.238,1.238,0,0,1,.011-.208.275.275,0,0,1,.287-.252.273.273,0,0,1,.285.254,1.473,1.473,0,0,1,.01.208q0,1.014,0,2.027c0,.074.006.149.01.228h9.25c0-.789,0-1.562,0-2.335,0-.242.108-.38.29-.385s.294.133.294.374c0,.662,0,1.324,0,1.985Zm-5.235-7.292.014.055a5.706,5.706,0,0,0,1.076-.287,5.087,5.087,0,0,0,2.285-2.072,2.156,2.156,0,0,0,.361-1.448,22.3,22.3,0,0,1-.185-2.245,2.707,2.707,0,0,0-2.4-2.624,7.31,7.31,0,0,0-2.835.194,2.139,2.139,0,0,0-1.713,1.853c-.113.8-.2,1.6-.327,2.4a2.89,2.89,0,0,0,.485,2.04,5.386,5.386,0,0,0,1.54,1.539A2.863,2.863,0,0,0-226.934,378.608Zm4.17-5.2.1,0c.069-.4.158-.8.2-1.2a4.645,4.645,0,0,1,.381-1.676,2.131,2.131,0,0,0,.076-1.723,1.773,1.773,0,0,0-2.255-1.251.742.742,0,0,0-.332.2c-.253.282-.406.282-.611-.033a1.665,1.665,0,0,0-.878-.707,3.586,3.586,0,0,0-2.1-.089,5.927,5.927,0,0,0-2.722,1.712,1.884,1.884,0,0,0-.552,1.255,13.006,13.006,0,0,0,.05,1.522c.055.613.153,1.222.233,1.832.119-.469.181-.938.273-1.4a2.734,2.734,0,0,1,2.12-2.246,9.228,9.228,0,0,1,2.692-.241,3.268,3.268,0,0,1,2.432,1.113,3.242,3.242,0,0,1,.848,2.167C-222.794,372.9-222.776,373.155-222.764,373.409Zm-6.171,5.117c-.021.166-.047.3-.05.441a.233.233,0,0,0,.07.172c.665.492,1.334.977,2,1.464.563-.411,1.1-.84,1.68-1.214.333-.216.479-.447.345-.827,0-.009-.018-.014-.03-.024A3.356,3.356,0,0,1-228.935,378.525Zm3.359,2.944,1.541-1.91a.574.574,0,0,0-.536.07c-.428.331-.872.64-1.309.958-.164.12-.325.242-.5.374Zm-4.175-1.951-.021.066,1.522,1.885.787-.5a.356.356,0,0,0-.048-.061c-.6-.444-1.205-.895-1.821-1.323C-229.436,379.512-229.609,379.538-229.751,379.518Zm7.222-4.426c.524-.134.818-.4.859-.811a1,1,0,0,0-.41-.913C-222.178,373.978-222.567,374.47-222.529,375.092Zm-9.191-1.718a.972.972,0,0,0-.423,1.006.96.96,0,0,0,.863.7Z" transform="translate(-0.369 -0.369)" fill="#8a8a8a"/>
  </g>
</svg>
