<svg xmlns="http://www.w3.org/2000/svg" width="24.293" height="24.293" viewBox="0 0 24.293 24.293">
  <g id="Groupe_732" data-name="Groupe 732" transform="translate(-195.229 -880.988)">
    <path id="Tracé_536" data-name="Tracé 536" d="M195.229,940.7c.037-.152.071-.306.111-.457a3.417,3.417,0,0,1,3.3-2.531q3.771,0,7.542,0a1.869,1.869,0,0,0,1.91-1.542,1.841,1.841,0,0,0-1.761-2.2c-1.984-.032-3.968-.012-5.953-.007a.45.45,0,0,0-.243.114,1.144,1.144,0,1,1-.009-1.766.636.636,0,0,0,.357.125c1.913.008,3.826,0,5.739.006a3.391,3.391,0,0,1,.131,6.78c-2.546.007-5.091,0-7.637,0a1.9,1.9,0,1,0-.125,3.793c.079,0,.158,0,.237,0q7.708,0,15.416,0a.637.637,0,0,0,.362-.11,1.117,1.117,0,0,1,1.264-.135,1.066,1.066,0,0,1,.611,1.109,1.1,1.1,0,0,1-.751.974l-.149.064h-.474a1.983,1.983,0,0,1-.433-.23.64.64,0,0,0-.473-.152q-7.779,0-15.559,0a3.413,3.413,0,0,1-3.3-2.509c-.044-.158-.08-.319-.119-.479Z" transform="translate(0 -39.644)"/>
    <path id="Tracé_537" data-name="Tracé 537" d="M274.757,933.09c-.12.439-.207.891-.368,1.315a10.829,10.829,0,0,1-2.194,3.35c-.348.388-.718.757-1.1,1.113a.714.714,0,0,1-1.01.009,13.351,13.351,0,0,1-3.183-4.146,4.389,4.389,0,0,1-.013-4.057,4.168,4.168,0,0,1,7.822,1.339.654.654,0,0,0,.046.128Zm-4.188,4.157a11.452,11.452,0,0,0,2.242-3.028,3.415,3.415,0,0,0,.393-1.942,2.649,2.649,0,1,0-5.2.975A9.605,9.605,0,0,0,270.57,937.247Z" transform="translate(-55.235 -36.824)"/>
    <path id="Tracé_538" data-name="Tracé 538" d="M199.879,880.988c.327.086.663.145.978.262a4.218,4.218,0,0,1,2.452,5.461,9.99,9.99,0,0,1-1.981,3.232c-.439.507-.914.984-1.393,1.455a.712.712,0,0,1-1.028.027,13.055,13.055,0,0,1-3.133-4.065,12.708,12.708,0,0,1-.5-1.594.463.463,0,0,0-.043-.08v-1a.5.5,0,0,0,.044-.105,4.141,4.141,0,0,1,2.972-3.431c.222-.074.457-.11.686-.164Zm-.489,8.807a11.4,11.4,0,0,0,2.265-3.065,3.365,3.365,0,0,0,.373-1.92,2.648,2.648,0,1,0-5.193.993A9.537,9.537,0,0,0,199.39,889.795Z" transform="translate(0 0)"/>
    <path id="Tracé_539" data-name="Tracé 539" d="M282.276,943.159a1.138,1.138,0,1,1-1.152-1.131A1.13,1.13,0,0,1,282.276,943.159Z" transform="translate(-65.792 -47.374)"/>
    <path id="Tracé_540" data-name="Tracé 540" d="M209.939,896.831a1.138,1.138,0,1,1,1.135-1.145A1.13,1.13,0,0,1,209.939,896.831Z" transform="translate(-10.532 -10.53)"/>
  </g>
</svg>
