<svg xmlns="http://www.w3.org/2000/svg" width="25" height="27.79" viewBox="0 0 25 27.79">
  <g id="Groupe_45" data-name="Groupe 45" transform="translate(406.018 -130.826)">
    <path id="Tracé_145" data-name="Tracé 145" d="M-398.78,215.749h-.3q-2.432,0-4.864,0a2.015,2.015,0,0,1-1.954-1.324,2.016,2.016,0,0,1,.642-2.244,7.544,7.544,0,0,0,2.672-5.666c.031-1.08.006-2.162.008-3.243a8,8,0,0,1,6.95-8.027,8.918,8.918,0,0,1,1.42-.065.877.877,0,0,1,.924.7.856.856,0,0,1-.942,1.012,5.968,5.968,0,0,0-3.283.734,6.152,6.152,0,0,0-3.342,5.464c-.036,1.062,0,2.126-.008,3.189a9.333,9.333,0,0,1-3.237,7.17c-.122.109-.287.231-.166.4a.558.558,0,0,0,.4.182q9.312.013,18.624,0a.555.555,0,0,0,.4-.183c.122-.165-.044-.287-.165-.4a9.325,9.325,0,0,1-3.232-7.252c0-.348,0-.7,0-1.045a.84.84,0,0,1,.84-.888.85.85,0,0,1,.874.861c.016.5-.007,1,.013,1.5a7.532,7.532,0,0,0,2.669,5.558,2.009,2.009,0,0,1,.635,2.244,2,2,0,0,1-1.928,1.321q-2.472.006-4.945,0c-.193,0-.269.049-.322.247a4.288,4.288,0,0,1-4.18,3.187,4.307,4.307,0,0,1-4.132-3.219C-398.732,215.893-398.755,215.827-398.78,215.749Zm1.833.006a2.536,2.536,0,0,0,2.611,1.7c1.011-.086,2.123-.96,2.159-1.7Z" transform="translate(0 -60.563)"/>
    <circle id="Ellipse_7" data-name="Ellipse 7" cx="6" cy="6" r="6" transform="translate(-393.018 130.826)" fill="red"/>
  </g>
</svg>
