<svg xmlns="http://www.w3.org/2000/svg" width="16.407" height="20.735" viewBox="0 0 16.407 20.735">
  <g id="Groupe_735" data-name="Groupe 735" transform="translate(-315.589 -691.139)">
    <path id="Tracé_548" data-name="Tracé 548" d="M324.2,691.139c.123.032.247.061.368.1a2.292,2.292,0,0,1,1.617,2.041c.025.464.014.931.011,1.4a.235.235,0,0,0,.149.247,5.779,5.779,0,0,1,3.2,4.193,7.6,7.6,0,0,1,.11,1.326,19.91,19.91,0,0,0,.409,3.995,6.971,6.971,0,0,0,1.057,2.621,3.809,3.809,0,0,0,.622.626.615.615,0,0,1-.425,1.107q-2.065,0-4.129,0h-.263a3.138,3.138,0,0,1-1.372,2.535,3,3,0,0,1-2.009.539,3.047,3.047,0,0,1-2.029-.975,3.113,3.113,0,0,1-.86-2.1h-.25q-2.074,0-4.149,0a.607.607,0,0,1-.643-.781.571.571,0,0,1,.2-.294,2.989,2.989,0,0,0,.968-1.172,9.081,9.081,0,0,0,.855-2.7,22.783,22.783,0,0,0,.289-3.563,5.8,5.8,0,0,1,3.317-5.355.236.236,0,0,0,.148-.248c0-.445-.013-.891.009-1.335a2.276,2.276,0,0,1,1.894-2.162.506.506,0,0,0,.092-.037Zm5.763,16.415c-.036-.068-.062-.113-.083-.16-.22-.483-.475-.954-.651-1.453a16.226,16.226,0,0,1-.777-4.93,14.025,14.025,0,0,0-.081-1.533,4.64,4.64,0,0,0-9.223.768,23.355,23.355,0,0,1-.3,3.786,10.264,10.264,0,0,1-1.053,3.208c-.054.1-.108.195-.174.314ZM321.9,708.8a1.9,1.9,0,0,0,3.8,0Zm3.07-14.352c0-.351,0-.674,0-1a1.086,1.086,0,0,0-1.026-1.094,1.114,1.114,0,0,0-1.309.894,9.28,9.28,0,0,0-.01,1.2A6.166,6.166,0,0,1,324.971,694.449Z" transform="translate(0 0)"/>
  </g>
</svg>
