<svg xmlns="http://www.w3.org/2000/svg" width="21.462" height="25.798" viewBox="0 0 21.462 25.798">
  <g id="Groupe_1819" data-name="Groupe 1819" transform="translate(-1069.797 -654.592)">
    <path id="Tracé_5396" data-name="Tracé 5396" d="M1107.564,768.3c-.047-.028-.093-.06-.143-.083a1.016,1.016,0,0,1-.6-1.086.988.988,0,0,1,.943-.831q1.912-.023,3.824,0a.968.968,0,0,1,.938.861,1.024,1.024,0,0,1-.627,1.07l-.158.069Zm2.115-1.214c-.595,0-1.19,0-1.785,0-.141,0-.279.029-.253.19.012.072.152.161.244.174a4.1,4.1,0,0,0,.577.008h3.016c.134,0,.256-.043.226-.191a.291.291,0,0,0-.216-.173C1110.887,767.08,1110.283,767.086,1109.68,767.086Z" transform="translate(-29.131 -87.91)"/>
    <path id="Tracé_5397" data-name="Tracé 5397" d="M1118.931,654.592a.723.723,0,0,1,.255.637c-.014.829.005,1.659-.016,2.488a.556.556,0,0,1-.233.4.483.483,0,0,1-.407-.054.429.429,0,0,1-.148-.32c-.011-.9-.018-1.81,0-2.715,0-.146.157-.288.242-.432Z" transform="translate(-38.23)"/>
    <path id="Tracé_5398" data-name="Tracé 5398" d="M1095.862,696.1q-1.423,0-2.846,0c-.474,0-.591-.129-.583-.6a6.08,6.08,0,0,0-.347-2.174,2.851,2.851,0,0,0-.745-1.121,6.352,6.352,0,0,1-1.875-3.212,6.437,6.437,0,0,1,1.821-6.386,6.263,6.263,0,0,1,4.535-1.87,6.643,6.643,0,0,1,6.636,7.446,5.963,5.963,0,0,1-1.749,3.679,4.5,4.5,0,0,0-1.379,3.333c0,.109,0,.218,0,.327,0,.435-.141.577-.57.578C1097.793,696.1,1096.827,696.1,1095.862,696.1Zm2.637-.844c.031-.308.05-.608.094-.9a4.681,4.681,0,0,1,1.021-2.5c.314-.36.673-.686.949-1.072a5.819,5.819,0,0,0-7.123-8.724,5.626,5.626,0,0,0-3.378,5.059,5.4,5.4,0,0,0,1.634,4.261,4.746,4.746,0,0,1,1.393,2.612c.074.418.114.841.17,1.269Z" transform="translate(-15.315 -20.572)"/>
    <path id="Tracé_5399" data-name="Tracé 5399" d="M1106.728,756.963c-.89,0-1.779.007-2.669,0a.92.92,0,0,1-.85-.571.941.941,0,0,1,.108-1.02.988.988,0,0,1,.828-.406c1.746,0,3.491-.01,5.237,0a.994.994,0,0,1,1.025,1.018,1,1,0,0,1-1.036.981c-.881.011-1.762,0-2.643,0Zm.013-.829h1.158c.479,0,.957.007,1.435-.009.08,0,.157-.1.236-.161a2.267,2.267,0,0,0-.23-.208c-.034-.024-.1,0-.148,0h-4.885c-.067,0-.146-.02-.2.009-.069.039-.159.115-.162.177s.085.145.153.181a.511.511,0,0,0,.223.014Z" transform="translate(-26.215 -78.992)"/>
    <path id="Tracé_5400" data-name="Tracé 5400" d="M1090.912,666.026c-.077.087-.157.253-.28.3a.724.724,0,0,1-.432-.071c-.065-.024-.105-.125-.15-.2q-.658-1.026-1.312-2.053a1.442,1.442,0,0,1-.108-.2.37.37,0,0,1,.132-.488.355.355,0,0,1,.522.048c.537.808,1.051,1.631,1.571,2.451A1,1,0,0,1,1090.912,666.026Z" transform="translate(-14.79 -6.796)"/>
    <path id="Tracé_5401" data-name="Tracé 5401" d="M1158.452,683.368c.106.081.283.148.317.259a.819.819,0,0,1-.075.46c-.022.063-.128.1-.2.141q-1.1.6-2.21,1.193a.714.714,0,0,1-.135.066.4.4,0,0,1-.376-.7,4.312,4.312,0,0,1,.436-.248q.939-.507,1.88-1.012C1158.19,683.471,1158.3,683.433,1158.452,683.368Z" transform="translate(-67.523 -22.648)"/>
    <path id="Tracé_5402" data-name="Tracé 5402" d="M1070.164,683.373a2.68,2.68,0,0,1,.3.111q1.149.62,2.294,1.246a.429.429,0,0,1,.257.448c-.036.3-.331.432-.636.271-.555-.293-1.1-.6-1.654-.9-.25-.136-.5-.271-.744-.417a.329.329,0,0,1-.139-.457A1.342,1.342,0,0,1,1070.164,683.373Z" transform="translate(0 -22.652)"/>
    <path id="Tracé_5403" data-name="Tracé 5403" d="M1144.184,664.324a1.558,1.558,0,0,1-.109.227q-.727,1.1-1.463,2.2c-.167.249-.371.3-.572.166a.391.391,0,0,1-.086-.594q.738-1.124,1.491-2.238a.37.37,0,0,1,.453-.179A.4.4,0,0,1,1144.184,664.324Z" transform="translate(-56.715 -7.31)"/>
    <path id="Tracé_5404" data-name="Tracé 5404" d="M1123.947,693.588c0,.033,0,.067,0,.1.008.342-.126.534-.38.542s-.4-.176-.428-.51a5.577,5.577,0,0,0-.121-.894,4.3,4.3,0,0,0-3.872-3.313c-.109-.01-.218-.015-.326-.026a.4.4,0,1,1,.024-.8,4.748,4.748,0,0,1,2.07.448,5.079,5.079,0,0,1,3.02,4.127,1.622,1.622,0,0,1,.009.176c0,.05,0,.1,0,.151Z" transform="translate(-38.256 -26.833)"/>
  </g>
</svg>
