<svg xmlns="http://www.w3.org/2000/svg" width="23.108" height="25.141" viewBox="0 0 23.108 25.141">
  <g id="Groupe_863" data-name="Groupe 863" transform="translate(-1122.89 150.834) rotate(-19)">
    <path id="Tracé_636" data-name="Tracé 636" d="M1110.751,242.136v.279q0,2.738,0,5.476a.945.945,0,0,1-.724,1.008.872.872,0,0,1-1.025-.735,2.775,2.775,0,0,1-.009-.287q0-1.59,0-3.179,0-6.809-.011-13.618c0-.185.008-.369.013-.553a.815.815,0,0,1,.495-.764.855.855,0,0,1,.926.1c.181.134.354.279.539.409a3.919,3.919,0,0,0,3.559.5,27.49,27.49,0,0,0,2.578-.975,24.713,24.713,0,0,1,3.184-1.227,5.737,5.737,0,0,1,5.727,1.26.911.911,0,0,1,.318.706q0,4.922,0,9.845a.883.883,0,0,1-1.473.686,4.478,4.478,0,0,0-1.745-.955,4.347,4.347,0,0,0-2.541.151c-.971.338-1.917.748-2.869,1.136a19.382,19.382,0,0,1-3.225,1.106,5.631,5.631,0,0,1-3.567-.305C1110.863,242.177,1110.826,242.165,1110.751,242.136Zm.008-9.92c0,.061-.008.121-.008.182q0,3.763,0,7.526a.327.327,0,0,0,.162.3,4.022,4.022,0,0,0,3.3.6,13.148,13.148,0,0,0,2.54-.9,25.338,25.338,0,0,1,3.438-1.363,6.372,6.372,0,0,1,3.3-.129c.374.094.734.241,1.112.367,0-.055.009-.115.009-.175q0-3.753,0-7.506a.33.33,0,0,0-.155-.3,3.976,3.976,0,0,0-3.249-.662,13.759,13.759,0,0,0-2.864,1.021,23.648,23.648,0,0,1-3.134,1.24,6.452,6.452,0,0,1-3.456.135C1111.418,232.464,1111.1,232.332,1110.76,232.217Z"/>
  </g>
</svg>
