<svg id="Groupe_1728" data-name="Groupe 1728" xmlns="http://www.w3.org/2000/svg" xmlns:xlink="http://www.w3.org/1999/xlink" width="258.687" height="265.979" viewBox="0 0 258.687 265.979">
  <defs>
    <clipPath id="clip-path">
      <rect id="Rectangle_668" data-name="Rectangle 668" width="195.832" height="178.443" fill="none"/>
    </clipPath>
  </defs>
  <g id="Groupe_1725" data-name="Groupe 1725" transform="translate(0 5.089)">
    <path id="Tracé_5162" data-name="Tracé 5162" d="M185.1,461.251S82,453.665,69.6,403.25s15.08-57.276,24.463-85.515-33.177-44.892-4.691-83.313,70.492-39.092,88.194-21,38.108-11.06,70.967,5.361,40.9,49.6,30.512,75.517,32.21,50.7,37.553,80.082S273.717,474.2,185.1,461.251Z" transform="translate(-66.438 -201.934)" fill="#faece2"/>
    <g id="Groupe_1724" data-name="Groupe 1724" transform="translate(22.615 46.821)">
      <g id="Groupe_1723" data-name="Groupe 1723" clip-path="url(#clip-path)">
        <g id="Groupe_1722" data-name="Groupe 1722" transform="translate(8.173 12.059)">
          <path id="Tracé_5163" data-name="Tracé 5163" d="M96.3,404h45.71l3.792-10.21a14.433,14.433,0,0,1,7.605-8.113,36.339,36.339,0,0,0,12.086-9.065,83.971,83.971,0,0,0,12.864-19.554l-28.328-.139s2.55-15.846-11.531-36.891a11.929,11.929,0,0,1-1.957-7.657l1.335-15.349s9.569-10.692,3.7-23.956c0,0-5.614-7.773-7.841-4.928,0,0-16.955,40.377-18.5,46.381s-3.6,9.777-1.544,28.645a114.327,114.327,0,0,1,.734,12.585,44.655,44.655,0,0,1-4.294,19.01Z" transform="translate(-78.902 -220.574)" fill="#ffc0bb"/>
          <path id="Tracé_5164" data-name="Tracé 5164" d="M138.932,344.9c-4.242-4.71-10.137-3.966-16.335-6.116s-8.186-17.639-8.186-17.639v0q.015.879.013,1.7a44.655,44.655,0,0,1-4.294,19.01L96.3,371.088h45.71l3.792-10.21a14.433,14.433,0,0,1,7.605-8.113,35.574,35.574,0,0,0,10.151-7.039C150.968,351.018,143.174,349.606,138.932,344.9Z" transform="translate(-78.902 -187.664)" fill="#ffc0bb" opacity="0.2" style="mix-blend-mode: multiply;isolation: isolate"/>
          <g id="Groupe_1704" data-name="Groupe 1704" transform="translate(39.817)">
            <path id="Tracé_5165" data-name="Tracé 5165" d="M110.193,238.736C120.7,255.318,146.6,270.094,146.6,270.094s-20.589-1.672-30.806-14.978l3.7-3.069s-2.945.286-5.412.57A27.876,27.876,0,0,1,110.193,238.736Z" transform="translate(-110.193 -238.23)" fill="#e6a748"/>
            <path id="Tracé_5166" data-name="Tracé 5166" d="M137.765,245.786c-1.6.725-3.962,1.83-3.962,1.83l2.278-3.272A26.546,26.546,0,0,0,127.617,240c-1.173,1.707-2.551,3.616-2.551,3.616l-.274-4.357a40.391,40.391,0,0,0-14.6-.334C120.7,255.51,146.6,270.286,146.6,270.286,146.486,258.1,142.776,250.5,137.765,245.786Z" transform="translate(-110.193 -238.422)" fill="#ffcb83"/>
          </g>
          <g id="Groupe_1705" data-name="Groupe 1705" transform="translate(35.959 20.49)">
            <path id="Tracé_5167" data-name="Tracé 5167" d="M107.8,254.533a24.383,24.383,0,0,1,9.274-3.2c.92,1.049,2.046,2.28,2.046,2.28l.061-2.467c11.713-.562,21.589,6.816,21.589,6.816-6.7,4.078-12.47,5.22-17.224,4.881-.3-.862-.725-2.146-.725-2.146l-.8,1.985a21.578,21.578,0,0,1-6.054-1.8c.421-1.031.863-2.207.863-2.207l-2.5,1.368A22.191,22.191,0,0,1,107.8,254.533Z" transform="translate(-107.802 -251.12)" fill="#ff6e53"/>
            <path id="Tracé_5168" data-name="Tracé 5168" d="M123.548,261.665c-.3-.862-.725-2.146-.725-2.146l-.8,1.985a21.579,21.579,0,0,1-6.054-1.8c.421-1.031.863-2.207.863-2.207l-2.5,1.368a22.191,22.191,0,0,1-6.537-5.519c13.627-1.557,32.97,3.434,32.97,3.434C134.069,260.861,128.3,262,123.548,261.665Z" transform="translate(-107.802 -249.937)" fill="#e74a60"/>
          </g>
          <g id="Groupe_1706" data-name="Groupe 1706" transform="translate(145.995 17.512)">
            <path id="Tracé_5169" data-name="Tracé 5169" d="M179.653,253.961l-.988,7.447,5.29-3.863,16.19-8.27-12.524,1.146s-6.379,1.549-6.724,1.862A15.577,15.577,0,0,0,179.653,253.961Z" transform="translate(-174.353 -249.275)" fill="#e74a60"/>
            <path id="Tracé_5170" data-name="Tracé 5170" d="M175.993,249.472l26.036-.19-20.491,4.687Z" transform="translate(-175.993 -249.271)" fill="#ff6e53"/>
            <path id="Tracé_5171" data-name="Tracé 5171" d="M187.211,261.461l-6.822-5.48,18.943-6.7Z" transform="translate(-173.296 -249.271)" fill="#ff6e53"/>
          </g>
          <g id="Groupe_1710" data-name="Groupe 1710" transform="translate(127.27 25.159)">
            <g id="Groupe_1707" data-name="Groupe 1707" transform="translate(21.176)">
              <path id="Tracé_5172" data-name="Tracé 5172" d="M177.677,254.932a7.973,7.973,0,0,1,1.738-.457l-.048-.461a8.16,8.16,0,0,0-1.854.484Z" transform="translate(-177.512 -254.014)" fill="#65cefe"/>
            </g>
            <g id="Groupe_1708" data-name="Groupe 1708" transform="translate(4.933 2.366)">
              <path id="Tracé_5173" data-name="Tracé 5173" d="M167.446,295.507a29.1,29.1,0,0,0,3.014-1.749l.258.387a29.708,29.708,0,0,1-3.061,1.777Zm5.758-3.884a18.863,18.863,0,0,0,2.34-2.558l.371.279a19.275,19.275,0,0,1-2.4,2.622Zm4.137-5.517c.228-.478.437-.976.623-1.481a18.5,18.5,0,0,0,.553-1.777l.45.116c-.16.621-.352,1.234-.566,1.82-.192.518-.407,1.031-.641,1.522Zm1.878-10.168.465-.011a30.55,30.55,0,0,1-.115,3.54l-.463-.044A29.962,29.962,0,0,0,179.219,275.938Zm-.662-6.969.46-.066c.2,1.362.334,2.472.437,3.5l-.463.047C178.888,271.428,178.751,270.322,178.558,268.968Zm-.521-3.5a17.133,17.133,0,0,1-.176-3.529l.465.029a16.629,16.629,0,0,0,.171,3.431l0,.027-.461.063Zm.584-7.023a8.441,8.441,0,0,1,2.019-2.966l.32.339a7.953,7.953,0,0,0-1.907,2.8Z" transform="translate(-167.446 -255.48)" fill="#65cefe"/>
            </g>
            <g id="Groupe_1709" data-name="Groupe 1709" transform="translate(0 43.82)">
              <path id="Tracé_5174" data-name="Tracé 5174" d="M164.541,282.251c.6-.208,1.189-.426,1.754-.649l-.171-.432c-.558.219-1.142.436-1.735.642Z" transform="translate(-164.389 -281.17)" fill="#65cefe"/>
            </g>
          </g>
          <g id="Groupe_1711" data-name="Groupe 1711" transform="translate(124.325 16.974)">
            <path id="Tracé_5175" data-name="Tracé 5175" d="M163.25,252.608s9.682-6.48,11.893-2.211-12.578,19.377-12.578,19.377Z" transform="translate(-162.564 -248.942)" fill="#eaa0a0"/>
            <path id="Tracé_5176" data-name="Tracé 5176" d="M163.25,270.105s9.682-6.479,11.893-2.211-12.578,19.377-12.578,19.377Z" transform="translate(-162.564 -238.204)" fill="#eaa0a0"/>
            <path id="Tracé_5177" data-name="Tracé 5177" d="M163.25,282.026s9.682-6.479,11.893-2.211-12.578,19.377-12.578,19.377Z" transform="translate(-162.564 -230.889)" fill="#eaa0a0"/>
          </g>
          <path id="Tracé_5178" data-name="Tracé 5178" d="M181.783,246.714H128.631a7.167,7.167,0,0,0-7.166,7.168V362.509a7.169,7.169,0,0,0,7.166,7.168h53.152a7.167,7.167,0,0,0,7.168-7.168V253.882A7.169,7.169,0,0,0,181.783,246.714Z" transform="translate(-63.459 -233.334)" fill="#063e70"/>
          <path id="Tracé_5179" data-name="Tracé 5179" d="M127.79,308.887s-9.613,23.535-8.68,27.985,6.766,10.4,21.081,8.417a220.2,220.2,0,0,0,24.206-4.636s.6-31.761,0-33.372-26.335-13.043-27.346-13.043S127.79,308.887,127.79,308.887Z" transform="translate(-64.943 -204.171)" fill="#ffc0bb" opacity="0.2" style="mix-blend-mode: multiply;isolation: isolate"/>
          <rect id="Rectangle_662" data-name="Rectangle 662" width="60.538" height="103.426" transform="translate(61.48 23.148)" fill="#fff"/>
          <path id="Tracé_5180" data-name="Tracé 5180" d="M173.26,290.152H120.685a3.289,3.289,0,0,0-3.289,3.289v21.7a3.289,3.289,0,0,0,3.289,3.289h41.392c1.677,2.338,4.713,6.524,4.981,6.524.252,0-.232-3.953-.573-6.524h6.776a3.287,3.287,0,0,0,3.287-3.289v-21.7A3.287,3.287,0,0,0,173.26,290.152Z" transform="translate(-65.956 -206.679)" fill="#daeef7" opacity="0.3" style="mix-blend-mode: multiply;isolation: isolate"/>
          <path id="Tracé_5181" data-name="Tracé 5181" d="M186.213,259.689H130.244a3.289,3.289,0,0,0-3.289,3.289V286.3a3.29,3.29,0,0,0,3.289,3.289h5.812c-.337,2.566-.779,6.248-.537,6.248.258,0,3.079-3.873,4.784-6.248h45.91A3.289,3.289,0,0,0,189.5,286.3V262.978A3.288,3.288,0,0,0,186.213,259.689Z" transform="translate(-60.09 -225.372)" fill="#daeef7" opacity="0.3" style="mix-blend-mode: multiply;isolation: isolate"/>
          <rect id="Rectangle_663" data-name="Rectangle 663" width="25.905" height="1.296" rx="0.362" transform="translate(78.846 18.602)" fill="#fff"/>
          <path id="Tracé_5182" data-name="Tracé 5182" d="M126.594,306.282a4.516,4.516,0,0,0,1.191,2.027l.981-11.289s7.039-7.865,5.338-18.473a15.844,15.844,0,0,0-5.151-9.4c-1.577-1.386-3.308-2.312-4.329-1.009,0,0-7.973,18.988-13.482,32.857Z" transform="translate(-69.794 -220.574)" fill="#ffc0bb"/>
          <path id="Tracé_5183" data-name="Tracé 5183" d="M171.914,286.664H119.34a3.288,3.288,0,0,0-3.289,3.289v21.7a3.287,3.287,0,0,0,3.289,3.287h41.392c1.675,2.338,4.713,6.524,4.981,6.524.25,0-.232-3.953-.573-6.524h6.774a3.287,3.287,0,0,0,3.289-3.287v-21.7A3.288,3.288,0,0,0,171.914,286.664Z" transform="translate(-66.781 -208.819)" fill="#ff6e53"/>
          <rect id="Rectangle_664" data-name="Rectangle 664" width="60.538" height="6.118" transform="translate(61.48 120.457)" fill="#65cefe"/>
          <rect id="Rectangle_665" data-name="Rectangle 665" width="60.538" height="5.489" transform="translate(61.48 23.148)" fill="#65cefe"/>
          <path id="Tracé_5184" data-name="Tracé 5184" d="M122.525,279.287c2.2-1.013,3.353-6.745,3.765-9.322-1.769-1.778-3.986-3.379-5.2-1.83,0,0-1.756,4.181-4.189,10.053C118.565,279.114,120.877,280.045,122.525,279.287Z" transform="translate(-66.26 -220.573)" fill="#eaa0a0"/>
          <path id="Tracé_5185" data-name="Tracé 5185" d="M158.026,294.981s-8.176.686-8.462,2.859.344,6,8.062,6.747h8s-2.391-6.632-2.278-6.861S158.026,294.981,158.026,294.981Z" transform="translate(-46.248 -203.715)" fill="#efadab"/>
          <path id="Tracé_5186" data-name="Tracé 5186" d="M147.1,336.681a2.219,2.219,0,0,0-.863,3.072c3.763,6.488,18.723,32.278,20.072,34.375,1.543,2.4,5.317,8.062,17.839,10.978s17.668,11.321,17.668,11.321H240.41s-9.091-14.41-16.638-51.8c0,0-5.832-31.047-16.809-30.017,0,0-6.69-7.034-13.208-5.661,0,0-12.351-7.376-19.383-7.376l-16.893-19.964a4.888,4.888,0,0,0-6.674-.791,3.2,3.2,0,0,0-1.305,2.057c-.515,3.26,3.774,11.492,10.636,21.442s23.843,41.509,16.467,55.4a74.6,74.6,0,0,1-14.066-14.75C157.078,337.355,150.658,334.795,147.1,336.681Z" transform="translate(-48.443 -213.004)" fill="#ffc0bb"/>
          <path id="Tracé_5187" data-name="Tracé 5187" d="M163.611,293.314a70,70,0,0,1,6.325,6.187,73.027,73.027,0,0,1,8.05,10.577,33.705,33.705,0,0,1,4.939,12.294l-.05.011a38.987,38.987,0,0,0-5.3-12.049,89.3,89.3,0,0,0-7.946-10.568c-1.8-2.072-4.076-4.52-6.056-6.416Z" transform="translate(-37.618 -204.738)" fill="#eaa0a0"/>
          <path id="Tracé_5188" data-name="Tracé 5188" d="M175.51,297.847a19.029,19.029,0,0,1,4.888,3.707,23.645,23.645,0,0,1,3.7,4.939,24.083,24.083,0,0,1,2.319,5.722,23.332,23.332,0,0,1,.776,6.083l-.052,0a29.941,29.941,0,0,0-1.112-5.974,27.141,27.141,0,0,0-2.378-5.583,26.511,26.511,0,0,0-3.555-4.92,22.9,22.9,0,0,0-4.613-3.936Z" transform="translate(-30.309 -201.957)" fill="#eaa0a0"/>
          <path id="Tracé_5189" data-name="Tracé 5189" d="M183.676,301.3a17.018,17.018,0,0,1,4.037,4.839,21.847,21.847,0,0,1,2.306,5.88,18.327,18.327,0,0,1,.537,4.163l-.05.006a31.3,31.3,0,0,0-.876-4.06,28.434,28.434,0,0,0-2.343-5.759,23.046,23.046,0,0,0-3.634-5.031Z" transform="translate(-25.297 -199.839)" fill="#eaa0a0"/>
          <path id="Tracé_5190" data-name="Tracé 5190" d="M154.892,323.067c.342-1.736-1.681-4.489-3.518-6.568a4.271,4.271,0,0,0-4.549-1.239,2.222,2.222,0,0,0-.587,2.895c1.01,1.743,2.83,4.881,4.978,8.578C152.823,325.914,154.575,324.676,154.892,323.067Z" transform="translate(-48.442 -191.405)" fill="#eaa0a0"/>
          <path id="Tracé_5191" data-name="Tracé 5191" d="M154.462,289.363c.976-.2,5.4-1.669,5.131-2.475h0l-4.367-5.16a4.97,4.97,0,0,0-3.327-1.74h0l-.021,0c-.036,0-.116-.01-.228-.01a2.213,2.213,0,0,0-2.345,1.752c-.313,1.567,2.278,5.372,3.421,6.953A1.723,1.723,0,0,0,154.462,289.363Z" transform="translate(-46.39 -212.923)" fill="#eaa0a0"/>
          <path id="Tracé_5192" data-name="Tracé 5192" d="M156,296.949c7.568,12.159,21.144,40.089,14.428,52.274l4.459,4.4s11.263-12.478-6.661-40A183.512,183.512,0,0,0,156,296.949Z" transform="translate(-42.267 -202.508)" fill="#ffc0bb" opacity="0.2" style="mix-blend-mode: multiply;isolation: isolate"/>
          <path id="Tracé_5193" data-name="Tracé 5193" d="M133.626,294.889a8.332,8.332,0,0,1-11.118,11.118,7.394,7.394,0,0,1-3.778-3.778,8.332,8.332,0,0,1,11.118-11.118A7.382,7.382,0,0,1,133.626,294.889Z" transform="translate(-65.625 -206.578)" fill="#fff"/>
          <path id="Tracé_5194" data-name="Tracé 5194" d="M120.45,297.773s-.818-3.355,1.13-4.61,4.026-1.544,5.448-.82a4.557,4.557,0,0,1,2.148,5.214l-5.228-1.314Z" transform="translate(-64.187 -205.574)" fill="#031322"/>
          <g id="Groupe_1712" data-name="Groupe 1712" transform="translate(54.943 87.534)">
            <rect id="Rectangle_666" data-name="Rectangle 666" width="2.42" height="2.417" transform="translate(4.494 8.601)" fill="#ffc0bb"/>
            <path id="Tracé_5195" data-name="Tracé 5195" d="M124.772,299.448V298h-2.42v1.233A3.548,3.548,0,0,0,124.772,299.448Z" transform="translate(-117.858 -289.397)" fill="#f99893"/>
            <path id="Tracé_5196" data-name="Tracé 5196" d="M130.3,296.944a.9.9,0,0,0-.81.032,4.31,4.31,0,0,0-8.62,0,.9.9,0,0,0-.812-.032,1.252,1.252,0,0,0,1.083,2.19.782.782,0,0,0,.181-.124,3.885,3.885,0,0,0,7.715,0,.793.793,0,0,0,.182.124,1.251,1.251,0,0,0,1.081-2.19Z" transform="translate(-119.567 -292.668)" fill="#ffc0bb"/>
            <path id="Tracé_5197" data-name="Tracé 5197" d="M125.052,297.064a1.512,1.512,0,0,1-2.7.082Z" transform="translate(-117.858 -289.971)" fill="#fff"/>
          </g>
          <path id="Tracé_5198" data-name="Tracé 5198" d="M120.431,297.242s3.168-.96,4.554-2.562a9.52,9.52,0,0,1-.684,2.238c.092.063,3.163-1.431,3.581-2.809s-3.14-1.873-3.14-1.873-1.22.52-1.281.55-1.205.165-1.336.457c-.171.379-.978.413-.978.413l-.51,1.06-.357,1.115Z" transform="translate(-64.187 -205.4)" fill="#031322"/>
          <path id="Tracé_5199" data-name="Tracé 5199" d="M118.765,293.923a3.464,3.464,0,0,0,2.345.153c1.849-.568,2.582-.347,2.827-.208a.607.607,0,0,0,.486.065c.182-.061.352-.226.3-.642a3.361,3.361,0,0,0-1.433-2.758A8.254,8.254,0,0,0,118.765,293.923Z" transform="translate(-65.116 -206.445)" fill="#031322"/>
          <g id="Groupe_1714" data-name="Groupe 1714" transform="translate(57.594 86.428)">
            <g id="Groupe_1713" data-name="Groupe 1713">
              <path id="Tracé_5200" data-name="Tracé 5200" d="M121.243,292.917h0a.158.158,0,0,1,.039-.226,4.333,4.333,0,0,1,2.057-.708.157.157,0,0,1,.165.157h0a.158.158,0,0,1-.15.157,4.081,4.081,0,0,0-1.9.658A.155.155,0,0,1,121.243,292.917Z" transform="translate(-121.21 -291.983)" fill="#ffcb83"/>
            </g>
          </g>
          <g id="Groupe_1716" data-name="Groupe 1716" transform="translate(69.54 28.117)">
            <path id="Tracé_5201" data-name="Tracé 5201" d="M187.871,255.847H131.9a3.29,3.29,0,0,0-3.289,3.289v23.319a3.289,3.289,0,0,0,3.289,3.289h5.812c-.337,2.567-.779,6.25-.537,6.25.258,0,3.079-3.874,4.784-6.25h45.91a3.288,3.288,0,0,0,3.289-3.289V259.136A3.289,3.289,0,0,0,187.871,255.847Z" transform="translate(-128.613 -255.847)" fill="#ffcb83"/>
            <path id="Tracé_5202" data-name="Tracé 5202" d="M145.911,264.626a8.332,8.332,0,0,1-11.118,11.118,7.382,7.382,0,0,1-3.776-3.776,8.332,8.332,0,0,1,11.118-11.118A7.382,7.382,0,0,1,145.911,264.626Z" transform="translate(-127.626 -253.266)" fill="#fff"/>
            <g id="Groupe_1715" data-name="Groupe 1715" transform="translate(5.226 8.461)">
              <rect id="Rectangle_667" data-name="Rectangle 667" width="2.421" height="2.417" transform="translate(4.495 10.724)" fill="#ffc0bb"/>
              <path id="Tracé_5203" data-name="Tracé 5203" d="M137.057,269.185v-1.449h-2.42v1.233A3.549,3.549,0,0,0,137.057,269.185Z" transform="translate(-130.143 -257.012)" fill="#f99893"/>
              <path id="Tracé_5204" data-name="Tracé 5204" d="M142.583,266.681a.9.9,0,0,0-.81.032,4.31,4.31,0,0,0-8.62,0,.9.9,0,0,0-.812-.032,1.253,1.253,0,0,0,1.083,2.191.788.788,0,0,0,.181-.126,3.885,3.885,0,0,0,7.715,0,.8.8,0,0,0,.182.126,1.252,1.252,0,0,0,1.081-2.191Z" transform="translate(-131.852 -260.283)" fill="#ffc0bb"/>
              <path id="Tracé_5205" data-name="Tracé 5205" d="M134.286,262.271a5.825,5.825,0,0,1,3.976-.863c2.761.166,3.287,1.607,3.444,3.665l-.161,2.448a10.622,10.622,0,0,1-1.651-2.78s-1.546,1.735-2.219,1.53.253-1.455.253-1.455-3.148,2.711-5,2.706c0,0-.981-3.171.4-4.334,0,0-1.039.05-1.094-.155s.5-.51,1.493-.394c0,0-.71-1.391-.313-1.536S134.286,262.271,134.286,262.271Z" transform="translate(-131.624 -261.09)" fill="#031322"/>
              <path id="Tracé_5206" data-name="Tracé 5206" d="M137.337,266.8a1.51,1.51,0,0,1-2.7.082Z" transform="translate(-130.143 -257.586)" fill="#fff"/>
            </g>
            <path id="Tracé_5207" data-name="Tracé 5207" d="M174.289,261.445H142.911a.717.717,0,0,1-.716-.716h0a.717.717,0,0,1,.716-.716h31.377a.717.717,0,0,1,.716.716h0A.717.717,0,0,1,174.289,261.445Z" transform="translate(-120.278 -253.291)" fill="#fff"/>
            <path id="Tracé_5208" data-name="Tracé 5208" d="M149.227,263.787h-6.316a.717.717,0,0,1-.716-.716h0a.717.717,0,0,1,.716-.716h6.316a.717.717,0,0,1,.716.716h0A.717.717,0,0,1,149.227,263.787Z" transform="translate(-120.278 -251.854)" fill="#fff"/>
            <path id="Tracé_5209" data-name="Tracé 5209" d="M170.23,263.787h-20.7a.717.717,0,0,1-.716-.716h0a.717.717,0,0,1,.716-.716h20.7a.717.717,0,0,1,.716.716h0A.717.717,0,0,1,170.23,263.787Z" transform="translate(-116.22 -251.854)" fill="#fff"/>
            <path id="Tracé_5210" data-name="Tracé 5210" d="M158.428,266.128H142.911a.716.716,0,0,1-.716-.715h0a.716.716,0,0,1,.716-.716h15.517a.716.716,0,0,1,.716.716h0A.716.716,0,0,1,158.428,266.128Z" transform="translate(-120.278 -250.416)" fill="#fff"/>
            <path id="Tracé_5211" data-name="Tracé 5211" d="M166.9,266.128H154.951a.716.716,0,0,1-.716-.715h0a.716.716,0,0,1,.716-.716H166.9a.716.716,0,0,1,.716.715v0A.716.716,0,0,1,166.9,266.128Z" transform="translate(-112.89 -250.416)" fill="#fff"/>
            <path id="Tracé_5212" data-name="Tracé 5212" d="M174.289,268.472H142.911a.717.717,0,0,1-.716-.716h0a.717.717,0,0,1,.716-.716h31.377a.717.717,0,0,1,.716.716h0A.717.717,0,0,1,174.289,268.472Z" transform="translate(-120.278 -248.979)" fill="#fff"/>
          </g>
          <path id="Tracé_5213" data-name="Tracé 5213" d="M139.475,292.455h-9.611a.714.714,0,0,1-.715-.716h0a.714.714,0,0,1,.715-.715h9.611a.716.716,0,0,1,.716.715h0A.716.716,0,0,1,139.475,292.455Z" transform="translate(-58.744 -206.144)" fill="#fff"/>
          <path id="Tracé_5214" data-name="Tracé 5214" d="M135.891,294.8h-6.027a.716.716,0,0,1-.715-.716h0a.716.716,0,0,1,.715-.717h6.027a.716.716,0,0,1,.716.717h0A.716.716,0,0,1,135.891,294.8Z" transform="translate(-58.744 -204.706)" fill="#fff"/>
          <path id="Tracé_5215" data-name="Tracé 5215" d="M143.032,294.8h-7.747a.717.717,0,0,1-.716-.716h0a.717.717,0,0,1,.716-.717h7.747a.717.717,0,0,1,.716.717h0A.717.717,0,0,1,143.032,294.8Z" transform="translate(-55.418 -204.706)" fill="#fff"/>
          <path id="Tracé_5216" data-name="Tracé 5216" d="M152.713,294.8H141.77a.717.717,0,0,1-.716-.716h0a.717.717,0,0,1,.716-.717h10.942a.717.717,0,0,1,.716.717h0A.717.717,0,0,1,152.713,294.8Z" transform="translate(-51.438 -204.706)" fill="#fff"/>
          <path id="Tracé_5217" data-name="Tracé 5217" d="M155.123,292.455H137.842a.716.716,0,0,1-.716-.716h0a.716.716,0,0,1,.716-.715h17.281a.716.716,0,0,1,.716.715h0A.716.716,0,0,1,155.123,292.455Z" transform="translate(-53.849 -206.144)" fill="#fff"/>
          <path id="Tracé_5218" data-name="Tracé 5218" d="M160.018,299.39H129.864a.716.716,0,0,1-.715-.716h0a.716.716,0,0,1,.715-.716h30.154a.717.717,0,0,1,.716.716h0A.717.717,0,0,1,160.018,299.39Z" transform="translate(-58.744 -201.889)" fill="#fff"/>
          <path id="Tracé_5219" data-name="Tracé 5219" d="M144.75,297.141H129.864a.716.716,0,0,1-.715-.716h0a.716.716,0,0,1,.715-.716H144.75a.717.717,0,0,1,.716.716h0A.717.717,0,0,1,144.75,297.141Z" transform="translate(-58.744 -203.269)" fill="#fff"/>
          <path id="Tracé_5220" data-name="Tracé 5220" d="M152.905,297.141H141.456a.717.717,0,0,1-.716-.716h0a.717.717,0,0,1,.716-.716h11.449a.717.717,0,0,1,.716.716h0A.717.717,0,0,1,152.905,297.141Z" transform="translate(-51.631 -203.269)" fill="#fff"/>
          <g id="Groupe_1720" data-name="Groupe 1720" transform="translate(16.59 86.358)">
            <g id="Groupe_1717" data-name="Groupe 1717" transform="translate(4.026)">
              <path id="Tracé_5221" data-name="Tracé 5221" d="M99.767,293.386a7.872,7.872,0,0,0-1.473-1.028l.2-.418a8.278,8.278,0,0,1,1.572,1.094Z" transform="translate(-98.294 -291.94)" fill="#65cefe"/>
            </g>
            <g id="Groupe_1718" data-name="Groupe 1718" transform="translate(0 3.915)">
              <path id="Tracé_5222" data-name="Tracé 5222" d="M102.036,336.8a29.647,29.647,0,0,1-2.259-2.725l.374-.273a29.422,29.422,0,0,0,2.225,2.682ZM97.9,331.067a19.347,19.347,0,0,1-1.346-3.289l.445-.134a19.031,19.031,0,0,0,1.312,3.208Zm-2.028-6.777c-.05-.542-.074-1.1-.074-1.649,0-.624.032-1.267.1-1.906l.463.047a18.6,18.6,0,0,0-.094,1.859c0,.537.024,1.078.073,1.606Zm1.113-6.924-.449-.119a30.069,30.069,0,0,1,1.115-3.361l.432.171A29.39,29.39,0,0,0,96.987,317.365Zm2.516-6.508-.418-.2c.452-.926.967-1.922,1.618-3.132l.41.221C100.462,308.947,99.951,309.938,99.5,310.857Zm3.3-6.2-.41-.218.013-.024a16.676,16.676,0,0,0,1.346-3.161l.445.132a17.063,17.063,0,0,1-1.385,3.251Zm1.422-6.8a7.983,7.983,0,0,0-.821-3.289l.416-.207a8.438,8.438,0,0,1,.87,3.479Z" transform="translate(-95.799 -294.366)" fill="#65cefe"/>
            </g>
            <g id="Groupe_1719" data-name="Groupe 1719" transform="translate(8.777 48.479)">
              <path id="Tracé_5223" data-name="Tracé 5223" d="M102.66,323.543c-.491-.4-.968-.81-1.422-1.213l.31-.347c.449.4.921.8,1.407,1.2Z" transform="translate(-101.238 -321.983)" fill="#65cefe"/>
            </g>
          </g>
          <g id="Groupe_1721" data-name="Groupe 1721" transform="translate(0 71.009)">
            <path id="Tracé_5224" data-name="Tracé 5224" d="M104.546,291.358l-.615,7.487-4.349-4.9L85.518,282.428l11.994,3.779s5.9,2.867,6.175,3.247A15.521,15.521,0,0,1,104.546,291.358Z" transform="translate(-85.518 -282.428)" fill="#e6a748"/>
            <path id="Tracé_5225" data-name="Tracé 5225" d="M110.92,288.141l-25.4-5.713,19.029,8.93Z" transform="translate(-85.518 -282.428)" fill="#ffcb83"/>
            <path id="Tracé_5226" data-name="Tracé 5226" d="M94.777,296.9l7.83-3.907L85.518,282.428Z" transform="translate(-85.518 -282.428)" fill="#ffcb83"/>
          </g>
        </g>
      </g>
    </g>
  </g>
  <g id="Groupe_1727" data-name="Groupe 1727" transform="translate(0.503 0)">
    <g id="Groupe_1726" data-name="Groupe 1726">
      <path id="Tracé_5227" data-name="Tracé 5227" d="M129.077,431.127c-8,0-14.4-.031-17.051-.116-10.263.294-18.341-2.4-24.026-8.044-8.462-8.405-8.26-20.172-8.249-20.669V295.879a3.229,3.229,0,0,1,1.041-2.375l81.593-75.151c1.417-1.7,10.792-12.285,24.673-12.982,9.6-.473,18.946,3.842,27.773,12.859L315.858,306.9a3.227,3.227,0,1,1-4.258,4.851L210.479,223c-.063-.055-.124-.111-.182-.173-7.486-7.676-15.2-11.383-22.864-11.013-11.839.568-20.093,10.674-20.175,10.776a3.35,3.35,0,0,1-.334.358L86.205,297.293V402.38c0,.168-.1,9.646,6.388,16.051,4.392,4.336,10.9,6.4,19.332,6.125a1.857,1.857,0,0,1,.211,0c9.333.315,72.914-.119,73.555-.124h.023a3.227,3.227,0,0,1,.021,6.455C183.828,430.9,150.667,431.127,129.077,431.127Z" transform="translate(-58.773 -194.757)" fill="#de8a4a"/>
      <path id="Tracé_5228" data-name="Tracé 5228" d="M237.012,301.434a3.227,3.227,0,0,1-3.227-3.227V230.65a25.415,25.415,0,0,0-50.83,0V248a3.227,3.227,0,0,1-6.455,0V230.65a31.87,31.87,0,0,1,63.739,0v67.557A3.228,3.228,0,0,1,237.012,301.434Z" transform="translate(0.599 -198.78)" fill="#de8a4a"/>
      <path id="Tracé_5229" data-name="Tracé 5229" d="M69.979,282.576a3.227,3.227,0,0,1-2.011-5.753l20.977-16.675a3.227,3.227,0,1,1,4.016,5.052L71.985,281.874A3.209,3.209,0,0,1,69.979,282.576Z" transform="translate(-66.75 -161.552)" fill="#de8a4a"/>
    </g>
  </g>
</svg>
