<svg xmlns="http://www.w3.org/2000/svg" width="20.577" height="20.578" viewBox="0 0 20.577 20.578">
  <g id="Groupe_477" data-name="Groupe 477" transform="translate(331.494 -260.67)">
    <path id="Tracé_494" data-name="Tracé 494" d="M-331.491,270.95c0-2.764,0-5.529,0-8.293a1.881,1.881,0,0,1,.944-1.742,1.852,1.852,0,0,1,.979-.243c2.445,0,4.89-.006,7.335,0a1.835,1.835,0,0,1,1.913,1.923c0,.341.006.682,0,1.023,0,.141.042.193.185.188.232-.01.464,0,.7,0h7.792c.087,0,.174,0,.261.005a.463.463,0,0,1,.466.475c.011.319.006.638.006.957q0,3.352,0,6.7c0,.538-.142.678-.687.678q-4.222,0-8.445-.005c-.218,0-.279.051-.278.275.009,2.126-.006,4.252.01,6.377a1.871,1.871,0,0,1-1.317,1.886,2.57,2.57,0,0,1-.664.084q-3.613.008-7.226,0a1.85,1.85,0,0,1-1.927-1.484,2.706,2.706,0,0,1-.038-.563Q-331.493,275.075-331.491,270.95Zm6.859,2.727c.1-.092.152-.139.2-.19.513-.513,1.035-1.017,1.534-1.543a.943.943,0,0,1,.749-.306c3.336.008,6.673,0,10.009.009.191,0,.244-.049.243-.242q-.011-3.2,0-6.4c0-.167-.041-.223-.217-.223q-7.529.007-15.057,0c-.163,0-.209.047-.208.21q.007,3.22,0,6.441c0,.161.042.213.207.21.638-.009,1.276,0,1.915,0,.466,0,.622.16.623.631C-324.632,272.723-324.633,273.17-324.633,273.677Zm-5.877-3.94q0,3.581,0,7.161c0,.176.042.235.227.235q4.375-.008,8.75,0c.2,0,.237-.066.236-.249-.007-1.219,0-2.438-.005-3.657,0-.193.048-.446-.052-.56-.085-.1-.354-.025-.539-.044a.539.539,0,0,0-.475.195c-.763.776-1.539,1.54-2.3,2.313a.553.553,0,0,1-.638.2c-.265-.107-.305-.337-.3-.593.006-.631,0-1.263.006-1.893,0-.176-.053-.221-.222-.219-.66.009-1.32.008-1.981,0a.485.485,0,0,1-.543-.536c0-.036,0-.073,0-.109q0-3.766,0-7.531c0-.058,0-.116,0-.174a.47.47,0,0,1,.458-.461c.087-.007.174-.006.261-.006,2.024,0,4.049,0,6.073,0,.214,0,.272-.063.261-.269-.017-.326,0-.653-.007-.979a.865.865,0,0,0-.907-.905q-3.69-.009-7.379,0a.852.852,0,0,0-.866.6,1.628,1.628,0,0,0-.05.451Q-330.513,266.221-330.51,269.737Zm4.6,8.375c-1.458,0-2.916,0-4.374,0-.178,0-.242.044-.234.229.014.318,0,.638,0,.957a.884.884,0,0,0,.957.967q3.646,0,7.291,0a.884.884,0,0,0,.958-.967c0-.319-.01-.639,0-.958.008-.183-.054-.231-.233-.23C-322.99,278.115-324.449,278.113-325.907,278.113Z" fill="#898989"/>
    <path id="Tracé_495" data-name="Tracé 495" d="M-314.025,279.924c-.216-.127-.4-.23-.574-.338a.494.494,0,0,1-.213-.7.494.494,0,0,1,.7-.149c.183.1.363.2.583.328,0-.242,0-.449,0-.655a.484.484,0,0,1,.492-.54c.3,0,.479.2.487.545,0,.2,0,.4,0,.654.2-.118.374-.218.547-.315a.507.507,0,0,1,.741.135.506.506,0,0,1-.236.714c-.167.1-.337.2-.551.32.2.115.377.2.535.316a.863.863,0,0,1,.286.309.434.434,0,0,1-.121.516.471.471,0,0,1-.565.075c-.2-.1-.4-.224-.637-.357v.375c0,.6-.136.824-.5.821s-.485-.226-.486-.831v-.367c-.206.118-.377.219-.551.316a.5.5,0,0,1-.739-.142.5.5,0,0,1,.242-.711C-314.406,280.141-314.236,280.046-314.025,279.924Z" transform="translate(-11.303 -11.705)" fill="#898989"/>
    <path id="Tracé_496" data-name="Tracé 496" d="M-298.812,279.065c0-.238,0-.432,0-.626.005-.36.182-.567.485-.569s.489.2.5.559c0,.2,0,.391,0,.635.23-.129.429-.25.637-.355a.47.47,0,0,1,.549.059.433.433,0,0,1,.144.509.765.765,0,0,1-.256.305,6.608,6.608,0,0,1-.572.342c.206.118.38.215.55.317a.508.508,0,0,1,.237.715.508.508,0,0,1-.741.136c-.169-.1-.337-.194-.554-.32,0,.283.01.525,0,.767a.456.456,0,0,1-.391.431.472.472,0,0,1-.533-.28.837.837,0,0,1-.044-.275c-.006-.2,0-.391,0-.631-.225.127-.419.243-.621.347a.478.478,0,0,1-.568-.056.432.432,0,0,1-.14-.51.772.772,0,0,1,.259-.3c.167-.122.356-.214.568-.337-.209-.124-.388-.227-.565-.334a.5.5,0,0,1-.223-.7.5.5,0,0,1,.719-.149C-299.206,278.84-299.031,278.941-298.812,279.065Z" transform="translate(-21.316 -11.705)" fill="#898989"/>
    <path id="Tracé_497" data-name="Tracé 497" d="M-283.1,279.064c.215-.121.395-.223.576-.324a.5.5,0,0,1,.706.138.5.5,0,0,1-.2.706c-.177.11-.359.211-.573.337.212.125.4.234.579.341a.491.491,0,0,1,.27.463.488.488,0,0,1-.728.409c-.2-.1-.39-.22-.634-.36,0,.279.01.52,0,.761a.457.457,0,0,1-.388.434.473.473,0,0,1-.535-.276.82.82,0,0,1-.046-.275c-.007-.2,0-.391,0-.635a4.6,4.6,0,0,1-.583.318.9.9,0,0,1-.473.048.4.4,0,0,1-.3-.39.459.459,0,0,1,.221-.464c.195-.122.4-.234.628-.371-.206-.121-.384-.225-.561-.331a.5.5,0,0,1-.228-.7.5.5,0,0,1,.718-.154c.178.1.353.2.576.325,0-.259-.007-.485,0-.711a.47.47,0,0,1,.412-.481.475.475,0,0,1,.559.463c.008.116,0,.232.005.348S-283.1,278.913-283.1,279.064Z" transform="translate(-31.342 -11.706)" fill="#898989"/>
    <path id="Tracé_498" data-name="Tracé 498" d="M-317.15,266.562c-.312,0-.624.005-.936,0a.5.5,0,0,1-.532-.484.49.49,0,0,1,.523-.493q.947-.011,1.894,0a.493.493,0,0,1,.532.484.5.5,0,0,1-.544.494C-316.526,266.567-316.838,266.562-317.15,266.562Z" transform="translate(-8.763 -3.34)" fill="#898989"/>
    <path id="Tracé_499" data-name="Tracé 499" d="M-317.125,317.106c.3,0,.61-.005.914,0a.5.5,0,0,1,.541.5.494.494,0,0,1-.535.481q-.936.01-1.872,0a.5.5,0,0,1-.541-.5.5.5,0,0,1,.535-.481C-317.764,317.1-317.444,317.106-317.125,317.106Z" transform="translate(-8.763 -38.409)" fill="#898989"/>
  </g>
</svg>
