<svg xmlns="http://www.w3.org/2000/svg" xmlns:xlink="http://www.w3.org/1999/xlink" width="293.562" height="286.59" viewBox="0 0 293.562 286.59">
  <defs>
    <clipPath id="clip-path">
      <path id="Tracé_1103" data-name="Tracé 1103" d="M169.913,348.718l-96.775-.612L44.967,195.933,262.5,270.371Z" transform="translate(-44.967 -195.933)" fill="none"/>
    </clipPath>
  </defs>
  <g id="Groupe_1105" data-name="Groupe 1105" transform="translate(0 0)">
    <g id="Groupe_1030" data-name="Groupe 1030" transform="translate(-44.48 -177.312)" opacity="0.71">
      <g id="Groupe_1029" data-name="Groupe 1029" transform="translate(48.48 202.312)">
        <path id="Tracé_1057" data-name="Tracé 1057" d="M63.072,308.031c1.395,11.526,4.113,23.339,12,32.927q1.043,1.272,2.191,2.468a49.609,49.609,0,0,0,3.911,3.661c5.116,4.309-24.662,7.825-18.1,10.708,3.4,1.5,6.93,2.824,10.5,4.006q1.719.567,3.447,1.092,2.156.653,4.341,1.247,1.523.417,3.06.8,6.592,1.658,13.367,2.776l.737.119q6.732,1.079,13.568,1.6,2.078.158,4.161.261,4.789.239,9.588.194c4.483-.044,8.96-.28,13.4-.714a142.337,142.337,0,0,0,17.138-2.719q1.96-.437,3.9-.931,1.4-.357,2.8-.744,2.465-.685,4.894-1.464,4.332-1.39,8.511-3.1a114.233,114.233,0,0,0,18.7-9.688q1.64-1.056,3.232-2.164c.791-.551,1.572-1.107,2.342-1.677,2.279-1.679,21.555-3.436,23.645-5.265q.684-.6,1.355-1.209.278-.25.55-.5c9.384-8.669-22.916-15.093-18.869-26.231,8.885-24.454,6.337-46.021-15.91-63.792-13.91-11.113-14.848-28.3-32.967-33.986-.213-.067-.424-.134-.637-.2q-2.658-.835-5.324-1.648c-.54-.167-1.08-.33-1.623-.493q-4.422-1.341-8.877-2.615-1.172-.334-2.346-.662-3.527-.99-7.081-1.917-3.5-.915-7.023-1.765a148.966,148.966,0,0,0-16.542-2.876c-1.114-.132-2.254-.259-3.412-.376-3.621-.363-7.431-.633-11.33-.762-2.589-.084-5.217-.109-7.855-.056a119.433,119.433,0,0,0-12.2.839,81.848,81.848,0,0,0-13.4,2.721c-.707.211-1.406.436-2.1.668-1.583.535-3.122,1.13-4.6,1.788q-1.982.878-3.823,1.911c-.51.288-1.009.581-1.5.886-3,1.861,11.048,12.786,8.853,15.4-1.434,1.708,1.208.988,0,2.878-1.079,1.69.908,4.9,0,6.716-.213.426,11.837-6.785,11.633-6.355q-.266.57-.525,1.142C58.681,253.622,60.231,284.514,63.072,308.031Z" transform="translate(-48.48 -202.312)" fill="#f8e8e9"/>
      </g>
    </g>
    <g id="Groupe_1106" data-name="Groupe 1106" transform="translate(0 0)">
      <g id="Groupe_1032" data-name="Groupe 1032" transform="translate(97.097 29.151)" opacity="0.71">
        <g id="Groupe_1031" data-name="Groupe 1031">
          <path id="Tracé_1058" data-name="Tracé 1058" d="M170.049,205.624c-5.636-3.081-11.757-5.736-18.245-5.685q-.86.007-1.714.076a25.452,25.452,0,0,0-2.715.368c-3.337.633,3.948-1.746.876-.1a51.18,51.18,0,0,0-4.637,2.821q-.718.489-1.419,1c-.582.422-1.626-4.293-2.2-3.852q-.6.461-1.185.936c-1.679,1.36-3.762-2.344-5.307-.825l-.25.248q-2.293,2.278-4.357,4.768-.627.758-1.232,1.534-1.389,1.786-2.651,3.663A61.646,61.646,0,0,0,121.763,216a57.909,57.909,0,0,0-3.338,7.511q-.325.9-.619,1.81c-.143.437-.278.878-.408,1.32q-.347,1.17-.639,2.36-.522,2.12-.86,4.279a51.633,51.633,0,0,0-.575,10.31q.044.97.125,1.936.059.718.14,1.435c.157,1.414-4.191,9.453-3.915,10.84.061.3.124.606.191.907q.039.186.083.371c1.45,6.369,13.017-4.159,17.022.913,8.793,11.136,19.325,16.923,33.387,13.864,8.792-1.911,16.891,3.124,24.333-2.125l.261-.185q1.092-.771,2.176-1.551l.658-.475q1.8-1.3,3.567-2.628.465-.349.93-.7,1.393-1.061,2.768-2.149,1.352-1.07,2.683-2.174a60.572,60.572,0,0,0,5.733-5.522c.36-.39.722-.793,1.085-1.205,1.133-1.293,2.275-2.688,3.376-4.162.731-.98,1.443-1.993,2.124-3.034a48.327,48.327,0,0,0,2.88-5.005c.978-1.981-5.3,8.15-4.75,6.106q.14-.511.255-1.025a22.877,22.877,0,0,0,.413-2.348,19.788,19.788,0,0,0,.148-2.086c.006-.288,2.9-6.155,2.888-6.441-.048-1.748-4.595-6.313-5.2-7.985-.4-1.093-.773.159-1.315-.9-.483-.951-2.479-1.187-3.066-2.111-.137-.215-.064,6.73-.207,6.516-.125-.189-.253-.376-.381-.563C196.072,221.014,181.55,211.91,170.049,205.624Z" transform="translate(-111.661 -199.691)" fill="#f8e8e9"/>
        </g>
      </g>
      <g id="Groupe_1037" data-name="Groupe 1037" transform="translate(143.152 120.079)">
        <g id="Groupe_1036" data-name="Groupe 1036" transform="translate(0)">
          <path id="Tracé_1059" data-name="Tracé 1059" d="M279.032,342.363c-1.085,8.745-3.2,17.709-9.345,24.984q-.814.965-1.708,1.872A38.782,38.782,0,0,1,264.935,372c-3.986,3.27,19.206,5.937,14.091,8.125-2.65,1.137-5.4,2.143-8.179,3.04q-1.336.43-2.685.828-1.679.494-3.379.946-1.188.314-2.385.609-5.132,1.26-10.411,2.108l-.574.09c-3.494.546-7.023.952-10.567,1.214-1.077.08-2.159.146-3.239.2q-3.732.181-7.467.147c-3.493-.033-6.979-.213-10.438-.542a113.77,113.77,0,0,1-13.347-2.063q-1.526-.332-3.04-.706-1.094-.271-2.179-.565-1.92-.52-3.811-1.111-3.374-1.057-6.628-2.35a90.007,90.007,0,0,1-14.566-7.351q-1.28-.8-2.519-1.642c-.616-.418-1.223-.84-1.823-1.272-1.775-1.274-16.789-2.607-18.416-3.995-.355-.3-.708-.609-1.056-.917-.143-.127-.287-.255-.428-.384-7.308-6.576,17.847-11.45,14.7-19.9-6.92-18.555-4.934-34.92,12.391-48.4,10.833-8.431,11.564-21.469,25.675-25.788.166-.049.33-.1.5-.151q2.07-.631,4.148-1.249c.421-.127.841-.25,1.262-.376q3.446-1.015,6.915-1.983.911-.253,1.826-.5,2.749-.749,5.515-1.454,2.725-.692,5.47-1.338a118.834,118.834,0,0,1,12.883-2.182q1.3-.151,2.657-.285c2.82-.275,5.787-.48,8.824-.578,2.016-.064,4.063-.083,6.117-.042,3.18.061,6.377.261,9.505.636a65.229,65.229,0,0,1,10.438,2.064c.552.16,1.1.33,1.633.507q1.85.609,3.584,1.357,1.542.666,2.977,1.45c.4.218.786.441,1.168.673,2.334,1.412-8.606,9.7-6.9,11.683,1.117,1.3-.939.75,0,2.184.84,1.283-.708,3.717,0,5.1.166.323-9.218-5.149-9.06-4.822.14.287.275.577.409.866C282.452,301.079,281.245,324.517,279.032,342.363Z" transform="translate(-139.988 -262.147)" fill="#f2e6d5" opacity="0.51"/>
          <g id="Groupe_1035" data-name="Groupe 1035" transform="translate(0 9.91)">
            <g id="Groupe_1034" data-name="Groupe 1034">
              <path id="Tracé_1060" data-name="Tracé 1060" d="M226.491,296.16v.009h-8.5a.171.171,0,1,0,0,.342h12.037v5.877a.178.178,0,0,0,.357,0v-5.877h6.65a.171.171,0,1,0,0-.342H226.848v-5.886h6.65a.171.171,0,1,0,0-.342H220.513v-6.336h6.652a.171.171,0,1,0,0-.342H208.121a.171.171,0,1,0,0,.342h12.037v6.336h-5.7a.171.171,0,1,0,0,.342h12.037Z" transform="translate(-113.827 -262.431)" fill="#b1b1de"/>
              <path id="Tracé_1061" data-name="Tracé 1061" d="M203.047,345.542H192.859v-5.886h6.652a.17.17,0,1,0,0-.341H186.526v-6.337h6.65a.171.171,0,1,0,0-.342H174.133a.171.171,0,1,0,0,.342h12.038v6.337h-5.7a.17.17,0,1,0,0,.341H192.5v5.886H184a.171.171,0,1,0,0,.342H196.04v5.877a.178.178,0,0,0,.355,0v-5.877h6.652a.171.171,0,1,0,0-.342Z" transform="translate(-129.32 -239.925)" fill="#b1b1de"/>
              <g id="Groupe_1033" data-name="Groupe 1033" transform="translate(37.482 29.351)">
                <path id="Tracé_1062" data-name="Tracé 1062" d="M182.248,297.7c-.029,0,.023.01,0,0Z" transform="translate(-163.026 -285.202)" fill="#b1b1de"/>
                <path id="Tracé_1063" data-name="Tracé 1063" d="M198.134,314.176H187.946V308.29H194.6a.171.171,0,1,0,0-.342H181.613v-6.336h6.65c.175,0,.255-.06.255-.154V295.58h6.652a.171.171,0,1,0,0-.342H184.062v-5.781h6.65a.171.171,0,1,0,0-.342H171.668a.171.171,0,1,0,0,.342h12.037v5.781h-7.579a.171.171,0,1,0,0,.342h12.037v5.689H169.22a.171.171,0,1,0,0,.342h12.038v6.336h-5.7a.171.171,0,1,0,0,.342h12.037v5.886h-8.5a.171.171,0,1,0,0,.342h12.037V320.4a.178.178,0,0,0,.355,0v-5.877h6.652a.171.171,0,1,0,0-.342Z" transform="translate(-169.042 -289.115)" fill="#b1b1de"/>
              </g>
              <path id="Tracé_1064" data-name="Tracé 1064" d="M236.2,331.643H217.158a.171.171,0,1,0,0,.342h12.037v5.879a.179.179,0,0,0,.357,0v-5.879h6.65a.171.171,0,1,0,0-.342Z" transform="translate(-109.707 -240.377)" fill="#b1b1de"/>
              <path id="Tracé_1065" data-name="Tracé 1065" d="M221.7,314.333a.178.178,0,0,0,.355,0v-5.877h6.652a.171.171,0,1,0,0-.342H209.667a.171.171,0,1,0,0,.342H221.7Z" transform="translate(-113.122 -251.103)" fill="#b1b1de"/>
              <path id="Tracé_1066" data-name="Tracé 1066" d="M202.773,275.077H191.665V269.3h6.652a.171.171,0,1,0,0-.342H179.273a.171.171,0,1,0,0,.342H191.31v5.781h-7.581a.171.171,0,1,0,0,.342h12.037V281.3a.179.179,0,0,0,.357,0v-5.877h6.65a.171.171,0,1,0,0-.342Z" transform="translate(-126.978 -268.954)" fill="#b1b1de"/>
              <path id="Tracé_1067" data-name="Tracé 1067" d="M166.974,307.7H155.866v-5.783h6.652a.171.171,0,1,0,0-.342H143.474a.171.171,0,1,0,0,.342h12.037V307.7h-7.579a.171.171,0,1,0,0,.342h12.037v5.877a.178.178,0,0,0,.355,0v-5.877h6.65a.171.171,0,1,0,0-.342Z" transform="translate(-143.296 -254.085)" fill="#b1b1de"/>
            </g>
          </g>
        </g>
      </g>
      <g id="Groupe_1104" data-name="Groupe 1104">
        <g id="Groupe_1051" data-name="Groupe 1051" transform="translate(0 23.68)">
          <g id="Groupe_1050" data-name="Groupe 1050" clip-path="url(#clip-path)">
            <g id="Groupe_1049" data-name="Groupe 1049" transform="translate(28.971 40.393)">
              <g id="Groupe_1038" data-name="Groupe 1038" transform="translate(26.899 25.206)">
                <path id="Tracé_1068" data-name="Tracé 1068" d="M99.04,290.746H95.671l-.91-8.9h5.19Z" transform="translate(-78.139 -222.37)" fill="#cba29a"/>
                <path id="Tracé_1069" data-name="Tracé 1069" d="M189.227,290.746h-3.37l-.91-8.9h5.19Z" transform="translate(-37.028 -222.37)" fill="#5858c6"/>
                <path id="Rectangle_348" data-name="Rectangle 348" d="M21.055,0H51.3A21.055,21.055,0,0,1,72.351,21.055v9.6a0,0,0,0,1,0,0H0a0,0,0,0,1,0,0v-9.6A21.055,21.055,0,0,1,21.055,0Z" transform="translate(83.916 0.025)" fill="#cba29a"/>
                <path id="Rectangle_349" data-name="Rectangle 349" d="M25.5,0h83.824a25.5,25.5,0,0,1,25.5,25.5V37.124a0,0,0,0,1,0,0H0a0,0,0,0,1,0,0V25.5A25.5,25.5,0,0,1,25.5,0Z" transform="translate(14.453)" fill="#c7b6d9"/>
                <rect id="Rectangle_350" data-name="Rectangle 350" width="146.199" height="25.653" transform="translate(10.042 35.166)" fill="#cba29a"/>
                <rect id="Rectangle_351" data-name="Rectangle 351" width="19.4" height="39.148" rx="6.663" transform="translate(0 11.621)" fill="#cba29a"/>
                <rect id="Rectangle_352" data-name="Rectangle 352" width="156.268" height="16.056" rx="5.514" transform="translate(5.09 34.596)" fill="#c6cde8"/>
              </g>
              <g id="Groupe_1040" data-name="Groupe 1040" transform="translate(0 44.845)">
                <path id="Tracé_1070" data-name="Tracé 1070" d="M85.124,289.672h-2.23l-.6-5.675h3.435Z" transform="translate(-56.924 -241.026)" fill="#82762c"/>
                <path id="Tracé_1071" data-name="Tracé 1071" d="M76.759,289.673h-2.23l-.6-5.679h3.435Z" transform="translate(-60.737 -241.027)" fill="#82762c"/>
                <path id="Tracé_1072" data-name="Tracé 1072" d="M91.926,289.669H89.7l-.6-5.675h3.435Z" transform="translate(-53.823 -241.027)" fill="#82762c"/>
                <rect id="Rectangle_353" data-name="Rectangle 353" width="38.274" height="38.812" transform="translate(1.969 4.291)" fill="#cbb28f"/>
                <rect id="Rectangle_354" data-name="Rectangle 354" width="11.099" height="38.812" transform="translate(29.145 4.291)" fill="#dfc178"/>
                <rect id="Rectangle_355" data-name="Rectangle 355" width="26.131" height="0.669" transform="translate(3.05 17.004)" fill="#dfc178"/>
                <rect id="Rectangle_356" data-name="Rectangle 356" width="26.131" height="0.669" transform="translate(3.05 27.744)" fill="#dfc178"/>
                <g id="Groupe_1039" data-name="Groupe 1039">
                  <path id="Tracé_1073" data-name="Tracé 1073" d="M65.072,258.508H76.3a1.878,1.878,0,0,0,1.8-1.944h0a1.879,1.879,0,0,0-1.8-1.945H65.072a3.165,3.165,0,0,1,.08,3.778Z" transform="translate(-64.774 -254.418)" fill="#e9faff"/>
                  <path id="Tracé_1074" data-name="Tracé 1074" d="M78.048,256.627h0a1.887,1.887,0,0,0-1.824-1.945H64.96a.1.1,0,0,1-.093-.1h0a.1.1,0,0,1,.093-.1H82.829a2.083,2.083,0,0,1,2.013,2.146h0a2.081,2.081,0,0,1-2.013,2.144H64.96a.1.1,0,0,1-.093-.1h0a.1.1,0,0,1,.093-.1H76.224A1.887,1.887,0,0,0,78.048,256.627Z" transform="translate(-64.867 -254.481)" fill="#d01e4e"/>
                </g>
              </g>
              <g id="Groupe_1043" data-name="Groupe 1043" transform="translate(37.418 11.616)">
                <path id="Tracé_1075" data-name="Tracé 1075" d="M133.043,236.6c-.792-.683-.732,1.229-1.1,1.4-.636.3-.368,1.472-.7,1.807s-2.043,2.351-2.051,2.353c-.758.224-5.042,15.413-5.666,15.681s-7.359-.759-7.359-.759l-1.606,5.844s12.4,2.276,13.382.847c.642-.933,2.207-9.638,3.215-15.969a8.786,8.786,0,0,1,1.157-3.38,5.781,5.781,0,0,0,1.756-2.977C134.182,240.787,134.014,237.435,133.043,236.6Z" transform="translate(-79.635 -229.471)" fill="#f48c7f"/>
                <path id="Tracé_1076" data-name="Tracé 1076" d="M147.523,257.628l1.021,6.155s-1.021,4.417-.51,4.685,16.825.134,16.825.134,3.059-1.473.892-2.008-10.75-2.589-11.345-3.659-1.274-6.78-1.274-6.78Z" transform="translate(-64.606 -220.489)" fill="#f7a491"/>
                <path id="Tracé_1077" data-name="Tracé 1077" d="M149.27,280.931l1.07,6.155s-1.083,4.387-.547,4.654,17.99.029,17.99.029,2.9-1.338.625-1.874-11.286-2.587-11.91-3.657-1.338-6.781-1.338-6.781Z" transform="translate(-63.81 -209.866)" fill="#f7a491"/>
                <path id="Tracé_1078" data-name="Tracé 1078" d="M114.473,256.863l-7.026-11.843s-16.6-.575-16.862,1.1c-.294,1.925,3.415,6.27,5.721,12.846,2.027,5.778,2.942,11.846,3.413,13.349,1,3.212,15.356-8.23,15.356-8.23Z" transform="translate(-90.569 -225.608)" fill="#ff862d"/>
                <path id="Tracé_1079" data-name="Tracé 1079" d="M123.57,262.489a11.066,11.066,0,0,0,4.628-1.695c7.739-5.483,23.586-20.714,27.97-18.692a7.765,7.765,0,0,1,1.874,1.138c5.069,4.989,9.233,23.218,9.233,23.218l-7.9,3.747-5.085-16.46-15.013,15.962Z" transform="translate(-75.525 -226.979)" fill="#271651"/>
                <path id="Tracé_1080" data-name="Tracé 1080" d="M118.612,255.117l11.773-.287s29.841,4.534,33.45,6.445,6.1,32.265,6.1,32.265l-7.093,1.071-7.713-25.269-23.992.638Z" transform="translate(-77.785 -221.093)" fill="#271651"/>
                <path id="Tracé_1081" data-name="Tracé 1081" d="M104.63,246.7a45.013,45.013,0,0,1,9.06.943c3.68.943,8.588,1.887,8.588,1.887l-1.417,7.455s-7.643-1.322-8.02-1.322S104.63,246.7,104.63,246.7Z" transform="translate(-84.159 -224.798)" fill="#a4e5ff"/>
                <path id="Tracé_1082" data-name="Tracé 1082" d="M100.615,247.674s-2.337,1.912-1.486,8.281,4.538,13.174,11.97,16.145,29.006,1.689,29.006,1.689l-.747-15.394s-10.913.112-13.25-.1c-1.847-.167-6.634-9.935-16.55-11.666C106.946,246.173,103.979,246.788,100.615,247.674Z" transform="translate(-86.752 -224.902)" fill="#e9faff"/>
                <path id="Tracé_1083" data-name="Tracé 1083" d="M103.065,248.914a16.4,16.4,0,0,0-2.833-1.9,8.613,8.613,0,0,1-4.005-5.5,5.354,5.354,0,0,1,2.085-5.681c1.061-.78,5.518-2.459,7.287-2.3s3.162,6.119,3.162,6.119l-.709,5.272Z" transform="translate(-88.067 -230.803)" fill="#271651"/>
                <path id="Tracé_1084" data-name="Tracé 1084" d="M106.713,244.189l2.388,4.67a5.62,5.62,0,0,1-.264,2.612c-.812,1.37-6.463-1.978-6.463-1.978l-2.5-8.016Z" transform="translate(-86.325 -227.18)" fill="#f7a491"/>
                <path id="Tracé_1085" data-name="Tracé 1085" d="M100.613,243.837a8.04,8.04,0,0,0,7.324,2.746l-1.224-2.393-6.835-2.712Z" transform="translate(-86.325 -227.18)" fill="#f47458"/>
                <path id="Tracé_1086" data-name="Tracé 1086" d="M100.051,235.891a4.193,4.193,0,0,1,6.368.852,31.932,31.932,0,0,1,1.93,3.549c1.534,3.328,1.232,7.355-.291,8.025s-6.688.346-8.933-4.349C97.741,241.068,98.035,237.753,100.051,235.891Z" transform="translate(-87.057 -230.227)" fill="#f7a491"/>
                <path id="Tracé_1087" data-name="Tracé 1087" d="M100.476,241.31a1.221,1.221,0,1,1-1.684-.859A1.352,1.352,0,0,1,100.476,241.31Z" transform="translate(-87.119 -227.686)" fill="#f7a491"/>
                <path id="Tracé_1088" data-name="Tracé 1088" d="M99.077,244.422a13.013,13.013,0,0,1-1.4-3.116c-.445-1.622.013-4.312,1.479-5.247s5.4-1.743,5.5-2.935.132-1.092.237-1.312c.236-.5,3.03.144,3.94,2.833s-1.465,3.487-1.891,3.736-5.228.086-6.463.643S99.077,244.422,99.077,244.422Z" transform="translate(-87.404 -231.657)" fill="#271651"/>
                <path id="Tracé_1089" data-name="Tracé 1089" d="M101.454,261.954l8.139,7.785,3.822-6.44-6.724-6.582Z" transform="translate(-85.606 -220.233)" fill="#f48c7f"/>
                <path id="Tracé_1090" data-name="Tracé 1090" d="M116.171,249.618s-6.1,14.9-8.362,19.644-1.456,7.3-.448,7.994c.776.533,4.883.991,7.643-4.317s3.5-21.2,4.282-21.2,2.31-2.414,2.407-2.619c.587-1.246-.952-4.207-.952-4.207s3.379-4.031,2.9-4.675c-.229-.307-5.491,4.234-6.094,5.579S116.171,249.618,116.171,249.618Z" transform="translate(-83.373 -227.75)" fill="#f7a491"/>
                <path id="Tracé_1091" data-name="Tracé 1091" d="M111.707,263.975S108.782,246.339,101,247.31a3.129,3.129,0,0,0-2.7,2.708c-1.527,6.31,6,20.469,6,20.469S111.282,265.249,111.707,263.975Z" transform="translate(-87.138 -224.539)" fill="#a4e5ff"/>
                <path id="Tracé_1092" data-name="Tracé 1092" d="M125.152,240.191l.558-1.764a.612.612,0,0,1,.562.084C126.736,238.974,125.458,240.061,125.152,240.191Z" transform="translate(-74.804 -228.583)" fill="#13375b"/>
                <path id="Tracé_1093" data-name="Tracé 1093" d="M125.271,241.552c-.067.213.157.46.5.555l.108.031c-.119.726-1.374,1.169-1.374,1.169s-1.294-3.123.045-4.082a6.414,6.414,0,0,1,1.712-.8.612.612,0,0,1,.562.084c.464.463-.814,1.55-1.12,1.68l-.009,0,0,.029Z" transform="translate(-75.356 -228.583)" fill="#f48c7f"/>
                <path id="Tracé_1094" data-name="Tracé 1094" d="M125.651,239.733l-.262-.1s-.563,1-.742,1.4,1.237.847,1.639.735S125.651,239.733,125.651,239.733Z" transform="translate(-75.041 -228.022)" fill="#f47458"/>
                <path id="Tracé_1095" data-name="Tracé 1095" d="M129.493,235.124l-2.784,8.783c-.067.211-.4.3-.741.21-.007,0-.651-.181-.61-.17-.342-.095-.566-.342-.5-.555.022-.067-.112.354.432-1.361.306-.13,1.584-1.217,1.12-1.68a.612.612,0,0,0-.562-.084l1.792-5.657c.067-.21.4-.3.741-.208l.61.169C129.334,234.666,129.558,234.913,129.493,235.124Z" transform="translate(-74.943 -230.423)" fill="#271651"/>
                <g id="Groupe_1041" data-name="Groupe 1041" transform="translate(50.942 6.874)">
                  <path id="Tracé_1096" data-name="Tracé 1096" d="M129.1,237.6s.51-.769-.033-1.171c-.287-.213-3.324.256-3.466.588C125.208,237.931,127.956,237.544,129.1,237.6Z" transform="translate(-125.56 -236.378)" fill="#f48c7f"/>
                </g>
                <g id="Groupe_1042" data-name="Groupe 1042" transform="translate(51.02 7.828)">
                  <path id="Tracé_1097" data-name="Tracé 1097" d="M129.341,238.19a1.4,1.4,0,0,0-.033-1.037c-.189-.3-3.379.006-3.647.518C125.2,238.55,128.2,238.132,129.341,238.19Z" transform="translate(-125.614 -237.034)" fill="#f48c7f"/>
                </g>
                <path id="Tracé_1098" data-name="Tracé 1098" d="M129.205,237.818s-3.027-.07-3.33.418,1.322.619,1.322.619l1.588,2.543S129.785,238.328,129.205,237.818Z" transform="translate(-74.491 -228.849)" fill="#f48c7f"/>
                <path id="Tracé_1099" data-name="Tracé 1099" d="M127.137,239.347a14.786,14.786,0,0,0-.536,1.505c-.8,2.543-.507,2.616-.239,2.733s1.929-1.326,2.179-1.393a7.972,7.972,0,0,0,.453-4.3c-.419-1.1-.837-1.306-.837-1.306Z" transform="translate(-74.381 -229.409)" fill="#f48c7f"/>
              </g>
              <g id="Groupe_1048" data-name="Groupe 1048" transform="translate(11.517)">
                <g id="Groupe_1047" data-name="Groupe 1047">
                  <g id="Groupe_1044" data-name="Groupe 1044" transform="translate(14.949 13.809)">
                    <rect id="Rectangle_357" data-name="Rectangle 357" width="0.41" height="16.737" fill="#271651"/>
                  </g>
                  <g id="Groupe_1046" data-name="Groupe 1046" transform="translate(4.829 16.199)">
                    <g id="Groupe_1045" data-name="Groupe 1045" transform="translate(7.032)">
                      <rect id="Rectangle_358" data-name="Rectangle 358" width="0.996" height="32.258" fill="#271651"/>
                    </g>
                    <path id="Tracé_1100" data-name="Tracé 1100" d="M91.019,257.8c-3.533,0-6.4-.633-6.4-1.414a.548.548,0,0,1,.28-.415l-.031-.009H82.3l-.007,0a.554.554,0,0,1,.287.421c0,1-4.011,1.419-6.48,1.412h0v.306h15.08V257.8h-.156Z" transform="translate(-76.095 -225.162)" fill="#271651"/>
                  </g>
                  <path id="Rectangle_359" data-name="Rectangle 359" d="M0,0H8.17a0,0,0,0,1,0,0V.377a.827.827,0,0,1-.827.827H.827A.827.827,0,0,1,0,.377V0A0,0,0,0,1,0,0Z" transform="translate(8.623 15.246)" fill="#271651"/>
                  <path id="Tracé_1101" data-name="Tracé 1101" d="M96.4,237.935c0,.331-1.389.629-3.624.839-7.473.706-20,.191-20-.839,0-.041,7.719-14.257,7.719-14.257h8.189S96.4,237.894,96.4,237.935Z" transform="translate(-72.778 -223.678)" fill="#ffb82d"/>
                </g>
                <path id="Tracé_1102" data-name="Tracé 1102" d="M84.1,244.854a.694.694,0,1,1-.692-.635A.664.664,0,0,1,84.1,244.854Z" transform="translate(-68.245 -214.314)" fill="#271651"/>
              </g>
            </g>
          </g>
        </g>
        <path id="Tracé_1104" data-name="Tracé 1104" d="M137.469,313.156l75.865-63.221,75.2,61.224,2,85.182-110.47,3.993" transform="translate(-2.8 -147.635)" fill="none" stroke="#de8a4a" stroke-linecap="round" stroke-linejoin="round" stroke-width="4"/>
        <g id="Groupe_1054" data-name="Groupe 1054" transform="translate(248.155 199.93)">
          <g id="Groupe_1052" data-name="Groupe 1052">
            <path id="Tracé_1105" data-name="Tracé 1105" d="M226.887,320.922a58.269,58.269,0,0,0,1.5,7.993c.833,2.5,1.623,4.883,1.006,10.877s-1,6.492-1.141,8.046.08,8.1-.252,9.185,1.942,8.574,2.108,11.791.777,7.936,0,9.99l-.444-.278a23.576,23.576,0,0,0-.61-10.987c-1.776-5.994-1-6.77-4-10.516s-3.219-11.516-3.219-11.516-1.443-8.824,0-12.708S223.392,325.029,226.887,320.922Z" transform="translate(-212.789 -315.206)" fill="#86a974"/>
            <path id="Tracé_1106" data-name="Tracé 1106" d="M231.113,317a14.823,14.823,0,0,0-.463,5.381c.416,2.194.927,3.609.463,5.691s-1.5,7.5.52,10.949-.067,11.193,1.348,14.189,1.166,4.745-.5,8.575-4.772,8.879-3.939,17.036l1.275-1.553s-.349-6.6,1.3-9.878,5.2-7.881,5.308-10.6,2.83-2.386,2.5-6.659.721-5.384-.333-9.323c0,0-.166-.221.166-3.164s-2.5-9.434-3.995-11.82S231.188,319.716,231.113,317Z" transform="translate(-209.503 -316.996)" fill="#86a974"/>
            <path id="Tracé_1107" data-name="Tracé 1107" d="M235.218,329.535s1.109,4.994.277,7.713-1.83,4.828-1.775,8.935-3.164,5.66-3.108,7.936a20.18,20.18,0,0,1-1.277,6.548c-.61,1.831.278,8.824-.277,12.043s-1.111,3.051-1.111,3.051a28.2,28.2,0,0,0,.611-5.771,71.628,71.628,0,0,1-.611-8.769c.112-1.942-.776-3.5-.888-6.882s-.831-6.436.667-10.709S228.948,334.252,235.218,329.535Z" transform="translate(-210.239 -311.28)" fill="#e6f4d5"/>
            <path id="Tracé_1108" data-name="Tracé 1108" d="M232.4,367.775s.565-5.707-4.1-7.787-7.806-2.035-9.971-7.03-2.165-11.82-2.913-13.235c0,0,2-.333,3.995,3.247s3.353,6.243,4.507,8.325,2.818,1.5,4.234,3.079c1.186,1.326,2.281,4.41,2.7,5.975a6.1,6.1,0,0,0,.59,1.454c.236.416.514.923.68,1.284a33.228,33.228,0,0,1,.645,4.828Z" transform="translate(-215.421 -306.64)" fill="#e6f4d5"/>
            <path id="Tracé_1109" data-name="Tracé 1109" d="M228.462,367.378s.389-7.075,2.554-9.906,6.492-4.05,6.991-6.1-.055-8.212,3.108-11.653c0,0-.444,3.83,0,4.855s4.218,5.8,2,9.8-7.214,3.5-8.767,4.384-3.108.389-3.386,1.221a33.944,33.944,0,0,0-2,6.936Z" transform="translate(-209.476 -306.64)" fill="#e6f4d5"/>
            <path id="Tracé_1110" data-name="Tracé 1110" d="M228.308,367.052l-.185-7.658s.371-5.994,1.037-10.877,5.605-18.983,5.605-18.983,1.109,4.994.277,7.713-1.83,4.828-1.775,8.935-3.164,5.66-3.108,7.936a20.18,20.18,0,0,1-1.277,6.548c-.61,1.831.278,8.824-.277,12.043a8.017,8.017,0,0,1-.821,2.824C229.03,372.963,228.308,367.052,228.308,367.052Z" transform="translate(-209.785 -311.28)" fill="#c7d3b9"/>
            <path id="Tracé_1111" data-name="Tracé 1111" d="M223.475,354.529c2,1.111,3.953,1.577,5.882,4.273a22.23,22.23,0,0,1,2.775,5.189s.488,2.4.614,3.625c.016.185.023.3.023.3l-.367-.138s.565-5.707-4.1-7.787-7.806-2.035-9.971-7.03-2.165-11.82-2.913-13.235a57.538,57.538,0,0,1,4.17,7.207C221.033,350.145,221.477,353.42,223.475,354.529Z" transform="translate(-215.421 -306.637)" fill="#006b73"/>
            <path id="Tracé_1112" data-name="Tracé 1112" d="M241.027,344.57c.444,1.026,4.218,5.8,2,9.8s-7.214,3.5-8.767,4.384-3.108.389-3.386,1.221a33.942,33.942,0,0,0-2,6.936l-.218.207a40.182,40.182,0,0,1,.662-4.535,9.245,9.245,0,0,1,2.441-4.6c1.277-1.555,6.826-3.774,8.536-5.328s-.489-5.771-.71-7.538,1.443-5.391,1.443-5.391S240.583,343.545,241.027,344.57Z" transform="translate(-209.388 -306.64)" fill="#c7d3b9"/>
          </g>
          <g id="Groupe_1053" data-name="Groupe 1053" transform="translate(10.785 55.376)">
            <path id="Tracé_1113" data-name="Tracé 1113" d="M229.521,355.033h6.46c.441,0,.767.6.665,1.235l-2.354,14.525c-.074.453-.349.772-.665.772h-7.76c-.317,0-.593-.319-.665-.772l-2.354-14.525c-.1-.63.223-1.235.665-1.235Z" transform="translate(-222.829 -355.033)" fill="#ffb900"/>
            <path id="Tracé_1114" data-name="Tracé 1114" d="M234.863,364.1H224.175l-.845-5.216h12.379Z" transform="translate(-222.601 -353.276)" fill="#b93d56"/>
          </g>
        </g>
        <g id="Groupe_1055" data-name="Groupe 1055" transform="translate(211.992 175.55)">
          <rect id="Rectangle_360" data-name="Rectangle 360" width="13.236" height="14.358" fill="#e1b57d"/>
          <rect id="Rectangle_361" data-name="Rectangle 361" width="13.236" height="14.358" transform="translate(17.251)" fill="#e1b57d"/>
          <rect id="Rectangle_362" data-name="Rectangle 362" width="13.236" height="14.358" transform="translate(0 17.717)" fill="#e1b57d"/>
          <rect id="Rectangle_363" data-name="Rectangle 363" width="13.236" height="14.358" transform="translate(17.251 17.717)" fill="#e1b57d"/>
        </g>
        <g id="Groupe_1102" data-name="Groupe 1102" transform="translate(194.619 140.747)">
          <g id="Groupe_1058" data-name="Groupe 1058" transform="translate(10.218)">
            <g id="Groupe_1057" data-name="Groupe 1057">
              <g id="Groupe_1056" data-name="Groupe 1056">
                <path id="Tracé_1115" data-name="Tracé 1115" d="M194.975,276.359a5.909,5.909,0,0,1,6.016,3.807c1.593,4.27,3.094,5.668,3.28,7.911.76,9.073,5,7.022,3.806,12.251s-2.018,6.023-2.018,6.023l-10.128-1.987-10.264.034s4.015-2,3.123-6.275-3.123-11.27-1.863-16.038S192.332,276.723,194.975,276.359Z" transform="translate(-185.666 -276.344)" fill="#464240"/>
              </g>
            </g>
          </g>
          <g id="Groupe_1060" data-name="Groupe 1060" transform="translate(13.96 133.108)">
            <g id="Groupe_1059" data-name="Groupe 1059">
              <path id="Tracé_1116" data-name="Tracé 1116" d="M191,374.879s-3.175,4.362-2.724,5.065,3.918.8,6.026,0,2.159-6,3.114-8.236c.4-.935-.456-3.695-1.657-3.894a5.393,5.393,0,0,0-2.612.429S194.382,371.421,191,374.879Z" transform="translate(-188.237 -367.774)" fill="#eb4747"/>
            </g>
          </g>
          <g id="Groupe_1062" data-name="Groupe 1062" transform="translate(15.758 132.943)">
            <g id="Groupe_1061" data-name="Groupe 1061">
              <path id="Tracé_1117" data-name="Tracé 1117" d="M192.589,368.294a30.043,30.043,0,0,1-.652,3.516c-.4,1.456-2.561,4.769-2.462,5.171s2.813.766,3.918-.269,1.958-4.034,2.059-5.85a9.655,9.655,0,0,0-.25-3A2.452,2.452,0,0,0,192.589,368.294Z" transform="translate(-189.472 -367.661)" fill="#eea886"/>
            </g>
          </g>
          <g id="Groupe_1064" data-name="Groupe 1064" transform="translate(22.541 137.042)">
            <g id="Groupe_1063" data-name="Groupe 1063">
              <path id="Tracé_1118" data-name="Tracé 1118" d="M194.734,370.476v4.644h-.6v-3.589Z" transform="translate(-194.131 -370.476)" fill="#eb4747"/>
            </g>
          </g>
          <g id="Groupe_1066" data-name="Groupe 1066" transform="translate(22.272 133.108)">
            <g id="Groupe_1065" data-name="Groupe 1065">
              <path id="Tracé_1119" data-name="Tracé 1119" d="M196.714,374.879s-3.175,4.362-2.724,5.065,3.918.8,6.026,0,2.159-6,3.113-8.236c.4-.935-.456-3.695-1.657-3.894a5.39,5.39,0,0,0-2.61.429S200.09,371.421,196.714,374.879Z" transform="translate(-193.946 -367.774)" fill="#eb4747"/>
            </g>
          </g>
          <g id="Groupe_1068" data-name="Groupe 1068" transform="translate(24.069 132.943)">
            <g id="Groupe_1067" data-name="Groupe 1067">
              <path id="Tracé_1120" data-name="Tracé 1120" d="M198.3,368.294a30.046,30.046,0,0,1-.652,3.516c-.4,1.456-2.562,4.769-2.462,5.171s2.813.766,3.916-.269,1.96-4.034,2.06-5.85a9.624,9.624,0,0,0-.252-3A2.45,2.45,0,0,0,198.3,368.294Z" transform="translate(-195.181 -367.661)" fill="#eea886"/>
            </g>
          </g>
          <g id="Groupe_1070" data-name="Groupe 1070" transform="translate(30.852 137.042)">
            <g id="Groupe_1069" data-name="Groupe 1069">
              <path id="Tracé_1121" data-name="Tracé 1121" d="M200.442,370.476v4.644h-.6v-3.589Z" transform="translate(-199.84 -370.476)" fill="#eb4747"/>
            </g>
          </g>
          <g id="Groupe_1072" data-name="Groupe 1072" transform="translate(5.173 48.162)">
            <g id="Groupe_1071" data-name="Groupe 1071">
              <path id="Tracé_1122" data-name="Tracé 1122" d="M187.918,322.545s-2.4,13.237-3.051,16.549-2.466,19.348-2.661,22.077,5.924,15.844,6.307,16.748c6.4,15.147,7.141,18.574,7.141,18.574s2.1,1.318,3.073-.255c.3-.478-3.941-17.846-4.638-22.665-.649-4.481-2.338-11.4-1.884-12.973s4.611-23.246,5.391-24.155,1.948.52,2.4,2.533,1.428,19.414,2.012,21.622.131,9.674.454,13.44,1.677,21.346,1.677,21.346,2.616.467,2.875.048,2.524-19.524,2.59-24,.134-10.658.259-12.6c1.2-18.566,3.477-20.995-.5-34.358C199.651,291.78,187.918,322.545,187.918,322.545Z" transform="translate(-182.201 -309.426)" fill="#eea886"/>
            </g>
          </g>
          <g id="Groupe_1074" data-name="Groupe 1074" transform="translate(5.173 48.162)">
            <g id="Groupe_1073" data-name="Groupe 1073">
              <path id="Tracé_1123" data-name="Tracé 1123" d="M187.918,322.545s-2.4,13.237-3.051,16.549-2.466,19.348-2.661,22.077,5.713,15.844,5.844,16.818,5,14.915,5,14.915,4.915-.084,6.254-1.358c.269-.256-4.515-13.154-5.212-17.972-.649-4.481-2.338-11.4-1.884-12.973s4.611-23.246,5.391-24.155,1.948.52,2.4,2.533,1.428,19.414,2.012,21.622.131,9.674.454,13.44-.36,17.147-.36,17.147,6.439.338,6.7-.082.738-15.2.8-19.676.134-10.658.259-12.6c1.2-18.566,3.477-20.995-.5-34.358C199.651,291.78,187.918,322.545,187.918,322.545Z" transform="translate(-182.201 -309.426)" fill="#faa146"/>
            </g>
          </g>
          <g id="Groupe_1076" data-name="Groupe 1076" transform="translate(0 22.842)">
            <g id="Groupe_1075" data-name="Groupe 1075">
              <path id="Tracé_1124" data-name="Tracé 1124" d="M211.954,334.928c.374-.151-2.631-10.092-3.228-13.063-.537-2.679-2.369-5.133-.579-9.7a16.979,16.979,0,0,0,.955-5.7s2.737,6.036,3,7.6-9.459-1.277-9.593-1.061a16.352,16.352,0,0,0-.54,3.95c0,.751,14.107,4.085,15.777,1.131.475-.837-2.591-16.87-4.567-19.006-3.247-3.506-11.775-6.493-11.775-6.493s-2.337-1.255-6.451.044a38.4,38.4,0,0,0-10.865,6.32c-.994,1.04-4.978,16.694-5.326,18.722-.326,1.907-.2,5.919,4.156,5.406l11.752-2.69-.729-3.583-8.809.7c-1.8.307-.935-1.271-.706-2.149.224-.86,2.436-8.828,2.436-8.828-.13,2.207,1.536,9.456,2.4,11.967s-1.048,15.946-1.178,17.416C188.082,335.9,195.157,341.712,211.954,334.928Z" transform="translate(-178.648 -292.034)" fill="#eb4747"/>
            </g>
          </g>
          <g id="Groupe_1078" data-name="Groupe 1078" transform="translate(15.206 22.951)">
            <g id="Groupe_1077" data-name="Groupe 1077">
              <path id="Tracé_1125" data-name="Tracé 1125" d="M198.558,293.28s-2.9,5.982-5.321,7.736c0,0-4.359-6.532-4.136-8.039A11.759,11.759,0,0,1,198.558,293.28Z" transform="translate(-189.092 -292.109)" fill="#eea886"/>
            </g>
          </g>
          <g id="Groupe_1079" data-name="Groupe 1079" transform="translate(20.119 42.651)">
            <path id="Tracé_1126" data-name="Tracé 1126" d="M197.124,307.284a5.461,5.461,0,0,1-1.7-1.029,2.571,2.571,0,0,0-2.428-.515c-.881.262-.393,4.049-.393,4.049l4.65.6Z" transform="translate(-192.467 -305.64)" fill="#eea886"/>
          </g>
          <g id="Groupe_1081" data-name="Groupe 1081" transform="translate(16.358 43.803)">
            <g id="Groupe_1080" data-name="Groupe 1080">
              <path id="Tracé_1127" data-name="Tracé 1127" d="M189.884,309.816a17.613,17.613,0,0,0,.339-2.9c-.108-.451.795-.9.92.211s.192,1.827.192,1.827Z" transform="translate(-189.884 -306.432)" fill="#eea886"/>
            </g>
          </g>
          <g id="Groupe_1082" data-name="Groupe 1082" transform="translate(16.865 39.705)">
            <path id="Tracé_1128" data-name="Tracé 1128" d="M191.659,312.8l3.385-.138a.815.815,0,0,0,.783-.8l.09-7.413a.814.814,0,0,0-.841-.824l-4.053.131a.818.818,0,0,0-.788.879l.577,7.418A.817.817,0,0,0,191.659,312.8Z" transform="translate(-190.232 -303.617)" fill="#51578c"/>
          </g>
          <g id="Groupe_1084" data-name="Groupe 1084" transform="translate(12.51 44.536)">
            <g id="Groupe_1083" data-name="Groupe 1083">
              <path id="Tracé_1129" data-name="Tracé 1129" d="M191.013,309.784s-.063-.694,1.272-1.331c1.772-.846,4.136-1.7,4.539-1.484.582.32.282.763-.837,1.131s-1.489.488-1.489.488a9.378,9.378,0,0,1,2.683.052c.491.263.518.868.159.968a9.114,9.114,0,0,1-1.205.159s.929.035,1.022.409c.068.277.1.671-.776.836a.647.647,0,0,1-.3,1.086,15.609,15.609,0,0,1-3.328.945,37.512,37.512,0,0,1-5.513.071l1.569-2.655a4.48,4.48,0,0,0,1.473-.135C191.1,310.048,191.013,309.784,191.013,309.784Z" transform="translate(-187.241 -306.935)" fill="#eea886"/>
            </g>
          </g>
          <g id="Groupe_1085" data-name="Groupe 1085" transform="translate(8.241 47.605)">
            <path id="Tracé_1130" data-name="Tracé 1130" d="M191.357,309.043l.73,3.582-7.489,1.715-.289-4.74Z" transform="translate(-184.309 -309.043)" fill="#eb4747"/>
          </g>
          <g id="Groupe_1086" data-name="Groupe 1086" transform="translate(23.311 43.805)">
            <path id="Tracé_1131" data-name="Tracé 1131" d="M195.206,306.433a9.479,9.479,0,0,0-.54,3.95,43.274,43.274,0,0,0,8.252,2.091v-4.557Z" transform="translate(-194.659 -306.433)" fill="#eb4747"/>
          </g>
          <g id="Groupe_1087" data-name="Groupe 1087" transform="translate(10.769 51.188)">
            <path id="Tracé_1132" data-name="Tracé 1132" d="M191.295,311.5l-5.25,2.919c.036-.609.063-1.191.076-1.734Z" transform="translate(-186.045 -311.504)" fill="#b33636"/>
          </g>
          <g id="Groupe_1088" data-name="Groupe 1088" transform="translate(23.317 47.755)">
            <path id="Tracé_1133" data-name="Tracé 1133" d="M201.167,312.968c-4.212-1.674-5.9-3.184-6.362-3.663a1.809,1.809,0,0,1-.141-.159l5.981,1.746h0C200.795,311.615,200.991,312.3,201.167,312.968Z" transform="translate(-194.664 -309.146)" fill="#b33636"/>
          </g>
          <g id="Groupe_1091" data-name="Groupe 1091" transform="translate(13.133 2.464)">
            <g id="Groupe_1090" data-name="Groupe 1090">
              <g id="Groupe_1089" data-name="Groupe 1089">
                <path id="Tracé_1134" data-name="Tracé 1134" d="M194.644,278.084s5.857.846,5,9.489-6.026,7.961-6.371,7.953-5.186.18-5.6-10.37C187.669,285.157,187.474,277.356,194.644,278.084Z" transform="translate(-187.669 -278.036)" fill="#eea886"/>
              </g>
            </g>
          </g>
          <g id="Groupe_1094" data-name="Groupe 1094" transform="translate(16.043 18.028)">
            <g id="Groupe_1093" data-name="Groupe 1093">
              <g id="Groupe_1092" data-name="Groupe 1092">
                <path id="Tracé_1135" data-name="Tracé 1135" d="M196.336,289.12s-.362,4.5.5,5.844-.741,3.177-4.053,2.551-3.117-2.5-3.117-2.5a13.708,13.708,0,0,0,.655-5C190.054,287.794,196.336,289.12,196.336,289.12Z" transform="translate(-189.668 -288.727)" fill="#eea886"/>
              </g>
            </g>
          </g>
          <g id="Groupe_1097" data-name="Groupe 1097" transform="translate(12.551 1.097)">
            <g id="Groupe_1096" data-name="Groupe 1096">
              <g id="Groupe_1095" data-name="Groupe 1095">
                <path id="Tracé_1136" data-name="Tracé 1136" d="M194.157,281.646s2.737,2.877,4.008,4.333,1.417,4.27,1.417,4.27a6.741,6.741,0,0,0,1.246-5.66c-.9-3.046-3.015-8.971-8.377-7.151s-5.56,9.833-4.932,13.8C187.518,291.242,189.926,282.473,194.157,281.646Z" transform="translate(-187.269 -277.097)" fill="#464240"/>
              </g>
            </g>
          </g>
          <g id="Groupe_1099" data-name="Groupe 1099" transform="translate(17.131 18.999)">
            <g id="Groupe_1098" data-name="Groupe 1098">
              <path id="Tracé_1137" data-name="Tracé 1137" d="M190.415,289.957a5.115,5.115,0,0,0,4.924-.563,3.167,3.167,0,0,1-2.462,1.591A2.426,2.426,0,0,1,190.415,289.957Z" transform="translate(-190.415 -289.394)" fill="#a77860"/>
            </g>
          </g>
          <g id="Groupe_1100" data-name="Groupe 1100" transform="translate(9.969 21.13)">
            <path id="Tracé_1138" data-name="Tracé 1138" d="M191.808,290.858s-8.057,7.169-5.966,11.641c1.785,3.817,8.112,1.476,7.07-2.523A44.948,44.948,0,0,1,191.808,290.858Z" transform="translate(-185.495 -290.858)" fill="#464240"/>
          </g>
          <g id="Groupe_1101" data-name="Groupe 1101" transform="translate(17.468 40.763)">
            <path id="Tracé_1139" data-name="Tracé 1139" d="M191.616,304.649a.507.507,0,0,1-.665.662.485.485,0,0,1-.271-.278.509.509,0,0,1,.66-.657A.481.481,0,0,1,191.616,304.649Z" transform="translate(-190.646 -304.343)" fill="#48484d"/>
          </g>
        </g>
        <g id="Groupe_1103" data-name="Groupe 1103" transform="translate(0.65)">
          <path id="Tracé_1140" data-name="Tracé 1140" d="M89.92,342.411c-5.583,0-10.057-.022-11.907-.082-7.166.205-12.807-1.674-16.776-5.617-5.909-5.87-5.77-14.087-5.761-14.433V247.967a2.255,2.255,0,0,1,.726-1.658l56.976-52.478c.989-1.184,7.537-8.578,17.229-9.066,6.7-.329,13.229,2.683,19.393,8.98l70.549,61.919a2.254,2.254,0,1,1-2.974,3.386l-70.612-61.974c-.045-.038-.087-.079-.128-.119-5.227-5.362-10.612-7.95-15.965-7.691-8.268.4-14.031,7.454-14.09,7.524a2.109,2.109,0,0,1-.233.25L59.984,248.955v73.381c0,.116-.073,6.736,4.461,11.209,3.067,3.028,7.61,4.469,13.5,4.277.048,0,.1,0,.148,0,6.516.22,50.915-.083,51.362-.086h.016a2.253,2.253,0,0,1,.016,4.506C128.154,342.252,105,342.411,89.92,342.411Z" transform="translate(-40.827 -177.354)" fill="#ca5b61"/>
          <path id="Tracé_1141" data-name="Tracé 1141" d="M172.614,251.35a2.254,2.254,0,0,1-2.254-2.254V201.921a17.747,17.747,0,1,0-35.494,0v12.116a2.254,2.254,0,1,1-4.507,0V201.921a22.254,22.254,0,1,1,44.508,0V249.1A2.254,2.254,0,0,1,172.614,251.35Z" transform="translate(-6.691 -179.667)" fill="#ca5b61"/>
          <path id="Tracé_1142" data-name="Tracé 1142" d="M47.669,242.773a2.254,2.254,0,0,1-1.4-4.018l14.647-11.644a2.254,2.254,0,0,1,2.805,3.529L49.07,242.283A2.238,2.238,0,0,1,47.669,242.773Z" transform="translate(-45.414 -158.263)" fill="#ca5b61"/>
        </g>
      </g>
    </g>
  </g>
</svg>
