<svg xmlns="http://www.w3.org/2000/svg" width="16" height="18.293" viewBox="0 0 16 18.293">
  <g id="Groupe_439" data-name="Groupe 439" transform="translate(-725.871 -620.615)">
    <path id="Tracé_447" data-name="Tracé 447" d="M725.926,666.715l-.031-.177a.551.551,0,0,1-.017-.118c0-.353,0-.706,0-1.06,0-.8-.008-1.635.012-2.453a3.718,3.718,0,0,1,2.661-3.407c.446-.14.894-.273,1.343-.406l.532-.158a.939.939,0,0,1,.106-.024l.228-.046,1.973,4.682.309-2.068a.574.574,0,0,1-.33-.31.836.836,0,0,0-.056-.091,1.026,1.026,0,0,1-.021-1.246.739.739,0,0,1,.683-.433l.082,0c.152.011.32.016.514.016.171,0,.343,0,.514-.008l.208,0a.433.433,0,0,1,.433.263,2.1,2.1,0,0,0,.12.209,1.135,1.135,0,0,1,.221.559,1.105,1.105,0,0,1-.226.581c-.039.061-.078.122-.109.184a.4.4,0,0,1-.317.265l.307,2,2.021-4.784,1.264.463.3.107c.22.077.447.157.667.25a3.725,3.725,0,0,1,2.535,3.464c.03.8.023,1.607.016,2.39,0,.347-.006.694-.006,1.041a.7.7,0,0,1-.007.086l-.025.226Zm7.952-.97q.125,0,.249.005a1.094,1.094,0,0,0,.142-.9.945.945,0,0,1-.042-.225c0-.026-.005-.052-.009-.078l-.327-2.07q-.167,1.131-.336,2.261l-.021.132a1.02,1.02,0,0,0,.085.837l.027.036,0,.01C733.728,665.747,733.8,665.745,733.877,665.745Zm-1.347-.008-2.389-5.717-1.2.354a2.762,2.762,0,0,0-2.036,2.583c-.01.669-.008,1.338-.006,2.008q0,.386,0,.773Zm8.311,0c0-.255,0-.51,0-.766,0-.648.01-1.318-.011-1.974a2.663,2.663,0,0,0-1.649-2.464,11.548,11.548,0,0,0-1.167-.449c-.124-.043-.248-.085-.372-.13l-2.438,5.782Zm-7.423-5.275a.122.122,0,0,0,.048.05l.812,0,.008-.011a.35.35,0,0,0,.033-.054c-.014-.011-.039-.063-.052-.075a.544.544,0,0,1-.175.023c-.04,0-.08,0-.12,0l-.1,0-.1,0c-.04,0-.081,0-.121,0a.972.972,0,0,1-.173-.013l-.03,0A.671.671,0,0,1,733.418,660.461Z" transform="translate(0 -27.807)" fill="#8a8a8a"/>
    <path id="Tracé_448" data-name="Tracé 448" d="M742.276,667.325H726.742a.517.517,0,0,1-.014-.083c0-1.169-.021-2.339.008-3.508a3.529,3.529,0,0,1,2.512-3.211c.622-.2,1.249-.376,1.874-.562.038-.011.079-.016.132-.027l2.19,5.192.033,0,.453-3.029c-.311.08-.342-.154-.461-.314a.812.812,0,0,1-.01-1.017.524.524,0,0,1,.558-.324c.417.029.839.012,1.258,0a.211.211,0,0,1,.228.138c.109.231.318.455.322.685s-.2.446-.312.668c-.075.147-.077.146-.369.181l.448,2.916.038,0,2.22-5.249,1.062.388c.319.117.645.221.958.352a3.531,3.531,0,0,1,2.406,3.278c.042,1.14.009,2.282.009,3.423C742.286,667.252,742.28,667.28,742.276,667.325Zm-14.963-.554h6.182l-2.59-6.189-1.4.411a2.992,2.992,0,0,0-2.2,2.783c-.014.955,0,1.909,0,2.864C727.3,666.679,727.309,666.718,727.312,666.771Zm8.208,0h6.18c0-.046.009-.079.009-.113,0-.948.023-1.9-.008-2.845a2.875,2.875,0,0,0-1.774-2.647c-.552-.261-1.15-.435-1.727-.647-.009,0-.021,0-.046.011Zm-.981-4.671-.053.012c-.007.032-.017.065-.022.1-.164,1.106-.325,2.213-.493,3.318a1.362,1.362,0,0,0,.1,1.123.047.047,0,0,1,.006.016.152.152,0,0,0,.181.12c.171-.008.343-.007.514,0a.174.174,0,0,0,.187-.113,1.31,1.31,0,0,0,.155-1.071,1.531,1.531,0,0,1-.043-.267q-.246-1.556-.493-3.113A.745.745,0,0,0,734.54,662.1Zm-.03-1.1a2.046,2.046,0,0,1-.354,0c-.213-.038-.264.1-.315.24s.108.312.247.312c.284,0,.567,0,.851,0,.044,0,.114-.008.126-.032.049-.1.162-.183.093-.323s-.116-.226-.294-.2A2.176,2.176,0,0,1,734.51,660.994Z" transform="translate(-0.638 -28.629)" fill="#8a8a8a"/>
    <path id="Tracé_449" data-name="Tracé 449" d="M742.258,630.689a3.5,3.5,0,0,1-2-.66,5.993,5.993,0,0,1-2-2.439c-.066-.136-.126-.274-.186-.416l-.025-.058-.059,0a.758.758,0,0,1-.762-.652c-.018-.115-.036-.229-.055-.344-.028-.171-.056-.341-.08-.513a2.41,2.41,0,0,1-.022-.442.957.957,0,0,1,.605-.85.119.119,0,0,0,.028-.016h0a.2.2,0,0,0,.013-.044,4.294,4.294,0,0,1,2.912-3.341,4.98,4.98,0,0,1,1.7-.3,4.523,4.523,0,0,1,4.131,2.527,4.627,4.627,0,0,1,.278.726c.041.127.082.255.129.38a.14.14,0,0,0,.035.054,1.02,1.02,0,0,1,.6,1.121c-.054.29-.112.6-.185.907a.985.985,0,0,1-.759.736c-.04.01-.044.011-.064.063a6.584,6.584,0,0,1-1.653,2.469,3.885,3.885,0,0,1-1.966,1.035A3.446,3.446,0,0,1,742.258,630.689Zm-3.961-4.563c.051.007.154.007.24.008a.389.389,0,0,1,.4.275l.056.145a8.1,8.1,0,0,0,.336.8,4.919,4.919,0,0,0,1.6,1.909,2.418,2.418,0,0,0,1.263.453c.038,0,.076,0,.114,0a2.51,2.51,0,0,0,1.618-.637,5.535,5.535,0,0,0,1.72-2.587.471.471,0,0,1,.486-.358l.089,0c.08,0,.09,0,.116-.124.052-.242.1-.484.15-.727a.1.1,0,0,0-.01-.072.108.108,0,0,0-.074-.028c-.026,0-.054,0-.08,0l-.157,0h-.188l-.1-.48c-.044-.217-.088-.429-.128-.641a.273.273,0,0,0-.209-.252,2.557,2.557,0,0,1-.364-.154c-.046-.022-.092-.045-.138-.065l-1.354-.608A3.754,3.754,0,0,1,740.8,624.6c-.377.026-.748.03-1.061.03l-.76,0h-.271l-.073.55h-.2l-.194,0c-.031,0-.062,0-.091,0l-.031,0a.275.275,0,0,0,.008.048c.048.2.088.408.128.666C738.271,625.995,738.284,626.083,738.3,626.126Zm1.419-2.471c.3,0,.6,0,.9-.011a2.645,2.645,0,0,0,1.767-.74,3.3,3.3,0,0,0,.721-.995l.092-.19a3.735,3.735,0,0,0-.934-.12,3.928,3.928,0,0,0-.663.057,3.817,3.817,0,0,0-2.668,2Zm3.692-1.849.9.4a3.764,3.764,0,0,0-1.069-.477Z" transform="translate(-8.407)" fill="#8a8a8a"/>
    <path id="Tracé_450" data-name="Tracé 450" d="M738.826,627.541c-.068,0-.134,0-.2,0a.542.542,0,0,1-.551-.47c-.043-.285-.095-.568-.134-.853a2.2,2.2,0,0,1-.021-.405.742.742,0,0,1,.478-.668.253.253,0,0,0,.166-.211,4.092,4.092,0,0,1,2.78-3.184,4.443,4.443,0,0,1,5.561,2.124,9.91,9.91,0,0,1,.4,1.085.321.321,0,0,0,.138.167.819.819,0,0,1,.489.9c-.055.3-.113.6-.183.9a.766.766,0,0,1-.6.577.281.281,0,0,0-.217.193,6.408,6.408,0,0,1-1.605,2.393,3.686,3.686,0,0,1-1.855.978,3.186,3.186,0,0,1-2.447-.567,5.859,5.859,0,0,1-1.93-2.357C739,627.945,738.916,627.745,738.826,627.541Zm5.423-4.19-.1.142a3.544,3.544,0,0,1-2.728,1.539c-.688.048-1.381.021-2.072.028h-.21l-.072.55c-.112,0-.209-.006-.3,0-.207.015-.273.121-.227.31.052.214.091.431.125.649.063.407.059.412.505.414a.169.169,0,0,1,.187.134,9.915,9.915,0,0,0,.4.96,5.131,5.131,0,0,0,1.679,1.989,2.678,2.678,0,0,0,1.389.493,2.727,2.727,0,0,0,1.9-.686,5.758,5.758,0,0,0,1.792-2.681.258.258,0,0,1,.313-.21.315.315,0,0,0,.387-.293c.052-.243.1-.487.151-.731a.285.285,0,0,0-.289-.348c-.089-.006-.179,0-.256,0-.067-.328-.132-.636-.191-.946a.487.487,0,0,0-.362-.416,4.231,4.231,0,0,1-.476-.209Zm-4.97,1.139a.8.8,0,0,0,.1.014c.625,0,1.249.009,1.873-.009a2.88,2.88,0,0,0,1.926-.8,3.512,3.512,0,0,0,.77-1.057l2.055.914a3.888,3.888,0,0,0-3.812-1.462C740.864,622.316,739.416,623.5,739.279,624.49Z" transform="translate(-9.046 -0.639)" fill="#8a8a8a"/>
  </g>
</svg>
