<svg xmlns="http://www.w3.org/2000/svg" width="17" height="17" viewBox="0 0 17 17">
  <g id="Groupe_390" data-name="Groupe 390" transform="translate(-319.161 -225.561)">
    <path id="Tracé_290" data-name="Tracé 290" d="M334.833,242.561a7.173,7.173,0,0,0-14.3-.761c-.029.252-.028.507-.041.761h-1.328v-.5a1.088,1.088,0,0,0,.028-.142,7.882,7.882,0,0,1,.589-2.54,8.461,8.461,0,0,1,4.9-4.782l.191-.076c-.074-.056-.123-.092-.171-.129a4.839,4.839,0,0,1-1.949-3.792,4.7,4.7,0,0,1,.808-2.824,4.785,4.785,0,0,1,2.762-2.021c.328-.091.67-.132,1.006-.2h.664c.266.045.538.069.8.138a4.917,4.917,0,0,1,2.136,8.44c-.142.134-.3.25-.453.374.009.014.01.02.014.023.03.014.059.029.09.041a8.515,8.515,0,0,1,5.45,6.506c.057.325.089.654.133.981v.5Zm-3.587-12.092a3.585,3.585,0,1,0-3.588,3.591A3.6,3.6,0,0,0,331.246,230.469Z" transform="translate(0 0)" fill="#8a8a8a"/>
  </g>
</svg>
