<svg xmlns="http://www.w3.org/2000/svg" width="19.587" height="22.177" viewBox="0 0 19.587 22.177">
  <g id="Groupe_854" data-name="Groupe 854" transform="translate(159.145 -1023.384)">
    <path id="Tracé_629" data-name="Tracé 629" d="M-158.966,1126.037c.086-.481.174-.963.259-1.444.212-1.2.375-2.417.647-3.606a3.451,3.451,0,0,1,2.134-2.5c1.009-.415,2.059-.73,3.1-1.07.222-.073.351-.155.3-.405a.551.551,0,0,1,.012-.14h.683a13.248,13.248,0,0,0,.527,2.765l.717-.856c.205-.246.4-.5.619-.734a.4.4,0,0,1,.245-.12,5.865,5.865,0,0,1,.747,0,.387.387,0,0,1,.245.12c.435.507.861,1.023,1.331,1.587a12.269,12.269,0,0,0,.524-2.765h.673a.212.212,0,0,1,.026.059c.032.4.033.394.406.52.928.312,1.867.6,2.781.945a3.7,3.7,0,0,1,2.432,2.9c.231,1.178.4,2.367.605,3.55.068.4.144.795.216,1.192Zm11.11-5.833c-.1.154-.179.284-.272.4a.565.565,0,0,0-.116.473c.137.921.265,1.843.4,2.765.07.49.144.979.215,1.461h3.882l-.311-3.113.708-.071.323,3.19h2.412a.528.528,0,0,0,0-.073c-.207-1.255-.392-2.513-.628-3.762a3.112,3.112,0,0,0-2.193-2.5c-.685-.234-1.373-.459-2.06-.688l-.776-.259-.784,3.125Zm-6.788,1.988-.309,3.116h3.884c.2-1.439.408-2.866.609-4.293a.393.393,0,0,0-.005-.225c-.112-.195-.245-.377-.383-.584l-.8.95-.786-3.128c-1.023.344-2.029.652-3.011,1.021a3.086,3.086,0,0,0-2.04,2.548c-.152.9-.306,1.807-.457,2.71-.056.332-.1.665-.158,1h2.422l.322-3.192Zm6.273,3.117a1.025,1.025,0,0,0,0-.127c-.206-1.433-.415-2.866-.612-4.3a.669.669,0,0,1,.084-.391c.143-.253.315-.49.482-.729a.166.166,0,0,0,0-.241c-.228-.263-.446-.535-.673-.8a.4.4,0,0,0-.528.011c-.221.26-.436.526-.659.784a.165.165,0,0,0-.012.24c.18.255.354.515.52.781a.419.419,0,0,1,.067.254c-.156,1.132-.322,2.263-.484,3.394-.053.37-.1.74-.158,1.125Z" transform="translate(0 -80.627)" stroke="#000" stroke-width="0.3"/>
    <path id="Tracé_630" data-name="Tracé 630" d="M-125.733,1023.534a9.39,9.39,0,0,1,1.11.342,3.682,3.682,0,0,1,1.938,1.978.379.379,0,0,0,.213.2,1.775,1.775,0,0,1,1.349,1.712c.01.648,0,1.3.008,1.943a.455.455,0,0,0,.123.287,1.708,1.708,0,0,1,.513,1.73,1.717,1.717,0,0,1-1.357,1.3.3.3,0,0,0-.187.16,4.356,4.356,0,0,1-1.144,1.725c-.408.4-.805.805-1.214,1.2a1.709,1.709,0,0,1-1.2.485c-.611.009-1.223,0-1.834-.022a1.606,1.606,0,0,1-1.094-.511q-.767-.757-1.514-1.535a3.355,3.355,0,0,1-.753-1.275.328.328,0,0,0-.27-.249,1.674,1.674,0,0,1-1.313-1.284,1.659,1.659,0,0,1,.5-1.691.426.426,0,0,0,.149-.348,7.461,7.461,0,0,1,.2-2.285,5.182,5.182,0,0,1,3.146-3.474,10.246,10.246,0,0,1,1.313-.342c.04-.01.079-.027.119-.041Zm-4.564,6.706c0,.6-.01,1.173,0,1.742a3.163,3.163,0,0,0,.954,2.238c.433.433.867.865,1.3,1.3a1.182,1.182,0,0,0,.881.364c.491,0,.983,0,1.474,0a1.2,1.2,0,0,0,.9-.368c.431-.435.866-.866,1.3-1.3a2.813,2.813,0,0,0,.887-1.71c.069-.727.051-1.463.061-2.2,0-.038-.083-.1-.136-.112a2.609,2.609,0,0,1-1.264-.581c-.3-.268-.55-.585-.834-.893-.141.106-.312.245-.492.37a6.36,6.36,0,0,1-3.771,1.147C-129.449,1030.238-129.861,1030.24-130.3,1030.24Zm8.437-.695a.176.176,0,0,0,.017-.047c0-.541,0-1.082,0-1.623a1.049,1.049,0,0,0-1.124-1.159c-.162,0-.211-.062-.255-.207a3.034,3.034,0,0,0-1.821-2.04,3.859,3.859,0,0,0-2.2-.144,4.524,4.524,0,0,0-3.684,3.748,12.916,12.916,0,0,0-.089,1.448h1.184c.363,0,.726,0,1.089-.005a5.407,5.407,0,0,0,3.154-1.077c.352-.262.671-.569,1.019-.867.037.06.081.131.125.2a11.229,11.229,0,0,0,.62.969A2.289,2.289,0,0,0-121.859,1029.546Zm-9.154,2.712v-1.922a1.015,1.015,0,0,0-.694.962A1,1,0,0,0-131.013,1032.258Zm9.19,0a.985.985,0,0,0,.7-.946.984.984,0,0,0-.7-.962Z" transform="translate(-22.936)" stroke="#000" stroke-width="0.3"/>
  </g>
</svg>
