<svg xmlns="http://www.w3.org/2000/svg" width="20.512" height="20.197" viewBox="0 0 20.512 20.197">
  <g id="Groupe_853" data-name="Groupe 853" transform="translate(407.982 -842.444)">
    <path id="Tracé_624" data-name="Tracé 624" d="M-368.2,847.448a4.984,4.984,0,0,1-5.009,4.985,4.991,4.991,0,0,1-4.981-5.038,4.992,4.992,0,0,1,5.046-4.951A4.984,4.984,0,0,1-368.2,847.448Zm-1.427,0a3.578,3.578,0,0,0-3.565-3.58,3.586,3.586,0,0,0-3.569,3.557,3.587,3.587,0,0,0,3.568,3.581A3.581,3.581,0,0,0-369.632,847.449Z" transform="translate(-24.794 0)"/>
    <path id="Tracé_625" data-name="Tracé 625" d="M-406.6,917.672h8.564a.706.706,0,0,1,.754.7.7.7,0,0,1-.713.721c-.631,0-1.263,0-1.895,0h-7.267a.721.721,0,0,1-.826-.834,19.122,19.122,0,0,1,.095-2.333,6.332,6.332,0,0,1,5.021-5.257,6.953,6.953,0,0,1,1.259-.131c1.122-.018,2.244-.007,3.366-.006a.713.713,0,0,1,.78.724.714.714,0,0,1-.779.7c-1.085,0-2.17,0-3.255,0a4.966,4.966,0,0,0-4.946,4A14.562,14.562,0,0,0-406.6,917.672Z" transform="translate(0 -56.674)"/>
    <path id="Tracé_626" data-name="Tracé 626" d="M-332.424,911.778a4.28,4.28,0,0,1,4.29,4.219,4.29,4.29,0,0,1-4.271,4.355,4.294,4.294,0,0,1-4.29-4.225A4.277,4.277,0,0,1-332.424,911.778Zm.013,7.133a2.865,2.865,0,0,0,2.851-2.848,2.856,2.856,0,0,0-2.87-2.847,2.857,2.857,0,0,0-2.84,2.855A2.865,2.865,0,0,0-332.411,918.911Z" transform="translate(-59.336 -57.711)"/>
    <path id="Tracé_627" data-name="Tracé 627" d="M-313.994,935.218c0,.245,0,.49,0,.735a.7.7,0,0,1-.706.7.7.7,0,0,1-.718-.716q-.006-.724,0-1.448a.714.714,0,0,1,.716-.725.722.722,0,0,1,.708.736C-313.992,934.742-313.994,934.98-313.994,935.218Z" transform="translate(-77.044 -76.016)"/>
    <path id="Tracé_628" data-name="Tracé 628" d="M-313.985,924.887a.7.7,0,0,1-.711.7.707.707,0,0,1-.714-.723.717.717,0,0,1,.711-.709A.719.719,0,0,1-313.985,924.887Z" transform="translate(-77.053 -68.016)"/>
  </g>
</svg>
