<svg xmlns="http://www.w3.org/2000/svg" width="14" height="18.657" viewBox="0 0 14 18.657">
  <g id="Groupe_392" data-name="Groupe 392" transform="translate(-796.978 -562.167)">
    <path id="Tracé_303" data-name="Tracé 303" d="M798.731,569.725c0-.074,0-.15,0-.225,0-.8-.02-1.6.019-2.4a5.241,5.241,0,0,1,10.4-.538,6.871,6.871,0,0,1,.068.983c.01.658,0,1.316,0,1.974v.194a5.635,5.635,0,0,1,.639.151,1.707,1.707,0,0,1,1.111,1.693c0,.871,0,1.741,0,2.612q0,2.409,0,4.818a1.68,1.68,0,0,1-.989,1.656,1.875,1.875,0,0,1-.764.17q-5.244.016-10.488.005a1.714,1.714,0,0,1-1.753-1.792c-.007-1.019,0-2.038,0-3.058,0-1.471,0-2.941,0-4.412a1.71,1.71,0,0,1,1.258-1.742C798.386,569.775,798.541,569.76,798.731,569.725Zm5.247,1.187H798.87c-.537,0-.723.183-.723.719q0,3.658,0,7.314c0,.521.193.712.713.712H809.1c.52,0,.713-.192.714-.712q0-3.667,0-7.333c0-.51-.192-.7-.7-.7Zm4.072-1.174c0-.853.023-1.685,0-2.516a4.074,4.074,0,0,0-8.144.212c-.007.709,0,1.419,0,2.129,0,.055.008.111.014.176Z" transform="translate(0)" fill="#8a8a8a"/>
    <path id="Tracé_304" data-name="Tracé 304" d="M809.336,589.353a.891.891,0,0,1,0-.137,1.02,1.02,0,0,0-.595-1.2,2.346,2.346,0,0,1-.883-2.916,2.447,2.447,0,0,1,2.609-1.521,2.417,2.417,0,0,1,2.146,2.119,2.445,2.445,0,0,1-1.468,2.591.346.346,0,0,0-.156.259c-.014.52,0,1.04-.008,1.56a.824.824,0,1,1-1.645.01C809.333,589.865,809.336,589.609,809.336,589.353Zm.814-2.5a.772.772,0,0,0,.831-.809.822.822,0,1,0-1.643-.017A.772.772,0,0,0,810.15,586.853Z" transform="translate(-6.181 -12.185)" fill="#8a8a8a"/>
  </g>
</svg>
