<svg xmlns="http://www.w3.org/2000/svg" width="39.19" height="38.86" viewBox="0 0 39.19 38.86">
  <g id="Groupe_86" data-name="Groupe 86" transform="translate(0)">
    <path id="Tracé_175" data-name="Tracé 175" d="M132.931,96.117a1.916,1.916,0,0,1-1.834-1.542,1.878,1.878,0,0,1,.344-1.534,1.251,1.251,0,0,0,.229-.617,9.235,9.235,0,0,1,9.144-9,9.387,9.387,0,0,1,6.792,2.333,9.1,9.1,0,0,1,3.094,6.617,1.282,1.282,0,0,0,.231.659,1.9,1.9,0,0,1-.566,2.813.644.644,0,0,0-.291.427c-.006.116.174.286.311.358a2.241,2.241,0,0,1,1.228,2.387,2.267,2.267,0,0,1-1.895,1.792.5.5,0,0,0-.468.407,9.448,9.448,0,0,1-4.516,5.37.669.669,0,0,0-.34.449.643.643,0,0,0,.354.431c1.5.7,3.011,1.362,4.507,2.064a6.437,6.437,0,0,1,3.961,6.083c.038,1.67.01,3.341.006,5.012,0,.621-.187.811-.8.812q-11.23,0-22.46,0c-.612,0-.808-.2-.809-.8,0-1.717-.045-3.436.012-5.151a6.322,6.322,0,0,1,3.662-5.8c1.572-.789,3.2-1.466,4.8-2.211a.76.76,0,0,0,.379-.431.57.57,0,0,0-.279-.7,9.232,9.232,0,0,1-4.008-5.159.463.463,0,0,0-.441-.374,2.325,2.325,0,0,1-1.884-1.869,2.189,2.189,0,0,1,1.266-2.313C132.879,96.519,133.1,96.442,132.931,96.117Zm4.723-.092a2.828,2.828,0,0,0-1.1.212,11.4,11.4,0,0,1-3.242,1.492.927.927,0,0,0-.656,1.039,1.062,1.062,0,0,0,1,.809c.9-.07.912-.043,1.155.831a8.078,8.078,0,0,0,5.036,5.607,3.911,3.911,0,0,0,2.766.076,8.116,8.116,0,0,0,5.589-5.821c.2-.728.325-.812,1.075-.708a.914.914,0,0,0,.406-.042.941.941,0,0,0,.611-1.26,1.091,1.091,0,0,0-1.414-.513,8.112,8.112,0,0,1-3.963.766,11.437,11.437,0,0,1-5.664-1.982A2.5,2.5,0,0,0,137.654,96.026Zm11.77-3.76a7.66,7.66,0,0,0-4.126-6.573,8.309,8.309,0,0,0-8.928.434,7.638,7.638,0,0,0-3.408,6.14Zm-8.893,27.9v-8.108c-.637.89-1.209,1.691-1.783,2.491-.2.276-.37.593-.787.55s-.524-.376-.657-.693q-.872-2.07-1.752-4.136c-.052-.123-.12-.238-.189-.374-.732.338-1.448.629-2.128.99a4.633,4.633,0,0,0-2.656,3.587c-.2,1.849-.1,3.73-.135,5.6,0,.025.029.05.049.08h3.1V119.6c0-.649,0-1.3.006-1.948a.578.578,0,0,1,.6-.628.6.6,0,0,1,.641.635c.012.185.005.371.005.557,0,.644,0,1.287,0,1.945Zm6.476-10.286c-.087.194-.158.345-.224.5q-.885,2.089-1.768,4.179c-.143.34-.355.624-.758.524a1.075,1.075,0,0,1-.527-.406c-.616-.827-1.207-1.672-1.871-2.6v8.077h6.308V119.7c0-.68,0-1.361.005-2.041a.579.579,0,0,1,.6-.631.6.6,0,0,1,.644.632c.013.185.005.371.005.556,0,.644,0,1.288,0,1.942h2.51a1.34,1.34,0,0,0,.035-.2c0-1.5.04-3-.014-4.5a5.1,5.1,0,0,0-2.551-4.418C148.654,110.586,147.827,110.269,147.007,109.877Zm-5.826-16.314h-7.844c-.709,0-1.032.207-1.017.651s.324.625,1.007.625q7.867,0,15.734,0a2.134,2.134,0,0,0,.506-.04.576.576,0,0,0,.478-.644.6.6,0,0,0-.557-.582,2.663,2.663,0,0,0-.417-.009Zm1.1,16.919,1.934,2.7,1.613-3.82-1.673-.76A3.407,3.407,0,0,1,142.283,110.481Zm-2.177-.017a3.329,3.329,0,0,1-1.9-1.861l-1.663.764,1.618,3.814Zm1.146-14.358-.043.117c.555.212,1.1.453,1.667.63a7.226,7.226,0,0,0,5.547-.309,1.819,1.819,0,0,0,.367-.329l-.081-.109ZM139.3,107.16a1.943,1.943,0,0,0,.86,1.927,1.784,1.784,0,0,0,2.053.009,1.859,1.859,0,0,0,.868-1.821A5.179,5.179,0,0,1,139.3,107.16Z" transform="translate(-123.3 -82.575)" fill="#6d6d6d"/>
    <path id="Tracé_176" data-name="Tracé 176" d="M200.928,135.6c.433,0,.8-.011,1.17,0,.487.018.711.237.711.722,0,2.551.018,5.1-.01,7.653a2.515,2.515,0,0,1-5.021.033c-.04-2.566-.021-5.133-.016-7.7,0-.482.23-.688.724-.71.185-.008.371,0,.557,0h.6v-1.183c0-1.314.009-2.629-.01-3.942a.916.916,0,0,0-.231-.557c-.441-.477-.909-.928-1.377-1.377a.733.733,0,0,1-.189-.882q.595-1.483,1.185-2.967a.627.627,0,0,1,.08-.167c.485-.595,1.153-.261,1.739-.325a.668.668,0,0,1,.705.493q.586,1.486,1.184,2.967a.738.738,0,0,1-.189.883c-.464.454-.926.911-1.375,1.38a.729.729,0,0,0-.231.42C200.922,132.07,200.928,133.8,200.928,135.6Zm-1.91,1.3c0,2.367-.018,4.683.01,7a1.235,1.235,0,0,0,1.272,1.216,1.277,1.277,0,0,0,1.243-1.2,3.364,3.364,0,0,0,.014-.37q0-3.083,0-6.166c0-.151-.013-.3-.02-.475Zm1.3-7.9c.33-.335.654-.643.947-.978a.471.471,0,0,0,.077-.4c-.238-.652-.5-1.3-.772-1.936a.391.391,0,0,0-.291-.206.429.429,0,0,0-.279.226c-.127.246-.218.511-.321.769C199.1,127.9,199.1,127.9,200.315,128.993Z" transform="translate(-165.286 -107.506)" fill="#6d6d6d"/>
    <path id="Tracé_177" data-name="Tracé 177" d="M114.1,131.6a3.97,3.97,0,0,1,7.381-2.308,3.7,3.7,0,0,1-.62,4.593,2.816,2.816,0,0,0-.708,1.94c-.076.654-.132,1.31-.219,1.962a1.919,1.919,0,0,1-1.969,1.667,1.956,1.956,0,0,1-1.825-1.875,22.512,22.512,0,0,0-.335-2.691,2.159,2.159,0,0,0-.576-.966A3.813,3.813,0,0,1,114.1,131.6Zm4.643,4.05c.069-.024.113-.027.123-.046a.4.4,0,0,0,.059-.17,3.722,3.722,0,0,1,1.192-2.615,2.452,2.452,0,0,0-.254-3.526,2.744,2.744,0,0,0-3.774.135,2.47,2.47,0,0,0-.018,3.505,3.463,3.463,0,0,1,1.093,2.372,3.161,3.161,0,0,0,.076.388c.1-.079.14-.1.14-.117-.013-1.3.451-2.707-.863-3.7a1.171,1.171,0,0,1-.182-.21.632.632,0,1,1,.96-.819c.231.245.445.5.718.816.271-.286.505-.548.756-.8.354-.349.689-.379.975-.106s.267.637-.094,1.009c-.258.266-.536.514-.78.793a.76.76,0,0,0-.19.439c-.018.787-.011,1.576-.005,2.364A1.331,1.331,0,0,0,118.743,135.647Zm-1.308,1.288c.009.411-.163.858.261,1.107a.82.82,0,0,0,.711-.008c.409-.255.254-.694.232-1.1Z" transform="translate(-114.1 -109.45)" fill="#6d6d6d"/>
    <path id="Tracé_178" data-name="Tracé 178" d="M196.71,94.177a5.061,5.061,0,0,1,.937.013.978.978,0,0,1,.634.34.844.844,0,0,1-.086.713c-.562.85-1.171,1.668-1.764,2.5-.871,1.219-1.745,2.436-2.611,3.658-.227.32-.5.541-.894.354s-.432-.515-.29-.9c.443-1.2.877-2.406,1.312-3.61.045-.126.076-.258.129-.442-.448,0-.845.008-1.242,0-.649-.016-.935-.494-.591-1.034,1.334-2.1,2.685-4.184,4.029-6.276a.615.615,0,0,1,.8-.284.636.636,0,0,1,.374.8c-.227,1.214-.447,2.428-.668,3.643C196.751,93.8,196.739,93.949,196.71,94.177ZM196.5,95.46c-.167-.016-.241-.026-.315-.029-.773-.031-.957-.248-.834-1.008.076-.469.165-.937.249-1.4l-.074-.025-1.63,2.541c.413,0,.721-.013,1.028,0,.589.031.818.369.65.942-.028.1-.061.193-.091.289l.061.03Z" transform="translate(-161.827 -86.083)" fill="#6d6d6d"/>
    <path id="Tracé_179" data-name="Tracé 179" d="M121.587,92.754a2.219,2.219,0,0,1-.007-4.438,2.219,2.219,0,1,1,.007,4.438Zm0-1.278a.929.929,0,0,0,.953-.927.941.941,0,0,0-.933-.952.939.939,0,0,0-.02,1.879Z" transform="translate(-117.331 -85.572)" fill="#6d6d6d"/>
    <path id="Tracé_180" data-name="Tracé 180" d="M186.731,83.828c-.266.314-.448.565-.668.779a.627.627,0,0,1-.942.03.6.6,0,0,1,.043-.906c.218-.213.47-.393.778-.645-.327-.3-.564-.5-.772-.719a.631.631,0,1,1,.886-.893c.218.218.406.464.69.793.266-.316.447-.569.665-.783a.628.628,0,0,1,.942-.035.6.6,0,0,1-.039.907c-.217.215-.472.391-.789.649.335.305.576.5.783.719a.607.607,0,0,1,.02.94.615.615,0,0,1-.911-.051C187.2,84.4,187.01,84.15,186.731,83.828Z" transform="translate(-157.442 -81.247)" fill="#6d6d6d"/>
    <path id="Tracé_181" data-name="Tracé 181" d="M212.852,84.752a.705.705,0,1,1-.688-.724A.714.714,0,0,1,212.852,84.752Z" transform="translate(-173.662 -82.949)" fill="#6d6d6d"/>
    <path id="Tracé_182" data-name="Tracé 182" d="M151.846,124.7a.631.631,0,1,1,.632-.609A.647.647,0,0,1,151.846,124.7Z" transform="translate(-136.809 -107.066)" fill="#6d6d6d"/>
    <path id="Tracé_183" data-name="Tracé 183" d="M168.807,124.061a.631.631,0,1,1-.618-.619A.643.643,0,0,1,168.807,124.061Z" transform="translate(-146.803 -107.065)" fill="#6d6d6d"/>
    <path id="Tracé_184" data-name="Tracé 184" d="M156.957,94.26c-.225-.021-.451-.03-.674-.064a.608.608,0,0,1-.449-.995c.557-.741,1.146-1.458,1.738-2.171a.592.592,0,0,1,.869-.1.609.609,0,0,1,.092.9c-.264.359-.553.7-.885,1.118a4.449,4.449,0,0,1,.9.086.9.9,0,0,1,.552.4.781.781,0,0,1-.143.666c-.577.644-1.194,1.252-1.81,1.86a.6.6,0,0,1-.876.026.608.608,0,0,1-.009-.907c.242-.253.527-.464.793-.694Z" transform="translate(-139.55 -87.085)" fill="#6d6d6d"/>
    <path id="Tracé_185" data-name="Tracé 185" d="M167.3,169.6c-.509,0-1.019,0-1.528,0a.61.61,0,0,1-.673-.613c-.028-.361.265-.63.7-.633,1.019-.009,2.038,0,3.056,0a.623.623,0,1,1,.023,1.244C168.351,169.616,167.826,169.6,167.3,169.6Z" transform="translate(-145.305 -134.545)" fill="#6d6d6d"/>
  </g>
</svg>
