<svg xmlns="http://www.w3.org/2000/svg" width="25" height="25" viewBox="0 0 25 25">
  <g id="Groupe_294" data-name="Groupe 294" transform="translate(195.926 -374.074)">
    <path id="Tracé_159" data-name="Tracé 159" d="M-185.865,374.074c.382.062.765.116,1.145.189a9.558,9.558,0,0,1,7.4,7.552,9.4,9.4,0,0,1-7.064,10.708,8.97,8.97,0,0,1-5.586-.357.321.321,0,0,0-.341.046,4.721,4.721,0,0,1-5.09.309.72.72,0,0,1-.325-1.064,5.381,5.381,0,0,0,.5-4.558c-.251-.817-.423-1.658-.628-2.489-.034-.137-.05-.279-.074-.419V382.8c.08-.484.121-.979.247-1.45a9.285,9.285,0,0,1,7.123-7.046c.443-.113.9-.155,1.356-.23Zm-8.165,17.458a3.27,3.27,0,0,0,3.121-.7.929.929,0,0,1,1.125-.16,7.51,7.51,0,0,0,4.441.581,7.956,7.956,0,0,0,6.593-9.2,7.971,7.971,0,0,0-8.575-6.486,7.761,7.761,0,0,0-6.14,4.036,7.05,7.05,0,0,0-.921,4.746,22.151,22.151,0,0,0,.624,2.415,6.381,6.381,0,0,1,.213,2.9C-193.662,390.28-193.86,390.884-194.03,391.533Z" fill="#eb3897"/>
    <path id="Tracé_160" data-name="Tracé 160" d="M-159.6,413.322c-.239-.05-.481-.091-.717-.151a4.541,4.541,0,0,1-1.588-.738.361.361,0,0,0-.386-.053,9.368,9.368,0,0,1-9.468-1.578.72.72,0,0,1-.275-.824.68.68,0,0,1,.61-.495.8.8,0,0,1,.627.231,7.8,7.8,0,0,0,3.668,1.711,7.744,7.744,0,0,0,4.656-.542.966.966,0,0,1,1.167.169,3.245,3.245,0,0,0,3.006.706,1.167,1.167,0,0,0,.118-.039c-.148-.48-.321-.941-.429-1.415a6.221,6.221,0,0,1,.252-3.629,7.911,7.911,0,0,0-1.189-8.077.744.744,0,0,1,.059-1.082.729.729,0,0,1,1.068.169,9.325,9.325,0,0,1,2.069,5.108c.007.077.028.153.042.229v1.24a1.372,1.372,0,0,0-.038.181,9.666,9.666,0,0,1-.66,2.764,4.647,4.647,0,0,0-.272,2.222,5.5,5.5,0,0,0,.757,2.209.727.727,0,0,1-.305,1.086,4.011,4.011,0,0,1-.694.308c-.385.116-.781.195-1.173.289Z" transform="translate(-14.613 -14.248)" fill="#eb3897"/>
    <path id="Tracé_161" data-name="Tracé 161" d="M-183.745,399.129a1.134,1.134,0,0,1-1.143-1.148,1.15,1.15,0,0,1,1.157-1.142,1.153,1.153,0,0,1,1.133,1.143A1.137,1.137,0,0,1-183.745,399.129Z" transform="translate(-6.928 -14.288)" fill="#eb3897"/>
    <path id="Tracé_162" data-name="Tracé 162" d="M-172.093,399.13a1.133,1.133,0,0,1-1.136-1.155,1.147,1.147,0,0,1,1.138-1.136,1.16,1.16,0,0,1,1.154,1.149A1.147,1.147,0,0,1-172.093,399.13Z" transform="translate(-14.246 -14.288)" fill="#eb3897"/>
    <path id="Tracé_163" data-name="Tracé 163" d="M-159.3,397.982a1.13,1.13,0,0,1-1.143,1.147,1.147,1.147,0,0,1-1.148-1.148,1.16,1.16,0,0,1,1.138-1.142A1.146,1.146,0,0,1-159.3,397.982Z" transform="translate(-21.548 -14.288)" fill="#eb3897"/>
  </g>
</svg>
