<svg xmlns="http://www.w3.org/2000/svg" width="19.244" height="22.107" viewBox="0 0 19.244 22.107">
  <g id="Groupe_359" data-name="Groupe 359" transform="translate(-570.207 -402.633)">
    <path id="Tracé_151" data-name="Tracé 151" d="M586.223,402.633c.16.036.32.068.479.109a3.616,3.616,0,0,1-.361,7.088,3.535,3.535,0,0,1-3-.952c-.063-.059-.124-.119-.2-.189l-5.946,3.683a3.675,3.675,0,0,1,0,2.626l5.941,3.681c.121-.109.239-.223.364-.327a3.62,3.62,0,1,1-1.124,1.7.274.274,0,0,0-.146-.387q-2.783-1.709-5.555-3.439a.214.214,0,0,0-.322.039,3.611,3.611,0,0,1-6.137-2.82,3.621,3.621,0,0,1,6.1-2.375c.054.048.1.1.156.149a.16.16,0,0,0,.031.016,1.365,1.365,0,0,0,.124-.062q2.833-1.754,5.665-3.506a.193.193,0,0,0,.1-.273,3.607,3.607,0,0,1,2.947-4.724.619.619,0,0,0,.1-.035Zm-.39,20.779a2.3,2.3,0,1,0-2.3-2.277A2.293,2.293,0,0,0,585.833,423.412Zm-2.3-17.159a2.3,2.3,0,1,0,2.282-2.3A2.3,2.3,0,0,0,583.533,406.253Zm-12,7.424a2.3,2.3,0,1,0,2.313-2.285A2.29,2.29,0,0,0,571.53,413.677Z" transform="translate(0 0)"/>
  </g>
</svg>
