<svg xmlns="http://www.w3.org/2000/svg" width="25.091" height="22.443" viewBox="0 0 25.091 22.443">
  <g id="Groupe_986" data-name="Groupe 986" transform="translate(-725.619 -929.969)">
    <path id="Tracé_1026" data-name="Tracé 1026" d="M725.619,1018.074a2.087,2.087,0,0,1,.682-1.207,1.851,1.851,0,0,1,2.892.729c.064.163.138.229.315.22.3-.015.6-.01.906,0a.489.489,0,0,1,.543.475.5.5,0,0,1-.526.5c-.326.015-.654-.005-.979.012a.311.311,0,0,0-.227.148,1.874,1.874,0,0,1-1.813,1.205,1.845,1.845,0,0,1-1.756-1.5.484.484,0,0,0-.04-.086Zm1.876-.65a.877.877,0,0,0-.895.872.881.881,0,0,0,1.762,0A.877.877,0,0,0,727.5,1017.425Z" transform="translate(0 -74.679)"/>
    <path id="Tracé_1027" data-name="Tracé 1027" d="M875.753,1018.632a2.15,2.15,0,0,1-.7,1.2,1.848,1.848,0,0,1-2.871-.749.277.277,0,0,0-.32-.209c-.285.012-.572.007-.857,0-.36-.005-.584-.194-.587-.488s.216-.487.578-.491c.31,0,.621.008.931-.007a.289.289,0,0,0,.213-.132,1.861,1.861,0,0,1,3.588.321.276.276,0,0,0,.031.067Zm-2.743-.266a.88.88,0,1,0,1.761.026.88.88,0,0,0-1.761-.026Z" transform="translate(-125.043 -74.747)"/>
    <path id="Tracé_1028" data-name="Tracé 1028" d="M769.841,987.334c-.194-.283-.393-.54-.554-.819a3.335,3.335,0,0,1-.42-1.691c0-.833-.005-1.666,0-2.5a2.729,2.729,0,0,1,2.8-2.8q1.7,0,3.4,0c.46,0,.639.178.64.637q0,2.327,0,4.654a3.444,3.444,0,0,1-.892,2.372.933.933,0,0,0-.063.075.282.282,0,0,0-.021.062c.264.044.528.075.786.134a4.948,4.948,0,0,1,3.909,4.718c.028.807.01,1.616.008,2.424,0,.431-.189.605-.645.605H765.817c-.515,0-.682-.161-.677-.672.009-.93-.036-1.866.052-2.789a4.928,4.928,0,0,1,4.437-4.383C769.7,987.358,769.768,987.345,769.841,987.334Zm-3.711,6.876h12.328c0-.7.019-1.373,0-2.049a3.992,3.992,0,0,0-3.307-3.782.336.336,0,0,0-.342.107q-1.016,1.029-2.043,2.046c-.363.362-.585.361-.953-.007-.682-.681-1.36-1.366-2.049-2.039a.419.419,0,0,0-.312-.1,3.789,3.789,0,0,0-2.125,1.076,3.917,3.917,0,0,0-1.17,2.37h3.834a.545.545,0,0,1,.58.319c.138.346-.117.659-.54.66-1.209,0-2.418,0-3.626,0h-.272Zm8.614-10.592a2.886,2.886,0,0,1-1.82.378c-.93,0-1.86,0-2.79,0h-.259a3.366,3.366,0,0,0,.321,2.138,2.41,2.41,0,0,0,2.4,1.176,2.363,2.363,0,0,0,1.991-1.63A7.124,7.124,0,0,0,774.745,983.618Zm-.014-3.112h-.291c-.89,0-1.779.013-2.669,0-1.382-.024-2.14,1.025-1.886,2.5,1.263,0,2.528.017,3.792-.008a1.141,1.141,0,0,0,1.049-1.134C774.751,981.425,774.731,980.984,774.731,980.506Zm-3.639,7.822,1.192,1.192,1.189-1.192Z" transform="translate(-34.127 -42.796)"/>
    <path id="Tracé_1029" data-name="Tracé 1029" d="M862.021,956.8a1.865,1.865,0,1,1,1.865.9,1.738,1.738,0,0,1-1.024-.152.2.2,0,0,0-.272.05c-.219.231-.444.456-.675.676a.493.493,0,0,1-.739.045.5.5,0,0,1,.05-.739C861.484,957.311,861.751,957.06,862.021,956.8Zm1.622-1.817a.88.88,0,0,0-.886.883.88.88,0,1,0,1.76-.012A.879.879,0,0,0,863.643,954.979Z" transform="translate(-116.944 -20.75)"/>
    <path id="Tracé_1030" data-name="Tracé 1030" d="M805.385,934.281a.467.467,0,0,1,0-.073.653.653,0,0,0-.439-.793,1.766,1.766,0,0,1-.844-2.112,1.853,1.853,0,0,1,3.61.245,1.837,1.837,0,0,1-1.123,1.992.289.289,0,0,0-.228.332c.017.3.009.6,0,.905a.492.492,0,0,1-.464.53.5.5,0,0,1-.511-.511c-.01-.171,0-.343,0-.514Zm1.37-2.457a.88.88,0,0,0-.871-.875.88.88,0,1,0-.013,1.76A.88.88,0,0,0,806.755,931.824Z" transform="translate(-67.707 0)"/>
    <path id="Tracé_1031" data-name="Tracé 1031" d="M744.089,957.125a1.829,1.829,0,0,1-1.886-.024,1.8,1.8,0,0,1-.888-1.87,1.832,1.832,0,0,1,1.286-1.489,1.855,1.855,0,0,1,2.24,2.525.237.237,0,0,0,.067.314c.219.208.432.422.642.639a.506.506,0,0,1,.049.757.5.5,0,0,1-.738-.066C744.6,957.654,744.346,957.389,744.089,957.125Zm-.066-1.622a.873.873,0,0,0-.87-.871.88.88,0,1,0,.87.871Z" transform="translate(-13.542 -20.451)"/>
    <path id="Tracé_1032" data-name="Tracé 1032" d="M856.774,1027.067a.486.486,0,0,1,.972.012.486.486,0,1,1-.972-.012Z" transform="translate(-113.264 -83.441)"/>
    <path id="Tracé_1033" data-name="Tracé 1033" d="M814.5,1070.779a.494.494,0,0,1-.479-.488.486.486,0,1,1,.972.014A.494.494,0,0,1,814.5,1070.779Z" transform="translate(-76.346 -120.766)"/>
  </g>
</svg>
