<svg xmlns="http://www.w3.org/2000/svg" width="23.896" height="23.889" viewBox="0 0 23.896 23.889">
  <g id="Groupe_469" data-name="Groupe 469" transform="translate(175.305 -10.578)">
    <path id="Tracé_481" data-name="Tracé 481" d="M-170.892,33.012a2.228,2.228,0,0,1-1.513-.592,2.2,2.2,0,0,1-.477-2.624.35.35,0,0,0,.021-.046.575.575,0,0,1-.035-.048,11.85,11.85,0,0,1-2.369-6.276.619.619,0,0,0-.017-.089l-.022-.1V21.8c.027-.209.049-.374.071-.538.047-.356.094-.712.16-1.064a11.933,11.933,0,0,1,9.637-9.433c.3-.049.594-.087.892-.125l.417-.055,1.5,0,.481.062.862.119c.091.012.18.031.27.05a.78.78,0,0,1,.642.913.777.777,0,0,1-.8.615,1.1,1.1,0,0,1-.113-.006c-.207-.022-.415-.049-.623-.076a10.611,10.611,0,0,0-1.369-.121l-.151,0a9.968,9.968,0,0,0-9.154,5.671,10.013,10.013,0,0,0,.874,10.9l.114-.025a3.6,3.6,0,0,1,.716-.11h0a2.2,2.2,0,0,1,2.136,1.632,2.241,2.241,0,0,1-.982,2.48A2.206,2.206,0,0,1-170.892,33.012Zm0-2.9a.682.682,0,0,0-.681.67.677.677,0,0,0,.2.486.675.675,0,0,0,.481.2.683.683,0,0,0,.679-.681.68.68,0,0,0-.675-.679l0-.318Z" transform="translate(0 0)"/>
    <path id="Tracé_482" data-name="Tracé 482" d="M-162.385,11.145q.65.089,1.3.179c.083.011.164.028.245.046a.461.461,0,0,1,.4.537.48.48,0,0,1-.57.356,16.092,16.092,0,0,0-2.187-.2,10.3,10.3,0,0,0-9.428,5.844,10.341,10.341,0,0,0,.912,11.248c.043.062.091.12.112.147a6.405,6.405,0,0,1,.971-.169,1.872,1.872,0,0,1,1.824,1.4,1.912,1.912,0,0,1-.842,2.126,1.9,1.9,0,0,1-2.291-.226,1.879,1.879,0,0,1-.41-2.243.342.342,0,0,0-.042-.432,11.487,11.487,0,0,1-2.307-6.109,1.686,1.686,0,0,0-.038-.2V22.044c.074-.514.13-1.033.225-1.544a11.626,11.626,0,0,1,9.375-9.177c.431-.071.866-.12,1.3-.179Zm-7.266,19.89a1,1,0,0,0-.991-1,1,1,0,0,0-1.006.986,1.006,1.006,0,0,0,1,1.011A1,1,0,0,0-169.651,31.035Z" transform="translate(-0.248 -0.248)"/>
    <path id="Tracé_483" data-name="Tracé 483" d="M-162.138,33.721a.76.76,0,0,1-.793-.8c0-.206-.006-.413,0-.619-.371-.139-.728-.281-1.1-.43l-.257-.1c-.118.126-.246.262-.379.394a.84.84,0,0,1-.593.274.833.833,0,0,1-.589-.273q-.96-.953-1.911-1.913a.772.772,0,0,1,0-1.2c.129-.129.262-.253.382-.364l-.075-.195c-.157-.406-.3-.79-.458-1.17-.062,0-.329,0-.329,0h-.278a.763.763,0,0,1-.806-.812q0-1.375,0-2.75a.762.762,0,0,1,.8-.815h.417c.065,0,.13,0,.2,0,.152-.377.3-.76.456-1.168l.078-.2c-.118-.108-.251-.23-.379-.357a.779.779,0,0,1,0-1.2q.945-.95,1.9-1.9a.859.859,0,0,1,.6-.288.864.864,0,0,1,.609.29l.152.153c.08.082.16.164.244.239.416-.17.87-.359,1.322-.555.005-.11,0-.221,0-.332s0-.2,0-.293a.757.757,0,0,1,.785-.781q.69,0,1.379,0,.708,0,1.418,0a.758.758,0,0,1,.792.8c0,.094,0,.187,0,.281,0,.11,0,.219,0,.329.383.153.77.3,1.182.46l.186.071c.1-.114.222-.241.344-.364a.859.859,0,0,1,.616-.3.852.852,0,0,1,.6.284q.952.944,1.9,1.895a.789.789,0,0,1-.007,1.215l-.364.367.07.182c.154.4.3.785.456,1.167.065,0,.325,0,.325,0h.305a.757.757,0,0,1,.781.784q.008,1.4,0,2.8a.76.76,0,0,1-.8.795h-.424c-.063,0-.126,0-.188,0-.154.378-.3.76-.46,1.166l-.076.2c.113.1.239.223.362.344a.877.877,0,0,1,.305.62.89.89,0,0,1-.308.63q-.922.925-1.847,1.847a.893.893,0,0,1-.627.308.884.884,0,0,1-.62-.3l-.365-.36-.19.074c-.4.154-.778.3-1.155.457-.005.111,0,.222,0,.333s0,.2,0,.3a.758.758,0,0,1-.786.781q-.7,0-1.4,0T-162.138,33.721Zm2.037-1.561c0-.121,0-.24,0-.359a.782.782,0,0,1,.67-.854,6.255,6.255,0,0,0,1.864-.774.9.9,0,0,1,.481-.158.816.816,0,0,1,.585.28c.081.082.159.166.232.25l.929-.931c-.086-.082-.173-.166-.259-.252a.775.775,0,0,1-.12-1.028,6.306,6.306,0,0,0,.791-1.9.769.769,0,0,1,.823-.65l.388,0V24.493s-.3,0-.4,0a.776.776,0,0,1-.814-.657,6.3,6.3,0,0,0-.782-1.884.769.769,0,0,1,.118-1.047c.087-.087.177-.17.268-.252l-.935-.929c-.071.078-.145.157-.221.233a.867.867,0,0,1-.607.3.917.917,0,0,1-.495-.166,6.148,6.148,0,0,0-1.842-.764.789.789,0,0,1-.675-.849c0-.12,0-.24,0-.36h-1.285q0,.176,0,.35a.8.8,0,0,1-.687.865,6.237,6.237,0,0,0-1.843.766.9.9,0,0,1-.483.159.841.841,0,0,1-.6-.3c-.08-.083-.156-.169-.231-.256l-.925.933.229.23a.8.8,0,0,1,.133,1.118,6.073,6.073,0,0,0-.749,1.8.8.8,0,0,1-.895.709h-.328v1.286h.377a.774.774,0,0,1,.833.665,6.3,6.3,0,0,0,.774,1.865.784.784,0,0,1-.137,1.083c-.078.076-.158.149-.237.219l.932.933c.082-.088.166-.177.253-.263a.812.812,0,0,1,.575-.266.846.846,0,0,1,.451.142,6.268,6.268,0,0,0,1.882.785.788.788,0,0,1,.676.853c0,.121,0,.243,0,.365Z" transform="translate(-2.617 -2.616)"/>
    <path id="Tracé_484" data-name="Tracé 484" d="M-164.129,31.644c-.153.16-.331.356-.519.542a.46.46,0,0,1-.733,0q-.958-.951-1.91-1.91a.463.463,0,0,1,0-.748c.187-.187.383-.364.532-.5-.229-.59-.432-1.125-.648-1.655a.242.242,0,0,0-.18-.111c-.226-.013-.454,0-.681-.006a.45.45,0,0,1-.494-.494q0-1.374,0-2.747a.446.446,0,0,1,.489-.5c.227-.005.454.007.681-.007a.244.244,0,0,0,.184-.108c.215-.53.418-1.065.649-1.665-.144-.134-.342-.309-.53-.495a.464.464,0,0,1,0-.748q.945-.95,1.894-1.895a.472.472,0,0,1,.766,0c.151.148.293.308.454.444a.263.263,0,0,0,.223.034q.726-.286,1.442-.6a.262.262,0,0,0,.136-.183c.017-.233,0-.469.009-.7a.438.438,0,0,1,.469-.471q1.4-.008,2.792,0a.444.444,0,0,1,.476.488c.005.227-.007.454.006.681a.246.246,0,0,0,.11.183c.53.215,1.065.417,1.661.647.132-.142.3-.334.483-.516a.468.468,0,0,1,.765-.012q.95.944,1.9,1.893a.474.474,0,0,1-.008.767c-.17.173-.342.344-.512.516-.01.01-.013.027,0-.007.22.568.422,1.1.638,1.632a.243.243,0,0,0,.18.113c.234.013.469,0,.7.007a.438.438,0,0,1,.472.467q.007,1.4,0,2.793a.446.446,0,0,1-.487.477c-.234.006-.47-.007-.7.008a.241.241,0,0,0-.169.125c-.214.523-.416,1.051-.645,1.637.141.132.332.3.514.485a.481.481,0,0,1,0,.8q-.921.925-1.846,1.846a.484.484,0,0,1-.8.007c-.173-.17-.344-.341-.517-.51-.011-.01-.027-.014.009,0-.561.219-1.089.421-1.611.636a.261.261,0,0,0-.13.188c-.016.233,0,.469-.008.7a.439.439,0,0,1-.468.471q-1.4.008-2.792,0a.445.445,0,0,1-.476-.488c0-.227-.006-.454,0-.681,0-.116-.034-.166-.15-.209C-163.036,32.08-163.553,31.87-164.129,31.644Zm-2.221-10.769a.245.245,0,0,0,.028.042c.138.14.278.278.415.419a.491.491,0,0,1,.09.725,6.363,6.363,0,0,0-.788,1.9c-.087.36-.22.462-.588.465-.215,0-.431,0-.644,0v1.925c.241,0,.466,0,.692,0a.467.467,0,0,1,.527.421,6.586,6.586,0,0,0,.812,1.959.469.469,0,0,1-.089.687c-.161.157-.336.3-.481.431l1.408,1.408c.146-.156.3-.331.468-.5a.453.453,0,0,1,.634-.08,6.529,6.529,0,0,0,1.977.824.477.477,0,0,1,.431.546c0,.225,0,.45,0,.68h1.924c0-.236,0-.455,0-.674a.474.474,0,0,1,.426-.548,6.54,6.54,0,0,0,1.959-.814.463.463,0,0,1,.671.076c.164.165.312.345.444.491l1.4-1.4c-.151-.144-.324-.3-.488-.469a.457.457,0,0,1-.078-.634,6.6,6.6,0,0,0,.831-2,.46.46,0,0,1,.517-.4c.232,0,.464,0,.7,0V24.422c-.243,0-.476,0-.708,0a.464.464,0,0,1-.513-.413,6.6,6.6,0,0,0-.822-1.979.46.46,0,0,1,.073-.653c.165-.165.343-.318.505-.466l-1.41-1.4c-.137.149-.281.314-.435.469a.478.478,0,0,1-.706.088,6.425,6.425,0,0,0-1.938-.8.477.477,0,0,1-.43-.544c0-.224,0-.448,0-.675h-1.924c0,.23,0,.448,0,.665a.485.485,0,0,1-.443.559,6.525,6.525,0,0,0-1.937.806.468.468,0,0,1-.686-.089c-.156-.161-.3-.337-.442-.5Z" transform="translate(-2.865 -2.864)"/>
    <path id="Tracé_485" data-name="Tracé 485" d="M-156.365,35.6a12.445,12.445,0,0,1-2.171-.193c-.067-.012-.134-.026-.2-.043a.767.767,0,0,1-.586-.921.769.769,0,0,1,.78-.6.935.935,0,0,1,.1.005c.223.022.445.051.668.08a10.6,10.6,0,0,0,1.349.117q.086,0,.172,0a9.973,9.973,0,0,0,9.242-5.919,9.994,9.994,0,0,0-1.01-10.665,3.078,3.078,0,0,1-.87.134,2.062,2.062,0,0,1-1.843-1.048,2.227,2.227,0,0,1,.414-2.8,2.223,2.223,0,0,1,1.491-.575,2.2,2.2,0,0,1,1.317.433,2.211,2.211,0,0,1,.647,2.819,12.415,12.415,0,0,1,1.336,2.221,11.857,11.857,0,0,1-.149,10.337,11.857,11.857,0,0,1-8.155,6.353A12.069,12.069,0,0,1-156.365,35.6Zm7.526-20.888a.68.68,0,0,0-.672.681.679.679,0,0,0,.675.677.683.683,0,0,0,.684-.672.673.673,0,0,0-.2-.483.676.676,0,0,0-.483-.2v-.319Z" transform="translate(-6.989 -1.133)"/>
    <path id="Tracé_486" data-name="Tracé 486" d="M-147.675,17.336a1.946,1.946,0,0,1-2.542-.71,1.9,1.9,0,0,1,.355-2.4,1.9,1.9,0,0,1,2.405-.122,1.947,1.947,0,0,1,.469,2.606,12.1,12.1,0,0,1,1.414,2.312,11.632,11.632,0,0,1-8.083,16.244,11.781,11.781,0,0,1-4.576.074c-.06-.011-.119-.023-.178-.038a.448.448,0,0,1-.352-.546.461.461,0,0,1,.532-.345,16.664,16.664,0,0,0,2.232.2,10.313,10.313,0,0,0,9.518-6.1,10.328,10.328,0,0,0-1.048-11c-.035-.049-.073-.1-.11-.144A.147.147,0,0,0-147.675,17.336Zm-.915-.7a1,1,0,0,0,1-.987,1,1,0,0,0-1.006-1.009,1,1,0,0,0-.989,1A1,1,0,0,0-148.59,16.638Z" transform="translate(-7.237 -1.382)"/>
    <path id="Tracé_487" data-name="Tracé 487" d="M-147.221,13.567a.79.79,0,0,1-.772-.753.771.771,0,0,1,.737-.787h0a.772.772,0,0,1,.8.75.781.781,0,0,1-.223.558A.759.759,0,0,1-147.221,13.567Z" transform="translate(-11.957 -0.634)"/>
    <path id="Tracé_488" data-name="Tracé 488" d="M-146.522,13.031a.457.457,0,0,1-.451.465.466.466,0,0,1-.453-.444.454.454,0,0,1,.432-.46A.447.447,0,0,1-146.522,13.031Z" transform="translate(-12.205 -0.882)"/>
    <path id="Tracé_489" data-name="Tracé 489" d="M-162.061,50.437a.765.765,0,0,1-.772-.749.773.773,0,0,1,.221-.554.775.775,0,0,1,.55-.236.775.775,0,0,1,.766.775.759.759,0,0,1-.76.764Z" transform="translate(-5.46 -16.777)"/>
    <path id="Tracé_490" data-name="Tracé 490" d="M-161.366,49.92a.44.44,0,0,1-.444.446.45.45,0,0,1-.457-.439.462.462,0,0,1,.46-.463A.451.451,0,0,1-161.366,49.92Z" transform="translate(-5.708 -17.025)"/>
    <path id="Tracé_491" data-name="Tracé 491" d="M-157.291,32.726a4.074,4.074,0,0,1-4.01-3.942,3.917,3.917,0,0,1,1.079-2.891,4.18,4.18,0,0,1,2.859-1.312c.063,0,.126,0,.189,0a4.082,4.082,0,0,1,4.014,3.941,3.906,3.906,0,0,1-1.024,2.831,4.174,4.174,0,0,1-2.913,1.372C-157.162,32.724-157.226,32.726-157.291,32.726Zm.057-6.6a2.534,2.534,0,0,0-2.525,2.52,2.531,2.531,0,0,0,2.521,2.534,2.535,2.535,0,0,0,2.534-2.521,2.5,2.5,0,0,0-.738-1.782,2.515,2.515,0,0,0-1.783-.751l-.01-.319Z" transform="translate(-6.129 -6.129)"/>
    <path id="Tracé_492" data-name="Tracé 492" d="M-153.231,28.783a3.763,3.763,0,0,1-3.634,3.869,3.764,3.764,0,0,1-3.869-3.635,3.763,3.763,0,0,1,3.635-3.868A3.763,3.763,0,0,1-153.231,28.783Zm-.9.125a2.861,2.861,0,0,0-2.839-2.854,2.86,2.86,0,0,0-2.855,2.837,2.862,2.862,0,0,0,2.839,2.854A2.862,2.862,0,0,0-154.136,28.908Z" transform="translate(-6.377 -6.377)"/>
  </g>
</svg>
