<svg xmlns="http://www.w3.org/2000/svg" width="22.565" height="22.565" viewBox="0 0 22.565 22.565">
  <g id="Groupe_734" data-name="Groupe 734" transform="translate(-662.865 -796.833)">
    <path id="Tracé_544" data-name="Tracé 544" d="M663.015,838.948a1.17,1.17,0,0,1,.825-.84,2.45,2.45,0,0,1,.581-.045.454.454,0,0,0,.5-.33,1.436,1.436,0,0,1,.083-.2.407.407,0,0,0-.107-.527,3.316,3.316,0,0,1-.271-.282,1.1,1.1,0,0,1,.031-1.516c.347-.37.7-.73,1.075-1.077a1.1,1.1,0,0,1,1.532-.009c.033.029.064.059.095.089.4.388.438.393.943.168a.447.447,0,0,0,.284-.443,2.887,2.887,0,0,1,.051-.645,1.017,1.017,0,0,1,.939-.776c.578-.022,1.159-.024,1.737,0a1.053,1.053,0,0,1,.966.955c.015.166.018.333.02.5a.4.4,0,0,0,.27.4c.087.035.175.07.26.108a.422.422,0,0,0,.53-.108,2.958,2.958,0,0,1,.367-.338,1.051,1.051,0,0,1,1.344.037c.423.384.829.79,1.214,1.212a1.063,1.063,0,0,1,.017,1.379c-.1.13-.241.233-.337.367a.5.5,0,0,0-.122.326,1.458,1.458,0,0,0,.228.554c.064.089.234.12.362.142.212.036.437.015.643.069a1.01,1.01,0,0,1,.77.942c.022.578.024,1.159,0,1.737a1.07,1.07,0,0,1-1,.969c-.065,0-.13,0-.2,0-.536,0-.551.017-.762.521a.44.44,0,0,0,.108.549c.08.074.157.151.23.231a1.1,1.1,0,0,1,.011,1.549q-.525.565-1.092,1.09a1.09,1.09,0,0,1-1.5.023c-.061-.051-.118-.107-.175-.163-.338-.335-.344-.327-.794-.154a.485.485,0,0,0-.37.536,1.218,1.218,0,0,1-.888,1.385h-1.957c-.057-.027-.113-.054-.17-.08a1.092,1.092,0,0,1-.7-1.01,1.993,1.993,0,0,0-.009-.389.609.609,0,0,0-.184-.341c-.47-.321-.628-.3-1.029.1l-.046.046a1.118,1.118,0,0,1-1.631,0c-.341-.324-.672-.659-1-1a1.063,1.063,0,0,1-.258-1.235,4.544,4.544,0,0,1,.453-.6c.078-.117.186-.289.151-.394-.215-.655-.227-.685-.818-.669-.036,0-.073,0-.109,0a1.1,1.1,0,0,1-1.01-.7c-.026-.057-.053-.113-.08-.17Zm12.8,4.916a1.962,1.962,0,0,0-.149-.279,1.7,1.7,0,0,0-.243-.249c-.766-.661-.1-2.086.567-2.248a2,2,0,0,1,.32-.05c.115-.009.232,0,.348,0,.314-.009.451-.144.453-.453,0-.363,0-.725,0-1.087,0-.632-.045-.677-.675-.681a1.459,1.459,0,0,1-1.352-1.672,1.31,1.31,0,0,1,.388-.687c.429-.428.426-.514-.007-.948l-.677-.676c-.342-.342-.485-.343-.826,0a1.162,1.162,0,0,1-1.525.3c-.073-.031-.147-.06-.219-.094a1.112,1.112,0,0,1-.672-1.009c-.007-.116,0-.232,0-.348-.005-.294-.134-.43-.422-.432q-.685-.006-1.37,0a.383.383,0,0,0-.428.411c-.008.13,0,.261,0,.391a1.038,1.038,0,0,1-.533.913,3.148,3.148,0,0,1-.657.279,1.053,1.053,0,0,1-1.047-.253c-.087-.076-.166-.162-.249-.243a.4.4,0,0,0-.672.005c-.253.249-.495.51-.755.752-.413.383-.432.563-.005.949a1.085,1.085,0,0,1,.383,1.032,2.937,2.937,0,0,1-.243.67,1.088,1.088,0,0,1-.974.655c-.122.01-.246,0-.369,0-.288.005-.435.135-.441.42q-.013.685,0,1.37a.4.4,0,0,0,.438.43c.123.005.247,0,.37,0a1.037,1.037,0,0,1,.937.568c.379.722.506,1.258-.238,1.918l-.015.015a.389.389,0,0,0,.007.639c.259.264.531.515.782.786.373.4.56.4.919,0a1.036,1.036,0,0,1,1.025-.393,3.238,3.238,0,0,1,.959.425.917.917,0,0,1,.38.814c0,.094,0,.188,0,.283,0,.364.138.5.5.5.333,0,.667-.006,1,0,.561.013.768-.021.725-.706a.81.81,0,0,1,0-.13,1.081,1.081,0,0,1,.577-.914c.722-.373,1.249-.506,1.919.242l.015.016a.384.384,0,0,0,.623,0c.322-.313.64-.631.951-.955A1.625,1.625,0,0,0,675.813,843.864Z" transform="translate(0 -28.093)" stroke="#000" stroke-width="0.3"/>
    <path id="Tracé_545" data-name="Tracé 545" d="M700.573,808.333a2.984,2.984,0,0,1-.208.425,1.126,1.126,0,0,1-.972.479c-.341,0-.681.009-1.022,0a.419.419,0,0,0-.447.3c-.116.3-.233.592-.365.881a.433.433,0,0,0,.107.547c.234.227.463.459.692.692a1.117,1.117,0,0,1,.011,1.707q-.724.736-1.461,1.46a1.116,1.116,0,0,1-1.692,0q-.574-.564-1.138-1.137a.371.371,0,0,1-.079-.475.331.331,0,0,1,.408-.167.7.7,0,0,1,.264.179c.353.344.7.7,1.048,1.042.254.252.436.253.686,0q.709-.705,1.414-1.414c.251-.252.248-.427-.007-.686-.239-.242-.484-.479-.72-.724a1.1,1.1,0,0,1-.239-1.278c.125-.3.254-.6.375-.9a1.132,1.132,0,0,1,1.132-.784c.341-.007.681,0,1.022,0,.306,0,.446-.132.449-.431q.009-1.043,0-2.087c0-.3-.143-.43-.45-.436-.333-.007-.667,0-1,0a1.12,1.12,0,0,1-1.167-.819c-.113-.289-.239-.573-.36-.86a1.087,1.087,0,0,1,.224-1.261c.239-.252.491-.493.735-.74s.258-.431.006-.685q-.713-.717-1.43-1.429c-.236-.234-.412-.233-.653,0s-.471.472-.709.705a1.108,1.108,0,0,1-1.348.253c-.292-.125-.587-.244-.882-.362a1.105,1.105,0,0,1-.758-1.08c-.006-.341,0-.681,0-1.022,0-.365-.135-.5-.5-.5q-.978,0-1.957,0c-.37,0-.494.126-.5.492-.006.4.006.8-.026,1.194a1.015,1.015,0,0,1-.658.874c-.344.151-.691.294-1.04.433a1.075,1.075,0,0,1-1.221-.237c-.257-.245-.5-.5-.756-.75s-.423-.241-.67,0q-.717.713-1.429,1.43a.4.4,0,0,0,0,.655c.341.346.686.687,1.028,1.032a1.519,1.519,0,0,1,.144.162.346.346,0,0,1-.03.474.352.352,0,0,1-.473.04,4.135,4.135,0,0,1-.363-.342c-.288-.286-.577-.57-.86-.861a1.112,1.112,0,0,1,0-1.661q.735-.755,1.491-1.491a1.112,1.112,0,0,1,1.677.011c.238.233.475.468.707.707a.433.433,0,0,0,.547.107c.289-.132.584-.25.88-.365a.418.418,0,0,0,.3-.447c-.01-.333-.005-.667,0-1a1.131,1.131,0,0,1,.85-1.167.259.259,0,0,0,.054-.035h2.7c.014.014.027.034.044.041a1.127,1.127,0,0,1,.823,1.185c0,.326.008.652,0,.977a.422.422,0,0,0,.3.445c.3.117.591.234.88.366a.431.431,0,0,0,.546-.107c.226-.235.459-.463.691-.692a1.119,1.119,0,0,1,1.707-.012q.736.723,1.46,1.458a1.118,1.118,0,0,1,0,1.691q-.357.365-.722.722a.414.414,0,0,0-.1.511c.133.3.258.612.381.92a.412.412,0,0,0,.436.283c.354-.008.71-.005,1.064,0a1.112,1.112,0,0,1,.956.507,3.19,3.19,0,0,1,.183.358Z" transform="translate(-15.293 0)" stroke="#000" stroke-width="0.3"/>
    <path id="Tracé_546" data-name="Tracé 546" d="M713.12,826.75a4.749,4.749,0,0,1-1.356,3.26.389.389,0,0,1-.573.07.373.373,0,0,1,.027-.575,4.218,4.218,0,0,0,1.126-2.231,4.077,4.077,0,0,0-6.845-3.581c-.021.02-.042.041-.064.059a.379.379,0,0,1-.56-.01.358.358,0,0,1,.06-.537,7.571,7.571,0,0,1,1.179-.839,4.816,4.816,0,0,1,7.006,4.384Z" transform="translate(-33.037 -19.654)" stroke="#000" stroke-width="0.3"/>
    <path id="Tracé_547" data-name="Tracé 547" d="M685.871,858.717a3.337,3.337,0,1,1,3.369-3.326A3.243,3.243,0,0,1,685.871,858.717Zm.042-5.925a2.591,2.591,0,1,0,2.574,2.65A2.59,2.59,0,0,0,685.913,852.792Z" transform="translate(-15.465 -43.553)" stroke="#000" stroke-width="0.3"/>
  </g>
</svg>
