<svg xmlns="http://www.w3.org/2000/svg" width="13.429" height="15.002" viewBox="0 0 13.429 15.002">
  <g id="Groupe_617" data-name="Groupe 617" transform="translate(89.13 -611.381)">
    <path id="Tracé_516" data-name="Tracé 516" d="M-82.324,611.381l1.68,1.151c.227.156.229.247,0,.4-.524.359-1.047.719-1.576,1.072a.288.288,0,0,1-.233.05c-.054-.029-.081-.143-.086-.222-.012-.2,0-.4,0-.623-.155.009-.3.011-.442.025a5.738,5.738,0,0,0-5.139,4.878,5.521,5.521,0,0,0,2.3,5.41.494.494,0,0,1,.089.8.469.469,0,0,1-.607,0A6.576,6.576,0,0,1-88.365,622a6.611,6.611,0,0,1,2.3-8.663,6.751,6.751,0,0,1,3.437-1.08c.024,0,.048,0,.092-.009,0-.214-.008-.428,0-.641a.8.8,0,0,1,.091-.231Z"/>
    <path id="Tracé_517" data-name="Tracé 517" d="M-54.6,636.94c0,.226.007.437,0,.646a.266.266,0,0,1-.085.2.245.245,0,0,1-.208-.032c-.556-.373-1.107-.753-1.659-1.132-.146-.1-.146-.211,0-.312.551-.38,1.1-.759,1.659-1.132a.246.246,0,0,1,.209-.032.267.267,0,0,1,.084.2c.011.209,0,.419,0,.657.242-.023.474-.034.7-.067a5.71,5.71,0,0,0,4.818-4.53,5.537,5.537,0,0,0-2.24-5.73.552.552,0,0,1-.259-.372.449.449,0,0,1,.22-.462.452.452,0,0,1,.535.022,6.444,6.444,0,0,1,1.352,1.272,6.634,6.634,0,0,1-3.048,10.433,6.622,6.622,0,0,1-1.979.372C-54.523,636.934-54.551,636.937-54.6,636.94Z" transform="translate(-27.698 -11.41)"/>
    <path id="Tracé_518" data-name="Tracé 518" d="M-63.311,651.072l1.008-.834q1.044-.865,2.087-1.731a.755.755,0,0,1,1.085.084.746.746,0,0,1-.1,1.072c-.72.608-1.448,1.207-2.174,1.808-.467.386-.932.774-1.4,1.154a.931.931,0,0,1-1.244-.045,1.077,1.077,0,0,1-.117-.131c-.364-.484-.732-.966-1.09-1.454a.754.754,0,0,1,.407-1.194.751.751,0,0,1,.8.291C-63.8,650.413-63.562,650.738-63.311,651.072Z" transform="translate(-20.228 -31.508)"/>
  </g>
</svg>
