<svg xmlns="http://www.w3.org/2000/svg" width="23.044" height="23.831" viewBox="0 0 23.044 23.831">
  <g id="Groupe_356" data-name="Groupe 356" transform="translate(-220.653 -521.628)">
    <path id="Tracé_275" data-name="Tracé 275" d="M235.631,533.956c.619.311,1.238.6,1.835.93a1.018,1.018,0,0,1,.5,1.162,1.056,1.056,0,0,1-1.612.638,9.264,9.264,0,0,0-2.333-1,8.752,8.752,0,0,0-10.9,7.082c-.067.447-.079.9-.111,1.355a1.065,1.065,0,0,1-1.42,1,1.044,1.044,0,0,1-.7-1.012,10.9,10.9,0,0,1,6.7-9.99c.038-.016.073-.037.125-.064a6.652,6.652,0,0,1-2.808-5.816,6.45,6.45,0,0,1,2.063-4.5,6.7,6.7,0,1,1,8.649,10.214Zm-8.616-5.369a4.594,4.594,0,1,0,4.594-4.6A4.581,4.581,0,0,0,227.015,528.587Z" stroke="#fff" stroke-width="0.5"/>
    <path id="Tracé_276" data-name="Tracé 276" d="M256.4,560.6c-.642-.639-1.276-1.254-1.891-1.888a1.056,1.056,0,1,1,1.52-1.464c.61.616,1.221,1.23,1.852,1.867.077-.072.142-.129.2-.19.573-.572,1.141-1.148,1.718-1.715a1.059,1.059,0,0,1,1.807.824,1.137,1.137,0,0,1-.369.734c-.545.541-1.086,1.086-1.632,1.626a2.6,2.6,0,0,1-.234.182c.095.1.154.166.216.228.549.549,1.1,1.1,1.647,1.646a1.056,1.056,0,0,1,.05,1.546,1.067,1.067,0,0,1-1.547-.049c-.609-.6-1.214-1.214-1.839-1.84-.071.067-.135.126-.2.188-.573.571-1.142,1.147-1.72,1.713a1.034,1.034,0,0,1-1.188.215,1.058,1.058,0,0,1-.613-1.019,1.109,1.109,0,0,1,.358-.739c.558-.552,1.111-1.108,1.665-1.662C256.26,560.748,256.315,560.688,256.4,560.6Z" transform="translate(-18.211 -19.166)" stroke="#fff" stroke-width="0.5"/>
  </g>
</svg>
