<svg xmlns="http://www.w3.org/2000/svg" width="14.128" height="14.463" viewBox="0 0 14.128 14.463">
  <g id="Groupe_614" data-name="Groupe 614" transform="translate(337.161 -392.428)">
    <path id="Tracé_508" data-name="Tracé 508" d="M-326.739,392.428a3.332,3.332,0,0,1,.6.254,1.2,1.2,0,0,1,.535,1.049q0,3.043,0,6.087a.687.687,0,0,1-.008.071c-.038-.02-.068-.038-.1-.052-.264-.12-.524-.25-.794-.354a.157.157,0,0,1-.124-.177q0-2.74,0-5.48c0-.3-.079-.374-.379-.374h-8.742c-.31,0-.389.077-.389.381q0,5.494,0,10.987a.956.956,0,0,0,.016.182.228.228,0,0,0,.213.193,1.484,1.484,0,0,0,.183.005q4.336,0,8.671,0c.215,0,.43-.017.646-.02a.176.176,0,0,1,.1.054c.113.107.218.221.332.327a.117.117,0,0,1,.031.158.779.779,0,0,1-.683.493c-.117.01-.235.018-.352.018h-8.784a1.339,1.339,0,0,1-1.136-.515,1.358,1.358,0,0,1-.266-.859q0-2.457,0-4.915,0-3.072,0-6.143a1.283,1.283,0,0,1,.743-1.244,2.659,2.659,0,0,1,.414-.128Z" transform="translate(0 0)"/>
    <path id="Tracé_509" data-name="Tracé 509" d="M-302.191,429.646c-.028-.031-.054-.064-.083-.094q-1.178-1.179-2.354-2.358a.172.172,0,0,0-.238-.046,2.276,2.276,0,0,1-3.275-2.033,2.288,2.288,0,0,1,2.016-2.277,2.278,2.278,0,0,1,2.5,1.805,2.232,2.232,0,0,1-.192,1.468.147.147,0,0,0,.034.2q1.177,1.169,2.348,2.344c.036.036.08.066.129.105l-.853.88ZM-304.5,425.1a1.362,1.362,0,0,0-1.36-1.352,1.371,1.371,0,0,0-1.351,1.363,1.349,1.349,0,0,0,1.356,1.337A1.343,1.343,0,0,0-304.5,425.1Z" transform="translate(-21.723 -22.755)"/>
    <path id="Tracé_510" data-name="Tracé 510" d="M-329.366,417.866v-1.025h6.438v1.025Z" transform="translate(-5.835 -18.274)"/>
    <path id="Tracé_511" data-name="Tracé 511" d="M-322.943,405.118c0,.312,0,.608,0,.9,0,.037,0,.074-.008.121H-329.4c0-.308,0-.608,0-.908,0-.036.005-.073.009-.117Z" transform="translate(-5.812 -9.499)"/>
  </g>
</svg>
